<?xml version="1.0" standalone="no"?>
<!DOCTYPE svg PUBLIC "-//W3C//DTD SVG 1.1//EN" "http://www.w3.org/Graphics/SVG/1.1/DTD/svg11.dtd" >
<svg>
<metadata>
Created by FontForge 20090914 at Tue Jul  6 10:16:28 2021
 By www-data
Copyright 1990-1998 Bitstream Inc.  All rights reserved.
</metadata>
<defs>
<font id="Swiss721BT-BlackOutline" horiz-adv-x="1024" >
  <font-face 
    font-family="Swis721 BlkOul BT"
    font-weight="400"
    font-stretch="normal"
    units-per-em="2048"
    panose-1="4 2 9 5 3 11 3 4 2 3"
    ascent="1556"
    descent="-492"
    x-height="1087"
    cap-height="1473"
    bbox="-342 -483 3027 1976"
    underline-thickness="297"
    underline-position="-98"
    unicode-range="U+0020-U+F002"
  />
<missing-glyph horiz-adv-x="1229" 
d="M102 -362v1806h1024v-1806h-1024zM217 -248h795v1577h-795v-1577z" />
    <glyph glyph-name=".notdef" horiz-adv-x="1229" 
d="M102 -362v1806h1024v-1806h-1024zM217 -248h795v1577h-795v-1577z" />
    <glyph glyph-name="space" unicode=" " horiz-adv-x="674" 
 />
    <glyph glyph-name="exclam" unicode="!" horiz-adv-x="768" 
d="M305 573h156l90 510v340h-334v-340zM221 47h326v311h-326v-311zM264 526l-100 578v369h440v-369l-100 -578h-240zM168 0v406h432v-406h-432z" />
    <glyph glyph-name="quotedbl" unicode="&#x22;" horiz-adv-x="530" 
d="M358 1434h70v-553h-70v553zM102 1434h70v-553h-70v553z" />
    <glyph glyph-name="numbersign" unicode="#" horiz-adv-x="1575" 
d="M709 870l-101 -290h273l100 290h-272zM819 1452h96l-180 -508h275l180 508h94l-178 -508h326l-23 -74h-332l-102 -290h356l-22 -74h-359l-178 -504h-96l180 504h-276l-181 -504h-94l178 504h-340l23 74h342l106 290h-372l22 74h375z" />
    <glyph glyph-name="dollar" unicode="$" horiz-adv-x="1346" 
d="M375 420l-271 -0.000976562c11.333 -126 62 -223 152 -291s215 -104.333 375 -109v-165h92v165c166.667 4.66699 294.667 41.667 384 111s134 166.333 134 291c0 112.667 -37.667 201.5 -113 266.5s-210.333 121.5 -405 169.5v391c75.333 -3.33301 132.333 -20 171 -50
s62.334 -75.333 71.001 -136h249c-16.667 114.667 -66.834 202.167 -150.501 262.5s-197.167 91.833 -340.5 94.5v155h-92v-154c-158.667 -4 -283 -41.167 -373 -111.5s-135 -164.833 -135 -283.5c0 -108.667 37.833 -194 113.5 -256s207.167 -113.333 394.5 -154v-415h-8
c-82 0 -142.167 16.833 -180.5 50.5s-60.833 89.834 -67.5 168.501zM776 1456c150.667 -4 269.665 -45.0029 356.998 -123.003s133 -183.667 137 -317h-350c-3.33301 56 -16.833 99 -40.5 129s-58.167 47.667 -103.5 53v-307c188 -46.667 321 -105.334 399 -176.001
s117 -166.334 117 -287.001c0 -137.333 -43.167 -243.666 -129.5 -318.999s-215.166 -119.333 -386.499 -132v-170h-198v170c-166.667 8.66699 -295.667 55.334 -387 140.001s-137.666 201.334 -138.999 350.001h368c4 -75.333 18 -129.166 42 -161.499
s62.333 -50.833 115 -55.5l1 330c-180.667 41.333 -310.167 96.5 -388.5 165.5s-117.5 161.167 -117.5 276.5c0 124 45.667 225.333 137 304s214.333 121.334 369 128.001v168h198v-166zM722.998 198.996v393.001c96 -25.333 163.333 -53.833 202 -85.5
s58 -72.834 58 -123.501c0 -56 -22.333 -99.667 -67 -131s-109 -49 -193 -53zM630.998 880.997c-99.333 23.333 -165.5 48.333 -198.5 75s-49.5 65 -49.5 115c0 56 21.167 99.167 63.5 129.5s103.833 46.5 184.5 48.5v-368zM577.998 943.997l0.000976562 257.999
c-50 -5.33301 -86.5 -18.666 -109.5 -39.999s-34.5 -52.333 -34.5 -93c0 -32 11.667 -58.167 35 -78.5s59.666 -35.833 108.999 -46.5zM776.999 251.996c48.667 3.33301 86.333 16.5 113 39.5s40 54.167 40 93.5c0 36 -11.5 64.833 -34.5 86.5s-62.833 41.167 -119.5 58.5z
" />
    <glyph glyph-name="percent" unicode="%" horiz-adv-x="2087" 
d="M705 6l772 1424h-97l-770 -1424h95zM1378 403c0 60.667 20.833 111.667 62.5 153s92.5 62 152.5 62c60.667 0 112 -20.833 154 -62.5s63 -92.5 63 -152.5c0 -58.667 -21.167 -109.5 -63.5 -152.5s-93.5 -64.5 -153.5 -64.5s-110.833 21 -152.5 63s-62.5 93.333 -62.5 154
zM1198 403c0 -110.667 38.333 -204.5 115 -281.5s170 -115.5 280 -115.5c108 0 201.333 39.167 280 117.5s118 171.5 118 279.5c0 109.333 -39.167 203 -117.5 281s-171.833 117 -280.5 117c-110.667 0 -204.167 -38.333 -280.5 -115s-114.5 -171 -114.5 -283zM274 1032
c0 60.667 20.833 111.667 62.5 153s92.5 62 152.5 62c60.667 0 112.167 -21 154.5 -63s63.5 -92.667 63.5 -152c0 -58.667 -21.333 -109.5 -64 -152.5s-94 -64.5 -154 -64.5s-110.833 21 -152.5 63s-62.5 93.333 -62.5 154zM96 1032
c0 -110.667 38.3311 -204.5 114.998 -281.5s170.334 -115.5 281.001 -115.5c108 0 201.167 39.167 279.5 117.5s117.5 171.5 117.5 279.5c0 108.667 -39.167 202.167 -117.5 280.5s-171.5 117.5 -279.5 117.5c-111.333 0 -205.166 -38.5 -281.499 -115.5
s-114.5 -171.167 -114.5 -282.5zM1425 403c0 -47.333 16.168 -87 48.501 -119s72.166 -48 119.499 -48s87.5 16.333 120.5 49s49.5 72 49.5 118c0 46.667 -16.667 86.667 -50 120s-73.333 50 -120 50c-46 0 -85.5 -16.5 -118.5 -49.5s-49.5 -73.167 -49.5 -120.5zM1151 403
c0 124.667 42.667 229.998 128 315.998s190 129 314 129c121.333 0 225.833 -43.667 313.5 -131s131.5 -192 131.5 -314c0 -121.333 -43.667 -225.666 -131 -312.999s-192 -131 -314 -131c-124.667 0 -229.5 42.833 -314.5 128.5s-127.5 190.834 -127.5 315.501z
M529.999 -41.002l822 1518h202l-821 -1518h-203zM321.999 1032c0 -47.333 16.333 -87.168 49 -119.501s73 -48.5 121 -48.5c46.667 0 86.167 16.333 118.5 49s48.5 72.334 48.5 119.001c0 47.333 -16.333 87.5 -49 120.5s-72 49.5 -118 49.5
c-46.667 0 -86.667 -16.667 -120 -50s-50 -73.333 -50 -120zM46.999 1032c0 124.667 42.998 229.999 128.998 315.999s191.333 129 316 129c120.667 0 224.834 -43.667 312.501 -131s131.5 -192 131.5 -314s-43.667 -226.5 -131 -313.5s-191.666 -130.5 -312.999 -130.5
c-125.333 0 -230.833 42.833 -316.5 128.5s-128.5 190.834 -128.5 315.501z" />
    <glyph glyph-name="ampersand" unicode="&#x26;" horiz-adv-x="1731" 
d="M770 907c-59.333 38 -102.498 75.333 -129.498 112s-40.5 76 -40.5 118c0 52.667 16.167 93 48.5 121s78.166 42 137.499 42c60 0 107.833 -15.333 143.5 -46s53.5 -72.667 53.5 -126c0 -49.333 -17.333 -92 -52 -128s-88.334 -67 -161.001 -93zM1229 0l-123.002 126.997
c-74 -56.667 -153.167 -98.834 -237.5 -126.501s-175.833 -41.5 -274.5 -41.5c-156.667 0 -278.834 39 -366.501 117s-131.5 185.667 -131.5 323c0 102 25 188.5 75 259.5s130.333 134.167 241 189.5c-46.667 42 -81 85.833 -103 131.5s-33 95.167 -33 148.5
c0 121.333 43.833 215.833 131.5 283.5s209.834 101.5 366.501 101.5c156 0 279 -37.167 369 -111.5s135 -176.166 135 -305.499c0 -81.333 -19.833 -152.166 -59.5 -212.499s-101.167 -113.166 -184.5 -158.499l125 -131c20.667 18 39.334 37.167 56.001 57.5
s33 44.166 49 71.499h387c-31.333 -67.333 -68.166 -131.666 -110.499 -192.999s-91.5 -120.666 -147.5 -177.999l340 -352h-504zM1102 196.997l148.999 -149.998h371l-291 303c52.667 45.333 99.5 94.833 140.5 148.5s76.833 112.167 107.5 175.5h-299
c-9.33301 -18 -22.666 -37.333 -39.999 -58s-44.333 -49.334 -81 -86.001l-196 203c91.333 47.333 157.833 99.666 199.5 156.999s62.5 125.333 62.5 204c0 115.333 -40 206.166 -120 272.499s-189.667 99.5 -329 99.5c-141.333 0 -251 -30 -329 -90s-117 -144 -117 -252
c0 -51.333 11.667 -98.666 35 -141.999s63.333 -90.666 120 -141.999c-121.333 -59.333 -208.333 -122.833 -261 -190.5s-79 -149.834 -79 -246.501c0 -122.667 40 -219.5 120 -290.5s190.333 -106.5 331 -106.5c98 0 190.333 16.333 277 49s163 80 229 142z
M931.999 370.999c-42.667 -42 -87.999 -73.333 -135.999 -94s-98.333 -31 -151 -31c-58.667 0 -105 14.333 -139 43s-51 67.667 -51 117c0 48 17.667 92 53 132s88.666 76.333 159.999 109zM774 957.999c57.333 20.667 98.667 44.167 124 70.5s38 58.833 38 97.5
s-13.5 69.5 -40.5 92.5s-63.5 34.5 -109.5 34.5c-43.333 0 -77 -10.5 -101 -31.5s-36 -50.5 -36 -88.5c0 -32.667 9.66699 -62.5 29 -89.5s51.333 -55.5 96 -85.5zM868.001 372.999l-212.997 221.002c-49.333 -23.333 -86.5 -50.333 -111.5 -81
s-37.5 -64.334 -37.5 -101.001c0 -38 13.167 -68 39.5 -90s62.166 -33 107.499 -33c37.333 0 74.666 7.16699 111.999 21.5s71.666 35.166 102.999 62.499z" />
    <glyph glyph-name="quotesingle" unicode="'" horiz-adv-x="274" 
d="M102 1434h70v-553h-70v553z" />
    <glyph glyph-name="parenleft" unicode="(" horiz-adv-x="844" 
d="M418 -362c-74 170.667 -129.332 332.167 -165.999 484.5s-55 296.5 -55 432.5c0 130.667 17.333 268.5 52 413.5s91 312.167 169 501.5h358c-64.667 -170 -111.834 -328.667 -141.501 -476s-44.5 -293.666 -44.5 -438.999c0 -146.667 15 -294.334 45 -443.001
s77 -306.667 141 -474h-358zM709.001 1423l-258.001 -0.000976562c-69.333 -170 -120.166 -325.333 -152.499 -466s-48.5 -274.667 -48.5 -402c0 -132 16.5 -270.667 49.5 -416s82.833 -296.666 149.5 -453.999h260c-58 152.667 -100.833 300.167 -128.5 442.5
s-41.5 284.833 -41.5 427.5c0 141.333 13.833 282.833 41.5 424.5s70.5 289.5 128.5 443.5z" />
    <glyph glyph-name="parenright" unicode=")" horiz-adv-x="844" 
d="M76 -362c64 169.333 111 328 141 476s45 295 45 441s-15 293 -45 441s-77 306 -141 474h358c74 -170.667 129.333 -332 166 -484s55 -295.667 55 -431c0 -131.333 -17.5 -270 -52.5 -416s-91.167 -313 -168.5 -501h-358zM143 -313h258.002
c69.333 170.667 120.166 326 152.499 466s48.5 274 48.5 402c0 131.333 -16.5 269.333 -49.5 414s-82.833 296 -149.5 454h-258c57.333 -150.667 99.666 -297 126.999 -439s41 -285 41 -429c0 -141.333 -13.833 -282.833 -41.5 -424.5s-70.5 -289.5 -128.5 -443.5z" />
    <glyph glyph-name="asterisk" unicode="*" 
d="M326 657l186 267l178 -262l125 86l-205 256l295 75l-47 144l-283 -95v295h-133v-301l-284 105l-45 -146l290 -80l-204 -253zM510 840l-172 -250l-203 147l189 238l-271 76l78 237l260 -92v277h238v-277l260 92l78 -239l-273 -72l191 -240l-205 -147z" />
    <glyph glyph-name="plus" unicode="+" horiz-adv-x="1706" 
d="M823 1221h62v-580h567v-61h-567v-580h-62v580h-569v61h569v580z" />
    <glyph glyph-name="comma" unicode="," horiz-adv-x="674" 
d="M502 41l0.000976562 351.999h-330v-330h195c0 -4 0.333008 -9.83301 1 -17.5s1 -13.167 1 -16.5c0 -70.667 -15.833 -124.834 -47.5 -162.501s-81.5 -62.167 -149.5 -73.5v-110c117.333 20.667 201.666 58.834 252.999 114.501s77 136.834 77 243.501zM553.001 7.99902
c0 -108 -37.833 -194.668 -113.5 -260.001s-182.5 -103.666 -320.5 -114.999v191c71.333 11.333 122.5 31.833 153.5 61.5s46.5 72.5 46.5 128.5h-200v428h434v-434z" />
    <glyph glyph-name="hyphen" unicode="-" horiz-adv-x="717" 
d="M154 406h409v290h-409v-290zM100 358v385h516v-385h-516z" />
    <glyph glyph-name="period" unicode="." horiz-adv-x="674" 
d="M172 47h330v346h-330v-346zM119 0v442h434v-442h-434z" />
    <glyph glyph-name="slash" unicode="/" horiz-adv-x="692" 
d="M139 -143l516 1607h-82l-518 -1607h84zM176 -190h-184l545 1701h184z" />
    <glyph glyph-name="zero" unicode="0" horiz-adv-x="1346" 
d="M920 719c0 -173.333 -19 -295.168 -57 -365.501s-101.667 -105.5 -191 -105.5c-90 0 -154.167 35.833 -192.5 107.5s-57.5 192.834 -57.5 363.501s19.333 292.167 58 364.5s102.667 108.5 192 108.5c88.667 0 152.167 -35.667 190.5 -107s57.5 -193.333 57.5 -366z
M96 718.998c0 -232.667 49.167 -409.667 147.5 -531s241.833 -182 430.5 -182s332 60.5 430 181.5s147 298.167 147 531.5s-48.833 410.5 -146.5 531.5s-241.167 181.5 -430.5 181.5c-188.667 0 -332.167 -60.5 -430.5 -181.5s-147.5 -298.167 -147.5 -531.5zM868 718.998
c0 157.333 -15 267.666 -45 330.999s-80.333 95 -151 95c-71.333 0 -122 -31.667 -152 -95s-45 -173.666 -45 -330.999s15 -267.333 45 -330s80.667 -94 152 -94c70.667 0 121 31.333 151 94s45 172.667 45 330zM43 718.998c0 248.667 53.3311 437.167 159.998 565.5
s263 192.5 469 192.5c206.667 0 363.834 -64.167 471.501 -192.5s161.5 -316.833 161.5 -565.5c0 -249.333 -53.667 -438.333 -161 -567s-264.666 -193 -471.999 -193c-206 0 -362.333 64.667 -469 194s-160 318 -160 566z" />
    <glyph glyph-name="one" unicode="1" horiz-adv-x="1346" 
d="M258 1087v-204h324v-836h315v1342h-227c-16.667 -94.667 -58.5 -166.5 -125.5 -215.5s-162.5 -77.833 -286.5 -86.5zM530 0l-0.00195312 836h-323v298c134.667 3.33301 233.334 27.5 296.001 72.5s103.334 121.5 122.001 229.5h325v-1436h-420z" />
    <glyph glyph-name="two" unicode="2" horiz-adv-x="1346" 
d="M55 0l-0.00195312 30.999c0 104 31.333 201.833 94 293.5s165.334 188.167 308.001 289.5c34.667 24.667 83.667 57 147 97c156 97.333 234 184 234 260c0 56.667 -15.667 101.167 -47 133.5s-73.666 48.5 -126.999 48.5c-67.333 0 -117.666 -21.5 -150.999 -64.5
s-50 -108.167 -50 -195.5v-25h-381c0 5.33301 -0.333008 13 -1 23s-1 17.333 -1 22c0 174.667 54 312.334 162 413.001s256 151 444 151c172.667 0 310.667 -42.5 414 -127.5s155 -197.5 155 -337.5c0 -168.667 -120.667 -324.667 -362 -468l-37 -22l-32 -19l-152 -95
c-24.667 -16.667 -45.167 -31 -61.5 -43s-30.5 -23 -42.5 -33c15.333 6.66699 31.166 11.667 47.499 15s33.833 5 52.5 5h583v-352h-1196zM110.998 46.999l1089 -0.000976562v258h-721c28 30 63.833 62.167 107.5 96.5s91.167 67.833 142.5 100.5l130 78
c90.667 54 149 91.333 175 112c62.667 48 105.667 94.333 129 139s35 100 35 166c0 133.333 -46.167 238.833 -138.5 316.5s-217.5 116.5 -375.5 116.5c-165.333 0 -298.166 -45.833 -398.499 -137.5s-150.5 -213.167 -150.5 -364.5v-13h283
c0 92.667 20.833 163.334 62.5 212.001s102.167 73 181.5 73c68.667 0 124 -20 166 -60s63 -93 63 -159c0 -28.667 -4 -54.5 -12 -77.5s-20.333 -45.5 -37 -67.5c-29.333 -40 -92.333 -89.833 -189 -149.5s-164.667 -104.167 -204 -133.5
c-114.667 -84 -199.5 -167.167 -254.5 -249.5s-82.833 -167.833 -83.5 -256.5z" />
    <glyph glyph-name="three" unicode="3" horiz-adv-x="1346" 
d="M68 508l392.001 0.000976562c2.66699 -71.333 20.667 -124.333 54 -159s83.333 -52 150 -52c58 0 102.5 14.333 133.5 43s46.5 70.334 46.5 125.001c0 55.333 -18.333 95.5 -55 120.5s-96.334 37.5 -179.001 37.5h-35v247h29c76.667 0 134.167 12.333 172.5 37
s57.5 61.667 57.5 111c0 43.333 -13.667 76.333 -41 99s-67 34 -119 34c-58.667 0 -103 -13 -133 -39s-47.333 -65.667 -52 -119h-386c1.33301 144 55.5 260.667 162.5 350s246.5 134 418.5 134c166.667 0 299.5 -38.167 398.5 -114.5s148.5 -177.5 148.5 -303.5
c0 -74.667 -18 -136.5 -54 -185.5s-86.333 -80.833 -151 -95.5c75.333 -12.667 134.5 -48 177.5 -106s64.5 -131.667 64.5 -221c0 -152.667 -54.833 -272.834 -164.5 -360.501s-260.5 -131.5 -452.5 -131.5c-177.333 0 -318.833 46.667 -424.5 140
s-158.5 218.666 -158.5 375.999v33zM623.001 825.001l0.00390625 -159c93.333 0 162.333 -16.333 207 -49s67 -82.667 67 -150c0 -68 -20.333 -121.167 -61 -159.5s-97.334 -57.5 -170.001 -57.5c-76.667 0 -136.667 17.667 -180 53s-69.333 88 -78 158h-285v-8
c0 -132.667 48.833 -240.334 146.5 -323.001s225.5 -124 383.5 -124c175.333 0 312.666 40 411.999 120s149 189.667 149 329c0 81.333 -23 149 -69 203s-114.333 93.333 -205 118c80 26 139.667 61.833 179 107.5s59 102.834 59 171.501c0 116 -44 207.5 -132 274.5
s-209.333 100.5 -364 100.5c-150 0 -271.333 -34.333 -364 -103s-146 -163.667 -160 -285h288c11.333 50.667 36.666 89 75.999 115s91.333 39 156 39c66.667 0 118.167 -15.167 154.5 -45.5s54.5 -73.166 54.5 -128.499c0 -60.667 -21.833 -107.334 -65.5 -140.001
s-109.834 -51.667 -198.501 -57z" />
    <glyph glyph-name="four" unicode="4" horiz-adv-x="1346" 
d="M258 578l516 600v-600h-516zM764 47h305v299h170v232h-170v811h-313l-652 -758v-285h660v-299zM340 616c13.333 2.66699 26.001 4.83105 38.001 6.49805s22.667 2.5 32 2.5h311v385c0 9.33301 1.66699 20.333 5 33s8.33301 26 15 40c-7.33301 -14 -14.833 -27 -22.5 -39
s-13.834 -20 -18.501 -24l-295 -357c-6 -7.33301 -14.833 -15.166 -26.5 -23.499s-24.5 -16.166 -38.5 -23.499zM711.001 -0.00292969v299h-660v348l672 789h397v-811h170v-326h-170v-299h-409z" />
    <glyph glyph-name="five" unicode="5" horiz-adv-x="1346" 
d="M43 381l415.999 40.999c16 -43.333 40.167 -76 72.5 -98s72.166 -33 119.499 -33c62 0 111 17.333 147 52s54 81.334 54 140.001c0 61.333 -17.5 110.5 -52.5 147.5s-80.833 55.5 -137.5 55.5c-34.667 0 -66.5 -6.83301 -95.5 -20.5s-53.167 -33.5 -72.5 -59.5l-392 33
l142 797h913v-346h-622l-35 -162c-1.33301 -6 -7.66602 -22.333 -18.999 -49l-3 -8c36 26 80 46 132 60s108.667 21 170 21c148.667 0 267.834 -41.667 357.501 -125s134.5 -194.333 134.5 -333c0 -168 -55 -299.167 -165 -393.5s-263.333 -141.5 -460 -141.5
c-162.667 0 -297 37.167 -403 111.5s-173 177.833 -201 310.5zM419.999 372.999l-306.999 -32.999c34.667 -105.333 97.834 -187 189.501 -245s203.167 -87 334.5 -87c185.333 0 328.666 42.333 429.999 127s152 203.667 152 357c0 124 -40.667 223.833 -122 299.5
s-187.666 113.5 -318.999 113.5c-63.333 0 -123.333 -8.66699 -180 -26s-112.667 -44 -168 -80l59 340h615v250h-815l-127 -707l303 -25c26 25.333 55.333 44.333 88 57s69 19 109 19c73.333 0 132.166 -22.667 176.499 -68s66.5 -106 66.5 -182
c0 -72.667 -23.167 -130.667 -69.5 -174s-107.833 -65 -184.5 -65c-52 0 -97.333 10.667 -136 32s-70.334 53.666 -95.001 96.999z" />
    <glyph glyph-name="six" unicode="6" horiz-adv-x="1346" 
d="M432 750c0 6 -0.333008 14.668 -1 26.001s-1 19.666 -1 24.999c0 140 24.333 245.667 73 317s120.667 107 216 107c49.333 0 91.333 -10 126 -30s59.667 -48.333 75 -85l280 12c-30 96 -89 170.833 -177 224.5s-195 80.5 -321 80.5
c-182.667 0 -326.834 -63.167 -432.501 -189.5s-158.5 -299.833 -158.5 -520.5c0 -231.333 51 -407 153 -527s251 -180 447 -180c161.333 0 291 42.5 389 127.5s147 196.833 147 335.5c0 126 -41.833 228.5 -125.5 307.5s-191.834 118.5 -324.501 118.5
c-71.333 0 -137.166 -12.333 -197.499 -37s-116.166 -62 -167.499 -112zM471 831.001c40 39.333 87.668 68.666 143.001 87.999s118.333 29 189 29c150 0 270 -42.833 360 -128.5s135 -199.834 135 -342.501c0 -159.333 -52.667 -285.166 -158 -377.499
s-249.666 -138.5 -432.999 -138.5c-214 0 -375.5 63.333 -484.5 190s-163.5 314.667 -163.5 564c0 239.333 57 425.833 171 559.5s273 200.5 477 200.5c151.333 0 277.166 -35.5 377.499 -106.5s163.5 -168.833 189.5 -293.5l-397 -14c-11.333 38.667 -31 67.834 -59 87.501
s-63.667 29.5 -107 29.5c-68.667 0 -120.834 -24.833 -156.501 -74.5s-63.5 -140.5 -83.5 -272.5zM498.001 479.001c0 -60 16.833 -107.335 50.5 -142.002s80.167 -52 139.5 -52c58 0 104 17.333 138 52s51 81.334 51 140.001c0 60.667 -16.833 108.334 -50.5 143.001
s-79.167 52 -136.5 52c-58 0 -104.5 -17.5 -139.5 -52.5s-52.5 -81.833 -52.5 -140.5zM444.001 476.999c0 72 22.832 130.333 68.499 175s104.834 67 177.501 67c73.333 0 131.333 -21.5 174 -64.5s64 -102.167 64 -177.5c0 -73.333 -21.333 -131.5 -64 -174.5
s-100.667 -64.5 -174 -64.5c-76 0 -136 21.333 -180 64s-66 101 -66 175z" />
    <glyph glyph-name="seven" unicode="7" horiz-adv-x="1346" 
d="M375 47h379.002c13.333 228.667 55.333 431.334 126 608.001s174 339.334 310 488.001v246h-1045v-261h756c-164.667 -172.667 -288.834 -345.334 -372.501 -518.001s-134.834 -360.334 -153.501 -563.001zM317.002 0c17.333 210 63.668 400.666 139.001 571.999
s187.666 341 336.999 509h-701v355h1149v-314c-137.333 -140 -241.833 -301.667 -313.5 -485s-113.167 -395.666 -124.5 -636.999h-486z" />
    <glyph glyph-name="eight" unicode="8" horiz-adv-x="1346" 
d="M295 760c-66.667 27.333 -116.5 65.5 -149.5 114.5s-49.5 109.167 -49.5 180.5c0 130 51 232.5 153 307.5s242.333 112.5 421 112.5s318.834 -37.5 420.501 -112.5s152.5 -177.5 152.5 -307.5c0 -70.667 -16.5 -130 -49.5 -178s-84.167 -87 -153.5 -117
c84.667 -31.333 147.167 -74 187.5 -128s60.5 -122.667 60.5 -206c0 -147.333 -53.833 -261.333 -161.5 -342s-259.834 -121 -456.501 -121c-197.333 0 -349.833 40.333 -457.5 121s-161.5 194.667 -161.5 342c0 81.333 20 149.333 60 204s101.333 98 184 130zM485 1028
c0 -50 16.167 -88.833 48.5 -116.5s77.833 -41.5 136.5 -41.5c58 0 102.833 13.833 134.5 41.5s47.5 66.5 47.5 116.5c0 43.333 -17 79.166 -51 107.499s-77.667 42.5 -131 42.5c-54 0 -98.333 -14.167 -133 -42.5s-52 -64.166 -52 -107.499zM473 451
c0 -56.667 17 -100.333 51 -131s82.667 -46 146 -46c62.667 0 111 15.5 145 46.5s51 74.5 51 130.5c0 57.333 -17.333 102.333 -52 135s-82.667 49 -144 49s-109.5 -16.333 -144.5 -49s-52.5 -77.667 -52.5 -135zM420 451.001c0 71.333 22.333 127.669 67 169.002
s105.667 62 183 62c76 0 136.667 -20.833 182 -62.5s68 -97.834 68 -168.501c0 -68.667 -22.333 -122.834 -67 -162.501s-105.667 -59.5 -183 -59.5c-79.333 0 -140.833 19.5 -184.5 58.5s-65.5 93.5 -65.5 163.5zM434 1024c0 58.667 22 106.5 66 143.5
s100.667 55.5 170 55.5c68 0 124.167 -18.667 168.5 -56s66.5 -83.666 66.5 -138.999c0 -62.667 -21.167 -112.5 -63.5 -149.5s-99.5 -55.5 -171.5 -55.5c-72.667 0 -130.167 18.167 -172.5 54.5s-63.5 85.166 -63.5 146.499zM383 762.004
c-101.333 -44 -173.167 -92.001 -215.5 -144.001s-63.5 -117.333 -63.5 -196c0 -130 49.333 -230.833 148 -302.5s238 -107.5 418 -107.5c178.667 0 317.5 36 416.5 108s148.5 172.667 148.5 302c0 79.333 -22.5 146.166 -67.5 200.499s-116.833 100.833 -215.5 139.5
c80.667 30.667 140.5 70.167 179.5 118.5s58.5 106.5 58.5 174.5c0 114.667 -46.333 205 -139 271s-219.667 99 -381 99c-163.333 0 -290.833 -32.833 -382.5 -98.5s-137.5 -156.167 -137.5 -271.5c0 -67.333 17.833 -123.666 53.5 -168.999s95.5 -86.666 179.5 -123.999z
" />
    <glyph glyph-name="nine" unicode="9" horiz-adv-x="1346" 
d="M840 958c0 60.667 -16.999 108.335 -50.999 143.002s-80.667 52 -140 52c-58 0 -103.833 -17.333 -137.5 -52s-50.5 -81.334 -50.5 -140.001c0 -60.667 16.667 -108.334 50 -143.001s78.666 -52 135.999 -52c58.667 0 105.5 17.5 140.5 52.5s52.5 81.5 52.5 139.5z
M893.001 961.001c0 -72 -22.834 -130.333 -68.501 -175s-104.834 -67 -177.501 -67c-73.333 0 -131.166 21.5 -173.499 64.5s-63.5 102.167 -63.5 177.5c0 73.333 21.333 131.5 64 174.5s100.334 64.5 173.001 64.5c76 0 136 -21.333 180 -64s66 -101 66 -175zM905 688.001
c0 -6 0.330078 -14.6689 0.99707 -26.002s1 -19.666 1 -24.999c0 -140 -24.333 -245.667 -73 -317s-120.667 -107 -216 -107c-49.333 0 -91.166 9.66699 -125.499 29s-59.166 47.333 -74.499 84l-281 -11c30 -95.333 89 -170 177 -224s195 -81 321 -81
c183.333 0 327.833 63.333 433.5 190s158.5 300.334 158.5 521.001c0 231.333 -51.167 406.833 -153.5 526.5s-251.166 179.5 -446.499 179.5c-162 0 -292 -42.667 -390 -128s-147 -197.333 -147 -336c0 -126 41.833 -228.5 125.5 -307.5s192.167 -118.5 325.5 -118.5
c70.667 0 136 12.5 196 37.5s116 62.833 168 113.5zM865.997 605.999c-40 -38.667 -87.501 -67.832 -142.501 -87.499s-117.833 -29.5 -188.5 -29.5c-150.667 0 -271 42.833 -361 128.5s-135 200.167 -135 343.5c0 158.667 52.667 284 158 376s250 138 434 138
c214 0 375.333 -63.167 484 -189.5s163 -313.833 163 -562.5c0 -239.333 -57 -425.833 -171 -559.5s-272.667 -200.5 -476 -200.5c-152 0 -278.167 35.5 -378.5 106.5s-163.5 168.5 -189.5 292.5l398 15c11.333 -38.667 30.833 -67.834 58.5 -87.501s63.5 -29.5 107.5 -29.5
c68.667 0 120.834 24.833 156.501 74.5s63.167 140.167 82.5 271.5z" />
    <glyph glyph-name="colon" unicode=":" horiz-adv-x="721" 
d="M197 694h327v346h-327v-346zM143 647v440h435v-440h-435zM143 0v442h435v-442h-435zM197 47h327v346h-327v-346z" />
    <glyph glyph-name="semicolon" unicode=";" horiz-adv-x="721" 
d="M143 647v440h435v-440h-435zM197 694h327v346h-327v-346zM524 41v351.998h-329v-330h196c0 -4 0.333008 -9.66699 1 -17s1 -13 1 -17c0 -70 -16 -124 -48 -162s-82 -62.667 -150 -74v-110c117.333 20.667 201.5 58.834 252.5 114.501s76.5 136.834 76.5 243.501z
M578 7.99805c0 -108 -37.8311 -194.668 -113.498 -260.001s-182.834 -103.666 -321.501 -114.999v191c71.333 11.333 122.666 31.833 153.999 61.5s47 72.5 47 128.5h-201v428h435v-434z" />
    <glyph glyph-name="less" unicode="&#x3c;" horiz-adv-x="1706" 
d="M1442 1112v-70l-1069 -432l1069 -432v-69l-1178 481v41z" />
    <glyph glyph-name="equal" unicode="=" horiz-adv-x="1706" 
d="M254 465h1198v-64h-1198v64zM254 819h1198v-63h-1198v63z" />
    <glyph glyph-name="greater" unicode="&#x3e;" horiz-adv-x="1706" 
d="M264 1112l1178 -481v-41l-1178 -481v69l1067 432l-1067 432v70z" />
    <glyph glyph-name="question" unicode="?" horiz-adv-x="1284" 
d="M438 525c-0.666992 8.66699 -1.16895 17.8311 -1.50195 27.498s-0.5 24.167 -0.5 43.5c0 76.667 10.833 138.167 32.5 184.5s56.5 83.833 104.5 112.5c19.333 10.667 47.333 24.334 84 41.001c87.333 39.333 131 84.333 131 135c0 37.333 -12.667 67.5 -38 90.5
s-59.666 34.5 -102.999 34.5c-49.333 0 -87.166 -14.667 -113.499 -44s-39.5 -71.333 -39.5 -126v-6h-431c8.66699 158 64 279.667 166 365s243.333 128 424 128c170.667 0 308 -39.5 412 -118.5s156 -182.167 156 -309.5c0 -136.667 -83.333 -249.667 -250 -339l-68 -37
c-36 -21.333 -59 -41.666 -69 -60.999s-15 -49 -15 -89v-33zM411.998 -0.00292969v406h430v-406h-430zM456.998 46.9971h338v311h-338v-311zM491.998 568.997l274.001 -0.00195312v21c0 35.333 6 63.333 18 84s32.667 39 62 55c16.667 10 41.334 23.667 74.001 41
c164.667 88.667 247 193 247 313c0 114.667 -46.833 206.834 -140.5 276.501s-218.834 104.5 -375.501 104.5c-158 0 -282.5 -34 -373.5 -102s-143.167 -166.333 -156.5 -295h325c6.66699 54.667 28.5 97.334 65.5 128.001s84.833 46 143.5 46
c56.667 0 102 -15.167 136 -45.5s51 -70.5 51 -120.5c0 -37.333 -8.83301 -68.333 -26.5 -93s-46.834 -46.667 -87.501 -66l-30 -14c-137.333 -62 -206 -153 -206 -273v-60z" />
    <glyph glyph-name="at" unicode="@" horiz-adv-x="2048" 
d="M1194 317c-31.333 -58 -72.6641 -103.826 -123.997 -137.493s-106.333 -50.5 -165 -50.5c-102.667 0 -180.834 27.5 -234.501 82.5s-80.5 135.5 -80.5 241.5c0 150.667 45 278.667 135 384s198.667 158 326 158c65.333 0 119.5 -14.667 162.5 -44
s74.833 -73.333 95.5 -132l61 135h66l-138 -546c-10.667 -42.667 -17.334 -71.5 -20.001 -86.5s-4 -26.5 -4 -34.5c0 -30 10.833 -53.167 32.5 -69.5s52.5 -24.5 92.5 -24.5c46.667 0 93.667 11 141 33s89.666 52.333 126.999 91c54 57.333 96.167 126.666 126.5 207.999
s45.5 165.666 45.5 252.999c0 180 -67.667 326 -203 438s-312 168 -530 168c-110.667 0 -213.667 -15.833 -309 -47.5s-181.333 -78.5 -258 -140.5c-105.333 -84.667 -185.333 -185.334 -240 -302.001s-82 -245.334 -82 -386.001c0 -218 74.167 -393 222.5 -525
s345.833 -198 592.5 -198c109.333 0 218.833 16.667 328.5 50s210.5 80.666 302.5 141.999l23 -34c-96 -71.333 -197.833 -125 -305.5 -161s-220.5 -54 -338.5 -54c-126.667 0 -241.5 15 -344.5 45s-193.5 75 -271.5 135c-100.667 76.667 -175.667 166 -225 268
s-74 218 -74 348c0 107.333 16.5 208.666 49.5 303.999s82.167 182.666 147.5 261.999c94.667 115.333 209.167 203.166 343.5 263.499s283.166 90.5 446.499 90.5c105.333 0 206 -14.667 302 -44s178.333 -70 247 -122c84.667 -65.333 148.834 -140.5 192.501 -225.5
s65.5 -177.167 65.5 -276.5c0 -110.667 -20.667 -212 -62 -304s-100.666 -168.667 -177.999 -230c-46 -36 -94.833 -63.5 -146.5 -82.5s-103.834 -28.5 -156.501 -28.5c-62.667 0 -109.667 11.833 -141 35.5s-47 58.834 -47 105.501c0 4.66699 0.166992 10 0.5 16
s1.5 15.667 3.5 29zM1292 723.007c-15.333 68 -43.667 119.833 -85 155.5s-94 53.5 -158 53.5c-104 0 -191.167 -46.5 -261.5 -139.5s-105.5 -208.5 -105.5 -346.5c0 -80 19.667 -142.167 59 -186.5s94 -66.5 164 -66.5c76.667 0 144 24.5 202 73.5s98 115.167 120 198.5z
" />
    <glyph glyph-name="A" unicode="A" horiz-adv-x="1505" 
d="M545 457l207 717l209 -717h-416zM61 47h367l53 195h537l57 -195h367l-486 1376h-409zM602 504h297l-119 411c-8.66699 30.667 -15.167 57.5 -19.5 80.5s-7.16602 45.167 -8.49902 66.5c-2.66699 -23.333 -6.33398 -46.833 -11.001 -70.5s-10.667 -48.167 -18 -73.5zM-6 0
l518 1473h479l518 -1473h-469l-55 195h-469l-57 -195h-465z" />
    <glyph glyph-name="B" unicode="B" horiz-adv-x="1552" 
d="M547 838v348h166c10.667 0 23 -0.333008 37 -1s22.667 -1 26 -1c94 0 158.5 -12.667 193.5 -38s52.5 -70 52.5 -134c0 -62 -17 -106.5 -51 -133.5s-92 -40.5 -174 -40.5h-250zM547 297v364.999h266c93.333 0 159.333 -14.167 198 -42.5s58 -75.166 58 -140.499
s-18.667 -112 -56 -140s-102 -42 -194 -42h-272zM139 -0.000976562l-0.000976562 1473h596c150 0 257 -4.83301 321 -14.5s118.333 -25.5 163 -47.5c64 -33.333 112 -77.166 144 -131.499s48 -119.833 48 -196.5c0 -66 -15 -124 -45 -174s-74.333 -91 -133 -123
c79.333 -29.333 137.333 -71.666 174 -126.999s55 -127.666 55 -216.999c0 -87.333 -18.167 -163.166 -54.5 -227.499s-89.166 -113.833 -158.499 -148.5c-45.333 -24 -97 -41 -155 -51s-149 -15 -273 -15h-30h-652zM189.999 46.9951l618.996 -0.00292969
c118.667 0 205.834 4.83301 261.501 14.5s105.167 25.5 148.5 47.5c60 30 106.333 72.5 139 127.5s49 118.833 49 191.5c0 89.333 -21.167 163 -63.5 221s-107.166 102.333 -194.499 133c66.667 28.667 118.5 68.834 155.5 120.501s55.5 109.834 55.5 174.501
c0 70.667 -18.167 133.334 -54.5 188.001s-85.833 93.667 -148.5 117c-39.333 14.667 -86.666 25.167 -141.999 31.5s-143.666 9.5 -264.999 9.5h-560v-1376zM597.995 343.992h219.001c73.333 0 125.166 10.5 155.499 31.5s45.5 56.167 45.5 105.5
c0 48 -15.667 82.5 -47 103.5s-84 31.5 -158 31.5h-215v-272zM597.996 884.992h195c65.333 0 111.333 9.83301 138 29.5s40 52.167 40 97.5c0 48.667 -14.167 82 -42.5 100s-94.833 27 -199.5 27h-131v-254z" />
    <glyph glyph-name="C" unicode="C" horiz-adv-x="1602" 
d="M1485 524l-345.999 -0.000976562c-9.33301 -73.333 -41 -131.833 -95 -175.5s-121.333 -65.5 -202 -65.5c-110.667 0 -195.334 38.667 -254.001 116s-88 189.333 -88 336c0 150.667 28.5 263.834 85.5 339.501s142.5 113.5 256.5 113.5c78 0 142.167 -19.833 192.5 -59.5
s81.5 -94.834 93.5 -165.501h340c-13.333 156.667 -75.5 279.667 -186.5 369s-258.167 134 -441.5 134c-222.667 0 -396.834 -64.5 -522.501 -193.5s-188.5 -308.167 -188.5 -537.5s62.333 -408.166 187 -536.499s299.334 -192.5 524.001 -192.5
c186.667 0 336.167 45.167 448.5 135.5s177.833 217.833 196.5 382.5zM1094 570.999l448.002 0.00390625c-12 -192.667 -80 -342.834 -204 -450.501s-291.333 -161.5 -502 -161.5c-236 0 -421.667 69.167 -557 207.5s-203 327.833 -203 568.5c0 240 67 429.333 201 568
s316.667 208 548 208c213.333 0 381.5 -51.667 504.5 -155s191.167 -250.333 204.5 -441h-453c-6.66699 75.333 -31 132.166 -73 170.499s-101 57.5 -177 57.5c-92.667 0 -162.167 -33.833 -208.5 -101.5s-69.5 -169.834 -69.5 -306.501c0 -134 24.667 -235.333 74 -304
s121.666 -103 216.999 -103c72.667 0 130.667 21.167 174 63.5s68.666 102.166 75.999 179.499z" />
    <glyph glyph-name="D" unicode="D" horiz-adv-x="1606" 
d="M139 0l-0.000976562 1473h572c148 0 256.833 -6.5 326.5 -19.5s130.834 -34.5 183.501 -64.5c101.333 -58.667 177.833 -142.834 229.5 -252.501s77.5 -243.5 77.5 -401.5c0 -152.667 -27.5 -284.167 -82.5 -394.5s-134.833 -194.5 -239.5 -252.5
c-56.667 -32 -122.5 -54.667 -197.5 -68s-203.5 -20 -385.5 -20h-484zM755.999 1423h-565.999v-1376h488c128.667 0 226.167 5 292.5 15s123.833 26.333 172.5 49c109.333 51.333 192.333 129.833 249 235.5s85 235.167 85 388.5c0 146 -23 270 -69 372
s-114.667 180.667 -206 236c-47.333 28.667 -102.833 49.167 -166.5 61.5s-156.834 18.5 -279.501 18.5zM561 326.001v819h166c138.667 0 236.167 -30.833 292.5 -92.5s84.5 -167.5 84.5 -317.5c0 -153.333 -27.833 -259.833 -83.5 -319.5s-156.167 -89.5 -301.5 -89.5h-158
zM612 373.001h127c118.667 0 200.667 26.5 246 79.5s68 147.167 68 282.5c0 132.667 -23.167 226.667 -69.5 282s-125.833 83 -238.5 83h-133v-727z" />
    <glyph glyph-name="E" unicode="E" horiz-adv-x="1427" 
d="M1294 47v262h-733v324h596v244h-596v290h705v256h-1076v-1376h1104zM139 0v1473h1178v-353h-705v-196h596v-338h-596v-228h734v-358h-1207z" />
    <glyph glyph-name="F" unicode="F" horiz-adv-x="1294" 
d="M561 47v518h510v262h-510v322h641v274h-1012v-1376h371zM139 0v1473h1114v-371h-641v-228h510v-356h-510v-518h-473z" />
    <glyph glyph-name="G" unicode="G" horiz-adv-x="1669" 
d="M1104 1012l356.002 0.00195312c-28 144 -96.167 255.667 -204.5 335s-246.833 119 -415.5 119c-223.333 0 -398 -64.667 -524 -194s-189 -308.333 -189 -537c0 -224 57 -401.5 171 -532.5s268.667 -196.5 464 -196.5c117.333 0 217.166 21.167 299.499 63.5
s140.166 101.833 173.499 178.5l37 -201h217v713h-545v-221l215 -1c-2.66699 -78.667 -33.667 -143.334 -93 -194.001s-134 -76 -224 -76c-115.333 0 -200.833 37.667 -256.5 113s-83.5 190.666 -83.5 345.999c0 149.333 29.333 263.833 88 343.5s142.667 119.5 252 119.5
c65.333 0 120.5 -15.333 165.5 -46s77.167 -74.667 96.5 -132zM1235 0.00195312l-25 136.999c-50.667 -60.667 -112.834 -105.5 -186.501 -134.5s-162.834 -43.5 -267.501 -43.5c-210.667 0 -376.667 69.167 -498 207.5s-182 327.833 -182 568.5
c0 243.333 67.333 433.5 202 570.5s321.334 205.5 560.001 205.5c197.333 0 354.666 -47 471.999 -141s188 -229 212 -405h-449c-18 58.667 -47.167 103.334 -87.5 134.001s-90.166 46 -149.499 46c-94.667 0 -165.5 -36.333 -212.5 -109s-70.5 -181 -70.5 -325
c0 -133.333 23.667 -233 71 -299s119.333 -99 216 -99c69.333 0 128.333 16.5 177 49.5s78.334 76.167 89.001 129.5h-213v315h647v-807h-305z" />
    <glyph glyph-name="H" unicode="H" horiz-adv-x="1665" 
d="M561 47v571h543v-571h371v1376h-371v-499h-543v499h-371v-1376h371zM139 0v1473h473v-500h441v500h473v-1473h-473v571h-441v-571h-473z" />
    <glyph glyph-name="I" unicode="I" horiz-adv-x="778" 
d="M578 47v1376h-379v-1376h379zM147 0v1473h482v-1473h-482z" />
    <glyph glyph-name="J" unicode="J" horiz-adv-x="1313" 
d="M43 635h418v-137c0 -60.667 9.33301 -103.5 28 -128.5s49.667 -37.5 93 -37.5c46 0 78.333 13.333 97 40s28 79.334 28 158.001v943h473v-992c0 -170.667 -49.5 -300.334 -148.5 -389.001s-243.5 -133 -433.5 -133c-192 0 -332.5 47.5 -421.5 142.5
s-133.5 245.5 -133.5 451.5v82zM410 459l0.000976562 129.003h-314v-60c0 -178.667 41.667 -310.334 125 -395.001s212.333 -127 387 -127c175.333 0 305.833 42.667 391.5 128s128.5 214.666 128.5 387.999v901h-370v-929c0 -74.667 -14.333 -128.167 -43 -160.5
s-75.334 -48.5 -140.001 -48.5c-52 0 -92.5 15.167 -121.5 45.5s-43.5 73.166 -43.5 128.499z" />
    <glyph glyph-name="K" unicode="K" horiz-adv-x="1597" 
d="M557 47v440l174 183l383 -623h442l-565 889l475 487h-413l-496 -571v571h-367v-1376h367zM139 0v1473h469v-347c0 -5.33301 -1.33301 -31.333 -4 -78c-2.66699 -34.667 -4.66699 -63 -6 -85l43 57c10 12.667 19.667 24.334 29 35.001l362 418h549l-526 -543l594 -930
h-564l-360 590l-117 -121v-469h-469z" />
    <glyph glyph-name="L" unicode="L" horiz-adv-x="1309" 
d="M1204 47v295h-643v1081h-371v-1376h1014zM139 0v1473h473v-1082h643v-391h-1116z" />
    <glyph glyph-name="M" unicode="M" horiz-adv-x="1939" 
d="M1262 1423l-293 -1028l-291 1028h-488v-1376h326v1112h41l285 -1112h254l280 1112h51v-1112h322v1376h-487zM567 0h-428v1473h576l204 -735c2.66699 -9.33301 8 -31.833 16 -67.5l34 -148.5c9.33301 48.667 18.166 91.834 26.499 129.501s15.166 65.5 20.499 83.5
l209 738h575v-1473h-424v725c0 33.333 1.33301 80.166 4 140.499s6 124.5 10 192.5l-50 -234c-12 -56 -19.667 -90.333 -23 -103l-182 -721h-330l-184 705c-9.33301 34.667 -20.166 82.167 -32.499 142.5s-26.166 133.5 -41.499 219.5c6 -91.333 10.833 -169 14.5 -233
s5.5 -105 5.5 -123v-711z" />
    <glyph glyph-name="N" unicode="N" horiz-adv-x="1667" 
d="M1128 1423v-936l-565 936h-373v-1376h347v934l563 -934h375v1376h-347zM139 0l-0.00292969 1473h449l413 -684l7 -12c32 -55.333 59.667 -106.666 83 -153.999c-4.66699 26.667 -8.16699 53.167 -10.5 79.5s-3.5 51.5 -3.5 75.5v695h449v-1473h-451l-413 680
c-13.333 21.333 -28.166 47.666 -44.499 78.999s-33.166 65.666 -50.499 102.999c6.66699 -35.333 11.834 -67.5 15.501 -96.5s5.5 -54.167 5.5 -75.5v-690h-449z" />
    <glyph glyph-name="O" unicode="O" horiz-adv-x="1683" 
d="M502 735c0 156.667 27.333 271.334 82 344.001s140.667 109 258 109c116.667 0 202.167 -36.333 256.5 -109s81.5 -187.334 81.5 -344.001s-27.167 -271.167 -81.5 -343.5s-139.833 -108.5 -256.5 -108.5c-117.333 0 -203.333 36.333 -258 109s-82 187 -82 343zM127 735
c0 -224 63.999 -401.5 191.999 -532.5s301.667 -196.5 521 -196.5c220 0 394 65.5 522 196.5s192 308.5 192 532.5c0 225.333 -64.167 403.5 -192.5 534.5s-302.166 196.5 -521.499 196.5s-393 -65.667 -521 -197s-192 -309.333 -192 -534zM552.999 735
c0 -140 23.167 -242.5 69.5 -307.5s119.5 -97.5 219.5 -97.5c98.667 0 171 32.5 217 97.5s69 167.5 69 307.5c0 140.667 -23 243.5 -69 308.5s-118.333 97.5 -217 97.5c-100 0 -173.167 -32.667 -219.5 -98s-69.5 -168 -69.5 -308zM75.999 735
c0 239.333 68.5 428.5 205.5 567.5s323.833 208.5 560.5 208.5c236 0 422.333 -69.333 559 -208s205 -328 205 -568c0 -239.333 -68.5 -428.5 -205.5 -567.5s-323.167 -208.5 -558.5 -208.5c-236.667 0 -423.5 69.667 -560.5 209s-205.5 328.333 -205.5 567z" />
    <glyph glyph-name="P" unicode="P" horiz-adv-x="1511" 
d="M139 0l0.000976562 1473h606c119.333 0 213.666 -5.5 282.999 -16.5s129.333 -28.833 180 -53.5c83.333 -40 146.5 -97.5 189.5 -172.5s64.5 -164.833 64.5 -269.5c0 -165.333 -48.5 -291.666 -145.5 -378.999s-237.5 -131 -421.5 -131h-283v-451h-473zM737.001 1423
h-547.001v-1376h371v451h316c178 0 311.5 38.5 400.5 115.5s133.5 192.833 133.5 347.5c0 72 -12 137 -36 195s-59.667 107.667 -107 149c-50 42.667 -112.167 73 -186.5 91s-189.166 27 -344.499 27zM561 763.999l0.000976562 397h191c122 0 204.333 -14.833 247 -44.5
s64 -81.5 64 -155.5c0 -72 -21.333 -122.833 -64 -152.5s-124.334 -44.5 -245.001 -44.5h-193zM612.001 810.999h152c100 0 166.333 11 199 33s49 61 49 117c0 55.333 -15.667 94.333 -47 117s-98.333 34 -201 34h-152v-301z" />
    <glyph glyph-name="Q" unicode="Q" horiz-adv-x="1683" 
d="M1389 -160l-183 193c-49.333 -25.333 -103.333 -44 -162 -56s-126 -18 -202 -18c-236.667 0 -423.5 69.667 -560.5 209s-205.5 328.333 -205.5 567c0 240 68.5 429.333 205.5 568s323.833 208 560.5 208c236 0 422.333 -69.333 559 -208s205 -328 205 -568
c0 -108 -13.667 -204.833 -41 -290.5s-68.333 -162.167 -123 -229.5l164 -170zM1389 -94l149 143l-164 170c60.667 66.667 105.834 142.667 135.501 228s44.5 181.333 44.5 288c0 224.667 -64.333 402.667 -193 534s-302.334 197 -521.001 197
c-219.333 0 -393 -65.667 -521 -197s-192 -309.333 -192 -534c0 -224 64 -401.5 192 -532.5s301.667 -196.5 521 -196.5c76 0 144.5 7 205.5 21s117.167 35.667 168.5 65zM811 512l202.999 -211c-25.333 -12.667 -52 -22 -80 -28s-58.667 -9 -92 -9
c-121.333 0 -210 37.667 -266 113s-84 194.666 -84 357.999c0 164 27.833 283.5 83.5 358.5s144.5 112.5 266.5 112.5c121.333 0 210 -37.667 266 -113s84 -194.666 84 -357.999c0 -66 -3.66699 -123 -11 -171s-18.666 -90 -33.999 -126l-199 207zM927.999 324
l-178.001 189.999l200 195l172 -177c6.66699 25.333 11.5 53.833 14.5 85.5s4.5 70.834 4.5 117.501c0 146 -24.167 252.833 -72.5 320.5s-123.833 101.5 -226.5 101.5s-178.167 -34 -226.5 -102s-72.5 -174.667 -72.5 -320c0 -143.333 23.833 -249.166 71.5 -317.499
s122.167 -102.5 223.5 -102.5c16.667 0 32.334 0.666992 47.001 2s29 3.66602 43 6.99902z" />
    <glyph glyph-name="R" unicode="R" horiz-adv-x="1563" 
d="M606 840h215c76 0 128.167 10.333 156.5 31s42.5 56 42.5 106c0 51.333 -13.833 87.333 -41.5 108s-84.167 31 -169.5 31h-203v-276zM793 1423l-603.001 0.000976562v-1376h365v508h276c76 0 133 -19.5 171 -58.5s57 -98.167 57 -177.5v-165c0 -20 1.5 -38.667 4.5 -56
s7.83301 -34.333 14.5 -51h366c-17.333 17.333 -26.666 46.333 -27.999 87c-0.666992 8 -1 14 -1 18l-6 205c-3.33301 98 -24 169.667 -62 215s-108.667 82.666 -212 111.999c96 34 165.333 79.667 208 137s64 134 64 230c0 136 -43 232 -129 288s-247.667 84 -485 84z
M554.999 793.001l0.000976562 370h252c101.333 0 170.666 -14 207.999 -42s56 -76 56 -144c0 -66 -18.667 -113.167 -56 -141.5s-102 -42.5 -194 -42.5h-266zM139 0.000976562l0.00292969 1473h705c221.333 0 379 -33 473 -99s141 -174.333 141 -325
c0 -90 -19 -164.333 -57 -223s-98 -106 -180 -142c83.333 -18.667 143.166 -52.834 179.499 -102.501s56.166 -124.5 59.499 -224.5l8 -205c0.666992 -2.66699 1 -7 1 -13c2 -53.333 16 -81.333 42 -84v-55h-475c-9.33301 23.333 -16.333 47.5 -21 72.5s-7 52.167 -7 81.5
v147c0 76 -14.833 129.5 -44.5 160.5s-81.834 46.5 -156.501 46.5h-201v-508h-467z" />
    <glyph glyph-name="S" unicode="S" horiz-adv-x="1460" 
d="M70 459h460.001c12.667 -53.333 35.667 -91.666 69 -114.999s83 -35 149 -35c56 0 99.667 9.5 131 28.5s47 45.167 47 78.5c0 52 -65.333 94.333 -196 127l-101 26c-217.333 59.333 -360.5 122.833 -429.5 190.5s-103.5 161.834 -103.5 282.501
c0 145.333 55 259.833 165 343.5s261.333 125.5 454 125.5c188.667 0 337.5 -40 446.5 -120s170.5 -194 184.5 -342h-449c-7.33301 43.333 -26.5 75.666 -57.5 96.999s-75.167 32 -132.5 32c-50.667 0 -88.334 -8.33301 -113.001 -25s-37 -42 -37 -76
c0 -50 68 -91.667 204 -125l16 -4l78 -20c172 -42.667 286.333 -82.334 343 -119.001c64 -40.667 111.333 -89.167 142 -145.5s46 -122.5 46 -198.5c0 -162 -56.833 -286.833 -170.5 -374.5s-276.5 -131.5 -488.5 -131.5c-194.667 0 -349.5 43.833 -464.5 131.5
s-179.167 210.5 -192.5 368.5zM133.001 410c24 -128.667 87.4961 -227.833 190.496 -297.5s237.5 -104.5 403.5 -104.5c199.333 0 350.5 38.667 453.5 116s154.5 191 154.5 341c0 110.667 -35.167 196.667 -105.5 258s-221.166 121.333 -452.499 180l-20 5
c-167.333 42 -251 100.333 -251 175c0 44.667 17.833 79.834 53.5 105.501s84.834 38.5 147.501 38.5c63.333 0 114.666 -11.333 153.999 -34s64.333 -55 75 -97h356c-25.333 122 -87.666 214.167 -186.999 276.5s-233.666 93.5 -402.999 93.5
c-170.667 0 -305.834 -38.167 -405.501 -114.5s-149.5 -179.5 -149.5 -309.5c0 -106 32.333 -189.333 97 -250s203.334 -120 416.001 -178l70 -18c164.667 -42.667 247 -102 247 -178c0 -50.667 -20.833 -89.334 -62.5 -116.001s-102.167 -40 -181.5 -40
c-68.667 0 -123.667 12.5 -165 37.5s-67.666 61.833 -78.999 110.5h-356z" />
    <glyph glyph-name="T" unicode="T" horiz-adv-x="1360" 
d="M870 47v1086h416v290h-1210v-290h424v-1086h370zM449 0v1085h-424v388h1312v-388h-415v-1085h-473z" />
    <glyph glyph-name="U" unicode="U" horiz-adv-x="1669" 
d="M135 1473h473v-908c0 -85.333 17.5 -145.5 52.5 -180.5s93.5 -52.5 175.5 -52.5c80 0 137.167 17.333 171.5 52s51.5 95 51.5 181v908h473v-945c0 -184 -59.5 -324.833 -178.5 -422.5s-291.5 -146.5 -517.5 -146.5c-227.333 0 -401 48.833 -521 146.5
s-180 238.5 -180 422.5v945zM1481 575l-0.000976562 848h-371v-874c0 -91.333 -22.167 -158.5 -66.5 -201.5s-113.5 -64.5 -207.5 -64.5c-95.333 0 -165.666 21.5 -210.999 64.5s-68 110.167 -68 201.5v874h-371v-848c0 -192 53.5 -334.833 160.5 -428.5
s270.167 -140.5 489.5 -140.5c218 0 380 46.667 486 140s159 236.333 159 429z" />
    <glyph glyph-name="V" unicode="V" horiz-adv-x="1501" 
d="M551 47h395l469 1376h-364l-303 -1091l-285 1091h-375zM18 1473l483.999 -0.000976562l225 -863c4.66699 -18 8.83398 -40.167 12.501 -66.5s7.16699 -55.833 10.5 -88.5c2.66699 28 6.16699 55.333 10.5 82s9.5 52.334 15.5 77.001l240 859h465l-496 -1473h-471z" />
    <glyph glyph-name="W" unicode="W" horiz-adv-x="2017" 
d="M416 47h391l184 1012h35l197 -1012h385l327 1376h-340l-180 -1083h-41l-200 1083h-304l-217 -1083h-39l-180 1083h-350zM373 0l-355 1473h461l146 -873c0.666992 -6.66699 3.66699 -43.334 9 -110.001c2 -30.667 3.66699 -54.667 5 -72c2 41.333 4.33301 77.833 7 109.5
s5.66699 56.5 9 74.5l170 871h392l163 -870c2 -12.667 4.33301 -36 7 -70s5.33398 -72.333 8.00098 -115c0.666992 40.667 2 76.334 4 107.001s4.66699 56.334 8 77.001l143 871h449l-350 -1473h-469l-154 803c-3.33301 20.667 -6.33301 45.5 -9 74.5
s-4.33398 61.833 -5.00098 98.5c0 -26.667 -1.33301 -54.5 -4 -83.5s-7 -59.5 -13 -91.5l-145 -801h-477z" />
    <glyph glyph-name="X" unicode="X" horiz-adv-x="1497" 
d="M76 47h428l252 453l254 -453h417l-466 715l446 661h-403l-246 -424l-228 424h-409l432 -655zM-14 0l505.997 766.001l-461 707h532l170 -326c4 -8 8.33301 -18.833 13 -32.5s9.33398 -28.5 14.001 -44.5c3.33301 16 7.33301 30.5 12 43.5s10 24.833 16 35.5l187 324h520
l-477 -707l493 -766h-534l-197 350c-5.33301 9.33301 -10.166 20.666 -14.499 33.999s-8.16602 29.333 -11.499 48c-4.66699 -18 -9.5 -34 -14.5 -48s-9.16699 -24 -12.5 -30l-197 -354h-544z" />
    <glyph glyph-name="Y" unicode="Y" horiz-adv-x="1507" 
d="M946 47v510l494 866h-393l-289 -565l-287 565h-401l505 -870v-506h371zM524 0v545l-542 928h524l227 -453c4.66699 -9.33301 9.16699 -20.666 13.5 -33.999s8.83301 -29.333 13.5 -48c5.33301 21.333 10.5 39.666 15.5 54.999s8.5 25 10.5 29l230 451h510l-529 -928v-545
h-473z" />
    <glyph glyph-name="Z" unicode="Z" horiz-adv-x="1444" 
d="M121 47h1198v285h-784l751 813v278h-1147v-284h721l-739 -801v-291zM70 0l-0.00195312 353.998l639 690c7.33301 8 17.5 17.333 30.5 28s27.167 21.334 42.5 32.001c-16.667 -4 -32.667 -7 -48 -9s-30.666 -3 -45.999 -3h-600v381h1249v-351l-645 -692
c-9.33301 -10.667 -20.333 -21.167 -33 -31.5s-26.667 -20.166 -42 -29.499c20 3.33301 37.333 5.83301 52 7.5s27.334 2.5 38.001 2.5h663v-379h-1300z" />
    <glyph glyph-name="bracketleft" unicode="[" horiz-adv-x="883" 
d="M264 -307h543v198h-262v1321h262v211h-543v-1730zM213 1473h647v-312h-264v-1218h264v-301h-647v1831z" />
    <glyph glyph-name="backslash" unicode="\" horiz-adv-x="739" 
d="M203 1511l545 -1701h-232l-545 1701h232zM166 1464h-129l516 -1607h131z" />
    <glyph glyph-name="bracketright" unicode="]" horiz-adv-x="883" 
d="M668 -358h-648v309h265v1218h-265v304h648v-1831zM616 1419h-544v-196h264v-1323h-264v-211h544v1730z" />
    <glyph glyph-name="asciicircum" unicode="^" horiz-adv-x="2048" 
d="M973 1456h98l549 -553h-109l-487 483l-489 -483h-109z" />
    <glyph glyph-name="underscore" unicode="_" 
d="M0 -422h1024v-61h-1024v61z" />
    <glyph glyph-name="grave" unicode="`" 
d="M518 1241h90l-170 242h-205zM500 1198l-385 328h350l229 -328h-194z" />
    <glyph glyph-name="a" unicode="a" horiz-adv-x="1411" 
d="M903 559v-90c0 -111.333 -20.5 -188.333 -61.5 -231s-108.5 -64 -202.5 -64c-54 0 -95.5 12.167 -124.5 36.5s-43.5 58.5 -43.5 102.5c0 74.667 70 131.334 210 170.001c94 25.333 168 50.666 222 75.999zM195 803l318.999 0.00390625c12 36 34.333 63 67 81
s76 27 130 27c64.667 0 112.834 -11.5 144.501 -34.5s47.5 -58.5 47.5 -106.5c0 -44.667 -13.667 -76.834 -41 -96.501s-90.666 -35.167 -189.999 -46.5c-236.667 -29.333 -386.334 -66.333 -449.001 -111s-94 -114.334 -94 -209.001
c0 -92.667 30.167 -165.334 90.5 -218.001s143.5 -79 249.5 -79c83.333 0 159.5 14 228.5 42s135.5 72 199.5 132l33 -137h315c-6 14 -10.5 28.5 -13.5 43.5s-4.5 33.833 -4.5 56.5v21v555c0 129.333 -39 221 -117 275s-209 81 -393 81
c-161.333 0 -287.833 -24.333 -379.5 -73s-139.167 -116.334 -142.5 -203.001zM851.999 485.004c-42 -16.667 -98.667 -34 -170 -52c-106.667 -27.333 -160 -65.333 -160 -114c0 -30.667 11 -54.667 33 -72s52.667 -26 92 -26c70.667 0 122.5 16.667 155.5 50
s49.5 86.333 49.5 159v35v20zM890.999 0.00390625l-15.999 67.0049c-1.33301 4 -2.16602 8.66699 -2.49902 14s-0.5 16.666 -0.5 33.999c-56 -51.333 -117.5 -89.833 -184.5 -115.5s-139.833 -38.5 -218.5 -38.5c-124 0 -220.167 30.333 -288.5 91
s-102.5 145.667 -102.5 255c0 106 33.167 185 99.5 237s192.166 89.667 377.499 113c21.333 2.66699 50.333 6 87 10c140 15.333 210 51 210 107c0 31.333 -12 54.166 -36 68.499s-62.667 21.5 -116 21.5c-44.667 0 -79 -8.83301 -103 -26.5s-38 -44.834 -42 -81.501h-412
c0 122.667 48 215 144 277s238.667 93 428 93c77.333 0 150.666 -6.33301 219.999 -19s125 -29.334 167 -50.001c63.333 -31.333 108.5 -71 135.5 -119s40.5 -117.667 40.5 -209v-606c0 -20.667 4 -38.834 12 -54.501s19.667 -28.167 35 -37.5v-31h-434z" />
    <glyph glyph-name="b" unicode="b" horiz-adv-x="1384" 
d="M711 233c-71.333 0 -127.167 26.333 -167.5 79s-60.5 126 -60.5 220c0 100 19 174.833 57 224.5s95 74.5 171 74.5c77.333 0 134.833 -24.5 172.5 -73.5s56.5 -124.167 56.5 -225.5c0 -93.333 -20.333 -166.5 -61 -219.5s-96.667 -79.5 -168 -79.5zM116.999 0
l0.000976562 1473h422v-426c0 -18.667 -1.16699 -36.5 -3.5 -53.5s-5.83301 -33.167 -10.5 -48.5c30.667 52.667 75.167 94.667 133.5 126s122.166 47 191.499 47c142.667 0 257.167 -52.667 343.5 -158s129.5 -245.666 129.5 -420.999
c0 -174 -42.833 -313.833 -128.5 -419.5s-198.5 -158.5 -338.5 -158.5c-78 0 -148 16.333 -210 49s-114.667 81 -158 145c4 -11.333 7 -22.333 9 -33s3 -21.334 3 -32.001v-90h-383zM492 848l0.00195312 575h-324v-1376h281v217
c59.333 -84.667 122.833 -148.167 190.5 -190.5s140.5 -63.5 218.5 -63.5c123.333 0 223.166 48.5 299.499 145.5s114.5 225.5 114.5 385.5c0 158 -38.333 285.833 -115 383.5s-176.334 146.5 -299.001 146.5c-71.333 0 -135.333 -17.167 -192 -51.5
s-114.667 -91.5 -174 -171.5zM535.002 532c0 -78.667 15.833 -140.167 47.5 -184.5s75.167 -66.5 130.5 -66.5c54.667 0 97.667 22.167 129 66.5s47 105.833 47 184.5c0 86 -14.333 149.5 -43 190.5s-73 61.5 -133 61.5c-60.667 0 -105.5 -20.5 -134.5 -61.5
s-43.5 -104.5 -43.5 -190.5z" />
    <glyph glyph-name="c" unicode="c" horiz-adv-x="1335" 
d="M885 377c-9.33301 -51.333 -32.5 -91.1689 -69.5 -119.502s-84.167 -42.5 -141.5 -42.5c-77.333 0 -135 27.333 -173 82s-57 137.334 -57 248.001c0 113.333 19.667 196.5 59 249.5s100.333 79.5 183 79.5c54.667 0 99.167 -13.333 133.5 -40s54.833 -63.667 61.5 -111
h331c-11.333 106 -65.833 191.833 -163.5 257.5s-220.5 98.5 -368.5 98.5c-176 0 -314.833 -47.667 -416.5 -143s-152.5 -225.666 -152.5 -390.999c0 -163.333 51.333 -293.333 154 -390s241.667 -145 417 -145c148.667 0 271 33.167 367 99.5s152 155.5 168 267.5h-332z
M842 423.997l432.001 -0.000976562c-8.66699 -142.667 -65.834 -255.5 -171.501 -338.5s-245.167 -124.5 -418.5 -124.5c-192 0 -344.167 52.5 -456.5 157.5s-168.5 247.167 -168.5 426.5c0 180 55.333 321.833 166 425.5s262.334 155.5 455.001 155.5
c174.667 0 315.667 -41.167 423 -123.5s163 -191.833 167 -328.5h-434c-3.33301 51.333 -17.833 89.333 -43.5 114s-63.834 37 -114.501 37c-62.667 0 -108.667 -22.5 -138 -67.5s-44 -115.833 -44 -212.5c0 -98.667 14 -170.5 42 -215.5s72.667 -67.5 134 -67.5
c52 0 92 13.333 120 40s44.667 67.334 50 122.001z" />
    <glyph glyph-name="d" unicode="d" horiz-adv-x="1386" 
d="M903 532c0 -94 -20.167 -167.333 -60.5 -220s-95.833 -79 -166.5 -79c-71.333 0 -127.5 26.5 -168.5 79.5s-61.5 126.167 -61.5 219.5c0 101.333 19 176.5 57 225.5s95.667 73.5 173 73.5c75.333 0 132 -24.833 170 -74.5s57 -124.5 57 -224.5zM674 281
c55.333 0 98.833 22.167 130.5 66.5s47.5 105.833 47.5 184.5c0 86 -14.667 149.5 -44 190.5s-74 61.5 -134 61.5s-104.333 -20.5 -133 -61.5s-43 -104.5 -43 -190.5c0 -78.667 15.5 -140.167 46.5 -184.5s74.167 -66.5 129.5 -66.5zM895 848
c-59.333 80 -117.5 137.167 -174.5 171.5s-121.167 51.5 -192.5 51.5c-122.667 0 -222.167 -48.833 -298.5 -146.5s-114.5 -225.5 -114.5 -383.5c0 -160 38 -288.5 114 -385.5s175.667 -145.5 299 -145.5c78 0 151 21.167 219 63.5s131.667 105.833 191 190.5v-217h281v1376
h-324v-575zM1270 0l-382.998 0.000976562v90c0 10.667 1 21.5 3 32.5s5 21.833 9 32.5c-44 -64 -97 -112.333 -159 -145s-132 -49 -210 -49c-139.333 0 -252 52.833 -338 158.5s-129 245.5 -129 419.5c0 175.333 43.167 315.666 129.5 420.999s201.166 158 344.499 158
c69.333 0 133.166 -15.667 191.499 -47s102.833 -73.333 133.5 -126c-4.66699 14.667 -8.16699 30.5 -10.5 47.5s-3.5 35.167 -3.5 54.5v426h422v-1473z" />
    <glyph glyph-name="e" unicode="e" horiz-adv-x="1364" 
d="M492 448c2 -69.333 20.501 -122.833 55.501 -160.5s83.833 -56.5 146.5 -56.5c40.667 0 75 7.83301 103 23.5s47 38.167 57 67.5h414c-29.333 -118 -95 -207.667 -197 -269s-236.333 -92 -403 -92c-186.667 0 -334.834 51.833 -444.501 155.5
s-164.5 243.167 -164.5 418.5c0 182 56 326 168 432s264.333 159 457 159c192 0 343.167 -57.5 453.5 -172.5s165.5 -273.167 165.5 -474.5v-30zM440.001 498h811.003c-0.666992 181.333 -51.334 323.5 -152.001 426.5s-239 154.5 -415 154.5s-315.5 -48.5 -418.5 -145.5
s-154.5 -228.5 -154.5 -394.5c0 -161.333 50.667 -289.833 152 -385.5s237.666 -143.5 408.999 -143.5c138.667 0 253.667 22.833 345 68.5s151.666 110.167 180.999 193.5h-317c-16 -27.333 -41 -48.833 -75 -64.5s-73.333 -23.5 -118 -23.5
c-80.667 0 -142.167 24.833 -184.5 74.5s-63.5 121.167 -63.5 214.5v25zM440.004 618l-0.000976562 17c0 86 21.833 154.167 65.5 204.5s101.834 75.5 174.501 75.5c80.667 0 142.5 -25 185.5 -75s64.5 -121.667 64.5 -215v-7h-490zM492.003 666h387
c-5.33301 67.333 -24.5 117.833 -57.5 151.5s-80.167 50.5 -141.5 50.5c-56 0 -100.667 -17.833 -134 -53.5s-51.333 -85.167 -54 -148.5z" />
    <glyph glyph-name="f" unicode="f" horiz-adv-x="786" 
d="M209 1040h-134.999v-151h135v-842h328v842h184v151h-184v68c0 64.667 12.167 110.167 36.5 136.5s65.833 39.5 124.5 39.5h23v178h-203c-102.667 0 -179.834 -24 -231.501 -72s-77.5 -119.333 -77.5 -214v-136zM158.001 0v842h-135v245h135v68c0 122 30 211.5 90 268.5
s154 85.5 282 85.5h242v-272h-41c-56 0 -93.833 -8.33301 -113.5 -25s-29.5 -48 -29.5 -94v-31h184v-245h-184v-842h-430z" />
    <glyph glyph-name="g" unicode="g" horiz-adv-x="1386" 
d="M137 -117l428.001 -0.00292969c9.33301 -25.333 23.333 -43.166 42 -53.499s47.667 -15.5 87 -15.5c53.333 0 91.333 14.333 114 43s34 78.334 34 149.001v45c0 16.667 1.83301 34.167 5.5 52.5s9.16699 37.5 16.5 57.5c-34.667 -56 -81 -98.833 -139 -128.5
s-124.333 -44.5 -199 -44.5c-134 0 -244.167 53 -330.5 159s-129.5 241.333 -129.5 406c0 167.333 43.333 303.333 130 408s198.667 157 336 157c78 0 147.667 -16.167 209 -48.5s114 -80.833 158 -145.5c-4 11.333 -7 22.333 -9 33s-3 21.334 -3 32.001v98h383v-1003
c0 -189.333 -46.5 -323.666 -139.5 -402.999s-249.167 -119 -468.5 -119c-152.667 0 -274.834 28.167 -366.501 84.5s-144.5 135.166 -158.5 236.499zM852.001 546.997c0 78.667 -15.5 139.999 -46.5 183.999s-74.167 66 -129.5 66c-56 0 -99.667 -22 -131 -66
s-47 -105.333 -47 -184c0 -85.333 14.5 -148.666 43.5 -189.999s73.833 -62 134.5 -62c60 0 104.333 20.5 133 61.5s43 104.5 43 190.5zM676.001 843.996c71.333 0 127.333 -26.167 168 -78.5s61 -125.166 61 -218.499c0 -99.333 -19.167 -174 -57.5 -224
s-95.5 -75 -171.5 -75c-77.333 0 -135 24.5 -173 73.5s-57 124.167 -57 225.5c0 93.333 20.333 166.166 61 218.499s97 78.5 169 78.5zM1219 56.9961l0.000976562 982.999h-279v-225c-59.333 85.333 -123 149 -191 191s-141 63 -219 63c-120.667 0 -219.667 -48 -297 -144
s-116 -220 -116 -372c0 -152.667 38.833 -277.167 116.5 -373.5s178.167 -144.5 301.5 -144.5c68 0 132.5 18.667 193.5 56s117.167 93 168.5 167v-182c0 -127.333 -15.833 -210.666 -47.5 -249.999s-88.834 -59 -171.501 -59c-34.667 0 -63.834 5.16699 -87.501 15.5
s-45.167 27.5 -64.5 51.5h-323c28 -74 80.833 -130 158.5 -168s178.5 -57 302.5 -57c200.667 0 343.334 34.333 428.001 103s127 183.667 127 345z" />
    <glyph glyph-name="h" unicode="h" horiz-adv-x="1399" 
d="M909 537l0.000976562 -489.999h330v520c0 74.667 -2.5 134.5 -7.5 179.5s-12.833 82.167 -23.5 111.5c-24.667 68 -65.834 120.167 -123.501 156.5s-128.5 54.5 -212.5 54.5c-69.333 0 -134.5 -17.833 -195.5 -53.5s-120.5 -90.834 -178.5 -165.501v573h-330v-1376h330
v488c0 97.333 17.833 170.333 53.5 219s89.5 73 161.5 73c71.333 0 121.833 -20.833 151.5 -62.5s44.5 -117.5 44.5 -227.5zM117.001 0.000976562l0.000976562 1473h432v-424c0 -11.333 -1.83301 -26 -5.5 -44s-9.5 -40.333 -17.5 -67c38.667 56.667 89.5 100.5 152.5 131.5
s133.167 46.5 210.5 46.5c80 0 151.167 -17.5 213.5 -52.5s108.5 -82.833 138.5 -143.5c18 -36 30.667 -77.667 38 -125s11 -124 11 -230v-565h-432v563c0 83.333 -11 140.333 -33 171s-60 46 -114 46c-54.667 0 -95.334 -18 -122.001 -54s-40 -91 -40 -165v-561h-432z" />
    <glyph glyph-name="i" unicode="i" horiz-adv-x="692" 
d="M178 1245h334v217h-334v-217zM178 47h334v993h-334v-993zM127 1198v311h436v-311h-436zM127 0v1087h436v-1087h-436z" />
    <glyph glyph-name="j" unicode="j" horiz-adv-x="702" 
d="M16 -391l204.998 -0.000976562c112.667 0 192.334 29.833 239.001 89.5s70 175.834 70 348.501v993h-333v-993c0 -82 -12.667 -137.333 -38 -166s-72.666 -43.667 -141.999 -45zM196.998 1245h333v217h-333v-217zM144.998 1198v311h437v-311h-437zM144.998 24.999v1062
h437v-1062c0 -176 -28 -297.167 -84 -363.5s-152.333 -99.5 -289 -99.5h-244v321h23c67.333 0 110.333 9 129 27s28 56.333 28 115z" />
    <glyph glyph-name="k" unicode="k" horiz-adv-x="1374" 
d="M168 47h330v283l135 137l254 -420h399l-434 641l352 352h-346l-360 -417v800h-330v-1376zM117 0v1473h432v-648c0 -16.667 -1.33301 -34.167 -4 -52.5s-7 -36.833 -13 -55.5l22.5 36.5c7 11 13.167 19.833 18.5 26.5l261 307h485l-404 -401l459 -686h-514l-237 389
l-74 -76v-313h-432z" />
    <glyph glyph-name="l" unicode="l" horiz-adv-x="692" 
d="M127 0v1473h436v-1473h-436zM178 47h334v1376h-334v-1376z" />
    <glyph glyph-name="m" unicode="m" horiz-adv-x="2097" 
d="M1214 567c0 84.667 17.8291 149.167 53.4961 193.5s86.834 66.5 153.501 66.5c70.667 0 120.834 -21 150.501 -63s44.5 -117.667 44.5 -227v-490h323v520c0 74.667 -2.33301 134.5 -7 179.5s-12.334 82.167 -23.001 111.5c-24 66.667 -64.333 118.5 -121 155.5
s-124.334 55.5 -203.001 55.5c-73.333 0 -143.666 -21.333 -210.999 -64s-126.666 -104 -177.999 -184c-27.333 82 -68.5 143.833 -123.5 185.5s-122.5 62.5 -202.5 62.5c-79.333 0 -152.166 -22 -218.499 -66s-131.166 -113.333 -194.499 -208v245h-289v-993h321v488
c0 98.667 17.333 172 52 220s87.667 72 159 72c70 0 119.667 -20.667 149 -62s44 -117.333 44 -228v-490h321v520zM116.996 0l0.00292969 1087h385v-108c0 -13.333 -1 -27.166 -3 -41.499s-5.33301 -29.166 -10 -44.499c46.667 74 102.667 129.667 168 167
s139.333 56 222 56c81.333 0 150.666 -18.667 207.999 -56s98.333 -91 123 -161c40.667 71.333 94 125.333 160 162s143.333 55 232 55c75.333 0 144 -17.5 206 -52.5s107.333 -82.167 136 -141.5c16.667 -36 28.667 -78 36 -126s11 -125 11 -231v-565h-426v563
c0 83.333 -11 140.333 -33 171s-59.667 46 -113 46c-52.667 0 -91.334 -17.167 -116.001 -51.5s-37 -88.833 -37 -163.5v-565h-424v563c0 81.333 -10.833 137.833 -32.5 169.5s-58.167 47.5 -109.5 47.5c-54.667 0 -94.834 -17.667 -120.501 -53
s-38.5 -90.666 -38.5 -165.999v-561h-424z" />
    <glyph glyph-name="n" unicode="n" horiz-adv-x="1399" 
d="M117 0l0.000976562 1087h393v-108c0 -14.667 -1.16699 -29 -3.5 -43s-5.83301 -28.333 -10.5 -43c45.333 73.333 101.833 128.833 169.5 166.5s144.167 56.5 229.5 56.5c77.333 0 146.833 -17.333 208.5 -52s107.5 -82 137.5 -142c18 -34.667 30.667 -76 38 -124
s11 -125.667 11 -233v-565h-432v563c0 83.333 -11 140.333 -33 171s-60 46 -114 46c-54.667 0 -95.334 -18 -122.001 -54s-40 -91 -40 -165v-561h-432zM909.001 537v-490h330v520c0 74.667 -2.5 134.5 -7.5 179.5s-12.833 82.167 -23.5 111.5
c-24.667 67.333 -65.667 119.333 -123 156s-126 55 -206 55c-78 0 -151.167 -22.667 -219.5 -68s-133.833 -114 -196.5 -206v245h-295v-993h330v488c0 97.333 17.833 170.333 53.5 219s89.5 73 161.5 73c71.333 0 121.833 -20.833 151.5 -62.5s44.5 -117.5 44.5 -227.5z" />
    <glyph glyph-name="o" unicode="o" horiz-adv-x="1348" 
d="M444 545c0 118 18 202.332 54 252.999s94.667 76 176 76s140.166 -25.5 176.499 -76.5s54.5 -135.167 54.5 -252.5s-18.167 -201.666 -54.5 -252.999s-95.166 -77 -176.499 -77s-140 25.5 -176 76.5s-54 135.5 -54 253.5zM111 544.999
c0 -165.333 50.5 -296.167 151.5 -392.5s238.167 -144.5 411.5 -144.5c174 0 311.333 48 412 144s151 227 151 393s-50.333 296.833 -151 392.5s-238 143.5 -412 143.5s-311.333 -48.167 -412 -144.5s-151 -226.833 -151 -391.5zM496 544.998
c0 -100.667 13.998 -173 41.998 -217s73.333 -66 136 -66s108.334 22.167 137.001 66.5s43 116.5 43 216.5c0 99.333 -14.167 170.833 -42.5 214.5s-74.166 65.5 -137.499 65.5s-108.833 -21.667 -136.5 -65s-41.5 -115 -41.5 -215zM58.998 544.998
c0 180 54.833 321.833 164.5 425.5s259.834 155.5 450.501 155.5c190 0 339.833 -51.833 449.5 -155.5s164.5 -245.5 164.5 -425.5c0 -180.667 -54.833 -323.167 -164.5 -427.5s-259.5 -156.5 -449.5 -156.5c-190.667 0 -340.834 52.167 -450.501 156.5
s-164.5 246.833 -164.5 427.5z" />
    <glyph glyph-name="p" unicode="p" horiz-adv-x="1386" 
d="M119 1087h382.999v-98c0 -10.667 -1 -21.167 -3 -31.5s-5 -21.5 -9 -33.5c44 64.667 96.5 113.167 157.5 145.5s130.5 48.5 208.5 48.5c140 0 253.167 -52.833 339.5 -158.5s129.5 -245.167 129.5 -418.5c0 -176 -43.167 -317 -129.5 -423s-200.833 -159 -343.5 -159
c-69.333 0 -133.5 16 -192.5 48s-104.167 74.667 -135.5 128c4.66699 -14.667 8.33398 -30.667 11.001 -48s4 -35.333 4 -54v-469h-420v1523zM493.999 229c59.333 -79.333 117.331 -136.333 173.998 -171s120.667 -52 192 -52c122.667 0 222.334 49.167 299.001 147.5
s115 226.833 115 385.5c0 159.333 -38.167 287.5 -114.5 384.5s-176.166 145.5 -299.499 145.5c-78 0 -150.833 -21 -218.5 -63s-131.167 -105.667 -190.5 -191v225h-281v-1429h324v618zM712.997 797c-55.333 0 -98.5 -21.999 -129.5 -65.999s-46.5 -105.333 -46.5 -184
c0 -86 14.333 -149.5 43 -190.5s73 -61.5 133 -61.5s104.667 20.667 134 62s44 104.666 44 189.999c0 78.667 -15.833 140 -47.5 184s-75.167 66 -130.5 66zM482.997 547.001c0 93.333 20.333 166.166 61 218.499s97 78.5 169 78.5c71.333 0 127.333 -26.167 168 -78.5
s61 -125.166 61 -218.499c0 -101.333 -18.833 -176.5 -56.5 -225.5s-95.167 -73.5 -172.5 -73.5c-76 0 -133.333 25 -172 75s-58 124.667 -58 224z" />
    <glyph glyph-name="q" unicode="q" horiz-adv-x="1386" 
d="M676 844c71.333 0 127 -26.167 167 -78.5s60 -125.166 60 -218.499c0 -99.333 -19 -174 -57 -224s-94.667 -75 -170 -75c-77.333 0 -135 24.5 -173 73.5s-57 124.167 -57 225.5c0 93.333 20.333 166.166 61 218.499s97 78.5 169 78.5zM852 547
c0 78.667 -15.833 140.001 -47.5 184.001s-75.167 66 -130.5 66s-98.5 -22 -129.5 -66s-46.5 -105.333 -46.5 -184c0 -86 14.333 -149.5 43 -190.5s73 -61.5 133 -61.5s104.667 20.667 134 62s44 104.666 44 189.999zM895 229.001v-618h324v1429h-281v-225
c-59.333 85.333 -123 149 -191 191s-141 63 -219 63c-123.333 0 -223 -48.5 -299 -145.5s-114 -225.167 -114 -384.5c0 -158.667 38.333 -287.167 115 -385.5s176 -147.5 298 -147.5c71.333 0 135.5 17.333 192.5 52s115.167 91.667 174.5 171zM1270 1087l0.000976562 -1523
h-422v469c0 19.333 1.16699 37.333 3.5 54s5.83301 32.667 10.5 48c-30.667 -54 -75.334 -96.833 -134.001 -128.5s-122.334 -47.5 -191.001 -47.5c-143.333 0 -258.166 53 -344.499 159s-129.5 247 -129.5 423c0 174 43 313.667 129 419s198.667 158 338 158
c78 0 148 -16.333 210 -49s115 -81 159 -145c-4 11.333 -7 22.333 -9 33s-3 21.334 -3 32.001v98h383z" />
    <glyph glyph-name="r" unicode="r" horiz-adv-x="936" 
d="M170 47l331.999 -0.000976562v369c0 110 24.5 191 73.5 243s125.5 78 229.5 78h39v332h-21c-81.333 0 -150.666 -29.667 -207.999 -89s-107.333 -152.666 -150 -279.999v340h-295v-993zM552.999 -0.000976562h-434v1087h395v-131c0 -10 -1.16699 -24.5 -3.5 -43.5
s-5.83301 -40.5 -10.5 -64.5c32 96 75.5 164.667 130.5 206s130.167 62 225.5 62h39v-431l-53 3.5c-15.333 1 -28.333 1.5 -39 1.5c-86 0 -149.167 -19.667 -189.5 -59s-60.5 -101 -60.5 -185v-446z" />
    <glyph glyph-name="s" unicode="s" horiz-adv-x="1253" 
d="M63 342l419.999 -0.000976562c0 -46 11.833 -80.333 35.5 -103s59.167 -34 106.5 -34c45.333 0 80.166 7.83301 104.499 23.5s36.5 38.5 36.5 68.5c0 48.667 -55.667 84.334 -167 107.001c-24 4.66699 -43 8.66699 -57 12c-177.333 37.333 -296.666 81.333 -357.999 132
s-92 124 -92 220c0 116.667 45.5 205.5 136.5 266.5s223.833 91.5 398.5 91.5c162 0 287.5 -28.667 376.5 -86s140.167 -142.666 153.5 -255.999h-389c-3.33301 32.667 -17.5 58.667 -42.5 78s-56.5 29 -94.5 29s-67 -6.5 -87 -19.5s-30 -31.833 -30 -56.5
c0 -44 55 -77.667 165 -101c42 -8.66699 75.333 -16 100 -22c166 -38.667 276.667 -83.5 332 -134.5s83 -124.167 83 -219.5c0 -124.667 -48.5 -218.667 -145.5 -282s-240.5 -95 -430.5 -95c-176 0 -310.167 31.667 -402.5 95s-143.166 158.666 -152.499 285.999z
M439.999 294.999l-313.001 -0.00292969c10 -92.667 57.333 -163.334 142 -212.001s203.334 -73 356.001 -73c169.333 0 298 27.833 386 83.5s132 137.167 132 244.5c0 82 -27.5 146.167 -82.5 192.5s-156.5 85.833 -304.5 118.5l-63 14c-153.333 33.333 -230 82 -230 146
c0 38.667 15.167 69.834 45.5 93.501s70.5 35.5 120.5 35.5c45.333 0 83.166 -9.5 113.499 -28.5s49.166 -45.167 56.499 -78.5h291c-12.667 80 -59.167 142 -139.5 186s-187.5 66 -321.5 66c-160 0 -281 -26.833 -363 -80.5s-123 -133.167 -123 -238.5
c0 -81.333 28.833 -144 86.5 -188s175.834 -84.333 354.501 -121c100 -21.333 163.833 -43.166 191.5 -65.499s41.5 -53.166 41.5 -92.499c0 -43.333 -17.333 -77.666 -52 -102.999s-81.334 -38 -140.001 -38c-55.333 0 -98.666 11.833 -129.999 35.5
s-49.666 58.167 -54.999 103.5z" />
    <glyph glyph-name="t" unicode="t" horiz-adv-x="879" 
d="M616 403c0 -36.667 10.165 -62.5 30.498 -77.5s57.5 -22.5 111.5 -22.5c16.667 0 29.334 0.166992 38.001 0.5s17 0.833008 25 1.5v-313c-50 -3.33301 -97 -5.83301 -141 -7.5s-85.667 -2.5 -125 -2.5c-137.333 0 -233.166 23 -287.499 69s-81.5 126.667 -81.5 242v545
h-153v249h153v336h430v-336h205v-249h-205v-435zM564.998 408l0.00195312 477.002h205v155h-205v336h-327v-336h-154v-155h154v-547c0 -122.667 23.167 -204.834 69.5 -246.501s137.833 -62.5 274.5 -62.5c39.333 0 74.166 0.666992 104.499 2s58.166 3.33301 83.499 6v221
h-31c-70 0 -116.5 10.167 -139.5 30.5s-34.5 60.166 -34.5 119.499z" />
    <glyph glyph-name="u" unicode="u" horiz-adv-x="1399" 
d="M1282 1087l0.000976562 -1087h-395v109c0 14.667 1.16699 29 3.5 43s5.83301 28 10.5 42c-46 -73.333 -102.5 -128.833 -169.5 -166.5s-142.833 -56.5 -227.5 -56.5c-76.667 0 -146.334 17.833 -209.001 53.5s-109 83.5 -139 143.5
c-17.333 33.333 -29.5 72.666 -36.5 117.999s-10.5 124.666 -10.5 237.999v563h430v-561c0 -82.667 11.333 -139.834 34 -171.501s61 -47.5 115 -47.5s94.5 18.333 121.5 55s40.5 92 40.5 166v559h432zM487.001 553.003l-0.000976562 488.999h-327v-522
c0 -74 2.33301 -133.167 7 -177.5s12.334 -81.5 23.001 -111.5c25.333 -67.333 66.833 -119.666 124.5 -156.999s126.167 -56 205.5 -56c77.333 0 149.833 22.5 217.5 67.5s133.167 114.167 196.5 207.5v-246h297v995h-330v-487c0 -98 -17.833 -171.667 -53.5 -221
s-89.5 -74 -161.5 -74s-123.167 21.333 -153.5 64s-45.5 119 -45.5 229z" />
    <glyph glyph-name="v" unicode="v" horiz-adv-x="1190" 
d="M401 47h412l324 993h-310l-223 -784l-221 784h-326zM367 0l-379.002 1087h430l166 -579c6.66699 -24.667 11.834 -48.5 15.501 -71.5s5.83398 -45.5 6.50098 -67.5c1.33301 27.333 3.5 52.333 6.5 75s7.16699 43.334 12.5 62.001l166 581h411l-352 -1087h-483z" />
    <glyph glyph-name="w" unicode="w" horiz-adv-x="1909" 
d="M418 47h350l195 776l198 -776h350l312 993h-312l-198 -821l-207 821h-287l-209 -823l-198 823h-322zM381 0l-358.002 1087h428l147 -608c3.33301 -12.667 6.33301 -30.5 9 -53.5s4.33398 -48.5 5.00098 -76.5c0 22 1.33301 43.833 4 65.5s6.33398 42.167 11.001 61.5
l153 611h365l151 -597c4 -16.667 7.33301 -37 10 -61s5 -50.667 7 -80c0 23.333 1.33301 46.833 4 70.5s6.66699 46.834 12 69.501l146 598h411l-342 -1087h-424l-139 559c-4 16 -7.5 36 -10.5 60s-5.5 51.667 -7.5 83c-2.66699 -31.333 -5.5 -59 -8.5 -83
s-6.5 -44 -10.5 -60l-139 -559h-424z" />
    <glyph glyph-name="x" unicode="x" horiz-adv-x="1223" 
d="M68 47h354l182 356l193 -356h358l-346 526l332 467h-350l-179 -311l-168 311h-346l324 -465zM-23 0l384.999 571.003l-354 516h471l115 -215c5.33301 -10 10 -21.333 14 -34s7.33301 -26.334 10 -41.001c0.666992 1.33301 1.33398 3.33301 2.00098 6
c6.66699 35.333 13 57.666 19 66.999l123 217h471l-365 -512l377 -575h-481l-137 262c-6 12 -10.833 23.667 -14.5 35s-6.5 22.666 -8.5 33.999c-4.66699 -24 -10.667 -46.333 -18 -67v-2l-133 -262h-476z" />
    <glyph glyph-name="y" unicode="y" horiz-adv-x="1202" 
d="M133 -428l-0.00292969 322.002h123c42 0 72.333 7.16699 91 21.5s28 37.833 28 70.5c0 14 -1.83301 29.667 -5.5 47s-9.5 37 -17.5 59l-364 995h438l176 -620c4 -14.667 7.16699 -29.834 9.5 -45.501s3.83301 -32.5 4.5 -50.5
c0.666992 4.66699 1.33398 11.334 2.00098 20.001c3.33301 43.333 6.33301 68.666 9 75.999l174 620h407l-352 -1081c-38 -117.333 -68.167 -199 -90.5 -245s-46.166 -81.667 -71.499 -107c-32.667 -32.667 -72 -55.834 -118 -69.501s-120.667 -20.5 -224 -20.5
c-30 0 -63.667 0.666992 -101 2s-76.666 3.33301 -117.999 6zM796.997 -15.998l348.001 1056h-307l-222 -792l-231 792h-330l359 -963c4 -10 7.33301 -22.667 10 -38s4 -31 4 -47c0 -46.667 -12.833 -82.334 -38.5 -107.001s-62.5 -37 -110.5 -37h-95v-231
c31.333 -2.66699 62.833 -4.66699 94.5 -6s64.5 -2 98.5 -2c119.333 0 205.166 19.833 257.499 59.5s106.5 144.834 162.5 315.501z" />
    <glyph glyph-name="z" unicode="z" horiz-adv-x="1096" 
d="M78 47h926v223h-580l557 539v231h-860v-223h516l-559 -538v-232zM27 0v293l458 442c8 7.33301 18.5 15.5 31.5 24.5s27.833 17.833 44.5 26.5c-14.667 -4.66699 -29 -8.5 -43 -11.5s-26.333 -4.5 -37 -4.5h-411v317h962v-290l-444 -441c-8.66699 -8 -20.5 -17 -35.5 -27
s-31.833 -19.333 -50.5 -28c18.667 5.33301 36 9.33301 52 12s28 4 36 4h465v-317h-1028z" />
    <glyph glyph-name="braceleft" unicode="{" 
d="M844 1477l0.000976562 -69.998h-37c-92.667 0 -155.5 -17.833 -188.5 -53.5s-49.5 -109.167 -49.5 -220.5v-242c0 -118.667 -14 -202.834 -42 -252.501s-78 -85.834 -150 -108.501c72 -22 122 -57.833 150 -107.5s42 -133.834 42 -252.501v-242
c0 -111.333 16.5 -184.833 49.5 -220.5s95.833 -53.5 188.5 -53.5h37v-68h-33c-124.667 0 -209.834 25.333 -255.501 76s-68.5 152.334 -68.5 305.001v238c0 107.333 -19.5 182.666 -58.5 225.999s-106.833 65 -203.5 65c-4.66699 0 -11.834 -0.333008 -21.501 -1
s-17.5 -1 -23.5 -1l1 73c6 -0.666992 12.5 -1.16699 19.5 -1.5s17.167 -0.5 30.5 -0.5c93.333 0 159.333 21.833 198 65.5s58 118.834 58 225.501v238c0 153.333 22.833 255.5 68.5 306.5s130.834 76.5 255.501 76.5h33z" />
    <glyph glyph-name="bar" unicode="|" 
d="M475 1565h74v-2048h-74v2048z" />
    <glyph glyph-name="braceright" unicode="}" 
d="M182 1477l32.999 0.00488281c124 0 208.667 -25.5 254 -76.5s68 -153.167 68 -306.5v-238c0 -106.667 19.333 -181.834 58 -225.501s105.334 -65.5 200.001 -65.5c13.333 0 23.5 0.166992 30.5 0.5s13.833 0.833008 20.5 1.5v-73c-6 0 -13.833 0.333008 -23.5 1
s-16.834 1 -21.501 1c-97.333 0 -165.666 -21.833 -204.999 -65.5s-59 -118.834 -59 -225.501v-238c0 -152.667 -22.667 -254.334 -68 -305.001s-130 -76 -254 -76h-33v70h39c92 0 154 17.333 186 52s48 108 48 220v242c0 117.333 14.333 201.166 43 251.499
s79 86.5 151 108.5c-72 22.667 -122.333 59.167 -151 109.5s-43 134.166 -43 251.499v242c0 112.667 -16.167 186.5 -48.5 221.5s-94.833 52.5 -187.5 52.5h-37v70z" />
    <glyph glyph-name="asciitilde" unicode="~" horiz-adv-x="1706" 
d="M1530 729l0.00195312 -71.9971c-70 -48.667 -137.167 -85.334 -201.5 -110.001s-126.166 -37 -185.499 -37c-40 0 -80.333 4.33301 -121 13s-96.334 26 -167.001 52l-38 14c-110.667 41.333 -194.667 62 -252 62c-54 0 -111 -12.333 -171 -37s-132 -66.334 -216 -125.001
v74c68 49.333 134.167 86.333 198.5 111s127.166 37 188.499 37c29.333 0 60 -3.16699 92 -9.5s65.667 -15.5 101 -27.5c20 -6.66699 49 -17.334 87 -32.001c131.333 -48.667 230.666 -73 297.999 -73c54.667 0 112.5 12.667 173.5 38s132.167 66 213.5 122z" />
    <glyph glyph-name="Euro" horiz-adv-x="1346" 
d="M1298 420l-326.999 -0.00195312c-14 -59.333 -37.167 -102.833 -69.5 -130.5s-76.166 -41.5 -131.499 -41.5c-69.333 0 -122.666 24.833 -159.999 74.5s-61 127.167 -71 232.5h284l31 82h-321c-1.33301 10 -2.16602 20.333 -2.49902 31s-0.5 27.667 -0.5 51
c0 21.333 0.166992 37 0.5 47s1.16602 19.667 2.49902 29h374l31 82h-401c10 109.333 33.667 189.166 71 239.499s91.333 75.5 162 75.5c55.333 0 99.666 -14 132.999 -42s54.666 -68 63.999 -120h327c-30.667 132 -90 232 -178 300s-202.667 102 -344 102
c-161.333 0 -289.5 -47.167 -384.5 -141.5s-153.167 -232.166 -174.5 -413.499h-127l-29 -82h150c0 -8 -0.333008 -20.5 -1 -37.5s-1 -29.833 -1 -38.5c0 -10 0.333008 -24 1 -42s1 -31.333 1 -40h-141l-29 -82h178c21.333 -179.333 79.5 -315.666 174.5 -408.999
s222.5 -140 382.5 -140c140.667 0 255.167 34.833 343.5 104.5s149.166 172.834 182.499 309.501zM1364 466.998c-30 -169.333 -94.3301 -296.331 -192.997 -380.998s-232.334 -127 -401.001 -127s-304.334 46.667 -407.001 140s-167.667 229.666 -195 408.999h-195l64 176
h115v64h-156l61 176h109c27.333 181.333 92.166 318.833 194.499 412.5s238.833 140.5 409.5 140.5c166.667 0 299.167 -41.333 397.5 -124s162.5 -206 192.5 -370h-434c-8 56 -24.667 97 -50 123s-60.666 39 -105.999 39c-50 0 -88.833 -17.667 -116.5 -53
s-46.834 -91.333 -57.501 -168h405l-63 -176h-354v-64h331l-61 -176h-256c11.333 -72.667 31 -126.334 59 -161.001s65.667 -52 113 -52s84 13.833 110 41.5s43.333 71.167 52 130.5h432z" />
    <glyph glyph-name="Euro" unicode="&#x20ac;" horiz-adv-x="1346" 
d="M1298 420l-326.999 -0.00195312c-14 -59.333 -37.167 -102.833 -69.5 -130.5s-76.166 -41.5 -131.499 -41.5c-69.333 0 -122.666 24.833 -159.999 74.5s-61 127.167 -71 232.5h284l31 82h-321c-1.33301 10 -2.16602 20.333 -2.49902 31s-0.5 27.667 -0.5 51
c0 21.333 0.166992 37 0.5 47s1.16602 19.667 2.49902 29h374l31 82h-401c10 109.333 33.667 189.166 71 239.499s91.333 75.5 162 75.5c55.333 0 99.666 -14 132.999 -42s54.666 -68 63.999 -120h327c-30.667 132 -90 232 -178 300s-202.667 102 -344 102
c-161.333 0 -289.5 -47.167 -384.5 -141.5s-153.167 -232.166 -174.5 -413.499h-127l-29 -82h150c0 -8 -0.333008 -20.5 -1 -37.5s-1 -29.833 -1 -38.5c0 -10 0.333008 -24 1 -42s1 -31.333 1 -40h-141l-29 -82h178c21.333 -179.333 79.5 -315.666 174.5 -408.999
s222.5 -140 382.5 -140c140.667 0 255.167 34.833 343.5 104.5s149.166 172.834 182.499 309.501zM1364 466.998c-30 -169.333 -94.3301 -296.331 -192.997 -380.998s-232.334 -127 -401.001 -127s-304.334 46.667 -407.001 140s-167.667 229.666 -195 408.999h-195l64 176
h115v64h-156l61 176h109c27.333 181.333 92.166 318.833 194.499 412.5s238.833 140.5 409.5 140.5c166.667 0 299.167 -41.333 397.5 -124s162.5 -206 192.5 -370h-434c-8 56 -24.667 97 -50 123s-60.666 39 -105.999 39c-50 0 -88.833 -17.667 -116.5 -53
s-46.834 -91.333 -57.501 -168h405l-63 -176h-354v-64h331l-61 -176h-256c11.333 -72.667 31 -126.334 59 -161.001s65.667 -52 113 -52s84 13.833 110 41.5s43.333 71.167 52 130.5h432z" />
    <glyph glyph-name="nonbreakingspace" unicode="&#xa0;" horiz-adv-x="1346" 
 />
    <glyph glyph-name="exclamdown" unicode="&#xa1;" horiz-adv-x="768" 
d="M463 897h-156l-92 -510v-340h336v340zM504 946l98 -577v-369h-438v369l100 577h240zM547 1423h-328v-309h328v309zM598 1473v-406h-430v406h430z" />
    <glyph glyph-name="cent" unicode="&#xa2;" horiz-adv-x="1346" 
d="M541 -27l-111.002 -266.001h-180l129 311c-103.333 48.667 -182.5 118 -237.5 208s-82.5 196.333 -82.5 319c0 180 55.333 321.833 166 425.5s262.334 155.5 455.001 155.5c26.667 0 53.834 -1.33301 81.501 -4s55.834 -6.66699 84.501 -12l88 203h180l-106 -256
c82 -36 145.333 -86.667 190 -152s68.334 -142.333 71.001 -231h-433c-3.33301 51.333 -17.833 89.333 -43.5 114s-63.834 37 -114.501 37c-62.667 0 -108.667 -22.5 -138 -67.5s-44 -115.833 -44 -212.5c0 -98.667 14 -170.5 42 -215.5s72.667 -67.5 134 -67.5
c52 0 92 13.333 120 40s44.667 67.334 50 122.001h432c-10.667 -146.667 -68.834 -260.5 -174.501 -341.5s-249.5 -121.5 -431.5 -121.5c-25.333 0 -48 1 -68 3s-39.667 5 -59 9zM884.998 376.999c-9.33301 -51.333 -32.4961 -91.1699 -69.4961 -119.503
s-84.167 -42.5 -141.5 -42.5c-77.333 0 -135 27.333 -173 82s-57 137.334 -57 248.001c0 113.333 19.667 196.5 59 249.5s100.333 79.5 183 79.5c54.667 0 99.167 -13.333 133.5 -40s54.833 -63.667 61.5 -111h331c-6.66699 69.333 -32.834 130.333 -78.501 183
s-108.834 95.334 -189.501 128.001l98 230h-79l-89 -207c-26 8 -53.5 13.667 -82.5 17s-66.167 5 -111.5 5c-174.667 0 -312.834 -47.667 -414.501 -143s-152.5 -225.666 -152.5 -390.999c0 -120 28.333 -223.167 85 -309.5s138 -149.833 244 -190.5l-123 -291h78l117 275
c22 -6.66699 45.333 -11.5 70 -14.5s52.667 -4.5 84 -4.5c156 0 282.167 32.333 378.5 97s153.166 154.667 170.499 270h-332z" />
    <glyph glyph-name="sterling" unicode="&#xa3;" horiz-adv-x="1346" 
d="M221 -23l-185.995 317.998c77.333 46.667 133.833 93 169.5 139s53.5 95.333 53.5 148c0 14 -0.333008 26.167 -1 36.5s-1.66699 20.5 -3 30.5h-178v178h117c-22.667 41.333 -39.334 80.666 -50.001 117.999s-16 74 -16 110c0 127.333 50.667 228.333 152 303
s238.333 112 411 112c186.667 0 330.667 -44 432 -132s152.666 -213.667 153.999 -377h-381c-2 61.333 -18.333 108.333 -49 141s-73.667 49 -129 49c-47.333 0 -85.833 -11.667 -115.5 -35s-44.5 -54 -44.5 -92c0 -23.333 5 -49.166 15 -77.499s28.333 -68.166 55 -119.499
h215v-178h-186c-2.66699 -48.667 -18.667 -93.834 -48 -135.501s-76.333 -85.167 -141 -130.5c35.333 15.333 66.5 26.333 93.5 33s53.167 10 78.5 10c44.667 0 99 -9.83301 163 -29.5s108 -29.5 132 -29.5c32 0 64.167 6.83301 96.5 20.5s69.166 36.834 110.499 69.501
l166 -340c-45.333 -45.333 -97.833 -80.666 -157.5 -105.999s-119.834 -38 -180.501 -38c-59.333 0 -138.833 19.5 -238.5 58.5s-175.834 58.5 -228.501 58.5c-44.667 0 -89.167 -8.83301 -133.5 -26.5s-93.5 -46.5 -147.5 -86.5zM791.005 779.998l-196.998 0.000976562
c-32 60 -54.667 108.667 -68 146s-20 69.333 -20 96c0 54.667 18.5 97.667 55.5 129s86.833 47 149.5 47c65.333 0 117.666 -16.5 156.999 -49.5s62.666 -79.833 69.999 -140.5h281c-4.66699 130 -53.5 231.667 -146.5 305s-219.833 110 -380.5 110
c-158 0 -283.167 -32.833 -375.5 -98.5s-138.5 -154.167 -138.5 -265.5c0 -38.667 7.66699 -80.5 23 -125.5s39 -96.167 71 -153.5h-143v-82h172c2 -22.667 3.5 -42.667 4.5 -60s1.5 -31.333 1.5 -42c0 -64 -16.167 -120.167 -48.5 -168.5s-85.833 -95.166 -160.5 -140.499
l142 -242c46 32 90.667 55.333 134 70s88 22 134 22c56 0 133 -19.5 231 -58.5s174.667 -58.5 230 -58.5c52.667 0 103.167 9.33301 151.5 28s90.5 45 126.5 79l-125 256c-32 -22.667 -63 -39.667 -93 -51s-59.667 -17 -89 -17c-26.667 0 -74 10.667 -142 32
s-123 32 -165 32c-38.667 0 -82.167 -5.33301 -130.5 -16s-100.5 -26.667 -156.5 -48c100 81.333 169.333 149.166 208 203.499s58 108.166 58 161.499v18h179v82z" />
    <glyph glyph-name="currency" unicode="&#xa4;" horiz-adv-x="1346" 
d="M1298 420l-326.999 -0.00195312c-14 -59.333 -37.167 -102.833 -69.5 -130.5s-76.166 -41.5 -131.499 -41.5c-69.333 0 -122.666 24.833 -159.999 74.5s-61 127.167 -71 232.5h284l31 82h-321c-1.33301 10 -2.16602 20.333 -2.49902 31s-0.5 27.667 -0.5 51
c0 21.333 0.166992 37 0.5 47s1.16602 19.667 2.49902 29h374l31 82h-401c10 109.333 33.667 189.166 71 239.499s91.333 75.5 162 75.5c55.333 0 99.666 -14 132.999 -42s54.666 -68 63.999 -120h327c-30.667 132 -90 232 -178 300s-202.667 102 -344 102
c-161.333 0 -289.5 -47.167 -384.5 -141.5s-153.167 -232.166 -174.5 -413.499h-127l-29 -82h150c0 -8 -0.333008 -20.5 -1 -37.5s-1 -29.833 -1 -38.5c0 -10 0.333008 -24 1 -42s1 -31.333 1 -40h-141l-29 -82h178c21.333 -179.333 79.5 -315.666 174.5 -408.999
s222.5 -140 382.5 -140c140.667 0 255.167 34.833 343.5 104.5s149.166 172.834 182.499 309.501zM1364 466.998c-30 -169.333 -94.3301 -296.331 -192.997 -380.998s-232.334 -127 -401.001 -127s-304.334 46.667 -407.001 140s-167.667 229.666 -195 408.999h-195l64 176
h115v64h-156l61 176h109c27.333 181.333 92.166 318.833 194.499 412.5s238.833 140.5 409.5 140.5c166.667 0 299.167 -41.333 397.5 -124s162.5 -206 192.5 -370h-434c-8 56 -24.667 97 -50 123s-60.666 39 -105.999 39c-50 0 -88.833 -17.667 -116.5 -53
s-46.834 -91.333 -57.501 -168h405l-63 -176h-354v-64h331l-61 -176h-256c11.333 -72.667 31 -126.334 59 -161.001s65.667 -52 113 -52s84 13.833 110 41.5s43.333 71.167 52 130.5h432z" />
    <glyph glyph-name="yen" unicode="&#xa5;" horiz-adv-x="1497" 
d="M600 47h311v506h490v94h-436l424 742h-322l-315 -601l-312 601h-327l430 -742h-447v-94h504v-506zM547 0l-0.00195312 506h-502v188h410l-428 744h450l252 -486c6.66699 -12 11.834 -24.167 15.501 -36.5s6.83398 -26.5 9.50098 -42.5c2.66699 15.333 6.5 30 11.5 44
s11.167 27.667 18.5 41l252 480h437l-422 -744h403v-188h-491v-506h-416z" />
    <glyph glyph-name="brokenbar" unicode="&#xa6;" 
d="M475 408h74v-758h-74v758zM475 1432h74v-758h-74v758z" />
    <glyph glyph-name="section" unicode="&#xa7;" 
d="M637 438c-44 21.333 -102.667 47.334 -176 78.001c-143.333 59.333 -215 114.666 -215 165.999c0 28.667 10 56 30 82s58.333 58.667 115 98c50 -29.333 117 -63 201 -101c122.667 -56 184 -109.667 184 -161c0 -30.667 -11.333 -59.167 -34 -85.5
s-57.667 -51.833 -105 -76.5zM668 1192h214c-0.666992 82 -35.334 148.167 -104.001 198.5s-160 75.5 -274 75.5c-117.333 0 -207.833 -25.333 -271.5 -76s-95.5 -122 -95.5 -214c0 -50 11.167 -95 33.5 -135s57.5 -79 105.5 -117
c-73.333 -26.667 -127.833 -62.167 -163.5 -106.5s-53.5 -99.166 -53.5 -164.499c0 -74.667 25.5 -139.167 76.5 -193.5s131.5 -102.5 241.5 -144.5l153 -59c65.333 -25.333 107.666 -49 126.999 -71s29 -49.667 29 -83c0 -38.667 -15.667 -71.167 -47 -97.5
s-70.333 -39.5 -117 -39.5c-48 0 -88.667 14.333 -122 43s-52.666 66 -57.999 112l-209 1c11.333 -101.333 49 -176.166 113 -224.499s157.333 -72.5 280 -72.5c116 0 207.833 25.667 275.5 77s101.5 120.666 101.5 207.999c0 56 -12.833 105.5 -38.5 148.5
s-64.5 79.5 -116.5 109.5c70.667 22 123.834 55 159.501 99s53.5 98.333 53.5 163c0 74 -22 137.333 -66 190s-113 98.334 -207 137.001l-162 68c-66 27.333 -112.167 54.666 -138.5 81.999s-39.5 60.666 -39.5 99.999c0 38 13.833 68.333 41.5 91s64.5 34 110.5 34
c43.333 0 80.333 -12.667 111 -38s49.667 -59 57 -101zM78 168.001l305.001 0.00195312v-8c0 -43.333 13 -78.833 39 -106.5s59.333 -41.5 100 -41.5c32.667 0 60 9 82 27s33 39.667 33 65c0 40.667 -48.667 79.667 -146 117l-11 4l-154 60
c-104.667 40 -183.167 90.833 -235.5 152.5s-78.5 134.167 -78.5 217.5c0 62.667 13.667 115.667 41 159s72.333 83.333 135 120c-34.667 30 -60.667 64.667 -78 104s-26 83.666 -26 132.999c0 108 35.833 192 107.5 252s172.5 90 302.5 90
c144.667 0 254.834 -31.167 330.501 -93.5s114.167 -153.833 115.5 -274.5h-313v4c0 40.667 -11.333 73 -34 97s-53 36 -91 36c-32.667 0 -58.334 -7.33301 -77.001 -22s-28 -34.667 -28 -60c0 -24 13 -47 39 -69s66.333 -44 121 -66l160 -68
c97.333 -40 170.833 -90.333 220.5 -151s74.5 -131 74.5 -211c0 -66.667 -14.833 -123.167 -44.5 -169.5s-72.834 -80.833 -129.501 -103.5c40 -34.667 69.667 -72.5 89 -113.5s29 -86.167 29 -135.5c0 -102.667 -38.333 -184.334 -115 -245.001s-181 -91 -313 -91
c-149.333 0 -261.333 32.5 -336 97.5s-112.667 162.833 -114 293.5zM635.001 492.003c29.333 10.667 51.666 24.832 66.999 42.499s23 37.5 23 59.5c0 41.333 -53.333 85 -160 131c-71.333 30.667 -129.333 58 -174 82c-33.333 -18.667 -57.666 -37.667 -72.999 -57
s-23 -40.666 -23 -63.999c0 -36 54.333 -75.667 163 -119c72.667 -28.667 131.667 -53.667 177 -75z" />
    <glyph glyph-name="dieresis" unicode="&#xa8;" 
d="M567 1210v256h236v-256h-236zM618 1257h134v162h-134v-162zM221 1210v256h236v-256h-236zM272 1257h131v162h-131v-162z" />
    <glyph glyph-name="copyright" unicode="&#xa9;" horiz-adv-x="1706" 
d="M1182 922h-79.9971c-14.667 58 -43.834 103.5 -87.501 136.5s-97.167 49.5 -160.5 49.5c-90.667 0 -161.834 -34.5 -213.501 -103.5s-77.5 -164.833 -77.5 -287.5c0 -117.333 26.5 -210.833 79.5 -280.5s123.5 -104.5 211.5 -104.5c67.333 0 125 19.167 173 57.5
s77.667 88.833 89 151.5h74c-7.33301 -80.667 -43.333 -147 -108 -199s-143.334 -78 -236.001 -78c-112.667 0 -202.667 41 -270 123s-101 192 -101 330c0 140 34.833 251.167 104.5 333.5s163.167 123.5 280.5 123.5c85.333 0 158 -23.5 218 -70.5
s94.667 -107.5 104 -181.5zM852.003 1382c-90.667 0 -175.333 -16.1709 -254 -48.5039s-149 -80.166 -211 -143.499c-64 -64.667 -113.167 -137.667 -147.5 -219s-51.5 -165.333 -51.5 -252c0 -87.333 17 -171.166 51 -251.499s82.667 -152.166 146 -215.499
c64 -64 136.167 -113.167 216.5 -147.5s163.833 -51.5 250.5 -51.5s170.667 17.333 252 52s155 84.334 221 149.001c62.667 60.667 110.5 130.667 143.5 210s49.5 164.333 49.5 255c0 90 -16.5 175 -49.5 255s-80.833 151.333 -143.5 214c-64 63.333 -136 111.5 -216 144.5
s-165.667 49.5 -257 49.5zM852.004 1446c100 0 193.833 -18 281.5 -54s166.5 -89 236.5 -159c68.667 -68.667 121 -147 157 -235s54 -181 54 -279c0 -100 -17.833 -193.5 -53.5 -280.5s-87.5 -164.167 -155.5 -231.5c-70.667 -70 -151 -123.667 -241 -161s-183 -56 -279 -56
s-188 18.333 -276 55s-166.667 90 -236 160c-69.333 69.333 -122.5 148.166 -159.5 236.499s-55.5 180.833 -55.5 277.5c0 96 18.5 188.333 55.5 277s90.167 168.334 159.5 239.001c68 69.333 145.333 121.833 232 157.5s180 53.5 280 53.5z" />
    <glyph glyph-name="ordfeminine" unicode="&#xaa;" horiz-adv-x="1059" 
d="M678 1102l-0.000976562 -64c0 -77.333 -15.333 -130.666 -46 -159.999s-81.667 -44 -153 -44c-40 0 -70.833 8.16699 -92.5 24.5s-32.5 40.166 -32.5 71.499c0 52 52.333 91.333 157 118c70.667 18 126.334 36 167.001 54zM145.999 1272h239
c9.33301 26 26.166 45.5 50.499 58.5s56.5 19.5 96.5 19.5c48.667 0 85.167 -8.5 109.5 -25.5s36.5 -42.167 36.5 -75.5c0 -30.667 -10 -52.667 -30 -66s-68 -24.666 -144 -33.999c-176 -19.333 -288 -44.666 -336 -75.999s-72 -80.333 -72 -147
c0 -64.667 22.667 -115.334 68 -152.001s108 -55 188 -55c63.333 0 120.833 9.66699 172.5 29s101.5 50 149.5 92l24 -97l236 1c-5.33301 10 -9 20.167 -11 30.5s-3 23.166 -3 38.499v14v390c0 90 -29.167 154 -87.5 192s-156.166 57 -293.499 57
c-121.333 0 -216.5 -17.167 -285.5 -51.5s-104.833 -81.833 -107.5 -142.5zM638.999 1051c-31.333 -12 -73.667 -24.668 -127 -38.001c-80.667 -19.333 -121 -45.666 -121 -78.999c0 -21.333 8.33301 -38 25 -50s39.667 -18 69 -18c53.333 0 92.333 11.667 117 35
s37 60.333 37 111v24v15zM667.998 710.999l-13 47.002v33c-42.667 -36 -89 -62.833 -139 -80.5s-104.667 -26.5 -164 -26.5c-92.667 0 -164.667 21 -216 63s-77 101.667 -77 179c0 74 24.5 129 73.5 165s143.167 62.667 282.5 80c16 2 38.333 4.33301 67 7
c104.667 10.667 157 35.667 157 75c0 21.333 -9 37 -27 47s-46.667 15 -86 15c-34.667 0 -61 -6.33301 -79 -19s-28.667 -31.667 -32 -57h-306c0 86.667 35.667 151.667 107 195s178.333 65 321 65c58.667 0 114 -4.5 166 -13.5s93.333 -20.833 124 -35.5
c48 -22 81.833 -49.833 101.5 -83.5s29.5 -82.167 29.5 -145.5v-424c0 -14.667 3 -27.334 9 -38.001s14.667 -19.334 26 -26.001v-22h-325z" />
    <glyph glyph-name="guillemotleft" unicode="&#xab;" horiz-adv-x="1049" 
d="M965 143l-383 248v305l383 248v-278l-191 -121l191 -123v-279zM911 233v162l-184 119v59l184 119v160l-276 -178v-264zM393 233v162l-184 119v59l184 119v160l-276 -178v-264zM446 143l-380 248v305l380 248v-278l-190 -121l190 -123v-279z" />
    <glyph glyph-name="logicalnot" unicode="&#xac;" horiz-adv-x="1706" 
d="M254 854h1198v-502h-59v439h-1139v63z" />
    <glyph glyph-name="sfthyphen" unicode="&#xad;" horiz-adv-x="717" 
d="M154 406h409v290h-409v-290zM100 358v385h516v-385h-516z" />
    <glyph glyph-name="registered" unicode="&#xae;" horiz-adv-x="1706" 
d="M662 1083v-323h190c103.333 0 173.833 12.167 211.5 36.5s56.5 67.5 56.5 129.5c0 54 -21.333 93.667 -64 119s-110 38 -202 38h-192zM573 1155l304 0.000976562c120 0 207.667 -18.833 263 -56.5s83 -97.167 83 -178.5c0 -58.667 -19 -107.834 -57 -147.501
s-88 -63.167 -150 -70.5l192 -397h-104l-182 383h-260v-383h-89v850zM852 1382c-90.667 0 -175.667 -16.332 -255 -48.999s-150 -80.334 -212 -143.001c-63.333 -64.667 -112 -137.5 -146 -218.5s-51 -165.167 -51 -252.5c0 -86.667 17.167 -170.167 51.5 -250.5
s83.5 -152.5 147.5 -216.5s136 -113.167 216 -147.5s163 -51.5 249 -51.5c87.333 0 172 17.333 254 52s155.667 84.334 221 149.001c62.667 61.333 110.167 131.333 142.5 210s48.5 163.667 48.5 255c0 88.667 -16.667 173.167 -50 253.5s-81.666 152.166 -144.999 215.499
c-64.667 64 -136.834 112.333 -216.501 145s-164.5 49 -254.5 49zM852 1446c99.333 0 193 -18 281 -54s167 -88.333 237 -157c68.667 -68.667 121 -147.167 157 -235.5s54 -181.833 54 -280.5c0 -100 -17.667 -193.167 -53 -279.5s-87.333 -163.166 -156 -230.499
c-71.333 -70.667 -151.833 -124.834 -241.5 -162.501s-182.5 -56.5 -278.5 -56.5s-188 18.333 -276 55s-166.667 90 -236 160c-69.333 69.333 -122.5 148.166 -159.5 236.499s-55.5 180.833 -55.5 277.5c0 96 18.5 188.333 55.5 277s90.167 168.334 159.5 239.001
c68 69.333 145.333 121.833 232 157.5s180 53.5 280 53.5z" />
    <glyph glyph-name="macron" unicode="&#xaf;" 
d="M213 1260v174h598v-174h-598zM254 1303h516v88h-516v-88z" />
    <glyph glyph-name="degree" unicode="&#xb0;" horiz-adv-x="674" 
d="M338 1397c-60.667 0 -112.334 -21.333 -155.001 -64s-64 -94.334 -64 -155.001c0 -61.333 21.333 -113.333 64 -156s94.334 -64 155.001 -64s112 21.333 154 64s63 94.667 63 156c0 60.667 -21.167 112.334 -63.5 155.001s-93.5 64 -153.5 64zM338 1448
c73.333 0 136.333 -26.501 189 -79.501s79 -116.5 79 -190.5s-26.333 -137.333 -79 -190s-116.334 -79 -191.001 -79c-75.333 0 -138.833 26 -190.5 78s-77.5 115.667 -77.5 191c0 74.667 26.333 138.334 79 191.001s116.334 79 191.001 79z" />
    <glyph glyph-name="plusminus" unicode="&#xb1;" horiz-adv-x="1706" 
d="M254 133h1198v-63h-1198v63zM823 1151h62v-356h567v-64h-567v-356h-62v356h-569v64h569v356z" />
    <glyph glyph-name="twosuperior" unicode="&#xb2;" horiz-adv-x="889" 
d="M37 575v19c0 62.667 20.833 121.667 62.5 177s108.834 113 201.501 173c22.667 14.667 54.667 33.334 96 56.001c104 59.333 156 111.666 156 156.999c0 34 -10.333 61 -31 81s-48.667 30 -84 30c-44.667 0 -78 -12.833 -100 -38.5s-33 -64.834 -33 -117.501v-16h-252v28
c0 104.667 35.667 187.167 107 247.5s169 90.5 293 90.5c113.333 0 204.333 -25.667 273 -77s103 -119 103 -203c0 -99.333 -77 -191 -231 -275l-33 -18l-7 -4c-46.667 -24.667 -85.334 -46.667 -116.001 -66c-14 -8 -33.333 -20.667 -58 -38
c-4 -3.33301 -7 -5.66602 -9 -6.99902c10 4 20.5 7 31.5 9s22.167 3 33.5 3h385v-211h-788zM74 604l718.997 -0.000976562v154h-478c18 18 41.5 37.333 70.5 58s60.833 41 95.5 61l73 39c66.667 36.667 109.334 61.667 128.001 75c41.333 29.333 69.833 57.166 85.5 83.499
s23.5 59.5 23.5 99.5c0 79.333 -30.667 142.5 -92 189.5s-144 70.5 -248 70.5c-108.667 0 -196 -27.5 -262 -82.5s-99 -127.833 -99 -218.5v-9h186c0 56 13.833 98.667 41.5 128s67.167 44 118.5 44c45.333 0 82 -12.167 110 -36.5s42 -56.5 42 -96.5
c0 -16 -2.66699 -31 -8 -45s-13.666 -27.667 -24.999 -41c-19.333 -23.333 -60.666 -53.166 -123.999 -89.499s-108 -63.166 -134 -80.499c-76 -50.667 -132.167 -100.667 -168.5 -150s-54.5 -100.333 -54.5 -153z" />
    <glyph glyph-name="threesuperior" unicode="&#xb3;" horiz-adv-x="889" 
d="M45 881l260.001 -0.99707c1.33301 -42.667 12.833 -74.334 34.5 -95.001s54.5 -31 98.5 -31c38.667 0 68.167 8.5 88.5 25.5s30.5 41.833 30.5 74.5c0 33.333 -11.833 57.333 -35.5 72s-63.167 22 -118.5 22h-24v150h20c50.667 0 88.667 7.33301 114 22s38 36.667 38 66
c0 26 -9.16699 45.833 -27.5 59.5s-44.833 20.5 -79.5 20.5c-38 0 -67 -7.83301 -87 -23.5s-31 -39.167 -33 -70.5h-256c0.666992 86 36.334 155.833 107.001 209.5s162.667 80.5 276 80.5c110 0 197.833 -22.833 263.5 -68.5s98.5 -106.834 98.5 -183.501
c0 -44 -11.833 -80.833 -35.5 -110.5s-56.834 -48.834 -99.501 -57.501c48.667 -7.33301 87.5 -28.5 116.5 -63.5s43.5 -79.167 43.5 -132.5c0 -91.333 -36.333 -163.333 -109 -216s-172.334 -79 -299.001 -79c-116.667 0 -210 28 -280 84s-105 131 -105 225v21z
M412.001 1071l-0.000976562 -96.002c61.333 0 106.666 -9.66699 135.999 -29s44 -49.333 44 -90c0 -41.333 -13.333 -73.5 -40 -96.5s-64 -34.5 -112 -34.5c-50 0 -89.5 10.667 -118.5 32s-46.833 53 -53.5 95h-186v-4c0 -80 32.167 -144.667 96.5 -194
s148.833 -74 253.5 -74c115.333 0 205.666 23.667 270.999 71s98 113 98 197c0 49.333 -15.167 90.166 -45.5 122.499s-75.166 55.5 -134.499 69.5c52.667 16 92 37.833 118 65.5s39 61.834 39 102.501c0 70 -29.167 125.167 -87.5 165.5s-138.166 60.5 -239.499 60.5
c-100 0 -180.5 -20.667 -241.5 -62s-96.167 -98.666 -105.5 -171.999h191c6.66699 30 22.834 52.833 48.501 68.5s59.834 23.5 102.501 23.5c44.667 0 79.167 -9 103.5 -27s36.5 -43.667 36.5 -77c0 -36 -14.333 -63.667 -43 -83s-72.334 -30.666 -131.001 -33.999z" />
    <glyph glyph-name="acute" unicode="&#xb4;" 
d="M414 1241h92l282 242h-204zM328 1198l229 328h352l-387 -328h-194z" />
    <glyph glyph-name="mu" unicode="&#xb5;" horiz-adv-x="1040" 
d="M201 1057l66.998 -0.000976562l-123 -584c-7.33301 -36 -12.833 -67.5 -16.5 -94.5s-5.5 -50.833 -5.5 -71.5c0 -87.333 22.333 -154.833 67 -202.5s107.667 -71.5 189 -71.5c88.667 0 168.334 41.5 239.001 124.5s121.334 195.833 152.001 338.5l119 561h69l-192 -887
c-2 -10 -3.5 -20.167 -4.5 -30.5s-1.5 -19.833 -1.5 -28.5c0 -25.333 6.33301 -43.666 19 -54.999s33 -17 61 -17c9.33301 0 16.5 0.166992 21.5 0.5s9.83301 0.833008 14.5 1.5l-12 -61c-6.66699 -2 -13.5 -3.33301 -20.5 -4s-17.167 -1 -30.5 -1
c-40 0 -70.167 9.5 -90.5 28.5s-30.5 47.167 -30.5 84.5c0 8 0.833008 18.167 2.5 30.5s4.16699 27.833 7.5 46.5c-41.333 -66.667 -91 -117 -149 -151s-123.667 -51 -197 -51c-71.333 0 -131.333 18 -180 54s-80.667 86.333 -96 151l-125 -594h-70z" />
    <glyph glyph-name="paragraph" unicode="&#xb6;" 
d="M494 1479h432.001v-58h-133v-1421h-58v1421h-196v-1421h-60v782c-116.667 5.33301 -209.334 39.333 -278.001 102s-103 144.667 -103 246c0 104.667 36 189 108 253s168 96 288 96z" />
    <glyph glyph-name="periodcentered" unicode="&#xb7;" horiz-adv-x="674" 
d="M168 717c0 -46.667 16.333 -86.334 49 -119.001s72.334 -49 119.001 -49s86.667 16.333 120 49s50 72.334 50 119.001s-16.5 86.667 -49.5 120s-73.167 50 -120.5 50c-46.667 0 -86.334 -16.5 -119.001 -49.5s-49 -73.167 -49 -120.5zM121 717
c0 60.667 20.833 112 62.5 154s92.5 63 152.5 63s111.167 -21.167 153.5 -63.5s63.5 -93.5 63.5 -153.5c0 -59.333 -21.167 -110 -63.5 -152s-93.5 -63 -153.5 -63s-110.833 20.833 -152.5 62.5s-62.5 92.5 -62.5 152.5z" />
    <glyph glyph-name="cedilla" unicode="&#xb8;" 
d="M453 -148v-49.0029h22c52.667 0 91.167 -7.16699 115.5 -21.5s36.5 -37.166 36.5 -68.499s-11.833 -55.166 -35.5 -71.499s-58.5 -24.5 -104.5 -24.5c-30 0 -61 2.16699 -93 6.5s-69 11.833 -111 22.5v-52c40 -10.667 79.5 -18.667 118.5 -24s76.5 -8 112.5 -8
c77.333 0 134.5 12 171.5 36s55.5 61 55.5 111c0 50.667 -17.667 87.667 -53 111s-92 35 -170 35c-17.333 0 -30.5 -0.166992 -39.5 -0.5s-17.5 -1.16602 -25.5 -2.49902zM406 -108.003c19.333 2 38.166 3.50098 56.499 4.50098s36.166 1.5 53.499 1.5
c92.667 0 161.167 -15.333 205.5 -46s66.5 -77.667 66.5 -141c0 -64 -22.833 -112 -68.5 -144s-114.834 -48 -207.501 -48c-33.333 0 -73.666 3.5 -120.999 10.5s-99 17.167 -155 30.5v141c40.667 -14.667 81.334 -25.5 122.001 -32.5s89.334 -10.5 146.001 -10.5
c26.667 0 47 4.66699 61 14s21 23 21 41c0 19.333 -8.66699 32.666 -26 39.999s-49 11 -95 11c-5.33301 0 -14.5 -0.333008 -27.5 -1s-23.5 -1 -31.5 -1v130z" />
    <glyph glyph-name="onesuperior" unicode="&#xb9;" horiz-adv-x="889" 
d="M170 1229l-0.000976562 -122.999h213v-502h209v805h-152c-10 -56.667 -37.167 -99.834 -81.5 -129.501s-107.166 -46.5 -188.499 -50.5zM347.999 575.001l0.000976562 502h-213v178c89.333 2.66699 154.666 17.667 195.999 45s68.333 73.333 81 138h215v-863h-279z" />
    <glyph glyph-name="ordmasculine" unicode="&#xba;" horiz-adv-x="1012" 
d="M334 1092c0 82.667 13.502 141.833 40.502 177.5s70.833 53.5 131.5 53.5c61.333 0 105.666 -18 132.999 -54s41 -95 41 -177s-13.833 -140.833 -41.5 -176.5s-71.834 -53.5 -132.501 -53.5s-104.5 17.833 -131.5 53.5s-40.5 94.5 -40.5 176.5zM84.002 1092
c0 -115.333 38 -206.667 114 -274s178.667 -101 308 -101c130 0 232.833 33.5 308.5 100.5s113.5 158.5 113.5 274.5s-37.833 207.667 -113.5 275s-178.5 101 -308.5 101c-130.667 0 -233.667 -33.667 -309 -101s-113 -159 -113 -275zM373.002 1092
c0 -70.667 10.334 -121.167 31.001 -151.5s54.667 -45.5 102 -45.5s81.666 15.333 102.999 46s32 81 32 151s-10.5 120.167 -31.5 150.5s-55.5 45.5 -103.5 45.5c-47.333 0 -81.333 -15 -102 -45s-31 -80.333 -31 -151zM45.0029 1092c0 126 41.167 225.332 123.5 297.999
s194.833 109 337.5 109c142 0 254.333 -36.5 337 -109.5s124 -172.167 124 -297.5c0 -126 -41.333 -225.5 -124 -298.5s-195 -109.5 -337 -109.5c-142.667 0 -255.167 36.333 -337.5 109s-123.5 172.334 -123.5 299.001z" />
    <glyph glyph-name="guillemotright" unicode="&#xbb;" horiz-adv-x="1049" 
d="M653 854v-162l185 -119v-59l-185 -119v-159l277 178v264zM602 944l381 -248v-305l-381 -248v279l189 123l-189 121v278zM135 854v-162l184 -119v-59l-184 -119v-159l279 178v264zM84 944l381 -248v-305l-381 -248v279l190 123l-190 121v278z" />
    <glyph glyph-name="onequarter" unicode="&#xbc;" horiz-adv-x="2038" 
d="M1352 324l325 335v-335h-325zM1671 27h193v168h106v129h-106v454h-199l-410 -426v-157h416v-168zM1405 346c2.66699 0.666992 5.66699 0.99707 9 0.99707c18 2 29.333 3 34 3h197v215c0 5.33301 1 11.5 3 18.5s5 14.5 9 22.5
c-5.33301 -9.33301 -10.5 -17.166 -15.5 -23.499s-8.83301 -10.166 -11.5 -11.499l-184 -200c-4.66699 -4.66699 -10.667 -9.16699 -18 -13.5s-15 -8.16602 -23 -11.499zM1638 -0.00292969v168h-415v194l422 443h251v-455h107v-182h-107v-168h-258zM684 11.9971l768 1418
h-98l-768 -1418h98zM506 -41.0029l821 1518h203l-821 -1518h-203zM162 1241v-114.999h205v-467h198v752h-143c-10 -52.667 -36.167 -92.834 -78.5 -120.501s-102.833 -44.167 -181.5 -49.5zM334 632.998v467h-203v167c85.333 2.66699 147.5 16.667 186.5 42
s64.167 68.333 75.5 129h205v-805h-264z" />
    <glyph glyph-name="onehalf" unicode="&#xbd;" horiz-adv-x="2038" 
d="M1225 0l-0.00195312 16c0 58.667 19.667 113.667 59 165s103.666 105.666 192.999 162.999c21.333 13.333 51.666 31 90.999 53c100 54.667 150 103.334 150 146.001c0 32 -9.83301 57 -29.5 75s-46.5 27 -80.5 27c-42.667 0 -74.5 -12 -95.5 -36
s-31.5 -60.333 -31.5 -109v-15h-240v27c0 98 34 175 102 231s161 84 279 84c108.667 0 195.5 -23.833 260.5 -71.5s97.5 -110.5 97.5 -188.5c0 -94 -75.333 -180.667 -226 -260c-11.333 -6 -19.666 -10.667 -24.999 -14c-2.66699 -1.33301 -17.667 -9.5 -45 -24.5
s-50.666 -28.833 -69.999 -41.5l-33 -19.5l-32 -20.5c8.66699 3.33301 17.834 5.83301 27.501 7.5s20.834 2.5 33.501 2.5h368v-197h-753zM1260 27l686 -0.00488281v143h-455c20 18.667 43.667 37.667 71 57s56.333 37.333 87 54l101.5 54
c45.667 24 75.834 41.333 90.501 52c39.333 26.667 66.666 52.834 81.999 78.501s23 56.834 23 93.501c0 74 -29.333 132.833 -88 176.5s-138 65.5 -238 65.5c-104 0 -187.333 -25.667 -250 -77s-94 -119.333 -94 -204v-8h178c0 52 13 91.667 39 119s63.667 41 113 41
c44 0 79.167 -11.167 105.5 -33.5s39.5 -52.166 39.5 -89.499c0 -16 -2.5 -30.5 -7.5 -43.5s-12.833 -25.833 -23.5 -38.5c-18 -21.333 -57.167 -48.666 -117.5 -81.999s-103.5 -58.666 -129.5 -75.999c-72.667 -46.667 -126.167 -93 -160.5 -139
s-51.833 -93.667 -52.5 -143zM683.998 11.9951l768 1418h-98l-768 -1418h98zM505.998 -41.0049l821 1518h203l-821 -1518h-203zM161.998 1241v-114.999h205v-467h198v752h-143c-10 -52.667 -36.167 -92.834 -78.5 -120.501s-102.833 -44.167 -181.5 -49.5zM333.998 632.996
v467h-203v167c85.333 2.66699 147.5 16.667 186.5 42s64.167 68.333 75.5 129h205v-805h-264z" />
    <glyph glyph-name="threequarters" unicode="&#xbe;" horiz-adv-x="2038" 
d="M1352 324l325 335v-335h-325zM1671 27h193v168h106v129h-106v454h-199l-410 -426v-157h416v-168zM1405 346c2.66699 0.666992 5.66699 0.99707 9 0.99707c18 2 29.333 3 34 3h197v215c0 5.33301 1 11.5 3 18.5s5 14.5 9 22.5
c-5.33301 -9.33301 -10.5 -17.166 -15.5 -23.499s-8.83301 -10.166 -11.5 -11.499l-184 -200c-4.66699 -4.66699 -10.667 -9.16699 -18 -13.5s-15 -8.16602 -23 -11.499zM1638 -0.00292969v168h-415v194l422 443h251v-455h107v-182h-107v-168h-258zM684 11.9971l768 1418
h-98l-768 -1418h98zM506 -41.0029l821 1518h203l-821 -1518h-203zM43 917.997l248.005 -0.999023c1.33301 -40 12.333 -69.667 33 -89s52 -29 94 -29c37.333 0 65.666 8 84.999 24s29 39.333 29 70s-11.5 53 -34.5 67s-60.5 21 -112.5 21h-23v139h19
c48 0 83.833 6.83301 107.5 20.5s35.5 34.167 35.5 61.5c0 24.667 -8.5 43.5 -25.5 56.5s-41.833 19.5 -74.5 19.5c-36.667 0 -64.334 -7.16699 -83.001 -21.5s-29.334 -36.5 -32.001 -66.5h-243c0.666992 80 34.667 145 102 195s154.666 75 261.999 75
c106 0 190.167 -21.167 252.5 -63.5s93.5 -98.833 93.5 -169.5c0 -41.333 -11.333 -75.833 -34 -103.5s-54.334 -45.834 -95.001 -54.501c47.333 -7.33301 84.5 -27.333 111.5 -60s40.5 -74 40.5 -124c0 -85.333 -34.667 -152.5 -104 -201.5s-164.333 -73.5 -285 -73.5
c-112 0 -201.167 26.167 -267.5 78.5s-99.5 122.5 -99.5 210.5v19zM393.005 1095l-0.000976562 -89.001c58.667 0 102 -9.16699 130 -27.5s42 -46.166 42 -83.499c0 -38.667 -12.833 -68.834 -38.5 -90.501s-61.167 -32.5 -106.5 -32.5c-48.667 0 -86.667 10 -114 30
s-44 49.667 -50 89h-178v-4c0 -74.667 30.667 -135 92 -181s142 -69 242 -69c110 0 196.5 22.333 259.5 67s94.5 105.667 94.5 183c0 46 -14.667 84.167 -44 114.5s-72.666 52.166 -129.999 65.499c50 14.667 87.333 34.834 112 60.501s37 57.5 37 95.5
c0 64.667 -27.667 116 -83 154s-131.333 57 -228 57c-94.667 0 -171.167 -19.333 -229.5 -58s-91.833 -91.667 -100.5 -159h181c6.66699 27.333 22.667 48.5 48 63.5s58.333 22.5 99 22.5c41.333 0 73.5 -8.66699 96.5 -26s34.5 -41.666 34.5 -72.999
c0 -34 -13.833 -60 -41.5 -78s-69.167 -28.333 -124.5 -31z" />
    <glyph glyph-name="questiondown" unicode="&#xbf;" horiz-adv-x="1284" 
d="M827 1423h-338v-309h338v309zM872 1470v-405h-430v405h430zM793 901l-275 0.000976562v-20c0 -35.333 -6 -63.333 -18 -84s-32.667 -39.334 -62 -56.001l-75 -41c-165.333 -88.667 -248 -193 -248 -313c0 -114 47 -205.667 141 -275s219.667 -104 377 -104
c158 0 282.5 34.167 373.5 102.5s143.167 166.833 156.5 295.5l-325 -1c-6.66699 -54.667 -28.5 -97.667 -65.5 -129s-84.833 -47 -143.5 -47c-56 0 -101.167 15.5 -135.5 46.5s-51.5 71.5 -51.5 121.5c0 37.333 8.66699 68 26 92s47 46 89 66l29 13
c138 62.667 207 154 207 274v59zM846 946.001c0.666992 -8.66699 1.16504 -17.999 1.49805 -27.999s0.5 -24.667 0.5 -44c0 -76 -10.833 -137.167 -32.5 -183.5s-56.5 -83.833 -104.5 -112.5c-19.333 -11.333 -47.666 -25.333 -84.999 -42
c-88 -38.667 -132 -83.667 -132 -135c0 -36.667 12.833 -66.167 38.5 -88.5s60.5 -33.5 104.5 -33.5c50 0 88.167 14.333 114.5 43s39.5 70 39.5 124v7h430c-8.66699 -158 -64 -279.833 -166 -365.5s-243.333 -128.5 -424 -128.5c-170.667 0 -308 39.5 -412 118.5
s-156 182.167 -156 309.5c0 138 84 252.333 252 343c29.333 15.333 51.333 27.333 66 36c36.667 22 59.834 42.167 69.501 60.5s14.5 47.166 14.5 86.499v33h381z" />
    <glyph glyph-name="Agrave" unicode="&#xc0;" horiz-adv-x="1505" 
d="M545 457l207 717l209 -717h-416zM61 47h367l53 195h537l57 -195h367l-486 1376h-409zM602 504h297l-119 411c-8.66699 30.667 -15.167 57.5 -19.5 80.5s-7.16602 45.167 -8.49902 66.5c-2.66699 -23.333 -6.33398 -46.833 -11.001 -70.5s-10.667 -48.167 -18 -73.5zM-6 0
l518 1473h479l518 -1473h-469l-55 195h-469l-57 -195h-465zM760 1628h90l-170 242h-205zM742 1585l-385 328h350l229 -328h-194z" />
    <glyph glyph-name="Aacute" unicode="&#xc1;" horiz-adv-x="1505" 
d="M545 457l207 717l209 -717h-416zM61 47h367l53 195h537l57 -195h367l-486 1376h-409zM602 504h297l-119 411c-8.66699 30.667 -15.167 57.5 -19.5 80.5s-7.16602 45.167 -8.49902 66.5c-2.66699 -23.333 -6.33398 -46.833 -11.001 -70.5s-10.667 -48.167 -18 -73.5zM-6 0
l518 1473h479l518 -1473h-469l-55 195h-469l-57 -195h-465zM656 1628h92l282 242h-204zM570 1585l229 328h352l-387 -328h-194z" />
    <glyph glyph-name="Acircumflex" unicode="&#xc2;" horiz-adv-x="1505" 
d="M545 457l207 717l209 -717h-416zM61 47h367l53 195h537l57 -195h367l-486 1376h-409zM602 504h297l-119 411c-8.66699 30.667 -15.167 57.5 -19.5 80.5s-7.16602 45.167 -8.49902 66.5c-2.66699 -23.333 -6.33398 -46.833 -11.001 -70.5s-10.667 -48.167 -18 -73.5zM-6 0
l518 1473h479l518 -1473h-469l-55 195h-469l-57 -195h-465zM494 1628h96l164 145l164 -145h96l-170 242h-180zM410 1585l229 328h230l229 -328h-201l-143 129l-143 -129h-201z" />
    <glyph glyph-name="Atilde" unicode="&#xc3;" horiz-adv-x="1505" 
d="M545 457l207 717l209 -717h-416zM61 47h367l53 195h537l57 -195h367l-486 1376h-409zM602 504h297l-119 411c-8.66699 30.667 -15.167 57.5 -19.5 80.5s-7.16602 45.167 -8.49902 66.5c-2.66699 -23.333 -6.33398 -46.833 -11.001 -70.5s-10.667 -48.167 -18 -73.5zM-6 0
l518 1473h479l518 -1473h-469l-55 195h-469l-57 -195h-465zM475 1647l57.999 0.00195312c6.66699 22 20.334 39.667 41.001 53s44.334 20 71.001 20c10.667 0 21 -0.666992 31 -2s19.667 -3.33301 29 -6l119 -31c15.333 -3.33301 26.666 -5.5 33.999 -6.5
s13.666 -1.5 18.999 -1.5c44 0 79.167 15.167 105.5 45.5s43.166 75.166 50.499 134.499h-62c-9.33301 -26 -23.666 -45.833 -42.999 -59.5s-43.333 -20.5 -72 -20.5c-6.66699 0.666992 -14 1.5 -22 2.5s-20.333 3.16699 -37 6.5l-118 28c-12.667 4 -23.667 6.83301 -33 8.5
s-17.666 2.5 -24.999 2.5c-41.333 0 -73.5 -13.833 -96.5 -41.5s-39.5 -71.834 -49.5 -132.501zM419.999 1604c12 94 33.332 161.166 63.999 201.499s75.667 60.5 135 60.5c12 0 23.167 -0.666992 33.5 -2s21.166 -3.66602 32.499 -6.99902l122 -32
c6.66699 -2 14 -3.5 22 -4.5s16.333 -1.5 25 -1.5c24 0 43.333 6.16699 58 18.5s25.334 31.833 32.001 58.5h144c-8 -90.667 -29.667 -158 -65 -202s-86 -66 -152 -66c-8 0 -15.833 0.5 -23.5 1.5s-15.5 2.5 -23.5 4.5l-132 35c-11.333 3.33301 -20.333 5.5 -27 6.5
s-14 1.5 -22 1.5c-19.333 0 -35.666 -6 -48.999 -18s-24.333 -30.333 -33 -55h-141z" />
    <glyph glyph-name="Adieresis" unicode="&#xc4;" horiz-adv-x="1505" 
d="M545 457l207 717l209 -717h-416zM61 47h367l53 195h537l57 -195h367l-486 1376h-409zM602 504h297l-119 411c-8.66699 30.667 -15.167 57.5 -19.5 80.5s-7.16602 45.167 -8.49902 66.5c-2.66699 -23.333 -6.33398 -46.833 -11.001 -70.5s-10.667 -48.167 -18 -73.5zM-6 0
l518 1473h479l518 -1473h-469l-55 195h-469l-57 -195h-465zM809 1597v256h236v-256h-236zM860 1644h134v162h-134v-162zM463 1597v256h236v-256h-236zM514 1644h131v162h-131v-162z" />
    <glyph glyph-name="Aring" unicode="&#xc5;" horiz-adv-x="1505" 
d="M662 1747c0 26 8.49805 47.5 25.498 64.5s38.5 25.5 64.5 25.5s47.5 -8.5 64.5 -25.5s25.5 -38.5 25.5 -64.5c0 -25.333 -8.66699 -46.666 -26 -63.999s-38.666 -26 -63.999 -26s-46.666 8.66699 -63.999 26s-26 38.666 -26 63.999zM701.998 1747
c0 -13.333 4.66699 -24.5 14 -33.5s21.333 -13.5 36 -13.5c13.333 0 24.5 4.5 33.5 13.5s13.5 20.167 13.5 33.5c0 14 -4.5 25.333 -13.5 34s-20.167 13 -33.5 13c-14.667 0 -26.667 -4.33301 -36 -13s-14 -20 -14 -34zM570.998 1747c0 -50 17.5 -92.501 52.5 -127.501
s77.833 -52.5 128.5 -52.5c49.333 0 91.666 17.5 126.999 52.5s53 77.5 53 127.5s-17.667 92.5 -53 127.5s-77.666 52.5 -126.999 52.5s-91.833 -17.667 -127.5 -53s-53.5 -77.666 -53.5 -126.999zM523.998 1749c0 62.667 22.333 116.167 67 160.5s98.334 66.5 161.001 66.5
c62 0 115.333 -22.167 160 -66.5s67 -97.833 67 -160.5c0 -63.333 -22.333 -117.333 -67 -162s-98 -67 -160 -67c-62.667 0 -116.334 22.333 -161.001 67s-67 98.667 -67 162zM544.998 456.999l207 717l209 -717h-416zM60.998 46.999h367l53 195h537l57 -195h367l-486 1376
h-409zM601.998 503.999h297l-119 411c-8.66699 30.667 -15.167 57.5 -19.5 80.5s-7.16602 45.167 -8.49902 66.5c-2.66699 -23.333 -6.33398 -46.833 -11.001 -70.5s-10.667 -48.167 -18 -73.5zM-6.00195 -0.000976562l518 1473h479l518 -1473h-469l-55 195h-469l-57 -195
h-465z" />
    <glyph glyph-name="AE" unicode="&#xc6;" horiz-adv-x="2118" 
d="M502 457l239 723h217v-723h-456zM371 47l63 195h524v-195h1024v262h-690v324h547v244h-547v290h656v256h-1391l-543 -1376h357zM573 504h336v629h-129zM-59 0l577 1473h1483v-353h-658v-196h547v-338h-547v-228h691v-358h-1125v195h-436l-65 -195h-467z" />
    <glyph glyph-name="Ccedilla" unicode="&#xc7;" horiz-adv-x="1602" 
d="M1485 524l-345.999 -0.00195312c-9.33301 -73.333 -41 -131.833 -95 -175.5s-121.333 -65.5 -202 -65.5c-110.667 0 -195.334 38.667 -254.001 116s-88 189.333 -88 336c0 150.667 28.5 263.834 85.5 339.501s142.5 113.5 256.5 113.5c78 0 142.167 -19.833 192.5 -59.5
s81.5 -94.834 93.5 -165.501h340c-13.333 156.667 -75.5 279.667 -186.5 369s-258.167 134 -441.5 134c-222.667 0 -396.5 -64.5 -521.5 -193.5s-187.5 -308.167 -187.5 -537.5c0 -223.333 60.833 -400.333 182.5 -531s286.834 -196.667 495.501 -198v-203h22
c52.667 0 91.167 -7.16699 115.5 -21.5s36.5 -37.166 36.5 -68.499s-11.667 -55.166 -35 -71.499s-58 -24.5 -104 -24.5c-31.333 0 -64 2.33301 -98 7s-69.667 12 -107 22v-52c39.333 -10.667 78.5 -18.667 117.5 -24s76.833 -8 113.5 -8c78 0 135.5 12 172.5 36
s55.5 61 55.5 111c0 48 -16.667 84 -50 108s-83 36 -149 36h-33v153c180.667 5.33301 324.667 53 432 143s169.666 215 186.999 375zM1094 570.998l448.004 0.00390625c-10 -180 -71.333 -324.333 -184 -433s-262.334 -167.667 -449.001 -177v-70h19
c69.333 0 122.833 -15.5 160.5 -46.5s56.5 -75.5 56.5 -133.5c0 -64 -23 -112 -69 -144s-115.333 -48 -208 -48c-34 0 -74.333 3.33301 -121 10s-98.334 17 -155.001 31v141c40 -14.667 80.5 -25.5 121.5 -32.5s84.5 -10.5 130.5 -10.5c34.667 0 59.667 4.33301 75 13
s23 22.667 23 42s-8.66699 32.666 -26 39.999s-49 11 -95 11c-4.66699 0 -13.667 -0.333008 -27 -1s-24 -1 -32 -1v199c-209.333 9.33301 -376 84 -500 224s-186 323.333 -186 550c0 240 67 429.333 201 568s316.667 208 548 208c213.333 0 381.5 -51.667 504.5 -155
s191.167 -250.333 204.5 -441h-453c-6.66699 75.333 -31 132.166 -73 170.499s-101 57.5 -177 57.5c-92.667 0 -162.167 -33.833 -208.5 -101.5s-69.5 -169.834 -69.5 -306.501c0 -134 24.667 -235.333 74 -304s121.666 -103 216.999 -103c72.667 0 130.667 21.167 174 63.5
s68.666 102.166 75.999 179.499z" />
    <glyph glyph-name="Egrave" unicode="&#xc8;" horiz-adv-x="1427" 
d="M1294 47v262h-733v324h596v244h-596v290h705v256h-1076v-1376h1104zM139 0v1473h1178v-353h-705v-196h596v-338h-596v-228h734v-358h-1207zM741 1628h90l-170 242h-205zM723 1585l-385 328h350l229 -328h-194z" />
    <glyph glyph-name="Eacute" unicode="&#xc9;" horiz-adv-x="1427" 
d="M1294 47v262h-733v324h596v244h-596v290h705v256h-1076v-1376h1104zM139 0v1473h1178v-353h-705v-196h596v-338h-596v-228h734v-358h-1207zM637 1628h92l282 242h-204zM551 1585l229 328h352l-387 -328h-194z" />
    <glyph glyph-name="Ecircumflex" unicode="&#xca;" horiz-adv-x="1427" 
d="M1294 47v262h-733v324h596v244h-596v290h705v256h-1076v-1376h1104zM139 0v1473h1178v-353h-705v-196h596v-338h-596v-228h734v-358h-1207zM475 1628h96l164 145l164 -145h96l-170 242h-180zM391 1585l229 328h230l229 -328h-201l-143 129l-143 -129h-201z" />
    <glyph glyph-name="Edieresis" unicode="&#xcb;" horiz-adv-x="1427" 
d="M1294 47v262h-733v324h596v244h-596v290h705v256h-1076v-1376h1104zM139 0v1473h1178v-353h-705v-196h596v-338h-596v-228h734v-358h-1207zM790 1597v256h236v-256h-236zM841 1644h134v162h-134v-162zM444 1597v256h236v-256h-236zM495 1644h131v162h-131v-162z" />
    <glyph glyph-name="Igrave" unicode="&#xcc;" horiz-adv-x="778" 
d="M578 47v1376h-379v-1376h379zM147 0v1473h482v-1473h-482zM395 1628h90l-170 242h-205zM377 1585l-385 328h350l229 -328h-194z" />
    <glyph glyph-name="Iacute" unicode="&#xcd;" horiz-adv-x="778" 
d="M578 47v1376h-379v-1376h379zM147 0v1473h482v-1473h-482zM291 1628h92l282 242h-204zM205 1585l229 328h352l-387 -328h-194z" />
    <glyph glyph-name="Icircumflex" unicode="&#xce;" horiz-adv-x="778" 
d="M578 47v1376h-379v-1376h379zM147 0v1473h482v-1473h-482zM129 1628h96l164 145l164 -145h96l-170 242h-180zM45 1585l229 328h230l229 -328h-201l-143 129l-143 -129h-201z" />
    <glyph glyph-name="Idieresis" unicode="&#xcf;" horiz-adv-x="778" 
d="M578 47v1376h-379v-1376h379zM147 0v1473h482v-1473h-482zM444 1597v256h236v-256h-236zM495 1644h134v162h-134v-162zM98 1597v256h236v-256h-236zM149 1644h131v162h-131v-162z" />
    <glyph glyph-name="Eth" unicode="&#xd0;" horiz-adv-x="1614" 
d="M569 326v368h209v156h-209v295h166c139.333 0 237 -30.833 293 -92.5s84 -167.5 84 -317.5c0 -153.333 -27.833 -259.833 -83.5 -319.5s-156.167 -89.5 -301.5 -89.5h-158zM764 1423h-563.001v-573h-150v-156h150v-647h487c128 0 225 4.83301 291 14.5
s123.333 26.167 172 49.5c109.333 51.333 192 129.666 248 234.999s84 235 84 389c0 147.333 -22.5 271.833 -67.5 373.5s-112.833 179.834 -203.5 234.501c-47.333 28.667 -103.166 49.167 -167.499 61.5s-157.833 18.5 -280.5 18.5zM149.999 0l0.000976562 647.001h-150
v246h150v580h571c147.333 0 255.666 -6.5 324.999 -19.5s130.333 -34.5 183 -64.5c102 -58.667 178.667 -142.834 230 -252.501s77 -243.5 77 -401.5c0 -153.333 -27.167 -285 -81.5 -395s-133.5 -194 -237.5 -252c-57.333 -32 -123.5 -54.667 -198.5 -68
s-203.5 -20 -385.5 -20h-483zM623 373.001h127c118 0 199.667 26.5 245 79.5s68 147.167 68 282.5c0 132.667 -23 226.667 -69 282s-125.333 83 -238 83h-133v-207h208v-246h-208v-274z" />
    <glyph glyph-name="Ntilde" unicode="&#xd1;" horiz-adv-x="1667" 
d="M1128 1423v-936l-565 936h-373v-1376h347v934l563 -934h375v1376h-347zM139 0l-0.00292969 1473h449l413 -684l7 -12c32 -55.333 59.667 -106.666 83 -153.999c-4.66699 26.667 -8.16699 53.167 -10.5 79.5s-3.5 51.5 -3.5 75.5v695h449v-1473h-451l-413 680
c-13.333 21.333 -28.166 47.666 -44.499 78.999s-33.166 65.666 -50.499 102.999c6.66699 -35.333 11.834 -67.5 15.501 -96.5s5.5 -54.167 5.5 -75.5v-690h-449zM554.997 1647l57.999 0.00195312c6.66699 22 20.334 39.667 41.001 53s44.334 20 71.001 20
c10.667 0 21 -0.666992 31 -2s19.667 -3.33301 29 -6l119 -31c15.333 -3.33301 26.666 -5.5 33.999 -6.5s13.666 -1.5 18.999 -1.5c44 0 79.167 15.167 105.5 45.5s43.166 75.166 50.499 134.499h-62c-9.33301 -26 -23.666 -45.833 -42.999 -59.5s-43.333 -20.5 -72 -20.5
c-6.66699 0.666992 -14 1.5 -22 2.5s-20.333 3.16699 -37 6.5l-118 28c-12.667 4 -23.667 6.83301 -33 8.5s-17.666 2.5 -24.999 2.5c-41.333 0 -73.5 -13.833 -96.5 -41.5s-39.5 -71.834 -49.5 -132.501zM499.996 1604c12 94 33.332 161.166 63.999 201.499
s75.667 60.5 135 60.5c12 0 23.167 -0.666992 33.5 -2s21.166 -3.66602 32.499 -6.99902l122 -32c6.66699 -2 14 -3.5 22 -4.5s16.333 -1.5 25 -1.5c24 0 43.333 6.16699 58 18.5s25.334 31.833 32.001 58.5h144c-8 -90.667 -29.667 -158 -65 -202s-86 -66 -152 -66
c-8 0 -15.833 0.5 -23.5 1.5s-15.5 2.5 -23.5 4.5l-132 35c-11.333 3.33301 -20.333 5.5 -27 6.5s-14 1.5 -22 1.5c-19.333 0 -35.666 -6 -48.999 -18s-24.333 -30.333 -33 -55h-141z" />
    <glyph glyph-name="Ograve" unicode="&#xd2;" horiz-adv-x="1683" 
d="M502 735c0 156.667 27.333 271.334 82 344.001s140.667 109 258 109c116.667 0 202.167 -36.333 256.5 -109s81.5 -187.334 81.5 -344.001s-27.167 -271.167 -81.5 -343.5s-139.833 -108.5 -256.5 -108.5c-117.333 0 -203.333 36.333 -258 109s-82 187 -82 343zM127 735
c0 -224 63.999 -401.5 191.999 -532.5s301.667 -196.5 521 -196.5c220 0 394 65.5 522 196.5s192 308.5 192 532.5c0 225.333 -64.167 403.5 -192.5 534.5s-302.166 196.5 -521.499 196.5s-393 -65.667 -521 -197s-192 -309.333 -192 -534zM552.999 735
c0 -140 23.167 -242.5 69.5 -307.5s119.5 -97.5 219.5 -97.5c98.667 0 171 32.5 217 97.5s69 167.5 69 307.5c0 140.667 -23 243.5 -69 308.5s-118.333 97.5 -217 97.5c-100 0 -173.167 -32.667 -219.5 -98s-69.5 -168 -69.5 -308zM75.999 735
c0 239.333 68.5 428.5 205.5 567.5s323.833 208.5 560.5 208.5c236 0 422.333 -69.333 559 -208s205 -328 205 -568c0 -239.333 -68.5 -428.5 -205.5 -567.5s-323.167 -208.5 -558.5 -208.5c-236.667 0 -423.5 69.667 -560.5 209s-205.5 328.333 -205.5 567zM847.999 1628
h90l-170 242h-205zM829.999 1585l-385 328h350l229 -328h-194z" />
    <glyph glyph-name="Oacute" unicode="&#xd3;" horiz-adv-x="1683" 
d="M502 735c0 156.667 27.333 271.334 82 344.001s140.667 109 258 109c116.667 0 202.167 -36.333 256.5 -109s81.5 -187.334 81.5 -344.001s-27.167 -271.167 -81.5 -343.5s-139.833 -108.5 -256.5 -108.5c-117.333 0 -203.333 36.333 -258 109s-82 187 -82 343zM127 735
c0 -224 63.999 -401.5 191.999 -532.5s301.667 -196.5 521 -196.5c220 0 394 65.5 522 196.5s192 308.5 192 532.5c0 225.333 -64.167 403.5 -192.5 534.5s-302.166 196.5 -521.499 196.5s-393 -65.667 -521 -197s-192 -309.333 -192 -534zM552.999 735
c0 -140 23.167 -242.5 69.5 -307.5s119.5 -97.5 219.5 -97.5c98.667 0 171 32.5 217 97.5s69 167.5 69 307.5c0 140.667 -23 243.5 -69 308.5s-118.333 97.5 -217 97.5c-100 0 -173.167 -32.667 -219.5 -98s-69.5 -168 -69.5 -308zM75.999 735
c0 239.333 68.5 428.5 205.5 567.5s323.833 208.5 560.5 208.5c236 0 422.333 -69.333 559 -208s205 -328 205 -568c0 -239.333 -68.5 -428.5 -205.5 -567.5s-323.167 -208.5 -558.5 -208.5c-236.667 0 -423.5 69.667 -560.5 209s-205.5 328.333 -205.5 567zM743.999 1628
h92l282 242h-204zM657.999 1585l229 328h352l-387 -328h-194z" />
    <glyph glyph-name="Ocircumflex" unicode="&#xd4;" horiz-adv-x="1683" 
d="M502 735c0 156.667 27.333 271.334 82 344.001s140.667 109 258 109c116.667 0 202.167 -36.333 256.5 -109s81.5 -187.334 81.5 -344.001s-27.167 -271.167 -81.5 -343.5s-139.833 -108.5 -256.5 -108.5c-117.333 0 -203.333 36.333 -258 109s-82 187 -82 343zM127 735
c0 -224 63.999 -401.5 191.999 -532.5s301.667 -196.5 521 -196.5c220 0 394 65.5 522 196.5s192 308.5 192 532.5c0 225.333 -64.167 403.5 -192.5 534.5s-302.166 196.5 -521.499 196.5s-393 -65.667 -521 -197s-192 -309.333 -192 -534zM552.999 735
c0 -140 23.167 -242.5 69.5 -307.5s119.5 -97.5 219.5 -97.5c98.667 0 171 32.5 217 97.5s69 167.5 69 307.5c0 140.667 -23 243.5 -69 308.5s-118.333 97.5 -217 97.5c-100 0 -173.167 -32.667 -219.5 -98s-69.5 -168 -69.5 -308zM75.999 735
c0 239.333 68.5 428.5 205.5 567.5s323.833 208.5 560.5 208.5c236 0 422.333 -69.333 559 -208s205 -328 205 -568c0 -239.333 -68.5 -428.5 -205.5 -567.5s-323.167 -208.5 -558.5 -208.5c-236.667 0 -423.5 69.667 -560.5 209s-205.5 328.333 -205.5 567zM581.999 1628
h96l164 145l164 -145h96l-170 242h-180zM497.999 1585l229 328h230l229 -328h-201l-143 129l-143 -129h-201z" />
    <glyph glyph-name="Otilde" unicode="&#xd5;" horiz-adv-x="1683" 
d="M502 735c0 156.667 27.333 271.334 82 344.001s140.667 109 258 109c116.667 0 202.167 -36.333 256.5 -109s81.5 -187.334 81.5 -344.001s-27.167 -271.167 -81.5 -343.5s-139.833 -108.5 -256.5 -108.5c-117.333 0 -203.333 36.333 -258 109s-82 187 -82 343zM127 735
c0 -224 63.999 -401.5 191.999 -532.5s301.667 -196.5 521 -196.5c220 0 394 65.5 522 196.5s192 308.5 192 532.5c0 225.333 -64.167 403.5 -192.5 534.5s-302.166 196.5 -521.499 196.5s-393 -65.667 -521 -197s-192 -309.333 -192 -534zM552.999 735
c0 -140 23.167 -242.5 69.5 -307.5s119.5 -97.5 219.5 -97.5c98.667 0 171 32.5 217 97.5s69 167.5 69 307.5c0 140.667 -23 243.5 -69 308.5s-118.333 97.5 -217 97.5c-100 0 -173.167 -32.667 -219.5 -98s-69.5 -168 -69.5 -308zM75.999 735
c0 239.333 68.5 428.5 205.5 567.5s323.833 208.5 560.5 208.5c236 0 422.333 -69.333 559 -208s205 -328 205 -568c0 -239.333 -68.5 -428.5 -205.5 -567.5s-323.167 -208.5 -558.5 -208.5c-236.667 0 -423.5 69.667 -560.5 209s-205.5 328.333 -205.5 567zM562.999 1647
l57.999 0.00195312c6.66699 22 20.334 39.667 41.001 53s44.334 20 71.001 20c10.667 0 21 -0.666992 31 -2s19.667 -3.33301 29 -6l119 -31c15.333 -3.33301 26.666 -5.5 33.999 -6.5s13.666 -1.5 18.999 -1.5c44 0 79.167 15.167 105.5 45.5s43.166 75.166 50.499 134.499
h-62c-9.33301 -26 -23.666 -45.833 -42.999 -59.5s-43.333 -20.5 -72 -20.5c-6.66699 0.666992 -14 1.5 -22 2.5s-20.333 3.16699 -37 6.5l-118 28c-12.667 4 -23.667 6.83301 -33 8.5s-17.666 2.5 -24.999 2.5c-41.333 0 -73.5 -13.833 -96.5 -41.5
s-39.5 -71.834 -49.5 -132.501zM507.998 1604c12 94 33.332 161.166 63.999 201.499s75.667 60.5 135 60.5c12 0 23.167 -0.666992 33.5 -2s21.166 -3.66602 32.499 -6.99902l122 -32c6.66699 -2 14 -3.5 22 -4.5s16.333 -1.5 25 -1.5c24 0 43.333 6.16699 58 18.5
s25.334 31.833 32.001 58.5h144c-8 -90.667 -29.667 -158 -65 -202s-86 -66 -152 -66c-8 0 -15.833 0.5 -23.5 1.5s-15.5 2.5 -23.5 4.5l-132 35c-11.333 3.33301 -20.333 5.5 -27 6.5s-14 1.5 -22 1.5c-19.333 0 -35.666 -6 -48.999 -18s-24.333 -30.333 -33 -55h-141z" />
    <glyph glyph-name="Odieresis" unicode="&#xd6;" horiz-adv-x="1683" 
d="M502 735c0 156.667 27.333 271.334 82 344.001s140.667 109 258 109c116.667 0 202.167 -36.333 256.5 -109s81.5 -187.334 81.5 -344.001s-27.167 -271.167 -81.5 -343.5s-139.833 -108.5 -256.5 -108.5c-117.333 0 -203.333 36.333 -258 109s-82 187 -82 343zM127 735
c0 -224 63.999 -401.5 191.999 -532.5s301.667 -196.5 521 -196.5c220 0 394 65.5 522 196.5s192 308.5 192 532.5c0 225.333 -64.167 403.5 -192.5 534.5s-302.166 196.5 -521.499 196.5s-393 -65.667 -521 -197s-192 -309.333 -192 -534zM552.999 735
c0 -140 23.167 -242.5 69.5 -307.5s119.5 -97.5 219.5 -97.5c98.667 0 171 32.5 217 97.5s69 167.5 69 307.5c0 140.667 -23 243.5 -69 308.5s-118.333 97.5 -217 97.5c-100 0 -173.167 -32.667 -219.5 -98s-69.5 -168 -69.5 -308zM75.999 735
c0 239.333 68.5 428.5 205.5 567.5s323.833 208.5 560.5 208.5c236 0 422.333 -69.333 559 -208s205 -328 205 -568c0 -239.333 -68.5 -428.5 -205.5 -567.5s-323.167 -208.5 -558.5 -208.5c-236.667 0 -423.5 69.667 -560.5 209s-205.5 328.333 -205.5 567zM896.999 1597
v256h236v-256h-236zM947.999 1644h134v162h-134v-162zM550.999 1597v256h236v-256h-236zM601.999 1644h131v162h-131v-162z" />
    <glyph glyph-name="multiply" unicode="&#xd7;" horiz-adv-x="1706" 
d="M360 1147l492 -492l491 492l46 -45l-492 -492l492 -491l-46 -45l-491 491l-492 -491l-45 45l492 491l-492 492z" />
    <glyph glyph-name="Oslash" unicode="&#xd8;" horiz-adv-x="1683" 
d="M236 -43l59.001 -41.0039l139 195c53.333 -35.333 113.833 -61.666 181.5 -78.999s142.5 -26 224.5 -26c220 0 393.667 65.333 521 196s191 308.334 191 533.001c0 128.667 -20.333 240.834 -61 336.501s-103.334 178.834 -188.001 249.501l112 158l-59 39l-113 -156
c-51.333 34 -111.166 59.833 -179.499 77.5s-142.833 26.5 -223.5 26.5c-218.667 0 -391.5 -65.5 -518.5 -196.5s-190.5 -309.167 -190.5 -534.5c0 -126 20.667 -237.5 62 -334.5s102.666 -178.5 183.999 -244.5zM604.001 347.996l517.998 723
c25.333 -36.667 44 -82.667 56 -138s18 -121.333 18 -198c0 -159.333 -28.667 -276.666 -86 -351.999s-146.666 -113 -267.999 -113c-51.333 0 -95.166 6.16699 -131.499 18.5s-71.833 32.166 -106.5 59.499zM1077 1126l-518 -722.998
c-23.333 33.333 -41.166 78.166 -53.499 134.499s-18.5 122.166 -18.5 197.499c0 161.333 28.667 279.5 86 354.5s147 112.5 269 112.5c48.667 0 92.167 -6.16699 130.5 -18.5s73.166 -31.5 104.499 -57.5zM671.999 357.998c24.667 -13.333 50.332 -23.167 76.999 -29.5
s56.334 -9.5 89.001 -9.5c104.667 0 181.334 34.5 230.001 103.5s73 177.5 73 325.5c0 44 -2.83301 85 -8.5 123s-13.834 72 -24.501 102zM1006 1112c-24 14 -49.499 24.333 -76.499 31s-56.167 10 -87.5 10c-102 0 -177.333 -33.667 -226 -101s-73 -171 -73 -311
c0 -50 2.66699 -95 8 -135s12.666 -72.667 21.999 -98zM169.998 -57.0029l139 199.998c-80 77.333 -138.833 163.166 -176.5 257.499s-56.5 202.5 -56.5 324.5c0 244.667 67.833 436.834 203.5 576.501s322.5 209.5 560.5 209.5c76.667 0 147.167 -7 211.5 -21
s124.833 -35.667 181.5 -65l110 156l138 -92l-111 -158c78.667 -75.333 137.667 -162.166 177 -260.499s59 -208.166 59 -329.499c0 -242.667 -68.833 -433.667 -206.5 -573s-326.167 -209 -565.5 -209c-78 0 -149.333 7.16699 -214 21.5s-122.667 35.833 -174 64.5
l-139 -195z" />
    <glyph glyph-name="Ugrave" unicode="&#xd9;" horiz-adv-x="1669" 
d="M135 1473h473v-908c0 -85.333 17.5 -145.5 52.5 -180.5s93.5 -52.5 175.5 -52.5c80 0 137.167 17.333 171.5 52s51.5 95 51.5 181v908h473v-945c0 -184 -59.5 -324.833 -178.5 -422.5s-291.5 -146.5 -517.5 -146.5c-227.333 0 -401 48.833 -521 146.5
s-180 238.5 -180 422.5v945zM1481 575l-0.000976562 848h-371v-874c0 -91.333 -22.167 -158.5 -66.5 -201.5s-113.5 -64.5 -207.5 -64.5c-95.333 0 -165.666 21.5 -210.999 64.5s-68 110.167 -68 201.5v874h-371v-848c0 -192 53.5 -334.833 160.5 -428.5
s270.167 -140.5 489.5 -140.5c218 0 380 46.667 486 140s159 236.333 159 429zM841.999 1628h90l-170 242h-205zM823.999 1585l-385 328h350l229 -328h-194z" />
    <glyph glyph-name="Uacute" unicode="&#xda;" horiz-adv-x="1669" 
d="M135 1473h473v-908c0 -85.333 17.5 -145.5 52.5 -180.5s93.5 -52.5 175.5 -52.5c80 0 137.167 17.333 171.5 52s51.5 95 51.5 181v908h473v-945c0 -184 -59.5 -324.833 -178.5 -422.5s-291.5 -146.5 -517.5 -146.5c-227.333 0 -401 48.833 -521 146.5
s-180 238.5 -180 422.5v945zM1481 575l-0.000976562 848h-371v-874c0 -91.333 -22.167 -158.5 -66.5 -201.5s-113.5 -64.5 -207.5 -64.5c-95.333 0 -165.666 21.5 -210.999 64.5s-68 110.167 -68 201.5v874h-371v-848c0 -192 53.5 -334.833 160.5 -428.5
s270.167 -140.5 489.5 -140.5c218 0 380 46.667 486 140s159 236.333 159 429zM737.999 1628h92l282 242h-204zM651.999 1585l229 328h352l-387 -328h-194z" />
    <glyph glyph-name="Ucircumflex" unicode="&#xdb;" horiz-adv-x="1669" 
d="M135 1473h473v-908c0 -85.333 17.5 -145.5 52.5 -180.5s93.5 -52.5 175.5 -52.5c80 0 137.167 17.333 171.5 52s51.5 95 51.5 181v908h473v-945c0 -184 -59.5 -324.833 -178.5 -422.5s-291.5 -146.5 -517.5 -146.5c-227.333 0 -401 48.833 -521 146.5
s-180 238.5 -180 422.5v945zM1481 575l-0.000976562 848h-371v-874c0 -91.333 -22.167 -158.5 -66.5 -201.5s-113.5 -64.5 -207.5 -64.5c-95.333 0 -165.666 21.5 -210.999 64.5s-68 110.167 -68 201.5v874h-371v-848c0 -192 53.5 -334.833 160.5 -428.5
s270.167 -140.5 489.5 -140.5c218 0 380 46.667 486 140s159 236.333 159 429zM575.999 1628h96l164 145l164 -145h96l-170 242h-180zM491.999 1585l229 328h230l229 -328h-201l-143 129l-143 -129h-201z" />
    <glyph glyph-name="Udieresis" unicode="&#xdc;" horiz-adv-x="1669" 
d="M135 1473h473v-908c0 -85.333 17.5 -145.5 52.5 -180.5s93.5 -52.5 175.5 -52.5c80 0 137.167 17.333 171.5 52s51.5 95 51.5 181v908h473v-945c0 -184 -59.5 -324.833 -178.5 -422.5s-291.5 -146.5 -517.5 -146.5c-227.333 0 -401 48.833 -521 146.5
s-180 238.5 -180 422.5v945zM1481 575l-0.000976562 848h-371v-874c0 -91.333 -22.167 -158.5 -66.5 -201.5s-113.5 -64.5 -207.5 -64.5c-95.333 0 -165.666 21.5 -210.999 64.5s-68 110.167 -68 201.5v874h-371v-848c0 -192 53.5 -334.833 160.5 -428.5
s270.167 -140.5 489.5 -140.5c218 0 380 46.667 486 140s159 236.333 159 429zM890.999 1597v256h236v-256h-236zM941.999 1644h134v162h-134v-162zM544.999 1597v256h236v-256h-236zM595.999 1644h131v162h-131v-162z" />
    <glyph glyph-name="Yacute" unicode="&#xdd;" horiz-adv-x="1507" 
d="M946 47v510l494 866h-393l-289 -565l-287 565h-401l505 -870v-506h371zM524 0v545l-542 928h524l227 -453c4.66699 -9.33301 9.16699 -20.666 13.5 -33.999s8.83301 -29.333 13.5 -48c5.33301 21.333 10.5 39.666 15.5 54.999s8.5 25 10.5 29l230 451h510l-529 -928v-545
h-473zM656 1628h92l282 242h-204zM570 1585l229 328h352l-387 -328h-194z" />
    <glyph glyph-name="Thorn" unicode="&#xde;" horiz-adv-x="1511" 
d="M612 901v-301h152c100 0 166.333 11 199 33s49 61 49 117c0 55.333 -15.667 94.333 -47 117s-98.333 34 -201 34h-152zM561 950l190.999 -0.000976562c124 0 206.833 -14.667 248.5 -44s62.5 -80.666 62.5 -153.999c0 -72.667 -21.667 -124 -65 -154
s-124.666 -45 -243.999 -45h-193v397zM138.999 1473l473.001 -0.000976562v-211h133c119.333 0 213.666 -5.5 282.999 -16.5s129.333 -28.833 180 -53.5c83.333 -40 146.5 -97.5 189.5 -172.5s64.5 -164.833 64.5 -269.5c0 -165.333 -48.5 -291.666 -145.5 -378.999
s-237.5 -131 -421.5 -131h-283v-240h-473v1473zM561 1214v208.999h-368v-1376h368v242h316c178.667 0 312 38 400 114s132 191.667 132 347c0 82.667 -16.167 156.667 -48.5 222s-78.833 118 -139.5 158c-47.333 30.667 -105.833 52.334 -175.5 65.001s-172.5 19 -308.5 19
h-176z" />
    <glyph glyph-name="germandbls" unicode="&#xdf;" horiz-adv-x="1380" 
d="M172 1024l-0.00195312 -977.003h322v944c0 112 13.833 187.167 41.5 225.5s75.834 57.5 144.501 57.5c66 0 114.833 -17.5 146.5 -52.5s47.5 -89.167 47.5 -162.5c0 -63.333 -12.167 -109 -36.5 -137s-64.5 -43.333 -120.5 -46v-143c78 -3.33301 134 -26.833 168 -70.5
s51 -114.167 51 -211.5c0 -86 -15.167 -148.833 -45.5 -188.5s-77.833 -59.5 -142.5 -59.5c-4.66699 0 -9.5 0.166992 -14.5 0.5s-10.5 0.5 -16.5 0.5v-175c18 -6 36 -10.333 54 -13s39.667 -4 65 -4c134.667 0 240.334 38.333 317.001 115s115 182.334 115 317.001
c0 101.333 -22.5 180.333 -67.5 237s-124.167 105.334 -237.5 146.001c78.667 40 135.5 82.333 170.5 127s52.5 97.334 52.5 158.001c0 108 -44.667 192.667 -134 254s-212.666 92 -369.999 92c-168.667 0 -295.834 -36.5 -381.501 -109.5s-128.5 -181.167 -128.5 -324.5z
M546.998 -0.00292969l-425.997 -0.00292969v1010c0 166.667 46.667 291.167 140 373.5s233.666 123.5 420.999 123.5c173.333 0 309.166 -35.167 407.499 -105.5s147.5 -167.5 147.5 -291.5c0 -64 -14.667 -118.167 -44 -162.5s-76 -83.166 -140 -116.499
c92 -30.667 159.667 -76.5 203 -137.5s65 -141.167 65 -240.5c0 -147.333 -43.167 -265.5 -129.5 -354.5s-200.833 -133.5 -343.5 -133.5c-18 0 -39.333 1.33301 -64 4s-66.334 9 -125.001 19l1 270c14 -2 27 -3.5 39 -4.5s22.667 -1.5 32 -1.5
c54 0 93.167 15.833 117.5 47.5s36.5 82.834 36.5 153.501c0 83.333 -14.833 143 -44.5 179s-78.5 54 -146.5 54h-35v234h27c50.667 0 86.167 10.833 106.5 32.5s30.5 60.5 30.5 116.5c0 52.667 -11.5 91.834 -34.5 117.501s-58.5 38.5 -106.5 38.5
c-50 0 -85 -14.333 -105 -43s-30 -86 -30 -172v-1010z" />
    <glyph glyph-name="agrave" unicode="&#xe0;" horiz-adv-x="1411" 
d="M903 559v-90c0 -111.333 -20.5 -188.333 -61.5 -231s-108.5 -64 -202.5 -64c-54 0 -95.5 12.167 -124.5 36.5s-43.5 58.5 -43.5 102.5c0 74.667 70 131.334 210 170.001c94 25.333 168 50.666 222 75.999zM195 803l318.999 0.00390625c12 36 34.333 63 67 81
s76 27 130 27c64.667 0 112.834 -11.5 144.501 -34.5s47.5 -58.5 47.5 -106.5c0 -44.667 -13.667 -76.834 -41 -96.501s-90.666 -35.167 -189.999 -46.5c-236.667 -29.333 -386.334 -66.333 -449.001 -111s-94 -114.334 -94 -209.001
c0 -92.667 30.167 -165.334 90.5 -218.001s143.5 -79 249.5 -79c83.333 0 159.5 14 228.5 42s135.5 72 199.5 132l33 -137h315c-6 14 -10.5 28.5 -13.5 43.5s-4.5 33.833 -4.5 56.5v21v555c0 129.333 -39 221 -117 275s-209 81 -393 81
c-161.333 0 -287.833 -24.333 -379.5 -73s-139.167 -116.334 -142.5 -203.001zM851.999 485.004c-42 -16.667 -98.667 -34 -170 -52c-106.667 -27.333 -160 -65.333 -160 -114c0 -30.667 11 -54.667 33 -72s52.667 -26 92 -26c70.667 0 122.5 16.667 155.5 50
s49.5 86.333 49.5 159v35v20zM890.999 0.00390625l-15.999 67.0049c-1.33301 4 -2.16602 8.66699 -2.49902 14s-0.5 16.666 -0.5 33.999c-56 -51.333 -117.5 -89.833 -184.5 -115.5s-139.833 -38.5 -218.5 -38.5c-124 0 -220.167 30.333 -288.5 91
s-102.5 145.667 -102.5 255c0 106 33.167 185 99.5 237s192.166 89.667 377.499 113c21.333 2.66699 50.333 6 87 10c140 15.333 210 51 210 107c0 31.333 -12 54.166 -36 68.499s-62.667 21.5 -116 21.5c-44.667 0 -79 -8.83301 -103 -26.5s-38 -44.834 -42 -81.501h-412
c0 122.667 48 215 144 277s238.667 93 428 93c77.333 0 150.666 -6.33301 219.999 -19s125 -29.334 167 -50.001c63.333 -31.333 108.5 -71 135.5 -119s40.5 -117.667 40.5 -209v-606c0 -20.667 4 -38.834 12 -54.501s19.667 -28.167 35 -37.5v-31h-434zM735 1241.01h90
l-170 242h-205zM717 1198.01l-385 328h350l229 -328h-194z" />
    <glyph glyph-name="aacute" unicode="&#xe1;" horiz-adv-x="1411" 
d="M903 559v-90c0 -111.333 -20.5 -188.333 -61.5 -231s-108.5 -64 -202.5 -64c-54 0 -95.5 12.167 -124.5 36.5s-43.5 58.5 -43.5 102.5c0 74.667 70 131.334 210 170.001c94 25.333 168 50.666 222 75.999zM195 803l318.999 0.00390625c12 36 34.333 63 67 81
s76 27 130 27c64.667 0 112.834 -11.5 144.501 -34.5s47.5 -58.5 47.5 -106.5c0 -44.667 -13.667 -76.834 -41 -96.501s-90.666 -35.167 -189.999 -46.5c-236.667 -29.333 -386.334 -66.333 -449.001 -111s-94 -114.334 -94 -209.001
c0 -92.667 30.167 -165.334 90.5 -218.001s143.5 -79 249.5 -79c83.333 0 159.5 14 228.5 42s135.5 72 199.5 132l33 -137h315c-6 14 -10.5 28.5 -13.5 43.5s-4.5 33.833 -4.5 56.5v21v555c0 129.333 -39 221 -117 275s-209 81 -393 81
c-161.333 0 -287.833 -24.333 -379.5 -73s-139.167 -116.334 -142.5 -203.001zM851.999 485.004c-42 -16.667 -98.667 -34 -170 -52c-106.667 -27.333 -160 -65.333 -160 -114c0 -30.667 11 -54.667 33 -72s52.667 -26 92 -26c70.667 0 122.5 16.667 155.5 50
s49.5 86.333 49.5 159v35v20zM890.999 0.00390625l-15.999 67.0049c-1.33301 4 -2.16602 8.66699 -2.49902 14s-0.5 16.666 -0.5 33.999c-56 -51.333 -117.5 -89.833 -184.5 -115.5s-139.833 -38.5 -218.5 -38.5c-124 0 -220.167 30.333 -288.5 91
s-102.5 145.667 -102.5 255c0 106 33.167 185 99.5 237s192.166 89.667 377.499 113c21.333 2.66699 50.333 6 87 10c140 15.333 210 51 210 107c0 31.333 -12 54.166 -36 68.499s-62.667 21.5 -116 21.5c-44.667 0 -79 -8.83301 -103 -26.5s-38 -44.834 -42 -81.501h-412
c0 122.667 48 215 144 277s238.667 93 428 93c77.333 0 150.666 -6.33301 219.999 -19s125 -29.334 167 -50.001c63.333 -31.333 108.5 -71 135.5 -119s40.5 -117.667 40.5 -209v-606c0 -20.667 4 -38.834 12 -54.501s19.667 -28.167 35 -37.5v-31h-434zM631 1241.01h92
l282 242h-204zM545 1198.01l229 328h352l-387 -328h-194z" />
    <glyph glyph-name="acircumflex" unicode="&#xe2;" horiz-adv-x="1411" 
d="M903 559v-90c0 -111.333 -20.5 -188.333 -61.5 -231s-108.5 -64 -202.5 -64c-54 0 -95.5 12.167 -124.5 36.5s-43.5 58.5 -43.5 102.5c0 74.667 70 131.334 210 170.001c94 25.333 168 50.666 222 75.999zM195 803l318.999 0.00390625c12 36 34.333 63 67 81
s76 27 130 27c64.667 0 112.834 -11.5 144.501 -34.5s47.5 -58.5 47.5 -106.5c0 -44.667 -13.667 -76.834 -41 -96.501s-90.666 -35.167 -189.999 -46.5c-236.667 -29.333 -386.334 -66.333 -449.001 -111s-94 -114.334 -94 -209.001
c0 -92.667 30.167 -165.334 90.5 -218.001s143.5 -79 249.5 -79c83.333 0 159.5 14 228.5 42s135.5 72 199.5 132l33 -137h315c-6 14 -10.5 28.5 -13.5 43.5s-4.5 33.833 -4.5 56.5v21v555c0 129.333 -39 221 -117 275s-209 81 -393 81
c-161.333 0 -287.833 -24.333 -379.5 -73s-139.167 -116.334 -142.5 -203.001zM851.999 485.004c-42 -16.667 -98.667 -34 -170 -52c-106.667 -27.333 -160 -65.333 -160 -114c0 -30.667 11 -54.667 33 -72s52.667 -26 92 -26c70.667 0 122.5 16.667 155.5 50
s49.5 86.333 49.5 159v35v20zM890.999 0.00390625l-15.999 67.0049c-1.33301 4 -2.16602 8.66699 -2.49902 14s-0.5 16.666 -0.5 33.999c-56 -51.333 -117.5 -89.833 -184.5 -115.5s-139.833 -38.5 -218.5 -38.5c-124 0 -220.167 30.333 -288.5 91
s-102.5 145.667 -102.5 255c0 106 33.167 185 99.5 237s192.166 89.667 377.499 113c21.333 2.66699 50.333 6 87 10c140 15.333 210 51 210 107c0 31.333 -12 54.166 -36 68.499s-62.667 21.5 -116 21.5c-44.667 0 -79 -8.83301 -103 -26.5s-38 -44.834 -42 -81.501h-412
c0 122.667 48 215 144 277s238.667 93 428 93c77.333 0 150.666 -6.33301 219.999 -19s125 -29.334 167 -50.001c63.333 -31.333 108.5 -71 135.5 -119s40.5 -117.667 40.5 -209v-606c0 -20.667 4 -38.834 12 -54.501s19.667 -28.167 35 -37.5v-31h-434zM469 1241.01h96
l164 145l164 -145h96l-170 242h-180zM385 1198.01l229 328h230l229 -328h-201l-143 129l-143 -129h-201z" />
    <glyph glyph-name="atilde" unicode="&#xe3;" horiz-adv-x="1411" 
d="M903 559v-90c0 -111.333 -20.5 -188.333 -61.5 -231s-108.5 -64 -202.5 -64c-54 0 -95.5 12.167 -124.5 36.5s-43.5 58.5 -43.5 102.5c0 74.667 70 131.334 210 170.001c94 25.333 168 50.666 222 75.999zM195 803l318.999 0.00390625c12 36 34.333 63 67 81
s76 27 130 27c64.667 0 112.834 -11.5 144.501 -34.5s47.5 -58.5 47.5 -106.5c0 -44.667 -13.667 -76.834 -41 -96.501s-90.666 -35.167 -189.999 -46.5c-236.667 -29.333 -386.334 -66.333 -449.001 -111s-94 -114.334 -94 -209.001
c0 -92.667 30.167 -165.334 90.5 -218.001s143.5 -79 249.5 -79c83.333 0 159.5 14 228.5 42s135.5 72 199.5 132l33 -137h315c-6 14 -10.5 28.5 -13.5 43.5s-4.5 33.833 -4.5 56.5v21v555c0 129.333 -39 221 -117 275s-209 81 -393 81
c-161.333 0 -287.833 -24.333 -379.5 -73s-139.167 -116.334 -142.5 -203.001zM851.999 485.004c-42 -16.667 -98.667 -34 -170 -52c-106.667 -27.333 -160 -65.333 -160 -114c0 -30.667 11 -54.667 33 -72s52.667 -26 92 -26c70.667 0 122.5 16.667 155.5 50
s49.5 86.333 49.5 159v35v20zM890.999 0.00390625l-15.999 67.0049c-1.33301 4 -2.16602 8.66699 -2.49902 14s-0.5 16.666 -0.5 33.999c-56 -51.333 -117.5 -89.833 -184.5 -115.5s-139.833 -38.5 -218.5 -38.5c-124 0 -220.167 30.333 -288.5 91
s-102.5 145.667 -102.5 255c0 106 33.167 185 99.5 237s192.166 89.667 377.499 113c21.333 2.66699 50.333 6 87 10c140 15.333 210 51 210 107c0 31.333 -12 54.166 -36 68.499s-62.667 21.5 -116 21.5c-44.667 0 -79 -8.83301 -103 -26.5s-38 -44.834 -42 -81.501h-412
c0 122.667 48 215 144 277s238.667 93 428 93c77.333 0 150.666 -6.33301 219.999 -19s125 -29.334 167 -50.001c63.333 -31.333 108.5 -71 135.5 -119s40.5 -117.667 40.5 -209v-606c0 -20.667 4 -38.834 12 -54.501s19.667 -28.167 35 -37.5v-31h-434zM450 1260.01
l57.999 0.00195312c6.66699 22 20.334 39.667 41.001 53s44.334 20 71.001 20c10.667 0 21 -0.666992 31 -2s19.667 -3.33301 29 -6l119 -31c15.333 -3.33301 26.666 -5.5 33.999 -6.5s13.666 -1.5 18.999 -1.5c44 0 79.167 15.167 105.5 45.5s43.166 75.166 50.499 134.499
h-62c-9.33301 -26 -23.666 -45.833 -42.999 -59.5s-43.333 -20.5 -72 -20.5c-6.66699 0.666992 -14 1.5 -22 2.5s-20.333 3.16699 -37 6.5l-118 28c-12.667 4 -23.667 6.83301 -33 8.5s-17.666 2.5 -24.999 2.5c-41.333 0 -73.5 -13.833 -96.5 -41.5
s-39.5 -71.834 -49.5 -132.501zM394.999 1217.01c12 94 33.332 161.166 63.999 201.499s75.667 60.5 135 60.5c12 0 23.167 -0.666992 33.5 -2s21.166 -3.66602 32.499 -6.99902l122 -32c6.66699 -2 14 -3.5 22 -4.5s16.333 -1.5 25 -1.5c24 0 43.333 6.16699 58 18.5
s25.334 31.833 32.001 58.5h144c-8 -90.667 -29.667 -158 -65 -202s-86 -66 -152 -66c-8 0 -15.833 0.5 -23.5 1.5s-15.5 2.5 -23.5 4.5l-132 35c-11.333 3.33301 -20.333 5.5 -27 6.5s-14 1.5 -22 1.5c-19.333 0 -35.666 -6 -48.999 -18s-24.333 -30.333 -33 -55h-141z" />
    <glyph glyph-name="adieresis" unicode="&#xe4;" horiz-adv-x="1411" 
d="M903 559v-90c0 -111.333 -20.5 -188.333 -61.5 -231s-108.5 -64 -202.5 -64c-54 0 -95.5 12.167 -124.5 36.5s-43.5 58.5 -43.5 102.5c0 74.667 70 131.334 210 170.001c94 25.333 168 50.666 222 75.999zM195 803l318.999 0.00390625c12 36 34.333 63 67 81
s76 27 130 27c64.667 0 112.834 -11.5 144.501 -34.5s47.5 -58.5 47.5 -106.5c0 -44.667 -13.667 -76.834 -41 -96.501s-90.666 -35.167 -189.999 -46.5c-236.667 -29.333 -386.334 -66.333 -449.001 -111s-94 -114.334 -94 -209.001
c0 -92.667 30.167 -165.334 90.5 -218.001s143.5 -79 249.5 -79c83.333 0 159.5 14 228.5 42s135.5 72 199.5 132l33 -137h315c-6 14 -10.5 28.5 -13.5 43.5s-4.5 33.833 -4.5 56.5v21v555c0 129.333 -39 221 -117 275s-209 81 -393 81
c-161.333 0 -287.833 -24.333 -379.5 -73s-139.167 -116.334 -142.5 -203.001zM851.999 485.004c-42 -16.667 -98.667 -34 -170 -52c-106.667 -27.333 -160 -65.333 -160 -114c0 -30.667 11 -54.667 33 -72s52.667 -26 92 -26c70.667 0 122.5 16.667 155.5 50
s49.5 86.333 49.5 159v35v20zM890.999 0.00390625l-15.999 67.0049c-1.33301 4 -2.16602 8.66699 -2.49902 14s-0.5 16.666 -0.5 33.999c-56 -51.333 -117.5 -89.833 -184.5 -115.5s-139.833 -38.5 -218.5 -38.5c-124 0 -220.167 30.333 -288.5 91
s-102.5 145.667 -102.5 255c0 106 33.167 185 99.5 237s192.166 89.667 377.499 113c21.333 2.66699 50.333 6 87 10c140 15.333 210 51 210 107c0 31.333 -12 54.166 -36 68.499s-62.667 21.5 -116 21.5c-44.667 0 -79 -8.83301 -103 -26.5s-38 -44.834 -42 -81.501h-412
c0 122.667 48 215 144 277s238.667 93 428 93c77.333 0 150.666 -6.33301 219.999 -19s125 -29.334 167 -50.001c63.333 -31.333 108.5 -71 135.5 -119s40.5 -117.667 40.5 -209v-606c0 -20.667 4 -38.834 12 -54.501s19.667 -28.167 35 -37.5v-31h-434zM784 1210.01v256
h236v-256h-236zM835 1257.01h134v162h-134v-162zM438 1210.01v256h236v-256h-236zM489 1257.01h131v162h-131v-162z" />
    <glyph glyph-name="aring" unicode="&#xe5;" horiz-adv-x="1411" 
d="M668 1419c0 -13.333 4.66699 -24.5 14 -33.5s21 -13.5 35 -13.5c13.333 0 24.5 4.5 33.5 13.5s13.5 20.167 13.5 33.5c0 14 -4.5 25.333 -13.5 34s-20.167 13 -33.5 13c-14.667 0 -26.5 -4.33301 -35.5 -13s-13.5 -20 -13.5 -34zM627 1419
c0 26.667 8.49805 48.332 25.498 64.999s38.5 25 64.5 25s47.5 -8.33301 64.5 -25s25.5 -38.334 25.5 -65.001c0 -25.333 -8.66699 -46.666 -26 -63.999s-38.666 -26 -63.999 -26s-46.666 8.83301 -63.999 26.5s-26 38.834 -26 63.501zM486.998 1421
c0 62.667 22.667 116.334 68 161.001s99.333 67 162 67c62 0 115.333 -22.333 160 -67s67 -98.334 67 -161.001c0 -63.333 -22.333 -117.666 -67 -162.999s-98 -68 -160 -68c-62.667 0 -116.667 22.667 -162 68s-68 99.666 -68 162.999zM536.998 1419
c0 -50 17.499 -92.501 52.499 -127.501s77.5 -52.5 127.5 -52.5c49.333 0 91.333 17.5 126 52.5s52 77.5 52 127.5s-17.333 92.5 -52 127.5s-76.667 52.5 -126 52.5s-91.666 -17.667 -126.999 -53s-53 -77.666 -53 -126.999zM902.997 558.997v-90
c0 -111.333 -20.5 -188.333 -61.5 -231s-108.5 -64 -202.5 -64c-54 0 -95.5 12.167 -124.5 36.5s-43.5 58.5 -43.5 102.5c0 74.667 70 131.334 210 170.001c94 25.333 168 50.666 222 75.999zM194.997 802.997h319.001c12 36 34.333 63 67 81s76 27 130 27
c65.333 0 114.333 -11.667 147 -35s49 -58.666 49 -105.999c0 -44 -14 -76 -42 -96s-92.333 -35.667 -193 -47c-234.667 -28.667 -382.834 -65.334 -444.501 -110.001s-92.5 -114.667 -92.5 -210c0 -93.333 29.333 -166.166 88 -218.499s140.667 -78.5 246 -78.5
c83.333 0 159.5 14 228.5 42s135.5 72 199.5 132l33 -137h315c-6.66699 14 -11.667 29.333 -15 46s-5 41.667 -5 75v555c0 130 -38.833 221.833 -116.5 275.5s-208.167 80.5 -391.5 80.5c-161.333 0 -287.833 -24.333 -379.5 -73s-139.167 -116.334 -142.5 -203.001z
M850.998 484.997c-41.333 -16.667 -97.332 -34 -167.999 -52c-106 -27.333 -159 -65.333 -159 -114c0 -30.667 10.667 -54.667 32 -72s51.666 -26 90.999 -26c71.333 0 123.666 16.833 156.999 50.5s50 86.5 50 158.5c0 14 -0.166992 25 -0.5 33
s-1.16602 15.333 -2.49902 22zM890.999 -0.00292969l-15.999 67.0059c-1.33301 4 -2.16602 8.66699 -2.49902 14s-0.5 16.666 -0.5 33.999c-56 -51.333 -117.5 -89.833 -184.5 -115.5s-139.833 -38.5 -218.5 -38.5c-122.667 0 -217.5 30.167 -284.5 90.5
s-100.5 145.5 -100.5 255.5c0 106.667 32.667 186 98 238s189.666 89.333 372.999 112l89 11c141.333 15.333 212 50.666 212 105.999c0 31.333 -12.5 54.166 -37.5 68.499s-64.5 21.5 -118.5 21.5c-44.667 0 -79 -8.83301 -103 -26.5s-38 -44.834 -42 -81.501h-422
c2 122 52 214.167 150 276.5s242 93.5 432 93.5c77.333 0 150.666 -6.33301 219.999 -19s125 -29.334 167 -50.001c63.333 -31.333 108.5 -71 135.5 -119s40.5 -117.667 40.5 -209v-606c0 -20.667 4 -38.834 12 -54.501s19.667 -28.167 35 -37.5v-31h-434z" />
    <glyph glyph-name="ae" unicode="&#xe6;" horiz-adv-x="2091" 
d="M1155 618v16.999c0 87.333 22.667 157 68 209s106 78 182 78c84.667 0 149.5 -25.667 194.5 -77s67.5 -124.666 67.5 -219.999v-7h-512zM1159 497.999l818.997 -0.000976562c0 174 -50 314.333 -150 421s-230.667 160 -392 160c-80 0 -150.333 -13.833 -211 -41.5
s-112 -69.167 -154 -124.5c-45.333 58 -98.666 100.167 -159.999 126.5s-135.666 39.5 -222.999 39.5c-147.333 0 -266.166 -25.667 -356.499 -77s-135.833 -117.666 -136.5 -198.999h303c14 38 37.5 65.833 70.5 83.5s78.5 26.5 136.5 26.5
c67.333 0 117.833 -11.833 151.5 -35.5s50.5 -59.5 50.5 -107.5c0 -44 -14 -76 -42 -96s-92.333 -35.667 -193 -47c-234.667 -28.667 -382.834 -65.334 -444.501 -110.001s-92.5 -114.667 -92.5 -210c0 -93.333 29.333 -166.166 88 -218.499s140.667 -78.5 246 -78.5
s202.833 15.667 292.5 47s171.834 78 246.501 140c55.333 -64.667 116 -112 182 -142s143 -45 231 -45c126 0 234.667 24 326 72s150 111.333 176 190h-307c-14.667 -27.333 -38.667 -48.5 -72 -63.5s-74.333 -22.5 -123 -22.5c-85.333 0 -150.333 24.167 -195 72.5
s-67 118.5 -67 210.5v29zM902.997 558.998c0 -24 0.666992 -50.6689 2 -80.002v-12c0 -69.333 -4 -119 -12 -149s-21.667 -54.667 -41 -74c-24 -24 -55.5 -43.333 -94.5 -58s-79.167 -22 -120.5 -22c-62 0 -108.5 11.833 -139.5 35.5s-46.5 58.834 -46.5 105.501
c0 77.333 74 136.333 222 177c97.333 26.667 174 52.334 230 77.001zM1208 665.996h408c-3.33301 66.667 -23 118 -59 154s-86 54 -150 54c-60 0 -107.167 -18 -141.5 -54s-53.5 -87.333 -57.5 -154zM850.997 484.996c-44.667 -18 -105.002 -36.334 -181.002 -55.001
c-110.667 -28 -166 -67 -166 -117c0 -31.333 11.667 -56.166 35 -74.499s55.333 -27.5 96 -27.5c76.667 0 132.334 17 167.001 51s52 89.333 52 166c0 15.333 -0.166992 27 -0.5 35s-1.16602 15.333 -2.49902 22zM1006 126.995c-74.667 -54.667 -157.17 -96 -247.503 -124
s-186.833 -42 -289.5 -42c-123.333 0 -218.333 30 -285 90s-100 145.333 -100 256c0 106.667 32.667 186 98 238s189.666 89.333 372.999 112l89 11c141.333 15.333 212 50.666 212 105.999c0 32 -12.833 55 -38.5 69s-69.5 21 -131.5 21
c-48.667 0 -84.167 -8.16699 -106.5 -24.5s-35.833 -44.166 -40.5 -83.499h-406v4c0 116 48.667 206 146 270s234.333 96 411 96c92 0 168.333 -10.833 229 -32.5s111.334 -56.5 152.001 -104.5c47.333 46.667 100.833 81.167 160.5 103.5s127.834 33.5 204.501 33.5
c183.333 0 327.833 -58.833 433.5 -176.5s158.5 -279.167 158.5 -484.5v-16l-818 -1c2.66699 -70 20.834 -122.833 54.501 -158.5s82.5 -53.5 146.5 -53.5c56.667 0 99.334 6.66699 128.001 20s46.667 35.333 54 66h398c-22 -110.667 -84 -198.5 -186 -263.5
s-230 -97.5 -384 -97.5c-89.333 0 -167.333 13.333 -234 40s-127 68.667 -181 126z" />
    <glyph glyph-name="ccedilla" unicode="&#xe7;" horiz-adv-x="1335" 
d="M842 424l432 0.000976562c-8.66699 -134 -59.667 -241.5 -153 -322.5s-220 -127.167 -380 -138.5v-69h19c69.333 0 123.166 -15.833 161.499 -47.5s57.5 -76.167 57.5 -133.5c0 -64 -23 -112 -69 -144s-115.333 -48 -208 -48c-32.667 0 -72.167 3.66699 -118.5 11
s-98.833 18.666 -157.5 33.999v137c40 -14.667 80.5 -25.5 121.5 -32.5s84.5 -10.5 130.5 -10.5c34 0 58.5 4.33301 73.5 13s22.5 22.667 22.5 42s-9.16699 33.166 -27.5 41.499s-50.166 12.5 -95.499 12.5c-4.66699 0 -13.167 -0.333008 -25.5 -1s-22.166 -1 -29.499 -1
v198c-166.667 16.667 -297.834 76.5 -393.501 179.5s-143.5 236.5 -143.5 400.5c0 180 55.333 321.833 166 425.5s262.334 155.5 455.001 155.5c174.667 0 315.667 -41.167 423 -123.5s163 -191.833 167 -328.5h-434c-3.33301 51.333 -17.833 89.333 -43.5 114
s-63.834 37 -114.501 37c-62.667 0 -108.667 -22.5 -138 -67.5s-44 -115.833 -44 -212.5c0 -98.667 14 -170.5 42 -215.5s72.667 -67.5 134 -67.5c52 0 92 13.333 120 40s44.667 67.334 50 122.001zM885 377.001c-9.33301 -51.333 -32.5 -91.1729 -69.5 -119.506
s-84.167 -42.5 -141.5 -42.5c-77.333 0 -135 27.333 -173 82s-57 137.334 -57 248.001c0 113.333 19.667 196.5 59 249.5s100.333 79.5 183 79.5c54.667 0 99.167 -13.333 133.5 -40s54.833 -63.667 61.5 -111h331c-11.333 106 -65.833 191.833 -163.5 257.5
s-220.5 98.5 -368.5 98.5c-175.333 0 -313.666 -47.667 -414.999 -143s-152 -225.666 -152 -390.999c0 -157.333 47.333 -284.166 142 -380.499s224 -148.5 388 -156.5v-201h23c52 0 90.167 -7.16699 114.5 -21.5s36.5 -37.166 36.5 -68.499s-11.667 -55.166 -35 -71.499
s-58 -24.5 -104 -24.5c-34 0 -67.833 2.16699 -101.5 6.5s-68.167 10.833 -103.5 19.5v-50c39.333 -11.333 78.5 -19.666 117.5 -24.999s77.167 -8 114.5 -8c76.667 0 133.667 12.333 171 37s56 62 56 112c0 48 -16.167 83.667 -48.5 107s-81.833 35 -148.5 35h-35v153
c145.333 4 264.166 39 356.499 105s145.833 154 160.5 264h-332z" />
    <glyph glyph-name="egrave" unicode="&#xe8;" horiz-adv-x="1364" 
d="M492 448c2 -69.333 20.501 -122.833 55.501 -160.5s83.833 -56.5 146.5 -56.5c40.667 0 75 7.83301 103 23.5s47 38.167 57 67.5h414c-29.333 -118 -95 -207.667 -197 -269s-236.333 -92 -403 -92c-186.667 0 -334.834 51.833 -444.501 155.5
s-164.5 243.167 -164.5 418.5c0 182 56 326 168 432s264.333 159 457 159c192 0 343.167 -57.5 453.5 -172.5s165.5 -273.167 165.5 -474.5v-30zM440.001 498h811.003c-0.666992 181.333 -51.334 323.5 -152.001 426.5s-239 154.5 -415 154.5s-315.5 -48.5 -418.5 -145.5
s-154.5 -228.5 -154.5 -394.5c0 -161.333 50.667 -289.833 152 -385.5s237.666 -143.5 408.999 -143.5c138.667 0 253.667 22.833 345 68.5s151.666 110.167 180.999 193.5h-317c-16 -27.333 -41 -48.833 -75 -64.5s-73.333 -23.5 -118 -23.5
c-80.667 0 -142.167 24.833 -184.5 74.5s-63.5 121.167 -63.5 214.5v25zM440.004 618l-0.000976562 17c0 86 21.833 154.167 65.5 204.5s101.834 75.5 174.501 75.5c80.667 0 142.5 -25 185.5 -75s64.5 -121.667 64.5 -215v-7h-490zM492.003 666h387
c-5.33301 67.333 -24.5 117.833 -57.5 151.5s-80.167 50.5 -141.5 50.5c-56 0 -100.667 -17.833 -134 -53.5s-51.333 -85.167 -54 -148.5zM719.003 1241h90l-170 242h-205zM701.003 1198l-385 328h350l229 -328h-194z" />
    <glyph glyph-name="eacute" unicode="&#xe9;" horiz-adv-x="1364" 
d="M492 448c2 -69.333 20.501 -122.833 55.501 -160.5s83.833 -56.5 146.5 -56.5c40.667 0 75 7.83301 103 23.5s47 38.167 57 67.5h414c-29.333 -118 -95 -207.667 -197 -269s-236.333 -92 -403 -92c-186.667 0 -334.834 51.833 -444.501 155.5
s-164.5 243.167 -164.5 418.5c0 182 56 326 168 432s264.333 159 457 159c192 0 343.167 -57.5 453.5 -172.5s165.5 -273.167 165.5 -474.5v-30zM440.001 498h811.003c-0.666992 181.333 -51.334 323.5 -152.001 426.5s-239 154.5 -415 154.5s-315.5 -48.5 -418.5 -145.5
s-154.5 -228.5 -154.5 -394.5c0 -161.333 50.667 -289.833 152 -385.5s237.666 -143.5 408.999 -143.5c138.667 0 253.667 22.833 345 68.5s151.666 110.167 180.999 193.5h-317c-16 -27.333 -41 -48.833 -75 -64.5s-73.333 -23.5 -118 -23.5
c-80.667 0 -142.167 24.833 -184.5 74.5s-63.5 121.167 -63.5 214.5v25zM440.004 618l-0.000976562 17c0 86 21.833 154.167 65.5 204.5s101.834 75.5 174.501 75.5c80.667 0 142.5 -25 185.5 -75s64.5 -121.667 64.5 -215v-7h-490zM492.003 666h387
c-5.33301 67.333 -24.5 117.833 -57.5 151.5s-80.167 50.5 -141.5 50.5c-56 0 -100.667 -17.833 -134 -53.5s-51.333 -85.167 -54 -148.5zM615.003 1241h92l282 242h-204zM529.003 1198l229 328h352l-387 -328h-194z" />
    <glyph glyph-name="ecircumflex" unicode="&#xea;" horiz-adv-x="1364" 
d="M492 448c2 -69.333 20.501 -122.833 55.501 -160.5s83.833 -56.5 146.5 -56.5c40.667 0 75 7.83301 103 23.5s47 38.167 57 67.5h414c-29.333 -118 -95 -207.667 -197 -269s-236.333 -92 -403 -92c-186.667 0 -334.834 51.833 -444.501 155.5
s-164.5 243.167 -164.5 418.5c0 182 56 326 168 432s264.333 159 457 159c192 0 343.167 -57.5 453.5 -172.5s165.5 -273.167 165.5 -474.5v-30zM440.001 498h811.003c-0.666992 181.333 -51.334 323.5 -152.001 426.5s-239 154.5 -415 154.5s-315.5 -48.5 -418.5 -145.5
s-154.5 -228.5 -154.5 -394.5c0 -161.333 50.667 -289.833 152 -385.5s237.666 -143.5 408.999 -143.5c138.667 0 253.667 22.833 345 68.5s151.666 110.167 180.999 193.5h-317c-16 -27.333 -41 -48.833 -75 -64.5s-73.333 -23.5 -118 -23.5
c-80.667 0 -142.167 24.833 -184.5 74.5s-63.5 121.167 -63.5 214.5v25zM440.004 618l-0.000976562 17c0 86 21.833 154.167 65.5 204.5s101.834 75.5 174.501 75.5c80.667 0 142.5 -25 185.5 -75s64.5 -121.667 64.5 -215v-7h-490zM492.003 666h387
c-5.33301 67.333 -24.5 117.833 -57.5 151.5s-80.167 50.5 -141.5 50.5c-56 0 -100.667 -17.833 -134 -53.5s-51.333 -85.167 -54 -148.5zM453.003 1241h96l164 145l164 -145h96l-170 242h-180zM369.003 1198l229 328h230l229 -328h-201l-143 129l-143 -129h-201z" />
    <glyph glyph-name="edieresis" unicode="&#xeb;" horiz-adv-x="1364" 
d="M492 448c2 -69.333 20.501 -122.833 55.501 -160.5s83.833 -56.5 146.5 -56.5c40.667 0 75 7.83301 103 23.5s47 38.167 57 67.5h414c-29.333 -118 -95 -207.667 -197 -269s-236.333 -92 -403 -92c-186.667 0 -334.834 51.833 -444.501 155.5
s-164.5 243.167 -164.5 418.5c0 182 56 326 168 432s264.333 159 457 159c192 0 343.167 -57.5 453.5 -172.5s165.5 -273.167 165.5 -474.5v-30zM440.001 498h811.003c-0.666992 181.333 -51.334 323.5 -152.001 426.5s-239 154.5 -415 154.5s-315.5 -48.5 -418.5 -145.5
s-154.5 -228.5 -154.5 -394.5c0 -161.333 50.667 -289.833 152 -385.5s237.666 -143.5 408.999 -143.5c138.667 0 253.667 22.833 345 68.5s151.666 110.167 180.999 193.5h-317c-16 -27.333 -41 -48.833 -75 -64.5s-73.333 -23.5 -118 -23.5
c-80.667 0 -142.167 24.833 -184.5 74.5s-63.5 121.167 -63.5 214.5v25zM440.004 618l-0.000976562 17c0 86 21.833 154.167 65.5 204.5s101.834 75.5 174.501 75.5c80.667 0 142.5 -25 185.5 -75s64.5 -121.667 64.5 -215v-7h-490zM492.003 666h387
c-5.33301 67.333 -24.5 117.833 -57.5 151.5s-80.167 50.5 -141.5 50.5c-56 0 -100.667 -17.833 -134 -53.5s-51.333 -85.167 -54 -148.5zM768.003 1210v256h236v-256h-236zM819.003 1257h134v162h-134v-162zM422.003 1210v256h236v-256h-236zM473.003 1257h131v162h-131
v-162z" />
    <glyph glyph-name="igrave" unicode="&#xec;" horiz-adv-x="692" 
d="M180 47h330v993h-330v-993zM127 0v1087h436v-1087h-436zM352 1241h90l-170 242h-205zM334 1198l-385 328h350l229 -328h-194z" />
    <glyph glyph-name="iacute" unicode="&#xed;" horiz-adv-x="692" 
d="M180 47h330v993h-330v-993zM127 0v1087h436v-1087h-436zM248 1241h92l282 242h-204zM162 1198l229 328h352l-387 -328h-194z" />
    <glyph glyph-name="icircumflex" unicode="&#xee;" horiz-adv-x="692" 
d="M180 47h330v993h-330v-993zM127 0v1087h436v-1087h-436zM86 1241h96l164 145l164 -145h96l-170 242h-180zM2 1198l229 328h230l229 -328h-201l-143 129l-143 -129h-201z" />
    <glyph glyph-name="idieresis" unicode="&#xef;" horiz-adv-x="692" 
d="M180 47h330v993h-330v-993zM127 0v1087h436v-1087h-436zM401 1210v256h236v-256h-236zM452 1257h134v162h-134v-162zM55 1210v256h236v-256h-236zM106 1257h131v162h-131v-162z" />
    <glyph glyph-name="eth" unicode="&#xf0;" horiz-adv-x="1348" 
d="M301 1339l94.001 170.003c67.333 -22 126.166 -43.667 176.499 -65s96.166 -43.333 137.499 -66l270 131l78 -159l-174 -82c137.333 -100 239.5 -210.667 306.5 -332s100.5 -256 100.5 -404c0 -181.333 -53.667 -321.5 -161 -420.5s-259 -148.5 -455 -148.5
c-191.333 0 -341.666 48.5 -450.999 145.5s-164 230.167 -164 399.5c0 155.333 49.167 281.166 147.5 377.499s225.5 144.5 381.5 144.5c33.333 0 67 -2.83301 101 -8.5s68 -14.5 102 -26.5c-22 29.333 -47 57.5 -75 84.5s-59.667 54.167 -95 81.5l-273 -125l-74 154l177 78
c-22 11.333 -60 29.666 -114 54.999c-16 7.33301 -28 12.666 -36 15.999zM356.001 1360c38 -16 72.167 -31.834 102.5 -47.501s57.833 -31.834 82.5 -48.501l-211 -97l35 -80l256 123c53.333 -38 99.833 -77.833 139.5 -119.5s70.167 -82.167 91.5 -121.5l-27 -27
c-38 16.667 -76.167 29 -114.5 37s-77.166 12 -116.499 12c-141.333 0 -256.833 -44.667 -346.5 -134s-134.5 -205 -134.5 -347c0 -155.333 50.167 -278.166 150.5 -368.499s237.166 -135.5 410.499 -135.5c178.667 0 317.5 46.167 416.5 138.5s148.5 221.5 148.5 387.5
c0 151.333 -36.167 287.833 -108.5 409.5s-182.833 232.5 -331.5 332.5l200 98l-36 82l-254 -125c-34.667 20 -74.5 39.833 -119.5 59.5s-104.833 42.834 -179.5 69.501zM674.001 774.002c-62 0 -107.167 -20 -135.5 -60s-42.5 -104 -42.5 -192
c0 -101.333 13.667 -173 41 -215s73 -63 137 -63c63.333 0 109.166 20.5 137.499 61.5s42.5 108.5 42.5 202.5s-14.167 161.833 -42.5 203.5s-74.166 62.5 -137.499 62.5zM442.001 524.002c0 101.333 18.833 175.834 56.5 223.501s96.167 71.5 175.5 71.5
c81.333 0 140.166 -24.167 176.499 -72.5s54.5 -127.833 54.5 -238.5s-18.167 -189.834 -54.5 -237.501s-95.166 -71.5 -176.499 -71.5c-82.667 0 -142 24.5 -178 73.5s-54 132.833 -54 251.5z" />
    <glyph glyph-name="ntilde" unicode="&#xf1;" horiz-adv-x="1399" 
d="M117 0l0.000976562 1087h393v-108c0 -14.667 -1.16699 -29 -3.5 -43s-5.83301 -28.333 -10.5 -43c45.333 73.333 101.833 128.833 169.5 166.5s144.167 56.5 229.5 56.5c77.333 0 146.833 -17.333 208.5 -52s107.5 -82 137.5 -142c18 -34.667 30.667 -76 38 -124
s11 -125.667 11 -233v-565h-432v563c0 83.333 -11 140.333 -33 171s-60 46 -114 46c-54.667 0 -95.334 -18 -122.001 -54s-40 -91 -40 -165v-561h-432zM909.001 537v-490h330v520c0 74.667 -2.5 134.5 -7.5 179.5s-12.833 82.167 -23.5 111.5
c-24.667 67.333 -65.667 119.333 -123 156s-126 55 -206 55c-78 0 -151.167 -22.667 -219.5 -68s-133.833 -114 -196.5 -206v245h-295v-993h330v488c0 97.333 17.833 170.333 53.5 219s89.5 73 161.5 73c71.333 0 121.833 -20.833 151.5 -62.5s44.5 -117.5 44.5 -227.5z
M421.001 1260l57.999 0.00195312c6.66699 22 20.334 39.667 41.001 53s44.334 20 71.001 20c10.667 0 21 -0.666992 31 -2s19.667 -3.33301 29 -6l119 -31c15.333 -3.33301 26.666 -5.5 33.999 -6.5s13.666 -1.5 18.999 -1.5c44 0 79.167 15.167 105.5 45.5
s43.166 75.166 50.499 134.499h-62c-9.33301 -26 -23.666 -45.833 -42.999 -59.5s-43.333 -20.5 -72 -20.5c-6.66699 0.666992 -14 1.5 -22 2.5s-20.333 3.16699 -37 6.5l-118 28c-12.667 4 -23.667 6.83301 -33 8.5s-17.666 2.5 -24.999 2.5
c-41.333 0 -73.5 -13.833 -96.5 -41.5s-39.5 -71.834 -49.5 -132.501zM366 1217c12 94 33.332 161.166 63.999 201.499s75.667 60.5 135 60.5c12 0 23.167 -0.666992 33.5 -2s21.166 -3.66602 32.499 -6.99902l122 -32c6.66699 -2 14 -3.5 22 -4.5s16.333 -1.5 25 -1.5
c24 0 43.333 6.16699 58 18.5s25.334 31.833 32.001 58.5h144c-8 -90.667 -29.667 -158 -65 -202s-86 -66 -152 -66c-8 0 -15.833 0.5 -23.5 1.5s-15.5 2.5 -23.5 4.5l-132 35c-11.333 3.33301 -20.333 5.5 -27 6.5s-14 1.5 -22 1.5c-19.333 0 -35.666 -6 -48.999 -18
s-24.333 -30.333 -33 -55h-141z" />
    <glyph glyph-name="ograve" unicode="&#xf2;" horiz-adv-x="1348" 
d="M444 545c0 118 18 202.332 54 252.999s94.667 76 176 76s140.166 -25.5 176.499 -76.5s54.5 -135.167 54.5 -252.5s-18.167 -201.666 -54.5 -252.999s-95.166 -77 -176.499 -77s-140 25.5 -176 76.5s-54 135.5 -54 253.5zM111 544.999
c0 -165.333 50.5 -296.167 151.5 -392.5s238.167 -144.5 411.5 -144.5c174 0 311.333 48 412 144s151 227 151 393s-50.333 296.833 -151 392.5s-238 143.5 -412 143.5s-311.333 -48.167 -412 -144.5s-151 -226.833 -151 -391.5zM496 544.998
c0 -100.667 13.998 -173 41.998 -217s73.333 -66 136 -66s108.334 22.167 137.001 66.5s43 116.5 43 216.5c0 99.333 -14.167 170.833 -42.5 214.5s-74.166 65.5 -137.499 65.5s-108.833 -21.667 -136.5 -65s-41.5 -115 -41.5 -215zM58.998 544.998
c0 180 54.833 321.833 164.5 425.5s259.834 155.5 450.501 155.5c190 0 339.833 -51.833 449.5 -155.5s164.5 -245.5 164.5 -425.5c0 -180.667 -54.833 -323.167 -164.5 -427.5s-259.5 -156.5 -449.5 -156.5c-190.667 0 -340.834 52.167 -450.501 156.5
s-164.5 246.833 -164.5 427.5zM679.998 1241h90l-170 242h-205zM661.998 1198l-385 328h350l229 -328h-194z" />
    <glyph glyph-name="oacute" unicode="&#xf3;" horiz-adv-x="1348" 
d="M444 545c0 118 18 202.332 54 252.999s94.667 76 176 76s140.166 -25.5 176.499 -76.5s54.5 -135.167 54.5 -252.5s-18.167 -201.666 -54.5 -252.999s-95.166 -77 -176.499 -77s-140 25.5 -176 76.5s-54 135.5 -54 253.5zM111 544.999
c0 -165.333 50.5 -296.167 151.5 -392.5s238.167 -144.5 411.5 -144.5c174 0 311.333 48 412 144s151 227 151 393s-50.333 296.833 -151 392.5s-238 143.5 -412 143.5s-311.333 -48.167 -412 -144.5s-151 -226.833 -151 -391.5zM496 544.998
c0 -100.667 13.998 -173 41.998 -217s73.333 -66 136 -66s108.334 22.167 137.001 66.5s43 116.5 43 216.5c0 99.333 -14.167 170.833 -42.5 214.5s-74.166 65.5 -137.499 65.5s-108.833 -21.667 -136.5 -65s-41.5 -115 -41.5 -215zM58.998 544.998
c0 180 54.833 321.833 164.5 425.5s259.834 155.5 450.501 155.5c190 0 339.833 -51.833 449.5 -155.5s164.5 -245.5 164.5 -425.5c0 -180.667 -54.833 -323.167 -164.5 -427.5s-259.5 -156.5 -449.5 -156.5c-190.667 0 -340.834 52.167 -450.501 156.5
s-164.5 246.833 -164.5 427.5zM575.998 1241h92l282 242h-204zM489.998 1198l229 328h352l-387 -328h-194z" />
    <glyph glyph-name="ocircumflex" unicode="&#xf4;" horiz-adv-x="1348" 
d="M444 545c0 118 18 202.332 54 252.999s94.667 76 176 76s140.166 -25.5 176.499 -76.5s54.5 -135.167 54.5 -252.5s-18.167 -201.666 -54.5 -252.999s-95.166 -77 -176.499 -77s-140 25.5 -176 76.5s-54 135.5 -54 253.5zM111 544.999
c0 -165.333 50.5 -296.167 151.5 -392.5s238.167 -144.5 411.5 -144.5c174 0 311.333 48 412 144s151 227 151 393s-50.333 296.833 -151 392.5s-238 143.5 -412 143.5s-311.333 -48.167 -412 -144.5s-151 -226.833 -151 -391.5zM496 544.998
c0 -100.667 13.998 -173 41.998 -217s73.333 -66 136 -66s108.334 22.167 137.001 66.5s43 116.5 43 216.5c0 99.333 -14.167 170.833 -42.5 214.5s-74.166 65.5 -137.499 65.5s-108.833 -21.667 -136.5 -65s-41.5 -115 -41.5 -215zM58.998 544.998
c0 180 54.833 321.833 164.5 425.5s259.834 155.5 450.501 155.5c190 0 339.833 -51.833 449.5 -155.5s164.5 -245.5 164.5 -425.5c0 -180.667 -54.833 -323.167 -164.5 -427.5s-259.5 -156.5 -449.5 -156.5c-190.667 0 -340.834 52.167 -450.501 156.5
s-164.5 246.833 -164.5 427.5zM413.998 1241h96l164 145l164 -145h96l-170 242h-180zM329.998 1198l229 328h230l229 -328h-201l-143 129l-143 -129h-201z" />
    <glyph glyph-name="otilde" unicode="&#xf5;" horiz-adv-x="1348" 
d="M444 545c0 118 18 202.332 54 252.999s94.667 76 176 76s140.166 -25.5 176.499 -76.5s54.5 -135.167 54.5 -252.5s-18.167 -201.666 -54.5 -252.999s-95.166 -77 -176.499 -77s-140 25.5 -176 76.5s-54 135.5 -54 253.5zM111 544.999
c0 -165.333 50.5 -296.167 151.5 -392.5s238.167 -144.5 411.5 -144.5c174 0 311.333 48 412 144s151 227 151 393s-50.333 296.833 -151 392.5s-238 143.5 -412 143.5s-311.333 -48.167 -412 -144.5s-151 -226.833 -151 -391.5zM496 544.998
c0 -100.667 13.998 -173 41.998 -217s73.333 -66 136 -66s108.334 22.167 137.001 66.5s43 116.5 43 216.5c0 99.333 -14.167 170.833 -42.5 214.5s-74.166 65.5 -137.499 65.5s-108.833 -21.667 -136.5 -65s-41.5 -115 -41.5 -215zM58.998 544.998
c0 180 54.833 321.833 164.5 425.5s259.834 155.5 450.501 155.5c190 0 339.833 -51.833 449.5 -155.5s164.5 -245.5 164.5 -425.5c0 -180.667 -54.833 -323.167 -164.5 -427.5s-259.5 -156.5 -449.5 -156.5c-190.667 0 -340.834 52.167 -450.501 156.5
s-164.5 246.833 -164.5 427.5zM394.998 1260l57.999 0.00195312c6.66699 22 20.334 39.667 41.001 53s44.334 20 71.001 20c10.667 0 21 -0.666992 31 -2s19.667 -3.33301 29 -6l119 -31c15.333 -3.33301 26.666 -5.5 33.999 -6.5s13.666 -1.5 18.999 -1.5
c44 0 79.167 15.167 105.5 45.5s43.166 75.166 50.499 134.499h-62c-9.33301 -26 -23.666 -45.833 -42.999 -59.5s-43.333 -20.5 -72 -20.5c-6.66699 0.666992 -14 1.5 -22 2.5s-20.333 3.16699 -37 6.5l-118 28c-12.667 4 -23.667 6.83301 -33 8.5s-17.666 2.5 -24.999 2.5
c-41.333 0 -73.5 -13.833 -96.5 -41.5s-39.5 -71.834 -49.5 -132.501zM339.997 1217c12 94 33.332 161.166 63.999 201.499s75.667 60.5 135 60.5c12 0 23.167 -0.666992 33.5 -2s21.166 -3.66602 32.499 -6.99902l122 -32c6.66699 -2 14 -3.5 22 -4.5s16.333 -1.5 25 -1.5
c24 0 43.333 6.16699 58 18.5s25.334 31.833 32.001 58.5h144c-8 -90.667 -29.667 -158 -65 -202s-86 -66 -152 -66c-8 0 -15.833 0.5 -23.5 1.5s-15.5 2.5 -23.5 4.5l-132 35c-11.333 3.33301 -20.333 5.5 -27 6.5s-14 1.5 -22 1.5c-19.333 0 -35.666 -6 -48.999 -18
s-24.333 -30.333 -33 -55h-141z" />
    <glyph glyph-name="odieresis" unicode="&#xf6;" horiz-adv-x="1348" 
d="M444 545c0 118 18 202.332 54 252.999s94.667 76 176 76s140.166 -25.5 176.499 -76.5s54.5 -135.167 54.5 -252.5s-18.167 -201.666 -54.5 -252.999s-95.166 -77 -176.499 -77s-140 25.5 -176 76.5s-54 135.5 -54 253.5zM111 544.999
c0 -165.333 50.5 -296.167 151.5 -392.5s238.167 -144.5 411.5 -144.5c174 0 311.333 48 412 144s151 227 151 393s-50.333 296.833 -151 392.5s-238 143.5 -412 143.5s-311.333 -48.167 -412 -144.5s-151 -226.833 -151 -391.5zM496 544.998
c0 -100.667 13.998 -173 41.998 -217s73.333 -66 136 -66s108.334 22.167 137.001 66.5s43 116.5 43 216.5c0 99.333 -14.167 170.833 -42.5 214.5s-74.166 65.5 -137.499 65.5s-108.833 -21.667 -136.5 -65s-41.5 -115 -41.5 -215zM58.998 544.998
c0 180 54.833 321.833 164.5 425.5s259.834 155.5 450.501 155.5c190 0 339.833 -51.833 449.5 -155.5s164.5 -245.5 164.5 -425.5c0 -180.667 -54.833 -323.167 -164.5 -427.5s-259.5 -156.5 -449.5 -156.5c-190.667 0 -340.834 52.167 -450.501 156.5
s-164.5 246.833 -164.5 427.5zM728.998 1210v256h236v-256h-236zM779.998 1257h134v162h-134v-162zM382.998 1210v256h236v-256h-236zM433.998 1257h131v162h-131v-162z" />
    <glyph glyph-name="divide" unicode="&#xf7;" horiz-adv-x="1706" 
d="M854 362c25.333 0 46.668 -8.50098 64.001 -25.501s26 -38.5 26 -64.5c0 -24.667 -8.83301 -46.167 -26.5 -64.5s-38.834 -27.5 -63.501 -27.5c-25.333 0 -47 8.83301 -65 26.5s-27 38.834 -27 63.501c0 25.333 9.16699 47 27.5 65s39.833 27 64.5 27zM254.002 640.999
h1198v-61h-1198v61zM854.002 1040c24.667 0 45.832 -9 63.499 -27s26.5 -39.667 26.5 -65s-8.66699 -46.666 -26 -63.999s-38.666 -26 -63.999 -26c-26 0 -47.833 8.66699 -65.5 26s-26.5 38.666 -26.5 63.999c0 24.667 9.16699 46.167 27.5 64.5s39.833 27.5 64.5 27.5z
" />
    <glyph glyph-name="oslash" unicode="&#xf8;" horiz-adv-x="1348" 
d="M117 53l38.9961 -40.998l127 123c54.667 -43.333 113.334 -75.333 176.001 -96s134.334 -31 215.001 -31c173.333 0 310.5 48.167 411.5 144.5s151.5 227.166 151.5 392.499c0 79.333 -11.833 151.166 -35.5 215.499s-58.167 118.833 -103.5 163.5l116 110l-40 41
l-119 -112c-43.333 38.667 -97.166 68 -161.499 88s-137.5 30 -219.5 30c-173.333 0 -310.166 -48 -410.499 -144s-150.5 -226.667 -150.5 -392c0 -77.333 11 -147 33 -209s54.667 -115.333 98 -160zM460.996 309.002l446 431.999c8.66699 -27.333 15 -57.166 19 -89.499
s6 -67.833 6 -106.5c0 -119.333 -20.667 -206.833 -62 -262.5s-106 -83.5 -194 -83.5c-50 0 -92.667 9 -128 27s-64.333 45.667 -87 83zM437.996 362.001c-6.66699 32 -11.667 63.1689 -15 93.502s-5 60.166 -5 89.499c0 119.333 20.5 206.5 61.5 261.5
s106.5 82.5 196.5 82.5c47.333 0 87.5 -7.83301 120.5 -23.5s61.167 -39.834 84.5 -72.501zM151.996 -54.9971l-105.002 109.999l127 121c-39.333 50.667 -68.666 105.667 -87.999 165s-29 125.333 -29 198c0 182 55.167 325.333 165.5 430s260.833 157 451.5 157
c74 0 143.833 -8.66699 209.5 -26s122.167 -42 169.5 -74l123 119l102 -111l-111 -108c42.667 -51.333 73.834 -106.5 93.501 -165.5s29.5 -126.833 29.5 -203.5c0 -186.667 -54.333 -332.667 -163 -438s-259.667 -158 -453 -158c-82 0 -156 9.33301 -222 28
s-121.667 46.334 -167 83.001zM474.994 467.002l336 324.001c-18 17.333 -37.833 30.166 -59.5 38.499s-47.5 12.5 -77.5 12.5c-70 0 -121.333 -23.667 -154 -71s-49 -121.333 -49 -222c0 -12 1 -33.667 3 -65c0.666992 -8 1 -13.667 1 -17zM869.994 639.003l-344.002 -332
c17.333 -22 38 -38 62 -48s54 -15 90 -15c66.667 0 116.834 24 150.501 72s50.5 119.333 50.5 214c0 22 -0.666992 41.333 -2 58s-3.66602 33.667 -6.99902 51z" />
    <glyph glyph-name="ugrave" unicode="&#xf9;" horiz-adv-x="1399" 
d="M1282 1087l0.000976562 -1087h-395v109c0 14.667 1.16699 29 3.5 43s5.83301 28 10.5 42c-46 -73.333 -102.5 -128.833 -169.5 -166.5s-142.833 -56.5 -227.5 -56.5c-76.667 0 -146.334 17.833 -209.001 53.5s-109 83.5 -139 143.5
c-17.333 33.333 -29.5 72.666 -36.5 117.999s-10.5 124.666 -10.5 237.999v563h430v-561c0 -82.667 11.333 -139.834 34 -171.501s61 -47.5 115 -47.5s94.5 18.333 121.5 55s40.5 92 40.5 166v559h432zM487.001 553.003l-0.000976562 488.999h-327v-522
c0 -74 2.33301 -133.167 7 -177.5s12.334 -81.5 23.001 -111.5c25.333 -67.333 66.833 -119.666 124.5 -156.999s126.167 -56 205.5 -56c77.333 0 149.833 22.5 217.5 67.5s133.167 114.167 196.5 207.5v-246h297v995h-330v-487c0 -98 -17.833 -171.667 -53.5 -221
s-89.5 -74 -161.5 -74s-123.167 21.333 -153.5 64s-45.5 119 -45.5 229zM706 1241h90l-170 242h-205zM688 1198l-385 328h350l229 -328h-194z" />
    <glyph glyph-name="uacute" unicode="&#xfa;" horiz-adv-x="1399" 
d="M1282 1087l0.000976562 -1087h-395v109c0 14.667 1.16699 29 3.5 43s5.83301 28 10.5 42c-46 -73.333 -102.5 -128.833 -169.5 -166.5s-142.833 -56.5 -227.5 -56.5c-76.667 0 -146.334 17.833 -209.001 53.5s-109 83.5 -139 143.5
c-17.333 33.333 -29.5 72.666 -36.5 117.999s-10.5 124.666 -10.5 237.999v563h430v-561c0 -82.667 11.333 -139.834 34 -171.501s61 -47.5 115 -47.5s94.5 18.333 121.5 55s40.5 92 40.5 166v559h432zM487.001 553.003l-0.000976562 488.999h-327v-522
c0 -74 2.33301 -133.167 7 -177.5s12.334 -81.5 23.001 -111.5c25.333 -67.333 66.833 -119.666 124.5 -156.999s126.167 -56 205.5 -56c77.333 0 149.833 22.5 217.5 67.5s133.167 114.167 196.5 207.5v-246h297v995h-330v-487c0 -98 -17.833 -171.667 -53.5 -221
s-89.5 -74 -161.5 -74s-123.167 21.333 -153.5 64s-45.5 119 -45.5 229zM602 1241h92l282 242h-204zM516 1198l229 328h352l-387 -328h-194z" />
    <glyph glyph-name="ucircumflex" unicode="&#xfb;" horiz-adv-x="1399" 
d="M1282 1087l0.000976562 -1087h-395v109c0 14.667 1.16699 29 3.5 43s5.83301 28 10.5 42c-46 -73.333 -102.5 -128.833 -169.5 -166.5s-142.833 -56.5 -227.5 -56.5c-76.667 0 -146.334 17.833 -209.001 53.5s-109 83.5 -139 143.5
c-17.333 33.333 -29.5 72.666 -36.5 117.999s-10.5 124.666 -10.5 237.999v563h430v-561c0 -82.667 11.333 -139.834 34 -171.501s61 -47.5 115 -47.5s94.5 18.333 121.5 55s40.5 92 40.5 166v559h432zM487.001 553.003l-0.000976562 488.999h-327v-522
c0 -74 2.33301 -133.167 7 -177.5s12.334 -81.5 23.001 -111.5c25.333 -67.333 66.833 -119.666 124.5 -156.999s126.167 -56 205.5 -56c77.333 0 149.833 22.5 217.5 67.5s133.167 114.167 196.5 207.5v-246h297v995h-330v-487c0 -98 -17.833 -171.667 -53.5 -221
s-89.5 -74 -161.5 -74s-123.167 21.333 -153.5 64s-45.5 119 -45.5 229zM440 1241h96l164 145l164 -145h96l-170 242h-180zM356 1198l229 328h230l229 -328h-201l-143 129l-143 -129h-201z" />
    <glyph glyph-name="udieresis" unicode="&#xfc;" horiz-adv-x="1399" 
d="M1282 1087l0.000976562 -1087h-395v109c0 14.667 1.16699 29 3.5 43s5.83301 28 10.5 42c-46 -73.333 -102.5 -128.833 -169.5 -166.5s-142.833 -56.5 -227.5 -56.5c-76.667 0 -146.334 17.833 -209.001 53.5s-109 83.5 -139 143.5
c-17.333 33.333 -29.5 72.666 -36.5 117.999s-10.5 124.666 -10.5 237.999v563h430v-561c0 -82.667 11.333 -139.834 34 -171.501s61 -47.5 115 -47.5s94.5 18.333 121.5 55s40.5 92 40.5 166v559h432zM487.001 553.003l-0.000976562 488.999h-327v-522
c0 -74 2.33301 -133.167 7 -177.5s12.334 -81.5 23.001 -111.5c25.333 -67.333 66.833 -119.666 124.5 -156.999s126.167 -56 205.5 -56c77.333 0 149.833 22.5 217.5 67.5s133.167 114.167 196.5 207.5v-246h297v995h-330v-487c0 -98 -17.833 -171.667 -53.5 -221
s-89.5 -74 -161.5 -74s-123.167 21.333 -153.5 64s-45.5 119 -45.5 229zM755 1210v256h236v-256h-236zM806 1257h134v162h-134v-162zM409 1210v256h236v-256h-236zM460 1257h131v162h-131v-162z" />
    <glyph glyph-name="yacute" unicode="&#xfd;" horiz-adv-x="1202" 
d="M133 -428l-0.00292969 322.002h123c42 0 72.333 7.16699 91 21.5s28 37.833 28 70.5c0 14 -1.83301 29.667 -5.5 47s-9.5 37 -17.5 59l-364 995h438l176 -620c4 -14.667 7.16699 -29.834 9.5 -45.501s3.83301 -32.5 4.5 -50.5
c0.666992 4.66699 1.33398 11.334 2.00098 20.001c3.33301 43.333 6.33301 68.666 9 75.999l174 620h407l-352 -1081c-38 -117.333 -68.167 -199 -90.5 -245s-46.166 -81.667 -71.499 -107c-32.667 -32.667 -72 -55.834 -118 -69.501s-120.667 -20.5 -224 -20.5
c-30 0 -63.667 0.666992 -101 2s-76.666 3.33301 -117.999 6zM796.997 -15.998l348.001 1056h-307l-222 -792l-231 792h-330l359 -963c4 -10 7.33301 -22.667 10 -38s4 -31 4 -47c0 -46.667 -12.833 -82.334 -38.5 -107.001s-62.5 -37 -110.5 -37h-95v-231
c31.333 -2.66699 62.833 -4.66699 94.5 -6s64.5 -2 98.5 -2c119.333 0 205.166 19.833 257.499 59.5s106.5 144.834 162.5 315.501zM503.998 1241h92l282 242h-204zM417.998 1198l229 328h352l-387 -328h-194z" />
    <glyph glyph-name="thorn" unicode="&#xfe;" horiz-adv-x="1386" 
d="M713 791c-55.333 0 -98.5 -21.999 -129.5 -65.999s-46.5 -105.333 -46.5 -184c0 -86 14.333 -149.5 43 -190.5s73 -61.5 133 -61.5s104.667 20.667 134 62s44 104.666 44 189.999c0 78.667 -15.833 140 -47.5 184s-75.167 66 -130.5 66zM713 840.001
c71.333 0 127.333 -26.5 168 -79.5s61 -126.167 61 -219.5c0 -101.333 -18.833 -176.5 -56.5 -225.5s-95.167 -73.5 -172.5 -73.5c-75.333 0 -132.5 24.833 -171.5 74.5s-58.5 122.5 -58.5 218.5c0 98 20 173.333 60 226s96.667 79 170 79zM119 1473l420.001 0.000976562
v-373c0 -37.333 -1 -66.5 -3 -87.5s-5.33301 -41.167 -10 -60.5c40 55.333 87.667 96.833 143 124.5s118.333 41.5 189 41.5c139.333 0 252 -52.833 338 -158.5s129 -245.167 129 -418.5c0 -176 -43.167 -317 -129.5 -423s-200.833 -159 -343.5 -159
c-69.333 0 -133.5 16 -192.5 48s-104.167 74.667 -135.5 128c5.33301 -16.667 9.16602 -33.334 11.499 -50.001s3.5 -34 3.5 -52v-469h-420v1909zM494.001 -388.998l-0.00195312 618c57.333 -78.667 114.833 -135.5 172.5 -170.5s122.167 -52.5 193.5 -52.5
c122 0 221.167 49 297.5 147s114.5 226.667 114.5 386s-38.167 287.5 -114.5 384.5s-176.166 145.5 -299.499 145.5c-74 0 -140.167 -17.833 -198.5 -53.5s-114.166 -92.167 -167.499 -169.5v577h-326v-1812h328z" />
    <glyph glyph-name="ydieresis" unicode="&#xff;" horiz-adv-x="1202" 
d="M133 -428l-0.00292969 322.002h123c42 0 72.333 7.16699 91 21.5s28 37.833 28 70.5c0 14 -1.83301 29.667 -5.5 47s-9.5 37 -17.5 59l-364 995h438l176 -620c4 -14.667 7.16699 -29.834 9.5 -45.501s3.83301 -32.5 4.5 -50.5
c0.666992 4.66699 1.33398 11.334 2.00098 20.001c3.33301 43.333 6.33301 68.666 9 75.999l174 620h407l-352 -1081c-38 -117.333 -68.167 -199 -90.5 -245s-46.166 -81.667 -71.499 -107c-32.667 -32.667 -72 -55.834 -118 -69.501s-120.667 -20.5 -224 -20.5
c-30 0 -63.667 0.666992 -101 2s-76.666 3.33301 -117.999 6zM796.997 -15.998l348.001 1056h-307l-222 -792l-231 792h-330l359 -963c4 -10 7.33301 -22.667 10 -38s4 -31 4 -47c0 -46.667 -12.833 -82.334 -38.5 -107.001s-62.5 -37 -110.5 -37h-95v-231
c31.333 -2.66699 62.833 -4.66699 94.5 -6s64.5 -2 98.5 -2c119.333 0 205.166 19.833 257.499 59.5s106.5 144.834 162.5 315.501zM656.998 1210v256h236v-256h-236zM707.998 1257h134v162h-134v-162zM310.998 1210v256h236v-256h-236zM361.998 1257h131v162h-131v-162z
" />
    <glyph glyph-name="Cacute" unicode="&#x106;" horiz-adv-x="1602" 
d="M1485 524l-345.999 -0.000976562c-9.33301 -73.333 -41 -131.833 -95 -175.5s-121.333 -65.5 -202 -65.5c-110.667 0 -195.334 38.667 -254.001 116s-88 189.333 -88 336c0 150.667 28.5 263.834 85.5 339.501s142.5 113.5 256.5 113.5c78 0 142.167 -19.833 192.5 -59.5
s81.5 -94.834 93.5 -165.501h340c-13.333 156.667 -75.5 279.667 -186.5 369s-258.167 134 -441.5 134c-222.667 0 -396.834 -64.5 -522.501 -193.5s-188.5 -308.167 -188.5 -537.5s62.333 -408.166 187 -536.499s299.334 -192.5 524.001 -192.5
c186.667 0 336.167 45.167 448.5 135.5s177.833 217.833 196.5 382.5zM1094 570.999l448.002 0.00390625c-12 -192.667 -80 -342.834 -204 -450.501s-291.333 -161.5 -502 -161.5c-236 0 -421.667 69.167 -557 207.5s-203 327.833 -203 568.5c0 240 67 429.333 201 568
s316.667 208 548 208c213.333 0 381.5 -51.667 504.5 -155s191.167 -250.333 204.5 -441h-453c-6.66699 75.333 -31 132.166 -73 170.499s-101 57.5 -177 57.5c-92.667 0 -162.167 -33.833 -208.5 -101.5s-69.5 -169.834 -69.5 -306.501c0 -134 24.667 -235.333 74 -304
s121.666 -103 216.999 -103c72.667 0 130.667 21.167 174 63.5s68.666 102.166 75.999 179.499zM758.003 1628h92l282 242h-204zM672.003 1585l229 328h352l-387 -328h-194z" />
    <glyph glyph-name="cacute" unicode="&#x107;" horiz-adv-x="1335" 
d="M885 377c-9.33301 -51.333 -32.5 -91.1689 -69.5 -119.502s-84.167 -42.5 -141.5 -42.5c-77.333 0 -135 27.333 -173 82s-57 137.334 -57 248.001c0 113.333 19.667 196.5 59 249.5s100.333 79.5 183 79.5c54.667 0 99.167 -13.333 133.5 -40s54.833 -63.667 61.5 -111
h331c-11.333 106 -65.833 191.833 -163.5 257.5s-220.5 98.5 -368.5 98.5c-176 0 -314.833 -47.667 -416.5 -143s-152.5 -225.666 -152.5 -390.999c0 -163.333 51.333 -293.333 154 -390s241.667 -145 417 -145c148.667 0 271 33.167 367 99.5s152 155.5 168 267.5h-332z
M842 423.997l432.001 -0.000976562c-8.66699 -142.667 -65.834 -255.5 -171.501 -338.5s-245.167 -124.5 -418.5 -124.5c-192 0 -344.167 52.5 -456.5 157.5s-168.5 247.167 -168.5 426.5c0 180 55.333 321.833 166 425.5s262.334 155.5 455.001 155.5
c174.667 0 315.667 -41.167 423 -123.5s163 -191.833 167 -328.5h-434c-3.33301 51.333 -17.833 89.333 -43.5 114s-63.834 37 -114.501 37c-62.667 0 -108.667 -22.5 -138 -67.5s-44 -115.833 -44 -212.5c0 -98.667 14 -170.5 42 -215.5s72.667 -67.5 134 -67.5
c52 0 92 13.333 120 40s44.667 67.334 50 122.001zM613.001 1241h92l282 242h-204zM527.001 1198l229 328h352l-387 -328h-194z" />
    <glyph glyph-name="Ccaron" unicode="&#x10c;" horiz-adv-x="1602" 
d="M1485 524l-345.999 -0.000976562c-9.33301 -73.333 -41 -131.833 -95 -175.5s-121.333 -65.5 -202 -65.5c-110.667 0 -195.334 38.667 -254.001 116s-88 189.333 -88 336c0 150.667 28.5 263.834 85.5 339.501s142.5 113.5 256.5 113.5c78 0 142.167 -19.833 192.5 -59.5
s81.5 -94.834 93.5 -165.501h340c-13.333 156.667 -75.5 279.667 -186.5 369s-258.167 134 -441.5 134c-222.667 0 -396.834 -64.5 -522.501 -193.5s-188.5 -308.167 -188.5 -537.5s62.333 -408.166 187 -536.499s299.334 -192.5 524.001 -192.5
c186.667 0 336.167 45.167 448.5 135.5s177.833 217.833 196.5 382.5zM1094 570.999l448.002 0.00390625c-12 -192.667 -80 -342.834 -204 -450.501s-291.333 -161.5 -502 -161.5c-236 0 -421.667 69.167 -557 207.5s-203 327.833 -203 568.5c0 240 67 429.333 201 568
s316.667 208 548 208c213.333 0 381.5 -51.667 504.5 -155s191.167 -250.333 204.5 -441h-453c-6.66699 75.333 -31 132.166 -73 170.499s-101 57.5 -177 57.5c-92.667 0 -162.167 -33.833 -208.5 -101.5s-69.5 -169.834 -69.5 -306.501c0 -134 24.667 -235.333 74 -304
s121.666 -103 216.999 -103c72.667 0 130.667 21.167 174 63.5s68.666 102.166 75.999 179.499zM1116 1870h-96l-164 -146l-164 146h-96l170 -242h180zM1200 1911l-229 -326h-230l-229 326h201l143 -127l143 127h201z" />
    <glyph glyph-name="ccaron" unicode="&#x10d;" horiz-adv-x="1335" 
d="M885 377c-9.33301 -51.333 -32.5 -91.1689 -69.5 -119.502s-84.167 -42.5 -141.5 -42.5c-77.333 0 -135 27.333 -173 82s-57 137.334 -57 248.001c0 113.333 19.667 196.5 59 249.5s100.333 79.5 183 79.5c54.667 0 99.167 -13.333 133.5 -40s54.833 -63.667 61.5 -111
h331c-11.333 106 -65.833 191.833 -163.5 257.5s-220.5 98.5 -368.5 98.5c-176 0 -314.833 -47.667 -416.5 -143s-152.5 -225.666 -152.5 -390.999c0 -163.333 51.333 -293.333 154 -390s241.667 -145 417 -145c148.667 0 271 33.167 367 99.5s152 155.5 168 267.5h-332z
M842 423.997l432.001 -0.000976562c-8.66699 -142.667 -65.834 -255.5 -171.501 -338.5s-245.167 -124.5 -418.5 -124.5c-192 0 -344.167 52.5 -456.5 157.5s-168.5 247.167 -168.5 426.5c0 180 55.333 321.833 166 425.5s262.334 155.5 455.001 155.5
c174.667 0 315.667 -41.167 423 -123.5s163 -191.833 167 -328.5h-434c-3.33301 51.333 -17.833 89.333 -43.5 114s-63.834 37 -114.501 37c-62.667 0 -108.667 -22.5 -138 -67.5s-44 -115.833 -44 -212.5c0 -98.667 14 -170.5 42 -215.5s72.667 -67.5 134 -67.5
c52 0 92 13.333 120 40s44.667 67.334 50 122.001zM971.001 1483h-96l-164 -146l-164 146h-96l170 -242h180zM1055 1524l-229 -326h-230l-229 326h201l143 -127l143 127h201z" />
    <glyph glyph-name="dcroat" unicode="&#x111;" horiz-adv-x="1397" 
d="M862 934c-4.66699 20 -8.16797 37.498 -10.501 52.498s-3.5 26.167 -3.5 33.5v156h-324v198h324v99h422v-99h127v-198h-127v-1176h-383v90c0 10.667 1 21.5 3 32.5s5 21.833 9 32.5c-44 -64 -97 -112.333 -159 -145s-132 -49 -210 -49c-137.333 0 -249.5 52 -336.5 156
s-130.5 238.333 -130.5 403c0 174.667 43.167 315.334 129.5 422.001s199.5 160 339.5 160c72 0 134.833 -13.667 188.5 -41s100.834 -69.666 141.501 -126.999zM894.999 1327l-320 -0.000976562v-104h320v-394c-57.333 78.667 -114.5 135.667 -171.5 171
s-119.833 53 -188.5 53c-125.333 0 -226.333 -48.667 -303 -146s-115 -226.333 -115 -387c0 -149.333 38.5 -271.666 115.5 -366.999s175.5 -143 295.5 -143c78 0 151 21.167 219 63.5s131.667 105.833 191 190.5v-217h285v1176h120v104h-120v96h-328v-96zM902.999 531.997
c0 -94 -20.167 -167.333 -60.5 -220s-95.833 -79 -166.5 -79c-71.333 0 -127.5 26.5 -168.5 79.5s-61.5 126.167 -61.5 219.5c0 101.333 19 176.5 57 225.5s95.667 73.5 173 73.5c75.333 0 132 -24.833 170 -74.5s57 -124.5 57 -224.5zM673.999 280.997
c55.333 0 98.833 22.167 130.5 66.5s47.5 105.833 47.5 184.5c0 86 -14.667 149.5 -44 190.5s-74 61.5 -134 61.5s-104.333 -20.5 -133 -61.5s-43 -104.5 -43 -190.5c0 -78.667 15.5 -140.167 46.5 -184.5s74.167 -66.5 129.5 -66.5z" />
    <glyph glyph-name="Gbreve" unicode="&#x11e;" horiz-adv-x="1669" 
d="M1104 1012l356.002 0.00195312c-28 144 -96.167 255.667 -204.5 335s-246.833 119 -415.5 119c-223.333 0 -398 -64.667 -524 -194s-189 -308.333 -189 -537c0 -224 57 -401.5 171 -532.5s268.667 -196.5 464 -196.5c117.333 0 217.166 21.167 299.499 63.5
s140.166 101.833 173.499 178.5l37 -201h217v713h-545v-221l215 -1c-2.66699 -78.667 -33.667 -143.334 -93 -194.001s-134 -76 -224 -76c-115.333 0 -200.833 37.667 -256.5 113s-83.5 190.666 -83.5 345.999c0 149.333 29.333 263.833 88 343.5s142.667 119.5 252 119.5
c65.333 0 120.5 -15.333 165.5 -46s77.167 -74.667 96.5 -132zM1235 0.00195312l-25 136.999c-50.667 -60.667 -112.834 -105.5 -186.501 -134.5s-162.834 -43.5 -267.501 -43.5c-210.667 0 -376.667 69.167 -498 207.5s-182 327.833 -182 568.5
c0 243.333 67.333 433.5 202 570.5s321.334 205.5 560.001 205.5c197.333 0 354.666 -47 471.999 -141s188 -229 212 -405h-449c-18 58.667 -47.167 103.334 -87.5 134.001s-90.166 46 -149.499 46c-94.667 0 -165.5 -36.333 -212.5 -109s-70.5 -181 -70.5 -325
c0 -133.333 23.667 -233 71 -299s119.333 -99 216 -99c69.333 0 128.333 16.5 177 49.5s78.334 76.167 89.001 129.5h-213v315h647v-807h-305zM650.002 1911c6.66699 -45.333 25.002 -78.5 55.002 -99.5s73.667 -31.5 131 -31.5s100.666 10.333 129.999 31s47.333 54 54 100
h148c-12.667 -114 -45.334 -196.833 -98.001 -248.5s-130.667 -77.5 -234 -77.5c-104.667 0 -184.5 26.833 -239.5 80.5s-86.5 135.5 -94.5 245.5h148zM613.004 1866h-58c11.333 -78.667 40.333 -137.667 87 -177s110.667 -59 192 -59c82.667 0 147.5 19.833 194.5 59.5
s74.833 98.5 83.5 176.5h-53c-12 -44.667 -36.333 -77.667 -73 -99s-86.667 -32 -150 -32c-62.667 0 -112.5 10.833 -149.5 32.5s-61.5 54.5 -73.5 98.5z" />
    <glyph glyph-name="gbreve" unicode="&#x11f;" horiz-adv-x="1386" 
d="M137 -117l428.001 -0.00292969c9.33301 -25.333 23.333 -43.166 42 -53.499s47.667 -15.5 87 -15.5c53.333 0 91.333 14.333 114 43s34 78.334 34 149.001v45c0 16.667 1.83301 34.167 5.5 52.5s9.16699 37.5 16.5 57.5c-34.667 -56 -81 -98.833 -139 -128.5
s-124.333 -44.5 -199 -44.5c-134 0 -244.167 53 -330.5 159s-129.5 241.333 -129.5 406c0 167.333 43.333 303.333 130 408s198.667 157 336 157c78 0 147.667 -16.167 209 -48.5s114 -80.833 158 -145.5c-4 11.333 -7 22.333 -9 33s-3 21.334 -3 32.001v98h383v-1003
c0 -189.333 -46.5 -323.666 -139.5 -402.999s-249.167 -119 -468.5 -119c-152.667 0 -274.834 28.167 -366.501 84.5s-144.5 135.166 -158.5 236.499zM852.001 546.997c0 78.667 -15.5 139.999 -46.5 183.999s-74.167 66 -129.5 66c-56 0 -99.667 -22 -131 -66
s-47 -105.333 -47 -184c0 -85.333 14.5 -148.666 43.5 -189.999s73.833 -62 134.5 -62c60 0 104.333 20.5 133 61.5s43 104.5 43 190.5zM676.001 843.996c71.333 0 127.333 -26.167 168 -78.5s61 -125.166 61 -218.499c0 -99.333 -19.167 -174 -57.5 -224
s-95.5 -75 -171.5 -75c-77.333 0 -135 24.5 -173 73.5s-57 124.167 -57 225.5c0 93.333 20.333 166.166 61 218.499s97 78.5 169 78.5zM1219 56.9961l0.000976562 982.999h-279v-225c-59.333 85.333 -123 149 -191 191s-141 63 -219 63c-120.667 0 -219.667 -48 -297 -144
s-116 -220 -116 -372c0 -152.667 38.833 -277.167 116.5 -373.5s178.167 -144.5 301.5 -144.5c68 0 132.5 18.667 193.5 56s117.167 93 168.5 167v-182c0 -127.333 -15.833 -210.666 -47.5 -249.999s-88.834 -59 -171.501 -59c-34.667 0 -63.834 5.16699 -87.501 15.5
s-45.167 27.5 -64.5 51.5h-323c28 -74 80.833 -130 158.5 -168s178.5 -57 302.5 -57c200.667 0 343.334 34.333 428.001 103s127 183.667 127 345zM508.002 1524c6.66699 -45.333 25.002 -78.5 55.002 -99.5s73.667 -31.5 131 -31.5s100.666 10.333 129.999 31
s47.333 54 54 100h148c-12.667 -114 -45.334 -196.833 -98.001 -248.5s-130.667 -77.5 -234 -77.5c-104.667 0 -184.5 26.833 -239.5 80.5s-86.5 135.5 -94.5 245.5h148zM471.004 1479h-58c11.333 -78.667 40.333 -137.667 87 -177s110.667 -59 192 -59
c82.667 0 147.5 19.833 194.5 59.5s74.833 98.5 83.5 176.5h-53c-12 -44.667 -36.333 -77.667 -73 -99s-86.667 -32 -150 -32c-62.667 0 -112.5 10.833 -149.5 32.5s-61.5 54.5 -73.5 98.5z" />
    <glyph glyph-name="Idotaccent" unicode="&#x130;" horiz-adv-x="778" 
d="M578 47v1376h-379v-1376h379zM147 0v1473h482v-1473h-482zM285 1640h206v215h-206v-215zM237 1597v301h304v-301h-304z" />
    <glyph glyph-name="dotlessi" unicode="&#x131;" horiz-adv-x="692" 
d="M180 47h330v993h-330v-993zM127 0v1087h436v-1087h-436z" />
    <glyph glyph-name="Lslash" unicode="&#x141;" horiz-adv-x="1319" 
d="M1212 47v295h-643v469l377 252l-84 135l-293 -194v419h-368v-610l-236 -156l82 -137l154 101v-574h1011zM150 0v530l-119 -79l-129 221l248 164v637h473v-377l258 168l133 -220l-391 -253v-400h641v-391h-1114z" />
    <glyph glyph-name="lslash" unicode="&#x142;" horiz-adv-x="711" 
d="M190 47h330v725l199 131l-68 98l-131 -86v508h-330v-663l-196 -129l65 -103l131 86v-567zM137 0v522l-88 -57l-117 180l205 133v695h436v-469l99 63l114 -178l-213 -139v-750h-436z" />
    <glyph glyph-name="OE" unicode="&#x152;" horiz-adv-x="2388" 
d="M502 735c0 159.333 26.668 276 80.001 350s137.333 111 252 111c115.333 0 199.666 -36.833 252.999 -110.5s80 -190.5 80 -350.5c0 -158.667 -27 -275.167 -81 -349.5s-138 -111.5 -252 -111.5s-197.833 37.333 -251.5 112s-80.5 191 -80.5 349zM2228 47
l-0.000976562 261.999h-733v324h594v244h-594v290h705v256h-988v-217c-51.333 84.667 -114 148.5 -188 191.5s-157.333 64.5 -250 64.5c-187.333 0 -339.666 -67 -456.999 -201s-176 -308.667 -176 -524c0 -214.667 58.5 -389.167 175.5 -523.5s267.5 -201.5 451.5 -201.5
c99.333 0 186.5 20.833 261.5 62.5s135.833 102.834 182.5 183.501v-211h1016zM553 734.999c0 -142.667 22.667 -247.167 68 -313.5s117 -99.5 215 -99.5c96.667 0 167.5 33.167 212.5 99.5s67.5 170.833 67.5 313.5c0 143.333 -22.5 248.166 -67.5 314.499
s-115.833 99.5 -212.5 99.5c-98 0 -169.667 -33.167 -215 -99.5s-68 -171.166 -68 -314.499zM1180 153.999c-47.333 -64.667 -105.5 -112.331 -174.5 -142.998s-152.167 -46 -249.5 -46c-191.333 0 -350.5 72.167 -477.5 216.5s-190.5 328.833 -190.5 553.5
c0 229.333 63.667 415.666 191 558.999s291.666 215 492.999 215c94 0 175 -16 243 -48s121.667 -79.333 161 -142c-6 13.333 -10.333 26.666 -13 39.999s-4 26 -4 38v76h1092v-353h-703v-196h594v-338h-594v-228h733v-358h-1122v78c0 10 1.83301 21.5 5.5 34.5
s8.83398 26.833 15.501 41.5z" />
    <glyph glyph-name="oe" unicode="&#x153;" horiz-adv-x="2091" 
d="M1030 180c55.333 -58 115.502 -101.168 180.502 -129.501s137.167 -42.5 216.5 -42.5c122.667 0 229.5 24.333 320.5 73s149.5 112.334 175.5 191.001h-309c-14.667 -27.333 -38.834 -48.5 -72.501 -63.5s-74.5 -22.5 -122.5 -22.5c-84 0 -147.333 24 -190 72
s-64 119 -64 213v27h813c-3.33301 182.667 -55 325.167 -155 427.5s-238 153.5 -414 153.5c-78 0 -147 -14.333 -207 -43s-114 -73 -162 -133c-53.333 58.667 -112.833 102.667 -178.5 132s-137.167 44 -214.5 44c-158 0 -286.5 -49 -385.5 -147s-148.5 -227 -148.5 -387
c0 -162 49.833 -292 149.5 -390s231.167 -147 394.5 -147c79.333 0 148.666 13.667 207.999 41s114.333 71 165 131zM1165 617.999v13c0 90.667 22.167 161.5 66.5 212.5s105.5 76.5 183.5 76.5c80.667 0 142.5 -25.333 185.5 -76s64.5 -123.667 64.5 -219v-7h-500z
M426.002 544.999c0 119.333 19 205.166 57 257.499s99.667 78.5 185 78.5c84.667 0 146 -26.167 184 -78.5s57 -138.166 57 -257.499c0 -120 -19 -206.333 -57 -259s-99.333 -79 -184 -79c-85.333 0 -147 26.333 -185 79s-57 139 -57 259zM1217 665.999h397.001
c-3.33301 66 -22.833 117.167 -58.5 153.5s-84.5 54.5 -146.5 54.5c-58 0 -103.833 -18.333 -137.5 -55s-51.834 -87.667 -54.501 -153zM479.003 544.999c0 -103.333 15.001 -177.667 45.001 -223s78 -68 144 -68s113.833 22.5 143.5 67.5s44.5 119.5 44.5 223.5
c0 103.333 -14.667 177.333 -44 222s-77.333 67 -144 67s-114.834 -22.667 -144.501 -68s-44.5 -119 -44.5 -221zM1030 105.998c-56 -50.667 -113.832 -87.5 -173.499 -110.5s-127.5 -34.5 -203.5 -34.5c-180 0 -324.333 53 -433 159s-163 247.667 -163 425
c0 176.667 54.167 317.667 162.5 423s252.833 158 433.5 158c80 0 150.833 -11.833 212.5 -35.5s119.167 -61.5 172.5 -113.5c52 52 109 89.833 171 113.5s134.667 35.5 218 35.5c183.333 0 329.333 -58.333 438 -175s163 -274 163 -472v-30l-811 -1
c2 -68.667 19.667 -121.167 53 -157.5s80.333 -54.5 141 -54.5c52.667 0 93 6.66699 121 20s47.667 35.333 59 66h402c-24 -112.667 -86.833 -201 -188.5 -265s-230.167 -96 -385.5 -96c-83.333 0 -155.833 11.5 -217.5 34.5s-118.834 59.833 -171.501 110.5z" />
    <glyph glyph-name="Scedilla" unicode="&#x15e;" horiz-adv-x="1460" 
d="M1292 1096c-27.333 124.667 -90.834 217.498 -190.501 278.498s-238.167 91.5 -415.5 91.5c-163.333 0 -293.5 -38.667 -390.5 -116s-145.5 -180 -145.5 -308c0 -108 32.333 -192.333 97 -253s202.334 -119.667 413.001 -177l78 -20
c160.667 -41.333 241 -99.333 241 -174c0 -50 -21.333 -88.5 -64 -115.5s-103.334 -40.5 -182.001 -40.5c-68.667 0 -123.667 12.5 -165 37.5s-67.666 61.833 -78.999 110.5h-356c24 -126 85 -223.5 183 -292.5s229 -106.167 393 -111.5v-203h22
c52.667 0 91.167 -7.16699 115.5 -21.5s36.5 -37.166 36.5 -68.499s-11.833 -55.166 -35.5 -71.499s-58.5 -24.5 -104.5 -24.5c-30 0 -61 2.16699 -93 6.5s-69 11.833 -111 22.5v-52c40 -10.667 79.5 -18.667 118.5 -24s76.5 -8 112.5 -8c77.333 0 134.5 12 171.5 36
s55.5 61 55.5 111c0 48 -16.5 84 -49.5 108s-82.5 36 -148.5 36h-33v153c187.333 8 328.333 50.5 423 127.5s142 187.5 142 331.5c0 111.333 -35 197.666 -105 258.999s-219.667 121 -449 179l-20 5c-167.333 42 -251 100.333 -251 175c0 44.667 17.833 79.834 53.5 105.501
s84.834 38.5 147.501 38.5s113.667 -11.333 153 -34s64.666 -55 75.999 -97h356zM1346 1049l-449 0.00195312c-7.33301 43.333 -26.5 75.666 -57.5 96.999s-75.167 32 -132.5 32c-50.667 0 -88.334 -8.33301 -113.001 -25s-37 -42 -37 -76c0 -50 68 -91.667 204 -125l16 -4
c14 -3.33301 35 -8.66602 63 -15.999c181.333 -44.667 300.666 -85.667 357.999 -123c65.333 -42 113 -90.833 143 -146.5s45 -121.5 45 -197.5c0 -150.667 -50 -269.834 -150 -357.501s-242.333 -136.5 -427 -146.5v-70h18c69.333 0 122.833 -15.5 160.5 -46.5
s56.5 -75.5 56.5 -133.5c0 -64 -22.833 -112 -68.5 -144s-114.834 -48 -207.501 -48c-33.333 0 -73.666 3.5 -120.999 10.5s-99 17.167 -155 30.5v141c40.667 -14.667 81.334 -25.5 122.001 -32.5s89.334 -10.5 146.001 -10.5c26.667 0 47 4.66699 61 14s21 23 21 41
c0 19.333 -8.66699 32.666 -26 39.999s-49 11 -95 11c-5.33301 0 -14.5 -0.333008 -27.5 -1s-23.5 -1 -31.5 -1v199h-41c-142 0 -267.667 48.333 -377 145s-167.333 214.334 -174 353.001h460c12.667 -53.333 35.667 -91.666 69 -114.999s83 -35 149 -35
c56 0 99.667 9.5 131 28.5s47 45.167 47 78.5c0 52 -65.333 94.333 -196 127l-101 26c-217.333 59.333 -360.5 122.666 -429.5 189.999s-103.5 161.666 -103.5 282.999c0 145.333 55 259.833 165 343.5s261.333 125.5 454 125.5c188.667 0 337.5 -40 446.5 -120
s170.5 -194 184.5 -342z" />
    <glyph glyph-name="scedilla" unicode="&#x15f;" horiz-adv-x="1253" 
d="M1090 831c-12.667 80.667 -59.168 142.833 -139.501 186.5s-187.5 65.5 -321.5 65.5c-160 0 -281 -27 -363 -81s-123 -134 -123 -240c0 -80 28.833 -141.833 86.5 -185.5s175.834 -84.167 354.501 -121.5c96 -20.667 158.167 -42.167 186.5 -64.5s42.5 -53.5 42.5 -93.5
c0 -44 -16.833 -78.5 -50.5 -103.5s-79.5 -37.5 -137.5 -37.5c-56 0 -99.5 11.667 -130.5 35s-49.167 58 -54.5 104h-313c10 -90 54.5 -159 133.5 -207s192.167 -74.667 339.5 -80v-201h23c51.333 0 89 -7.16699 113 -21.5s36 -37.166 36 -68.499
s-11.667 -55.166 -35 -71.499s-58 -24.5 -104 -24.5c-32.667 0 -65.5 2.16699 -98.5 6.5s-68.5 11.166 -106.5 20.499v-51c40.667 -11.333 80.334 -19.666 119.001 -24.999s76 -8 112 -8c77.333 0 134.666 12.333 171.999 37s56 62 56 112c0 48 -16.167 83.667 -48.5 107
s-81.833 35 -148.5 35h-35l1 157c159.333 2.66699 280.333 31.5 363 86.5s124 134.833 124 239.5c0 82 -27.5 146.167 -82.5 192.5s-156.5 85.833 -304.5 118.5c-16 4 -38 9 -66 15c-152.667 33.333 -229 81.666 -229 144.999c0 39.333 15.167 70.666 45.5 93.999
s71.166 35 122.499 35c44.667 0 82.334 -9.5 113.001 -28.5s49.667 -45.167 57 -78.5h291zM1157 783.999l-391.004 1.00195c-2.66699 32 -16.167 57.667 -40.5 77s-55.833 29 -94.5 29c-39.333 0 -68.666 -6.66699 -87.999 -20s-29 -33.333 -29 -60
c0 -42 57.333 -75 172 -99c38.667 -8 69.334 -14.667 92.001 -20c165.333 -38.667 276 -83.334 332 -134.001s84 -124 84 -220c0 -115.333 -42.667 -205 -128 -269s-208 -98.667 -368 -104v-71h19c69.333 0 122.833 -15.667 160.5 -47s56.5 -76 56.5 -134
c0 -64 -23 -112 -69 -144s-115.333 -48 -208 -48c-32 0 -71.667 3.83301 -119 11.5s-99.666 18.834 -156.999 33.501v137c40.667 -14.667 81.5 -25.5 122.5 -32.5s89.5 -10.5 145.5 -10.5c27.333 0 47.833 4.66699 61.5 14s20.5 23 20.5 41
c0 11.333 -3.16699 20.666 -9.5 27.999s-15.166 12.333 -26.499 15c-11.333 3.33301 -25 6 -41 8s-33.333 3 -52 3c-12 0 -21.5 -0.166992 -28.5 -0.5s-13.833 -0.833008 -20.5 -1.5v196c-156.667 9.33301 -275.167 45.166 -355.5 107.499s-125.166 152.833 -134.499 271.5
h420c0 -46 11.833 -80.333 35.5 -103s59.167 -34 106.5 -34c45.333 0 80.166 7.83301 104.499 23.5s36.5 38.5 36.5 68.5c0 49.333 -58.333 85.666 -175 108.999c-20.667 4 -37 7.33301 -49 10c-176 37.333 -295 81.5 -357 132.5s-93 124.833 -93 221.5
c0 116.667 45.333 205.167 136 265.5s223.667 90.5 399 90.5c162 0 287.5 -28.667 376.5 -86s140.167 -142.666 153.5 -255.999z" />
    <glyph glyph-name="Scaron" unicode="&#x160;" horiz-adv-x="1460" 
d="M70 459h460.001c12.667 -53.333 35.667 -91.666 69 -114.999s83 -35 149 -35c56 0 99.667 9.5 131 28.5s47 45.167 47 78.5c0 52 -65.333 94.333 -196 127l-101 26c-217.333 59.333 -360.5 122.833 -429.5 190.5s-103.5 161.834 -103.5 282.501
c0 145.333 55 259.833 165 343.5s261.333 125.5 454 125.5c188.667 0 337.5 -40 446.5 -120s170.5 -194 184.5 -342h-449c-7.33301 43.333 -26.5 75.666 -57.5 96.999s-75.167 32 -132.5 32c-50.667 0 -88.334 -8.33301 -113.001 -25s-37 -42 -37 -76
c0 -50 68 -91.667 204 -125l16 -4l78 -20c172 -42.667 286.333 -82.334 343 -119.001c64 -40.667 111.333 -89.167 142 -145.5s46 -122.5 46 -198.5c0 -162 -56.833 -286.833 -170.5 -374.5s-276.5 -131.5 -488.5 -131.5c-194.667 0 -349.5 43.833 -464.5 131.5
s-179.167 210.5 -192.5 368.5zM133.001 410c24 -128.667 87.4961 -227.833 190.496 -297.5s237.5 -104.5 403.5 -104.5c199.333 0 350.5 38.667 453.5 116s154.5 191 154.5 341c0 110.667 -35.167 196.667 -105.5 258s-221.166 121.333 -452.499 180l-20 5
c-167.333 42 -251 100.333 -251 175c0 44.667 17.833 79.834 53.5 105.501s84.834 38.5 147.501 38.5c63.333 0 114.666 -11.333 153.999 -34s64.333 -55 75 -97h356c-25.333 122 -87.666 214.167 -186.999 276.5s-233.666 93.5 -402.999 93.5
c-170.667 0 -305.834 -38.167 -405.501 -114.5s-149.5 -179.5 -149.5 -309.5c0 -106 32.333 -189.333 97 -250s203.334 -120 416.001 -178l70 -18c164.667 -42.667 247 -102 247 -178c0 -50.667 -20.833 -89.334 -62.5 -116.001s-102.167 -40 -181.5 -40
c-68.667 0 -123.667 12.5 -165 37.5s-67.666 61.833 -78.999 110.5h-356zM990.997 1870h-96l-164 -146l-164 146h-96l170 -242h180zM1075 1911l-229 -326h-230l-229 326h201l143 -127l143 127h201z" />
    <glyph glyph-name="scaron" unicode="&#x161;" horiz-adv-x="1253" 
d="M63 342l419.999 -0.000976562c0 -46 11.833 -80.333 35.5 -103s59.167 -34 106.5 -34c45.333 0 80.166 7.83301 104.499 23.5s36.5 38.5 36.5 68.5c0 48.667 -55.667 84.334 -167 107.001c-24 4.66699 -43 8.66699 -57 12c-177.333 37.333 -296.666 81.333 -357.999 132
s-92 124 -92 220c0 116.667 45.5 205.5 136.5 266.5s223.833 91.5 398.5 91.5c162 0 287.5 -28.667 376.5 -86s140.167 -142.666 153.5 -255.999h-389c-3.33301 32.667 -17.5 58.667 -42.5 78s-56.5 29 -94.5 29s-67 -6.5 -87 -19.5s-30 -31.833 -30 -56.5
c0 -44 55 -77.667 165 -101c42 -8.66699 75.333 -16 100 -22c166 -38.667 276.667 -83.5 332 -134.5s83 -124.167 83 -219.5c0 -124.667 -48.5 -218.667 -145.5 -282s-240.5 -95 -430.5 -95c-176 0 -310.167 31.667 -402.5 95s-143.166 158.666 -152.499 285.999z
M439.999 294.999l-313.001 -0.00292969c10 -92.667 57.333 -163.334 142 -212.001s203.334 -73 356.001 -73c169.333 0 298 27.833 386 83.5s132 137.167 132 244.5c0 82 -27.5 146.167 -82.5 192.5s-156.5 85.833 -304.5 118.5l-63 14c-153.333 33.333 -230 82 -230 146
c0 38.667 15.167 69.834 45.5 93.501s70.5 35.5 120.5 35.5c45.333 0 83.166 -9.5 113.499 -28.5s49.166 -45.167 56.499 -78.5h291c-12.667 80 -59.167 142 -139.5 186s-187.5 66 -321.5 66c-160 0 -281 -26.833 -363 -80.5s-123 -133.167 -123 -238.5
c0 -81.333 28.833 -144 86.5 -188s175.834 -84.333 354.501 -121c100 -21.333 163.833 -43.166 191.5 -65.499s41.5 -53.166 41.5 -92.499c0 -43.333 -17.333 -77.666 -52 -102.999s-81.334 -38 -140.001 -38c-55.333 0 -98.666 11.833 -129.999 35.5
s-49.666 58.167 -54.999 103.5zM886.998 1483h-96l-164 -146l-164 146h-96l170 -242h180zM970.998 1524l-229 -326h-230l-229 326h201l143 -127l143 127h201z" />
    <glyph glyph-name="Ydieresis" unicode="&#x178;" horiz-adv-x="1507" 
d="M946 47v510l494 866h-393l-289 -565l-287 565h-401l505 -870v-506h371zM524 0v545l-542 928h524l227 -453c4.66699 -9.33301 9.16699 -20.666 13.5 -33.999s8.83301 -29.333 13.5 -48c5.33301 21.333 10.5 39.666 15.5 54.999s8.5 25 10.5 29l230 451h510l-529 -928v-545
h-473zM809 1597v256h236v-256h-236zM860 1644h134v162h-134v-162zM463 1597v256h236v-256h-236zM514 1644h131v162h-131v-162z" />
    <glyph glyph-name="Zcaron" unicode="&#x17d;" horiz-adv-x="1444" 
d="M121 47h1198v285h-784l751 813v278h-1147v-284h721l-739 -801v-291zM70 0l-0.00195312 353.998l639 690c7.33301 8 17.5 17.333 30.5 28s27.167 21.334 42.5 32.001c-16.667 -4 -32.667 -7 -48 -9s-30.666 -3 -45.999 -3h-600v381h1249v-351l-645 -692
c-9.33301 -10.667 -20.333 -21.167 -33 -31.5s-26.667 -20.166 -42 -29.499c20 3.33301 37.333 5.83301 52 7.5s27.334 2.5 38.001 2.5h663v-379h-1300zM982.998 1870h-96l-164 -146l-164 146h-96l170 -242h180zM1067 1911l-229 -326h-230l-229 326h201l143 -127l143 127
h201z" />
    <glyph glyph-name="zcaron" unicode="&#x17e;" horiz-adv-x="1096" 
d="M78 47h926v223h-580l557 539v231h-860v-223h516l-559 -538v-232zM27 0v293l458 442c8 7.33301 18.5 15.5 31.5 24.5s27.833 17.833 44.5 26.5c-14.667 -4.66699 -29 -8.5 -43 -11.5s-26.333 -4.5 -37 -4.5h-411v317h962v-290l-444 -441c-8.66699 -8 -20.5 -17 -35.5 -27
s-31.833 -19.333 -50.5 -28c18.667 5.33301 36 9.33301 52 12s28 4 36 4h465v-317h-1028zM809 1483h-96l-164 -146l-164 146h-96l170 -242h180zM893 1524l-229 -326h-230l-229 326h201l143 -127l143 127h201z" />
    <glyph glyph-name="florin" unicode="&#x192;" horiz-adv-x="1346" 
d="M33 -324l53.999 258c27.333 -6 50.666 -10.5 69.999 -13.5s34.666 -4.5 45.999 -4.5c40 0 71 11.5 93 34.5s36.667 59.167 44 108.5l102 656h-206v229h245c30.667 204.667 80.334 348.667 149.001 432s170 125 304 125c46 0 91.167 -3.16699 135.5 -9.5
s86.5 -15.5 126.5 -27.5l-47 -259c-35.333 7.33301 -61 12.166 -77 14.499s-30 3.5 -42 3.5c-38.667 0 -68.167 -12.333 -88.5 -37s-37.166 -74 -50.499 -148l-17 -94h230v-229h-266l-76 -486c-37.333 -231.333 -90.833 -387.666 -160.5 -468.999s-178.167 -122 -325.5 -122
c-41.333 0 -82.166 3.16699 -122.499 9.5s-80.5 15.833 -120.5 28.5zM796.999 762h256.002v135h-236l25 133c18 96.667 39.833 160.167 65.5 190.5s63.167 45.5 112.5 45.5c11.333 0 23.166 -0.666992 35.499 -2s29.166 -3.33301 50.499 -6l31 174
c-36.667 9.33301 -72 16.333 -106 21s-65 7 -93 7c-123.333 0 -215 -38.5 -275 -115.5s-107.667 -226.167 -143 -447.5h-231v-135h211l-113 -715c-9.33301 -62 -28.333 -106.833 -57 -134.5s-70.334 -41.5 -125.001 -41.5c-14 0 -27.667 0.666992 -41 2s-27 3.33301 -41 6
l-35 -168c34 -8.66699 67.667 -15.167 101 -19.5s67.333 -6.5 102 -6.5c124.667 0 217.834 37.5 279.501 112.5s108.5 213.5 140.5 415.5z" />
    <glyph glyph-name="circumflex" unicode="&#x2c6;" 
d="M252 1241h96l164 145l164 -145h96l-170 242h-180zM168 1198l229 328h230l229 -328h-201l-143 129l-143 -129h-201z" />
    <glyph glyph-name="caron" unicode="&#x2c7;" 
d="M772 1483h-96l-164 -146l-164 146h-96l170 -242h180zM856 1524l-229 -326h-230l-229 326h201l143 -127l143 127h201z" />
    <glyph glyph-name="breve" unicode="&#x2d8;" 
d="M326 1524c6.66699 -45.333 25.002 -78.5 55.002 -99.5s73.667 -31.5 131 -31.5s100.666 10.333 129.999 31s47.333 54 54 100h148c-12.667 -114 -45.334 -196.833 -98.001 -248.5s-130.667 -77.5 -234 -77.5c-104.667 0 -184.5 26.833 -239.5 80.5
s-86.5 135.5 -94.5 245.5h148zM289.002 1479h-58c11.333 -78.667 40.333 -137.667 87 -177s110.667 -59 192 -59c82.667 0 147.5 19.833 194.5 59.5s74.833 98.5 83.5 176.5h-53c-12 -44.667 -36.333 -77.667 -73 -99s-86.667 -32 -150 -32
c-62.667 0 -112.5 10.833 -149.5 32.5s-61.5 54.5 -73.5 98.5z" />
    <glyph glyph-name="dotaccent" unicode="&#x2d9;" 
d="M408 1253h206v215h-206v-215zM360 1210v301h304v-301h-304z" />
    <glyph glyph-name="ring" unicode="&#x2da;" 
d="M285 1421c0 62.667 22.167 116.334 66.5 161.001s97.833 67 160.5 67s116.5 -22.333 161.5 -67s67.5 -98.334 67.5 -161.001c0 -63.333 -22.5 -117.666 -67.5 -162.999s-98.833 -68 -161.5 -68s-116.167 22.667 -160.5 68s-66.5 99.666 -66.5 162.999zM332 1419
c0 -50 17.499 -92.5 52.499 -127.5s77.5 -52.5 127.5 -52.5c49.333 0 91.666 17.667 126.999 53s53 77.666 53 126.999c0 50 -17.667 92.5 -53 127.5s-77.666 52.5 -126.999 52.5s-91.666 -17.667 -126.999 -53s-53 -77.666 -53 -126.999zM462.999 1419
c0 -13.333 4.66699 -24.5 14 -33.5s21 -13.5 35 -13.5c13.333 0 24.5 4.5 33.5 13.5s13.5 20.167 13.5 33.5c0 14 -4.33301 25.333 -13 34s-20 13 -34 13c-14.667 0 -26.5 -4.33301 -35.5 -13s-13.5 -20 -13.5 -34zM421.999 1419c0 26.667 8.49805 48.332 25.498 64.999
s38.5 25 64.5 25s47.5 -8.33301 64.5 -25s25.5 -38.334 25.5 -65.001c0 -25.333 -8.66699 -46.666 -26 -63.999s-38.666 -26 -63.999 -26s-46.666 8.83301 -63.999 26.5s-26 38.834 -26 63.501z" />
    <glyph glyph-name="ogonek" unicode="&#x2db;" 
d="M553 -37c-67.333 -13.333 -118.667 -37.833 -154 -73.5s-53 -80.834 -53 -135.501c0 -50.667 17.167 -89.5 51.5 -116.5s83.5 -40.5 147.5 -40.5h141v104h-76c-41.333 0 -72.833 9.83301 -94.5 29.5s-32.5 48.834 -32.5 87.501c0 27.333 5.5 52.5 16.5 75.5
s28.833 46.167 53.5 69.5zM650.999 -8c-40.667 -24 -71 -48.999 -91 -74.999s-30 -53.667 -30 -83c0 -32.667 7.16699 -56.834 21.5 -72.501s35.833 -23.5 64.5 -23.5h111v-187h-174c-84.667 0 -148.5 16.667 -191.5 50s-64.5 83 -64.5 149c0 76 27.167 135.667 81.5 179
s129.5 65 225.5 65c12.667 0 22.167 -0.166992 28.5 -0.5s12.5 -0.833008 18.5 -1.5z" />
    <glyph glyph-name="tilde" unicode="&#x2dc;" 
d="M233 1260l57.999 0.00195312c6.66699 22 20.334 39.667 41.001 53s44.334 20 71.001 20c10.667 0 21 -0.666992 31 -2s19.667 -3.33301 29 -6l119 -31c15.333 -3.33301 26.666 -5.5 33.999 -6.5s13.666 -1.5 18.999 -1.5c44 0 79.167 15.167 105.5 45.5
s43.166 75.166 50.499 134.499h-62c-9.33301 -26 -23.666 -45.833 -42.999 -59.5s-43.333 -20.5 -72 -20.5c-6.66699 0.666992 -14 1.5 -22 2.5s-20.333 3.16699 -37 6.5l-118 28c-12.667 4 -23.667 6.83301 -33 8.5s-17.666 2.5 -24.999 2.5
c-41.333 0 -73.5 -13.833 -96.5 -41.5s-39.5 -71.834 -49.5 -132.501zM177.999 1217c12 94 33.332 161.166 63.999 201.499s75.667 60.5 135 60.5c12 0 23.167 -0.666992 33.5 -2s21.166 -3.66602 32.499 -6.99902l122 -32c6.66699 -2 14 -3.5 22 -4.5s16.333 -1.5 25 -1.5
c24 0 43.333 6.16699 58 18.5s25.334 31.833 32.001 58.5h144c-8 -90.667 -29.667 -158 -65 -202s-86 -66 -152 -66c-8 0 -15.833 0.5 -23.5 1.5s-15.5 2.5 -23.5 4.5l-132 35c-11.333 3.33301 -20.333 5.5 -27 6.5s-14 1.5 -22 1.5c-19.333 0 -35.666 -6 -48.999 -18
s-24.333 -30.333 -33 -55h-141z" />
    <glyph glyph-name="hungarumlaut" unicode="&#x2dd;" 
d="M637 1231h72l229 256h-160zM578 1198l178 328h272l-299 -328h-151zM276 1231h70l234 256h-162zM217 1198l178 328h273l-299 -328h-152z" />
    <glyph glyph-name="Omega" unicode="&#x3a9;" horiz-adv-x="1563" 
d="M1057 76l352.003 0.00195312v-76h-555v47c165.333 95.333 289.333 204.666 372 327.999s124 260.333 124 411c0 193.333 -53.333 350.666 -160 471.999s-243.334 182 -410.001 182s-302.834 -60.667 -408.501 -182s-158.5 -278.666 -158.5 -471.999
c0 -150 41.167 -286.5 123.5 -409.5s206.5 -232.833 372.5 -329.5v-47h-555v76h352c-129.333 96 -224.5 201 -285.5 315s-91.5 243.667 -91.5 389c0 214 61.667 389.667 185 527s278.666 206 465.999 206c188 0 343.667 -68.833 467 -206.5s185 -313.834 185 -528.501
c0 -144 -30.5 -273 -91.5 -387s-155.5 -219 -283.5 -315z" />
    <glyph glyph-name="pi" unicode="&#x3c0;" horiz-adv-x="1155" 
d="M410 1012l-213.001 -1012h-70l215 1012h-88c-49.333 0 -88.333 -12.833 -117 -38.5s-47 -64.167 -55 -115.5h-62c16.667 78.667 43.834 133.167 81.501 163.5s102.834 45.5 195.501 45.5h815l-8 -55h-203l-135 -650c-8 -38 -14.5 -74 -19.5 -108s-7.5 -59.333 -7.5 -76
c0 -43.333 10.667 -75.333 32 -96s54.333 -31 99 -31c12 0 23.333 1 34 3s22 5 34 9l-12 -61c-19.333 -5.33301 -34.5 -9 -45.5 -11s-21.167 -3 -30.5 -3c-54 0 -96.833 16 -128.5 48s-47.5 75.333 -47.5 130c0 33.333 4.16699 76.666 12.5 129.999s23.166 130 44.499 230
l103 486h-424z" />
    <glyph glyph-name="endash" unicode="&#x2013;" 
d="M1024 401h-1024v48h1024v-48zM0 698h1024v-45h-1024v45z" />
    <glyph glyph-name="emdash" unicode="&#x2014;" horiz-adv-x="2048" 
d="M0 449h2048v-48h-2048v48zM0 698h2048v-45h-2048v45z" />
    <glyph glyph-name="quoteleft" unicode="&#x2018;" horiz-adv-x="631" 
d="M172 1092l-0.000976562 -298.998h285v297h-166v18c0 75.333 13 133.666 39 174.999s68.333 70.333 127 87v82c-97.333 -18 -169.166 -56.333 -215.499 -115s-69.5 -140.334 -69.5 -245.001zM120.999 745.002l-0.000976562 377.001c0 108.667 33.833 196.667 101.5 264
s163.5 108.333 287.5 123v-172c-63.333 -14.667 -107.666 -36.834 -132.999 -66.501s-38.333 -73.5 -39 -131.5h172v-394h-389z" />
    <glyph glyph-name="quoteright" unicode="&#x2019;" horiz-adv-x="631" 
d="M457 1161l-0.000976562 298.999h-285v-297h166v-18c0 -74.667 -13 -132.5 -39 -173.5s-68.333 -69.833 -127 -86.5v-84c96.667 18 168.334 56.333 215.001 115s70 140.334 70 245.001zM507.999 1509v-379c0 -107.333 -33.833 -194.5 -101.5 -261.5
s-163.5 -108.167 -287.5 -123.5v173c62.667 14.667 106.667 36.667 132 66s38.333 73.333 39 132h-171v393h389z" />
    <glyph glyph-name="quotesinglbase" unicode="&#x201a;" horiz-adv-x="631" 
d="M457 61l-0.000976562 298.998h-285v-297h166v-18c0 -75.333 -13.167 -133.666 -39.5 -174.999s-68.5 -70.333 -126.5 -87v-82c96.667 18 168.334 56.333 215.001 115s70 140.334 70 245.001zM509.999 407.998l-0.000976562 -377c0 -108.667 -33.833 -196.667 -101.5 -264
s-163.5 -108.333 -287.5 -123v172c62.667 14.667 106.334 36.5 131.001 65.5s37.667 73.167 39 132.5h-170v394h389z" />
    <glyph glyph-name="quotedblleft" unicode="&#x201c;" horiz-adv-x="1135" 
d="M625 745v377c0 108.667 33.833 196.667 101.5 264s163.5 108.333 287.5 123v-172c-62 -13.333 -105.667 -35 -131 -65s-38.333 -74.333 -39 -133h170v-394h-389zM676 1092l-0.000976562 -298.998h285v297h-166v18c0 75.333 13 133.666 39 174.999s68.333 70.333 127 87
v82c-97.333 -18 -169.166 -56.333 -215.499 -115s-69.5 -140.334 -69.5 -245.001zM171.999 1092l-0.000976562 -298.998h285v297h-166v18c0 75.333 13 133.666 39 174.999s68.333 70.333 127 87v82c-97.333 -18 -169.166 -56.333 -215.499 -115
s-69.5 -140.334 -69.5 -245.001zM120.998 745.004l-0.000976562 377.001c0 108.667 33.833 196.667 101.5 264s163.5 108.333 287.5 123v-172c-63.333 -14.667 -107.666 -36.834 -132.999 -66.501s-38.333 -73.5 -39 -131.5h172v-394h-389z" />
    <glyph glyph-name="quotedblright" unicode="&#x201d;" horiz-adv-x="1135" 
d="M961 1161l-0.000976562 298.999h-285v-297h166v-18c0 -74.667 -13 -132.5 -39 -173.5s-68.333 -69.833 -127 -86.5v-84c96.667 18 168.334 56.333 215.001 115s70 140.334 70 245.001zM1014 1509l0.000976562 -379c0 -107.333 -33.833 -194.5 -101.5 -261.5
s-163.5 -108.167 -287.5 -123.5v173c61.333 13.333 104.666 35 129.999 65s38.333 74.333 39 133h-169v393h389zM457 1161l-0.000976562 298.999h-285v-297h166v-18c0 -74.667 -13 -132.5 -39 -173.5s-68.333 -69.833 -127 -86.5v-84c96.667 18 168.334 56.333 215.001 115
s70 140.334 70 245.001zM507.999 1509v-379c0 -107.333 -33.833 -194.5 -101.5 -261.5s-163.5 -108.167 -287.5 -123.5v173c62.667 14.667 106.667 36.667 132 66s38.333 73.333 39 132h-171v393h389z" />
    <glyph glyph-name="quotedblbase" unicode="&#x201e;" horiz-adv-x="1135" 
d="M457 61l-0.000976562 298.998h-285v-297h166v-18c0 -75.333 -13.167 -133.666 -39.5 -174.999s-68.5 -70.333 -126.5 -87v-82c96.667 18 168.334 56.333 215.001 115s70 140.334 70 245.001zM507.999 407.998l0.000976562 -377c0 -108.667 -33.833 -196.667 -101.5 -264
s-163.5 -108.333 -287.5 -123v172c62.667 14.667 106.667 36.667 132 66s38.666 73.333 39.999 132h-172v394h389zM961 60.998l-0.000976562 298.998h-285v-297h166v-18c0 -75.333 -13.167 -133.666 -39.5 -174.999s-68.5 -70.333 -126.5 -87v-82
c96.667 18 168.334 56.333 215.001 115s70 140.334 70 245.001zM1014 407.996l0.000976562 -377c0 -108.667 -33.833 -196.667 -101.5 -264s-163.5 -108.333 -287.5 -123v172c61.333 13.333 104.666 35 129.999 65s38.333 74.333 39 133h-169v394h389z" />
    <glyph glyph-name="dagger" unicode="&#x2020;" 
d="M633 -180v1026h313v188h-313v393h-242v-393h-315v-188h315v-1026h242zM338 -227v1026h-315v282h315v394h346v-394h313v-282h-313v-1026h-346z" />
    <glyph glyph-name="daggerdbl" unicode="&#x2021;" 
d="M625 -166v326h305v180h-305v567h305v174h-305v342h-228v-342h-303v-174h303v-567h-303v-180h303v-326h228zM346 -225v338h-305v276h305v471h-305v268h305v345h330v-345h305v-268h-305v-471h305v-276h-305v-338h-330z" />
    <glyph glyph-name="bullet" unicode="&#x2022;" horiz-adv-x="1208" 
d="M307 762c0 82 28.999 151.666 86.999 208.999s128 86 210 86c81.333 0 150.833 -28.833 208.5 -86.5s86.5 -127.167 86.5 -208.5s-29.167 -151.166 -87.5 -209.499s-128.166 -87.5 -209.499 -87.5c-82 0 -151.667 29 -209 87s-86 128 -86 210z" />
    <glyph glyph-name="ellipsis" unicode="&#x2026;" horiz-adv-x="2048" 
d="M176 47h330v346h-330v-346zM123 0v442h434v-442h-434zM858 47h330v346h-330v-346zM805 0v442h434v-442h-434zM1542 47h330v346h-330v-346zM1489 0v442h434v-442h-434z" />
    </font>
</defs>
</svg>
