<svg xmlns="http://www.w3.org/2000/svg">
  <symbol id="arrow-down" viewBox="0 0 5 3">
    <path d="M2.63721 2.64337L4.94346 0.330728C5.01898 0.254957 5.01885 0.132282 4.94307 0.0566381C4.8673 -0.0189474 4.74455 -0.0187521 4.66898 0.0570287L2.5 2.23202L0.331025 0.0569504C0.255439 -0.0188207 0.132774 -0.019016 0.056993 0.0565597C0.0190048 0.0944794 1.04841e-05 0.144157 1.04819e-05 0.193834C1.04798e-05 0.243385 0.018878 0.292867 0.056602 0.330718L2.36279 2.64337C2.3991 2.67986 2.44851 2.70034 2.5 2.70034C2.55148 2.70034 2.60084 2.67981 2.63721 2.64337Z" />
  </symbol>
  <symbol id="arrow" viewBox="0 0 17 18">
    <line x1="2.57977" y1="16.6218" x2="16" y2="16.6218" />
    <line x1="16.5" y1="3.70161" x2="16.5" y2="17.1218" />
    <line x1="0.353553" y1="0.646439" x2="16.2779" y2="16.5708" stroke-width="1.2"/>
  </symbol>
  <symbol id="magic-hat" viewBox="0 0 25 30">
    <path d="M10.0974 9.54905C9.30074 9.54905 8.65493 8.90323 8.65493 8.10656C8.65493 7.84102 8.43964 7.62573 8.1741 7.62573C7.90856 7.62573 7.69327 7.84102 7.69327 8.10656C7.69327 8.90323 7.04746 9.54905 6.25079 9.54905C5.98525 9.54905 5.76996 9.76434 5.76996 10.0299C5.76996 10.2954 5.98525 10.5107 6.25079 10.5107C7.04746 10.5107 7.69327 11.1565 7.69327 11.9532C7.69327 12.2187 7.90856 12.434 8.1741 12.434C8.43964 12.434 8.65493 12.2187 8.65493 11.9532C8.65493 11.1565 9.30074 10.5107 10.0974 10.5107C10.363 10.5107 10.5782 10.2954 10.5782 10.0299C10.5782 9.76434 10.363 9.54905 10.0974 9.54905ZM8.1741 10.5107C8.03742 10.3285 7.87551 10.1666 7.69327 10.0299C7.87551 9.8932 8.03742 9.73128 8.1741 9.54905C8.31078 9.73128 8.47269 9.8932 8.65493 10.0299C8.47263 10.1666 8.31078 10.3284 8.1741 10.5107Z"/>
    <path d="M6.2508 5.70237C5.45412 5.70237 4.80831 5.05655 4.80831 4.25988C4.80831 3.99434 4.59302 3.77905 4.32748 3.77905C4.06194 3.77905 3.84665 3.99434 3.84665 4.25988C3.84665 5.05655 3.20084 5.70237 2.40417 5.70237C2.13863 5.70237 1.92334 5.91766 1.92334 6.18319C1.92334 6.44873 2.13863 6.66402 2.40417 6.66402C3.20084 6.66402 3.84665 7.30984 3.84665 8.10651C3.84665 8.37205 4.06194 8.58734 4.32748 8.58734C4.59302 8.58734 4.80831 8.37205 4.80831 8.10651C4.80831 7.30984 5.45412 6.66402 6.2508 6.66402C6.51633 6.66402 6.73162 6.44873 6.73162 6.18319C6.73162 5.91766 6.51633 5.70237 6.2508 5.70237ZM4.32748 6.66402C4.19081 6.48179 4.02889 6.31987 3.84665 6.18319C4.02889 6.04652 4.19081 5.8846 4.32748 5.70237C4.46416 5.8846 4.62608 6.04652 4.80831 6.18319C4.62602 6.31987 4.46416 6.48173 4.32748 6.66402Z" />
    <path d="M19.2331 13.3958H1.92331C0.861103 13.3958 0 14.2569 0 15.3191C0 16.3813 0.861103 17.2424 1.92331 17.2424H2.88497V29.7439H18.2715V17.2424H19.2331C20.2953 17.2424 21.1564 16.3813 21.1564 15.3191C21.1564 14.2569 20.2953 13.3958 19.2331 13.3958ZM17.3098 28.7823H3.84663V23.974H17.3098V28.7823ZM17.3098 23.0123H3.84663V20.1273H17.3098V23.0123ZM17.3098 19.1657H3.84663V17.2424H17.3098V19.1657ZM19.2331 16.2807H1.92331C1.39218 16.2807 0.961657 15.8502 0.961657 15.3191C0.961657 14.7879 1.39218 14.3574 1.92331 14.3574H19.2331C19.7643 14.3574 20.1948 14.7879 20.1948 15.3191C20.1948 15.8502 19.7642 16.2807 19.2331 16.2807Z" />
    <path d="M24.5528 1.32856C24.2731 1.05209 23.8962 0.896178 23.5029 0.894074C23.1043 0.89149 22.7214 1.04914 22.4403 1.33163L13.2661 10.5106L15.3865 12.6311L24.5655 3.45689C25.1497 2.86571 25.1441 1.91283 24.5528 1.32856ZM15.3865 11.2752L14.622 10.5106L15.8673 9.2653L16.6319 10.0298L15.3865 11.2752ZM23.8827 2.77411L17.3098 9.35185L16.5453 8.58733L23.123 2.0144C23.3339 1.80464 23.6748 1.80542 23.8846 2.01627C23.9846 2.1167 24.0409 2.25253 24.0414 2.39426C24.042 2.53712 23.9847 2.67416 23.8827 2.77411Z" />
    <path d="M14.4249 4.74072H13.4632V5.70238H14.4249V4.74072Z" />
    <path d="M14.4249 6.66406H13.4632V7.62572H14.4249V6.66406Z" />
    <path d="M13.4632 5.70239H12.5015V6.66405H13.4632V5.70239Z" />
    <path d="M15.3865 5.70239H14.4249V6.66405H15.3865V5.70239Z" />
  </symbol>
  <symbol id="write" viewBox="0 0 18 18">
    <path d="M14.9181 2.28446C13.268 0.811447 11.0757 0 8.74592 0C6.41609 0 4.22381 0.811447 2.57369 2.28446C0.914148 3.76619 0 5.73855 0 7.83866C0 9.50619 0.573384 11.0924 1.65991 12.4344L0.658302 17.6548C0.648073 17.7079 0.652885 17.7628 0.672199 17.8133C0.691512 17.8639 0.724557 17.908 0.767608 17.9407C0.810659 17.9735 0.862004 17.9936 0.915853 17.9987C0.969701 18.0038 1.02391 17.9938 1.07237 17.9698L6.3192 15.3714C7.11193 15.5755 7.92733 15.6783 8.74592 15.6773C11.0757 15.6773 13.268 14.8659 14.9181 13.3929C16.5777 11.9111 17.4918 9.93877 17.4918 7.83866C17.4918 5.73855 16.5777 3.76619 14.9181 2.28446ZM8.74592 15.0967C7.94151 15.0977 7.14051 14.9921 6.36383 14.7828C6.29546 14.7642 6.22264 14.7713 6.15916 14.8027L1.33874 17.1899L2.25579 12.4101C2.26388 12.3678 2.26245 12.3241 2.25159 12.2824C2.24073 12.2407 2.22072 12.2018 2.19301 12.1688C1.13806 10.9103 0.580642 9.41293 0.580642 7.83866C0.580642 3.83659 4.2434 0.580642 8.74592 0.580642C13.2484 0.580642 16.9112 3.83659 16.9112 7.83866C16.9112 11.8407 13.2484 15.0967 8.74592 15.0967Z" />
    <path d="M8.78222 8.7097C8.60996 8.7097 8.44157 8.65862 8.29834 8.56292C8.15511 8.46721 8.04347 8.33119 7.97755 8.17204C7.91163 8.01289 7.89438 7.83777 7.92799 7.66882C7.9616 7.49987 8.04455 7.34468 8.16635 7.22287C8.28816 7.10107 8.44335 7.01812 8.6123 6.98451C8.78125 6.9509 8.95637 6.96815 9.11552 7.03407C9.27467 7.09999 9.41069 7.21163 9.5064 7.35486C9.6021 7.49808 9.65318 7.66648 9.65318 7.83874C9.65291 8.06965 9.56106 8.29102 9.39778 8.4543C9.23451 8.61758 9.01313 8.70943 8.78222 8.7097ZM8.78222 7.54842C8.7248 7.54842 8.66867 7.56544 8.62092 7.59734C8.57318 7.62924 8.53597 7.67459 8.514 7.72764C8.49202 7.78068 8.48627 7.83906 8.49748 7.89538C8.50868 7.95169 8.53633 8.00342 8.57693 8.04402C8.61753 8.08463 8.66926 8.11228 8.72558 8.12348C8.7819 8.13468 8.84027 8.12893 8.89332 8.10696C8.94637 8.08498 8.99171 8.04777 9.02361 8.00003C9.05551 7.95229 9.07254 7.89616 9.07254 7.83874C9.07245 7.76177 9.04184 7.68797 8.98741 7.63354C8.93298 7.57912 8.85919 7.5485 8.78222 7.54842Z" />
    <path d="M5.87896 8.7097C5.7067 8.7097 5.53831 8.65862 5.39508 8.56292C5.25185 8.46721 5.14022 8.33119 5.07429 8.17204C5.00837 8.01289 4.99113 7.83777 5.02473 7.66882C5.05834 7.49987 5.14129 7.34468 5.26309 7.22287C5.3849 7.10107 5.54009 7.01812 5.70904 6.98451C5.87799 6.9509 6.05311 6.96815 6.21226 7.03407C6.37141 7.09999 6.50744 7.21163 6.60314 7.35486C6.69884 7.49808 6.74992 7.66648 6.74992 7.83874C6.74965 8.06965 6.6578 8.29102 6.49452 8.4543C6.33125 8.61758 6.10987 8.70943 5.87896 8.7097ZM5.87896 7.54842C5.82154 7.54842 5.76541 7.56544 5.71766 7.59734C5.66992 7.62924 5.63271 7.67459 5.61074 7.72764C5.58876 7.78068 5.58301 7.83906 5.59422 7.89538C5.60542 7.95169 5.63307 8.00342 5.67367 8.04402C5.71427 8.08463 5.766 8.11228 5.82232 8.12348C5.87864 8.13468 5.93701 8.12893 5.99006 8.10696C6.04311 8.08498 6.08845 8.04777 6.12035 8.00003C6.15225 7.95229 6.16928 7.89616 6.16928 7.83874C6.16919 7.76177 6.13858 7.68797 6.08415 7.63354C6.02972 7.57912 5.95593 7.5485 5.87896 7.54842Z" />
    <path d="M11.6854 6.96777C11.5132 6.96777 11.3448 7.01885 11.2015 7.11456C11.0583 7.21026 10.9467 7.34629 10.8808 7.50543C10.8148 7.66458 10.7976 7.8397 10.8312 8.00865C10.8648 8.1776 10.9477 8.33279 11.0696 8.4546C11.1914 8.57641 11.3465 8.65936 11.5155 8.69296C11.6845 8.72657 11.8596 8.70932 12.0187 8.6434C12.1779 8.57748 12.3139 8.46585 12.4096 8.32262C12.5053 8.17939 12.5564 8.011 12.5564 7.83874C12.5561 7.60784 12.4642 7.38648 12.3009 7.22321C12.1377 7.05994 11.9163 6.96808 11.6854 6.96777ZM11.6854 8.12906C11.628 8.12906 11.5719 8.11203 11.5241 8.08013C11.4764 8.04823 11.4392 8.00289 11.4172 7.94984C11.3952 7.89679 11.3895 7.83841 11.4007 7.7821C11.4119 7.72578 11.4395 7.67405 11.4801 7.63345C11.5207 7.59285 11.5725 7.5652 11.6288 7.55399C11.6851 7.54279 11.7435 7.54854 11.7965 7.57051C11.8496 7.59249 11.8949 7.6297 11.9268 7.67744C11.9587 7.72519 11.9757 7.78132 11.9757 7.83874C11.9756 7.9157 11.945 7.98948 11.8906 8.04391C11.8362 8.09833 11.7624 8.12895 11.6854 8.12906Z"/>
  </symbol>
</svg>