<?xml version="1.0" standalone="no"?>
<!DOCTYPE svg PUBLIC "-//W3C//DTD SVG 1.1//EN" "http://www.w3.org/Graphics/SVG/1.1/DTD/svg11.dtd" >
<svg>
<metadata>
Created by FontForge 20090914 at Tue Jul  6 10:28:25 2021
 By www-data
Copyright (c) 2010 by Anton Kudin. All rights reserved.
</metadata>
<defs>
<font id="Bicubik" horiz-adv-x="1597" >
  <font-face 
    font-family="Bicubik"
    font-weight="400"
    font-stretch="normal"
    units-per-em="2048"
    panose-1="2 0 5 3 2 0 0 2 0 4"
    ascent="1638"
    descent="-410"
    x-height="1434"
    cap-height="1434"
    bbox="-102 -287 2396 1874"
    underline-thickness="102"
    underline-position="-102"
    unicode-range="U+000D-U+E000"
  />
<missing-glyph horiz-adv-x="748" 
d="M68 0v1365h544v-1365h-544zM136 68h408v1229h-408v-1229z" />
    <glyph glyph-name=".notdef" horiz-adv-x="748" 
d="M68 0v1365h544v-1365h-544zM136 68h408v1229h-408v-1229z" />
    <glyph glyph-name="glyph1" horiz-adv-x="2048" 
 />
    <glyph glyph-name="glyph1" horiz-adv-x="2048" 
 />
    <glyph glyph-name="uni000D" unicode="&#xd;" horiz-adv-x="2048" 
 />
    <glyph glyph-name="space" unicode=" " horiz-adv-x="819" 
 />
    <glyph glyph-name="exclam" unicode="!" horiz-adv-x="409" 
d="M102 0v205h205v-205h-205zM102 410v1024h205v-1024h-205z" />
    <glyph glyph-name="quotedbl" unicode="&#x22;" horiz-adv-x="819" 
d="M102 1024v410h205v-410h-205zM512 1024v410h205v-410h-205z" />
    <glyph glyph-name="numbersign" unicode="#" horiz-adv-x="1351" 
d="M61 205v205h205v409h-205v205h205v205h205v-205h410v205h204v-205h205v-205h-205v-409h205v-205h-205v-205h-204v205h-410v-205h-205v205h-205zM471 410h410v409h-410v-409z" />
    <glyph glyph-name="dollar" unicode="$" 
d="M82 410l204.999 0.000976562c0 -57.333 19.833 -105.833 59.5 -145.5s88.167 -59.5 145.5 -59.5h204v409h-204c-54.667 0 -107 10.667 -157 32s-93.833 50.333 -131.5 87s-67.334 80 -89.001 130s-32.5 103.667 -32.5 161c0 54.667 10.5 106.5 31.5 155.5
s50 92.333 87 130s80.5 67.834 130.5 90.501s103.667 34 161 34h204v204h205v-204h205c54.667 0 106.5 -10.667 155.5 -32s92 -50.333 129 -87s66.667 -80 89 -130s34.5 -103.667 36.5 -161h-205c0 57.333 -19.833 105.833 -59.5 145.5s-88.167 59.5 -145.5 59.5h-205v-410
h205c53.333 0 104.833 -10.5 154.5 -31.5s93.334 -50 131.001 -87s67.834 -80.333 90.501 -130s34 -103.167 34 -160.5c0 -56 -10.667 -108.333 -32 -157s-50.5 -91.334 -87.5 -128.001s-80.333 -66.334 -130 -89.001s-103.167 -34.667 -160.5 -36h-205v-205h-205v205h-204
c-56 0 -108.667 10.5 -158 31.5s-92.333 50 -129 87s-66 80.5 -88 130.5s-33.667 103.667 -35 161zM286.999 1024c0 -57.333 19.833 -105.833 59.5 -145.5s88.167 -59.5 145.5 -59.5h204v410h-204c-57.333 0 -105.833 -19.833 -145.5 -59.5s-59.5 -88.167 -59.5 -145.5z
M900.999 205.001l205 0.000976562c57.333 0 105.833 19.833 145.5 59.5s59.5 88.167 59.5 145.5s-19.833 105.666 -59.5 144.999s-88.167 59 -145.5 59h-205v-409z" />
    <glyph glyph-name="percent" unicode="%" horiz-adv-x="1863" 
d="M61 1024c0 54.667 10.6689 106.5 32.002 155.5s50.5 92.333 87.5 130s80.333 67.834 130 90.501s103.167 34 160.5 34c54.667 0 106.5 -10.667 155.5 -32s92 -50.333 129 -87s66.833 -80 89.5 -130s34.667 -103.667 36 -161c0 -54.667 -10.667 -106.5 -32 -155.5
s-50.333 -92.333 -87 -130s-80 -67.834 -130 -90.501s-103.667 -34 -161 -34c-54.667 0 -106.834 10.667 -156.501 32s-93.334 50.333 -131.001 87s-67.5 80 -89.5 130s-33 103.667 -33 161zM266.002 1024c0 -57.333 19.833 -105.833 59.5 -145.5s88.167 -59.5 145.5 -59.5
s105.833 19.833 145.5 59.5s59.5 88.167 59.5 145.5s-19.833 105.833 -59.5 145.5s-88.167 59.5 -145.5 59.5s-105.833 -19.833 -145.5 -59.5s-59.5 -88.167 -59.5 -145.5zM369.002 0v158l997 1276h129v-166l-989 -1268h-137zM983.002 410
c0 54.667 10.668 106.499 32.001 155.499s50.333 92.333 87 130s80 67.667 130 90s103.667 33.5 161 33.5c54.667 0 106.5 -10.5 155.5 -31.5s92 -50 129 -87s66.667 -80.333 89 -130s34.166 -103.167 35.499 -160.5c0 -54.667 -10.5 -106.667 -31.5 -156
s-50 -92.666 -87 -129.999s-80.333 -67.333 -130 -90s-103.167 -34 -160.5 -34c-54.667 0 -107 10.5 -157 31.5s-93.667 50 -131 87s-67 80.5 -89 130.5s-33 103.667 -33 161zM1188 409.999c0 -57.333 19.833 -105.833 59.5 -145.5s88.167 -59.5 145.5 -59.5
s105.666 19.833 144.999 59.5s59 88.167 59 145.5s-19.667 105.666 -59 144.999s-87.666 59 -144.999 59s-105.833 -19.667 -145.5 -59s-59.5 -87.666 -59.5 -144.999z" />
    <glyph glyph-name="ampersand" unicode="&#x26;" horiz-adv-x="1576" 
d="M82 410c0 122.667 46.334 224.998 139.001 306.998c-92.667 82 -139 184.333 -139 307c0 54.667 10.5 106.5 31.5 155.5s50 92.333 87 130s80.5 67.834 130.5 90.501s103.667 34 161 34c53.333 0 104.833 -10.667 154.5 -32s93.334 -50.333 131.001 -87
s67.667 -80 90 -130s33.5 -103.667 33.5 -161c0 -74 -18.333 -142.333 -55 -205h55c122.667 0 225 -46.333 307 -139c82 92.667 184.667 139 308 139v-205c-57.333 0 -105.833 -19.667 -145.5 -59s-59.5 -87.666 -59.5 -144.999s19.833 -105.833 59.5 -145.5
s88.167 -59.5 145.5 -59.5v-205c-122.667 -0 -225.334 46.333 -308.001 139c-82 -92.667 -184.333 -139 -307 -139h-409c-54.667 0 -107 10.5 -157 31.5s-93.833 50 -131.5 87s-67.334 80.5 -89.001 130.5s-32.5 103.667 -32.5 161zM287.001 409.998
c0 -57.333 19.833 -105.833 59.5 -145.5s88.167 -59.5 145.5 -59.5h409c57.333 0 105.833 19.833 145.5 59.5s59.5 88.167 59.5 145.5s-19.833 105.666 -59.5 144.999s-88.167 59 -145.5 59h-409c-57.333 0 -105.833 -19.667 -145.5 -59s-59.5 -87.666 -59.5 -144.999z
M287.001 1024c0 -57.333 19.833 -105.833 59.5 -145.5s88.167 -59.5 145.5 -59.5s105.666 19.833 144.999 59.5s59 88.167 59 145.5s-19.667 105.833 -59 145.5s-87.666 59.5 -144.999 59.5s-105.833 -19.833 -145.5 -59.5s-59.5 -88.167 -59.5 -145.5z" />
    <glyph glyph-name="quotesingle" unicode="'" horiz-adv-x="409" 
d="M102 1024v410h205v-410h-205z" />
    <glyph glyph-name="parenleft" unicode="(" horiz-adv-x="532" 
d="M82 205l-0.000976562 1024c0 54.667 10.5 106.5 31.5 155.5s50 92 87 129s80.5 66.667 130.5 89s103.667 34.166 161 35.499v-204c-57.333 0 -105.833 -19.833 -145.5 -59.5s-59.5 -88.167 -59.5 -145.5v-1024c0 -57.333 19.833 -105.833 59.5 -145.5
s88.167 -59.5 145.5 -59.5v-205c-54.667 0 -106.667 10.667 -156 32s-92.666 50.333 -129.999 87s-67.333 80 -90 130s-34 103.667 -34 161z" />
    <glyph glyph-name="parenright" unicode=")" horiz-adv-x="532" 
d="M41 0c57.333 0 105.831 19.834 145.498 59.501s59.5 88.167 59.5 145.5v1024c0 57.333 -19.833 105.833 -59.5 145.5s-88.167 59.5 -145.5 59.5v204c53.333 0 104.833 -10.5 154.5 -31.5s93.334 -50 131.001 -87s67.834 -80.333 90.501 -130s34 -103.167 34 -160.5v-1024
c0 -54.667 -10.667 -106.667 -32 -156s-50.5 -92.333 -87.5 -129s-80.333 -66.334 -130 -89.001s-103.167 -34.667 -160.5 -36v205z" />
    <glyph glyph-name="asterisk" unicode="*" horiz-adv-x="1122" 
d="M41 954l51 199l367 -98v379h205v-379l366 98l51 -199l-364 -96l188 -330l-176 -102l-168 291l-168 -291l-176 102l189 330z" />
    <glyph glyph-name="plus" unicode="+" horiz-adv-x="1105" 
d="M41 614v205h410v410h204v-410h410v-205h-410v-409h-204v409h-410z" />
    <glyph glyph-name="comma" unicode="," horiz-adv-x="409" 
d="M102 205h205v-410h-205v410z" />
    <glyph glyph-name="hyphen" unicode="-" horiz-adv-x="1003" 
d="M41 614v205h922v-205h-922z" />
    <glyph glyph-name="period" unicode="." horiz-adv-x="409" 
d="M102 0v205h205v-205h-205z" />
    <glyph glyph-name="slash" unicode="/" horiz-adv-x="1126" 
d="M0 0v158l997 1276h129v-166l-989 -1268h-137z" />
    <glyph glyph-name="zero" unicode="0" 
d="M82 410l0.000976562 613.998c0 54.667 10.5 106.5 31.5 155.5s50 92.333 87 130s80.5 67.834 130.5 90.501s103.667 34 161 34h614c54.667 0 106.5 -10.667 155.5 -32s92 -50.333 129 -87s66.667 -80 89 -130s34.5 -103.667 36.5 -161v-614
c0 -54.667 -10.667 -106.667 -32 -156s-50.5 -92.666 -87.5 -129.999s-80.333 -67.333 -130 -90s-103.167 -34 -160.5 -34h-614c-54.667 0 -107 10.5 -157 31.5s-93.833 50 -131.5 87s-67.334 80.5 -89.001 130.5s-32.5 103.667 -32.5 161zM287.001 409.998
c0 -57.333 19.833 -105.833 59.5 -145.5s88.167 -59.5 145.5 -59.5h614c57.333 0 105.833 19.833 145.5 59.5s59.5 88.167 59.5 145.5v614c0 57.333 -19.833 105.833 -59.5 145.5s-88.167 59.5 -145.5 59.5h-614c-57.333 0 -105.833 -19.833 -145.5 -59.5
s-59.5 -88.167 -59.5 -145.5v-614z" />
    <glyph glyph-name="one" unicode="1" horiz-adv-x="737" 
d="M20 819v205l410 410h205v-1434h-205v1145l-326 -326h-84z" />
    <glyph glyph-name="two" unicode="2" 
d="M82 0l-0.00195312 306.999c0 54.667 10.5 106.667 31.5 156s50 92.666 87 129.999s80.5 67.333 130.5 90s103.667 34 161 34h614c57.333 0 105.833 19.833 145.5 59.5s59.5 88.167 59.5 145.5v102c0 57.333 -19.833 105.833 -59.5 145.5s-88.167 59.5 -145.5 59.5h-614
c-57.333 0 -105.833 -19.833 -145.5 -59.5s-59.5 -88.167 -59.5 -145.5h-205c0 54.667 10.5 106.5 31.5 155.5s50 92.333 87 130s80.5 67.834 130.5 90.501s103.667 34 161 34h614c53.333 0 104.833 -10.667 154.5 -32s93.334 -50.333 131.001 -87s67.834 -80 90.501 -130
s34 -103.667 34 -161v-102c0 -54.667 -10.667 -106.667 -32 -156s-50.5 -92.666 -87.5 -129.999s-80.333 -67.333 -130 -90s-103.167 -34 -160.5 -34h-614c-57.333 0 -105.833 -19.833 -145.5 -59.5s-59.5 -88.167 -59.5 -145.5v-102h1229v-205h-1434z" />
    <glyph glyph-name="three" unicode="3" 
d="M82 410l204.997 -0.000976562c0 -57.333 19.833 -105.833 59.5 -145.5s88.167 -59.5 145.5 -59.5h614c57.333 0 105.833 19.833 145.5 59.5s59.5 88.167 59.5 145.5s-19.833 105.666 -59.5 144.999s-88.167 59 -145.5 59h-410v205h410
c57.333 0 105.833 19.833 145.5 59.5s59.5 88.167 59.5 145.5s-19.833 105.833 -59.5 145.5s-88.167 59.5 -145.5 59.5h-614c-57.333 0 -105.833 -19.833 -145.5 -59.5s-59.5 -88.167 -59.5 -145.5h-205c0 54.667 10.5 106.5 31.5 155.5s50 92.333 87 130
s80.5 67.834 130.5 90.501s103.667 34 161 34h614c53.333 0 104.833 -10.667 154.5 -32s93.334 -50.333 131.001 -87s67.834 -80 90.501 -130s34 -103.667 34 -161c0 -122.667 -46.667 -225 -140 -307c92.667 -82 139.334 -184.333 140.001 -307
c0 -54.667 -10.667 -106.667 -32 -156s-50.5 -92.666 -87.5 -129.999s-80.333 -67.333 -130 -90s-103.167 -34 -160.5 -34h-614c-56 0 -108.667 10.5 -158 31.5s-92.333 50 -129 87s-66 80.5 -88 130.5s-33.667 103.667 -35 161z" />
    <glyph glyph-name="four" unicode="4" horiz-adv-x="1556" 
d="M61 205v205l1024 1024h205v-1024h205v-205h-205v-205h-205v205h-1024zM350 410h735v735z" />
    <glyph glyph-name="five" unicode="5" horiz-adv-x="1617" 
d="M102 410h205c0 -57.333 19.833 -105.833 59.5 -145.5s88.167 -59.5 145.5 -59.5h614c57.333 0 105.833 19.833 145.5 59.5s59.5 88.167 59.5 145.5v82c0 57.333 -19.833 105.666 -59.5 144.999s-88.167 59 -145.5 59h-962v738h1290v-205h-1085v-328h757
c53.333 0 105 -10.5 155 -31.5s93.667 -50 131 -87s67.333 -80.333 90 -130s34 -103.167 34 -160.5v-82c0 -54.667 -10.5 -106.667 -31.5 -156s-50 -92.666 -87 -129.999s-80.5 -67.333 -130.5 -90s-103.667 -34 -161 -34h-614c-56 0 -108.5 10.5 -157.5 31.5
s-92 50 -129 87s-66.5 80.5 -88.5 130.5s-33.667 103.667 -35 161z" />
    <glyph glyph-name="six" unicode="6" 
d="M82 410l0.000976562 613.998c0 54.667 10.5 106.5 31.5 155.5s50 92.333 87 130s80.5 67.834 130.5 90.501s103.667 34 161 34h614c54.667 0 106.5 -10.667 155.5 -32s92 -50.333 129 -87s66.667 -80 89 -130s34.5 -103.667 36.5 -161h-205
c0 57.333 -19.833 105.833 -59.5 145.5s-88.167 59.5 -145.5 59.5h-614c-57.333 0 -105.833 -19.833 -145.5 -59.5s-59.5 -88.167 -59.5 -145.5v-205h819c112 0 208.333 -40.333 289 -121s121 -176.667 121 -288c0 -54.667 -10.667 -106.667 -32 -156
s-50.5 -92.666 -87.5 -129.999s-80.333 -67.333 -130 -90s-103.167 -34 -160.5 -34h-614c-54.667 0 -107 10.5 -157 31.5s-93.833 50 -131.5 87s-67.334 80.5 -89.001 130.5s-32.5 103.667 -32.5 161zM287.001 409.998c0 -57.333 19.833 -105.832 59.5 -145.499
s88.167 -59.5 145.5 -59.5h614c57.333 0 105.833 19.833 145.5 59.5s59.5 88.167 59.5 145.5s-19.833 105.666 -59.5 144.999s-88.167 59 -145.5 59h-819v-204z" />
    <glyph glyph-name="seven" unicode="7" horiz-adv-x="1515" 
d="M41 1229v205h1434v-250l-820 -1049v-135h-204v205l800 1024h-1210z" />
    <glyph glyph-name="eight" unicode="8" 
d="M82 410c0 122.667 46.3311 224.999 138.998 306.999c-92.667 82 -139 184.333 -139 307c0 54.667 10.5 106.5 31.5 155.5s50 92 87 129s80.5 66.833 130.5 89.5s103.667 34.667 161 36h614c53.333 0 104.833 -10.667 154.5 -32s93.334 -50.333 131.001 -87
s67.834 -80 90.501 -130s34 -103.667 34 -161c0 -122.667 -46.667 -225 -140 -307c92.667 -82 139.334 -184.333 140.001 -307c0 -54.667 -10.667 -106.667 -32 -156s-50.5 -92.666 -87.5 -129.999s-80.333 -67.333 -130 -90s-103.167 -34 -160.5 -34h-614
c-54.667 0 -107 10.5 -157 31.5s-93.833 50 -131.5 87s-67.334 80.5 -89.001 130.5s-32.5 103.667 -32.5 161zM286.998 409.999c0 -57.333 19.833 -105.833 59.5 -145.5s88.167 -59.5 145.5 -59.5h614c57.333 0 105.833 19.833 145.5 59.5s59.5 88.167 59.5 145.5
s-19.833 105.666 -59.5 144.999s-88.167 59 -145.5 59h-614c-57.333 0 -105.833 -19.667 -145.5 -59s-59.5 -87.666 -59.5 -144.999zM286.998 1024c0 -57.333 19.833 -105.833 59.5 -145.5s88.167 -59.5 145.5 -59.5h614c57.333 0 105.833 19.833 145.5 59.5
s59.5 88.167 59.5 145.5s-19.833 105.833 -59.5 145.5s-88.167 59.5 -145.5 59.5h-614c-57.333 0 -105.833 -19.833 -145.5 -59.5s-59.5 -88.167 -59.5 -145.5z" />
    <glyph glyph-name="nine" unicode="9" 
d="M82 410l204.999 -0.00195312c0 -57.333 19.833 -105.833 59.5 -145.5s88.167 -59.5 145.5 -59.5h614c57.333 0 105.833 19.833 145.5 59.5s59.5 88.167 59.5 145.5v204h-819c-54.667 0 -107 10.667 -157 32s-93.833 50.333 -131.5 87s-67.334 80 -89.001 130
s-32.5 103.667 -32.5 161c0 54.667 10.5 106.5 31.5 155.5s50 92.333 87 130s80.5 67.834 130.5 90.501s103.667 34 161 34h614c53.333 0 104.833 -10.667 154.5 -32s93.334 -50.333 131.001 -87s67.834 -80 90.501 -130s34 -103.667 34 -161v-614
c0 -54.667 -10.667 -106.667 -32 -156s-50.5 -92.666 -87.5 -129.999s-80.333 -67.333 -130 -90s-103.167 -34 -160.5 -34h-614c-56 0 -108.667 10.5 -158 31.5s-92.333 50 -129 87s-66 80.5 -88 130.5s-33.667 103.667 -35 161zM286.999 1024
c0 -57.333 19.833 -105.833 59.5 -145.5s88.167 -59.5 145.5 -59.5h819v205c0 57.333 -19.833 105.833 -59.5 145.5s-88.167 59.5 -145.5 59.5h-614c-57.333 0 -105.833 -19.833 -145.5 -59.5s-59.5 -88.167 -59.5 -145.5z" />
    <glyph glyph-name="colon" unicode=":" horiz-adv-x="409" 
d="M102 0v205h205v-205h-205zM102 819v205h205v-205h-205z" />
    <glyph glyph-name="semicolon" unicode=";" horiz-adv-x="409" 
d="M102 205h205v-410h-205v410zM102 819v205h205v-205h-205z" />
    <glyph glyph-name="less" unicode="&#x3c;" horiz-adv-x="798" 
d="M41 571v86l573 572h50l94 -94v-52l-469 -469l469 -469v-51l-94 -94h-50z" />
    <glyph glyph-name="equal" unicode="=" horiz-adv-x="1105" 
d="M41 205v205h1024v-205h-1024zM41 819v205h1024v-205h-1024z" />
    <glyph glyph-name="greater" unicode="&#x3e;" horiz-adv-x="798" 
d="M41 94v51l469 469l-469 469v52l94 94h49l574 -572v-86l-574 -571h-49z" />
    <glyph glyph-name="question" unicode="?" horiz-adv-x="1495" 
d="M0 1024c0 54.667 10.498 106.499 31.498 155.499s50 92.333 87 130s80.5 67.834 130.5 90.501s103.667 34 161 34h614c53.333 0 104.833 -10.667 154.5 -32s93.334 -50.333 131.001 -87s67.834 -80 90.501 -130s34 -103.667 34 -161c0 -54.667 -10.667 -106.5 -32 -155.5
s-50.333 -92.333 -87 -130s-80 -67.834 -130 -90.501s-103.667 -34 -161 -34s-105.833 -19.667 -145.5 -59s-59.5 -87.666 -59.5 -144.999h-205c0 54.667 10.667 106.5 32 155.5s50.333 92.333 87 130s80 67.667 130 90s103.667 33.5 161 33.5s105.833 19.833 145.5 59.5
s59.5 88.167 59.5 145.5s-19.833 105.833 -59.5 145.5s-88.167 59.5 -145.5 59.5h-614c-57.333 0 -105.833 -19.833 -145.5 -59.5s-59.5 -88.167 -59.5 -145.5h-205zM613.998 -0.000976562v205h205v-205h-205z" />
    <glyph glyph-name="at" unicode="@" 
d="M82 410l-0.00195312 613.998c0 54.667 10.5 106.5 31.5 155.5s50 92.333 87 130s80.5 67.834 130.5 90.501s103.667 34 161 34h614c53.333 0 104.833 -10.667 154.5 -32s93.334 -50.333 131.001 -87s67.834 -80 90.501 -130s34 -103.667 34 -161v-205
c0 -54.667 -10.667 -106.5 -32 -155.5s-50.5 -92.333 -87.5 -130s-80.333 -67.667 -130 -90s-103.167 -33.5 -160.5 -33.5h-307c-40.667 0 -79.5 7.83301 -116.5 23.5s-69.5 37.5 -97.5 65.5s-50.167 60.333 -66.5 97s-25.166 77 -26.499 121
c0 40.667 7.83301 79.5 23.5 116.5s37.5 69.5 65.5 97.5s60.333 50.5 97 67.5s77 25.5 121 25.5c40.667 0 79.5 -7.83301 116.5 -23.5s69.5 -37.5 97.5 -65.5s50.5 -60.833 67.5 -98.5s25.5 -77.5 25.5 -119.5c0 -35.333 -6.33301 -69.666 -19 -102.999h19
c57.333 0 105.833 19.833 145.5 59.5s59.5 88.167 59.5 145.5v205c0 57.333 -19.833 105.833 -59.5 145.5s-88.167 59.5 -145.5 59.5h-614c-57.333 0 -105.833 -19.833 -145.5 -59.5s-59.5 -88.167 -59.5 -145.5v-614c0 -57.333 19.833 -105.833 59.5 -145.5
s88.167 -59.5 145.5 -59.5h614v-205h-614c-54.667 0 -107 10.5 -157 31.5s-93.833 50 -131.5 87s-67.334 80.5 -89.001 130.5s-32.5 103.667 -32.5 161zM695.998 716.998c0 -28.667 10 -53 30 -73s44.333 -30 73 -30s52.834 10 72.501 30s29.5 44.333 29.5 73
s-9.83301 52.834 -29.5 72.501s-43.834 29.5 -72.501 29.5s-53 -9.83301 -73 -29.5s-30 -43.834 -30 -72.501z" />
    <glyph glyph-name="A" unicode="A" horiz-adv-x="1638" 
d="M102 0l-0.000976562 1024c0 54.667 10.667 106.5 32 155.5s50.333 92.333 87 130s80 67.834 130 90.501s103.667 34 161 34h614c54.667 0 106.667 -10.667 156 -32s92.333 -50.333 129 -87s66.334 -80 89.001 -130s34.667 -103.667 36 -161v-1024h-205v410h-1024v-410
h-205zM306.999 613.999h1024v410c0 57.333 -19.833 105.833 -59.5 145.5s-88.167 59.5 -145.5 59.5h-614c-57.333 0 -105.833 -19.833 -145.5 -59.5s-59.5 -88.167 -59.5 -145.5v-410z" />
    <glyph glyph-name="B" unicode="B" horiz-adv-x="1617" 
d="M102 0v1434h1024c53.333 0 105 -10.667 155 -32s93.667 -50.333 131 -87s67.333 -80 90 -130s34 -103.667 34 -161c0 -122.667 -46.333 -225 -139 -307c92.667 -82 139 -184.333 139 -307c0 -56 -10.5 -108.333 -31.5 -157s-50 -91.334 -87 -128.001
s-80.5 -66.334 -130.5 -89.001s-103.667 -34.667 -161 -36h-1024zM307 205.002l819 0.000976562c57.333 0 105.833 19.833 145.5 59.5s59.5 88.167 59.5 145.5s-19.833 105.666 -59.5 144.999s-88.167 59 -145.5 59h-819v-409zM307 819.003h819
c57.333 0 105.833 19.833 145.5 59.5s59.5 88.167 59.5 145.5s-19.833 105.833 -59.5 145.5s-88.167 59.5 -145.5 59.5h-819v-410z" />
    <glyph glyph-name="C" unicode="C" horiz-adv-x="1576" 
d="M82 410l0.000976562 613.999c0 54.667 10.5 106.5 31.5 155.5s50 92 87 129s80.5 66.833 130.5 89.5s103.667 34.667 161 36h614c54.667 0 106.5 -10.667 155.5 -32s92 -50.333 129 -87s66.667 -80 89 -130s34.5 -103.667 36.5 -161h-205
c0 57.333 -19.833 105.833 -59.5 145.5s-88.167 59.5 -145.5 59.5h-614c-57.333 0 -105.833 -19.833 -145.5 -59.5s-59.5 -88.167 -59.5 -145.5v-614c0 -57.333 19.833 -105.833 59.5 -145.5s88.167 -59.5 145.5 -59.5h614c57.333 0 105.833 19.833 145.5 59.5
s59.5 88.167 59.5 145.5h205c0 -54.667 -10.667 -106.667 -32 -156s-50.5 -92.666 -87.5 -129.999s-80.333 -67.333 -130 -90s-103.167 -34 -160.5 -34h-614c-54.667 0 -107 10.5 -157 31.5s-93.833 50 -131.5 87s-67.334 80.5 -89.001 130.5s-32.5 103.667 -32.5 161z" />
    <glyph glyph-name="D" unicode="D" horiz-adv-x="1617" 
d="M102 0l-0.000976562 1434h1024c54.667 0 106.667 -10.667 156 -32s92.333 -50.333 129 -87s66.334 -80 89.001 -130s34.667 -103.667 36 -161v-614c0 -54.667 -10.5 -106.667 -31.5 -156s-50 -92.666 -87 -129.999s-80.5 -67.333 -130.5 -90s-103.667 -34 -161 -34h-1024
zM306.999 204.999h819c57.333 0 105.833 19.833 145.5 59.5s59.5 88.167 59.5 145.5v614c0 57.333 -19.833 105.833 -59.5 145.5s-88.167 59.5 -145.5 59.5h-819v-1024z" />
    <glyph glyph-name="E" unicode="E" 
d="M102 0v1434h1434v-205h-1229v-410h1024v-205h-1024v-409h1229v-205h-1434z" />
    <glyph glyph-name="F" unicode="F" horiz-adv-x="1576" 
d="M102 0v1434h1434v-205h-1229v-410h1024v-205h-1024v-614h-205z" />
    <glyph glyph-name="G" unicode="G" 
d="M82 410l0.000976562 613.998c0 54.667 10.5 106.5 31.5 155.5s50 92.333 87 130s80.5 67.834 130.5 90.501s103.667 34 161 34h614c54.667 0 106.5 -10.667 155.5 -32s92 -50.333 129 -87s66.667 -80 89 -130s34.5 -103.667 36.5 -161h-205
c0 57.333 -19.833 105.833 -59.5 145.5s-88.167 59.5 -145.5 59.5h-614c-57.333 0 -105.833 -19.833 -145.5 -59.5s-59.5 -88.167 -59.5 -145.5v-614c0 -57.333 19.833 -105.833 59.5 -145.5s88.167 -59.5 145.5 -59.5h614c57.333 0 105.833 19.833 145.5 59.5
s59.5 88.167 59.5 145.5v204h-615v205h820v-409c0 -54.667 -10.667 -106.667 -32 -156s-50.5 -92.666 -87.5 -129.999s-80.333 -67.333 -130 -90s-103.167 -34 -160.5 -34h-614c-54.667 0 -107 10.5 -157 31.5s-93.833 50 -131.5 87s-67.334 80.5 -89.001 130.5
s-32.5 103.667 -32.5 161z" />
    <glyph glyph-name="H" unicode="H" horiz-adv-x="1638" 
d="M102 0v1434h205v-615h1024v615h205v-1434h-205v614h-1024v-614h-205z" />
    <glyph glyph-name="I" unicode="I" horiz-adv-x="409" 
d="M102 0v1434h205v-1434h-205z" />
    <glyph glyph-name="J" unicode="J" horiz-adv-x="1576" 
d="M41 410l205 -0.000976562c0 -57.333 19.833 -105.833 59.5 -145.5s88.167 -59.5 145.5 -59.5h614c57.333 0 105.833 19.833 145.5 59.5s59.5 88.167 59.5 145.5v1024h205v-1024c0 -54.667 -10.667 -106.667 -32 -156s-50.5 -92.666 -87.5 -129.999
s-80.333 -67.333 -130 -90s-103.167 -34 -160.5 -34h-614c-56 0 -108.667 10.5 -158 31.5s-92.333 50 -129 87s-66 80.5 -88 130.5s-33.667 103.667 -35 161z" />
    <glyph glyph-name="K" unicode="K" horiz-adv-x="1536" 
d="M102 0v1434h205v-615h326l614 615h289l-717 -717l717 -717h-289l-614 614h-326v-614h-205z" />
    <glyph glyph-name="L" unicode="L" horiz-adv-x="1536" 
d="M102 0v1434h205v-1229h1229v-205h-1434z" />
    <glyph glyph-name="M" unicode="M" horiz-adv-x="1843" 
d="M102 0v1434h205l615 -887l614 887h205v-1434h-205v1067l-614 -887l-615 887v-1067h-205z" />
    <glyph glyph-name="N" unicode="N" horiz-adv-x="1638" 
d="M102 0v1434h205l1024 -1086v1086h205v-1434h-205l-1024 1102v-1102h-205z" />
    <glyph glyph-name="O" unicode="O" 
d="M82 410l-0.000976562 614c0 56 10.833 108.833 32.5 158.5s51 93 88 130s80.5 66.5 130.5 88.5s103 33 159 33h614c54.667 0 106.5 -11 155.5 -33s92.333 -51.5 130 -88.5s67.834 -80.333 90.501 -130s34 -102.5 34 -158.5v-614c0 -56 -11 -109 -33 -159
s-51.5 -93.333 -88.5 -130s-80.333 -66 -130 -88s-102.5 -33 -158.5 -33h-614c-57.333 0 -111 10.5 -161 31.5s-93.5 50 -130.5 87s-66 80.5 -87 130.5s-31.5 103.667 -31.5 161zM286.999 410c0 -57.333 19.833 -105.833 59.5 -145.5s88.167 -59.5 145.5 -59.5h614
c57.333 0 105.833 19.833 145.5 59.5s59.5 88.167 59.5 145.5v614c0 57.333 -19.833 105.833 -59.5 145.5s-88.167 59.5 -145.5 59.5h-614c-57.333 0 -105.833 -19.833 -145.5 -59.5s-59.5 -88.167 -59.5 -145.5v-614z" />
    <glyph glyph-name="P" unicode="P" 
d="M102 0l-0.000976562 1434h1024c54.667 0 106.667 -10.667 156 -32s92.333 -50.333 129 -87s66.334 -80 89.001 -130s34.667 -103.667 36 -161v-205c0 -54.667 -10.5 -106.5 -31.5 -155.5s-50 -92.333 -87 -130s-80.5 -67.667 -130.5 -90s-103.667 -33.5 -161 -33.5h-819
v-410h-205zM306.999 614h819c57.333 0 105.833 19.833 145.5 59.5s59.5 88.167 59.5 145.5v205c0 57.333 -19.833 105.833 -59.5 145.5s-88.167 59.5 -145.5 59.5h-819v-615z" />
    <glyph glyph-name="Q" unicode="Q" 
d="M82 410v614c0 54.667 10.5 106.5 31.5 155.5s50 92.333 87 130s80.5 67.834 130.5 90.501s103.667 34 161 34h614c53.333 0 104.833 -10.667 154.5 -32s93.334 -50.333 131.001 -87s67.834 -80 90.501 -130s34 -103.667 34 -161v-614
c0 -76.667 -19.333 -146.334 -58 -209.001l58 -56v-145h-146l-55 57c-62.667 -38 -132.334 -57 -209.001 -57h-614c-54.667 0 -107 10.5 -157 31.5s-93.833 50 -131.5 87s-67.334 80.5 -89.001 130.5s-32.5 103.667 -32.5 161zM287 410
c0 -57.333 19.832 -105.833 59.499 -145.5s88.167 -59.5 145.5 -59.5h614c16.667 0 34.334 2 53.001 6l-258 258v145h146l258 -258c4 18 6 36 6 54v614c0 57.333 -19.833 105.833 -59.5 145.5s-88.167 59.5 -145.5 59.5h-614c-57.333 0 -105.833 -19.833 -145.5 -59.5
s-59.5 -88.167 -59.5 -145.5v-614z" />
    <glyph glyph-name="R" unicode="R" horiz-adv-x="1617" 
d="M102 0l0.000976562 1434h1024c53.333 0 105 -10.667 155 -32s93.667 -50.333 131 -87s67.333 -80 90 -130s34 -103.667 34 -161v-205c0 -44 -6.83301 -86 -20.5 -126s-33.167 -77.167 -58.5 -111.5s-55.333 -64.666 -90 -90.999s-73.334 -46.5 -116.001 -60.5l285 -285
v-145h-145l-410 410h-674v-410h-205zM307.001 613.999h819c57.333 0 105.833 19.833 145.5 59.5s59.5 88.167 59.5 145.5v205c0 57.333 -19.833 105.833 -59.5 145.5s-88.167 59.5 -145.5 59.5h-819v-615z" />
    <glyph glyph-name="S" unicode="S" 
d="M82 410l204.999 -0.000976562c0 -57.333 19.833 -105.833 59.5 -145.5s88.167 -59.5 145.5 -59.5h614c57.333 0 105.833 19.833 145.5 59.5s59.5 88.167 59.5 145.5s-19.833 105.666 -59.5 144.999s-88.167 59 -145.5 59h-614c-54.667 0 -107 10.667 -157 32
s-93.833 50.333 -131.5 87s-67.334 80 -89.001 130s-32.5 103.667 -32.5 161c0 54.667 10.5 106.5 31.5 155.5s50 92.333 87 130s80.5 67.834 130.5 90.501s103.667 34 161 34h614c54.667 0 106.5 -10.667 155.5 -32s92 -50.333 129 -87s66.667 -80 89 -130
s34.5 -103.667 36.5 -161h-205c0 57.333 -19.833 105.833 -59.5 145.5s-88.167 59.5 -145.5 59.5h-614c-57.333 0 -105.833 -19.833 -145.5 -59.5s-59.5 -88.167 -59.5 -145.5s19.833 -105.833 59.5 -145.5s88.167 -59.5 145.5 -59.5h614
c53.333 0 104.833 -10.5 154.5 -31.5s93.334 -50 131.001 -87s67.834 -80.333 90.501 -130s34 -103.167 34 -160.5c0 -54.667 -10.667 -106.667 -32 -156s-50.5 -92.666 -87.5 -129.999s-80.333 -67.333 -130 -90s-103.167 -34 -160.5 -34h-614
c-56 0 -108.667 10.5 -158 31.5s-92.333 50 -129 87s-66 80.5 -88 130.5s-33.667 103.667 -35 161z" />
    <glyph glyph-name="T" unicode="T" horiz-adv-x="1433" 
d="M0 1229v205h1434v-205h-615v-1229h-205v1229h-614z" />
    <glyph glyph-name="U" unicode="U" horiz-adv-x="1638" 
d="M102 410l0.00195312 1024h205v-1024c0 -57.333 19.833 -105.833 59.5 -145.5s88.167 -59.5 145.5 -59.5h614c57.333 0 105.833 19.833 145.5 59.5s59.5 88.167 59.5 145.5v1024h205v-1024c0 -54.667 -10.5 -106.667 -31.5 -156s-50 -92.666 -87 -129.999
s-80.5 -67.333 -130.5 -90s-103.667 -34 -161 -34h-614c-54.667 0 -106.834 10.5 -156.501 31.5s-93.334 50 -131.001 87s-67.5 80.5 -89.5 130.5s-33 103.667 -33 161z" />
    <glyph glyph-name="V" unicode="V" horiz-adv-x="1515" 
d="M41 1024v410h205v-361l442 -868h139l443 868v361h205v-410l-523 -1024h-389z" />
    <glyph glyph-name="W" unicode="W" horiz-adv-x="2048" 
d="M102 410l0.00195312 1024h205v-1024c0 -57.333 19.833 -105.833 59.5 -145.5s88.167 -59.5 145.5 -59.5h205c57.333 0 105.833 19.833 145.5 59.5s59.5 88.167 59.5 145.5v1024h204v-1024c0 -57.333 19.833 -105.833 59.5 -145.5s88.167 -59.5 145.5 -59.5h205
c57.333 0 105.833 19.833 145.5 59.5s59.5 88.167 59.5 145.5v1024h205v-1024c0 -54.667 -10.667 -106.667 -32 -156s-50.333 -92.666 -87 -129.999s-80 -67.333 -130 -90s-103.667 -34 -161 -34h-205c-122.667 -0 -225 46.333 -307 139
c-82 -92.667 -184.333 -139 -307 -139h-205c-54.667 0 -106.834 10.5 -156.501 31.5s-93.334 50 -131.001 87s-67.5 80.5 -89.5 130.5s-33 103.667 -33 161z" />
    <glyph glyph-name="X" unicode="X" horiz-adv-x="1556" 
d="M61 0v303l547 412l-547 411v308h205v-205l512 -385l512 385v205h205v-308l-547 -411l547 -412v-303h-205v201l-512 385l-512 -385v-201h-205z" />
    <glyph glyph-name="Y" unicode="Y" horiz-adv-x="1515" 
d="M41 1126v308h205v-224l512 -563l512 563v224h205v-308l-615 -675v-451h-205v451z" />
    <glyph glyph-name="Z" unicode="Z" horiz-adv-x="1556" 
d="M61 0v205l1137 1024h-1137v205h1434v-205l-1128 -1024h1128v-205h-1434z" />
    <glyph glyph-name="bracketleft" unicode="[" horiz-adv-x="716" 
d="M102 -205v1843h615v-204h-410v-1434h410v-205h-615z" />
    <glyph glyph-name="backslash" unicode="\" horiz-adv-x="1126" 
d="M0 1268v166h129l997 -1276v-158h-137z" />
    <glyph glyph-name="bracketright" unicode="]" horiz-adv-x="716" 
d="M0 0h410v1434h-410v204h614v-1843h-614v205z" />
    <glyph glyph-name="asciicircum" unicode="^" horiz-adv-x="901" 
d="M41 1016v51l367 367h86l366 -367v-51l-94 -94h-51l-264 264l-265 -264h-51z" />
    <glyph glyph-name="underscore" unicode="_" horiz-adv-x="1310" 
d="M41 0v205h1229v-205h-1229z" />
    <glyph glyph-name="grave" unicode="`" horiz-adv-x="409" 
d="M102 1024v410h205v-410h-205z" />
    <glyph glyph-name="a" unicode="a" horiz-adv-x="1638" 
d="M102 0l-0.000976562 1024c0 54.667 10.667 106.5 32 155.5s50.333 92.333 87 130s80 67.834 130 90.501s103.667 34 161 34h614c54.667 0 106.667 -10.667 156 -32s92.333 -50.333 129 -87s66.334 -80 89.001 -130s34.667 -103.667 36 -161v-1024h-205v410h-1024v-410
h-205zM306.999 613.999h1024v410c0 57.333 -19.833 105.833 -59.5 145.5s-88.167 59.5 -145.5 59.5h-614c-57.333 0 -105.833 -19.833 -145.5 -59.5s-59.5 -88.167 -59.5 -145.5v-410z" />
    <glyph glyph-name="b" unicode="b" horiz-adv-x="1617" 
d="M102 0v1434h1024c53.333 0 105 -10.667 155 -32s93.667 -50.333 131 -87s67.333 -80 90 -130s34 -103.667 34 -161c0 -122.667 -46.333 -225 -139 -307c92.667 -82 139 -184.333 139 -307c0 -56 -10.5 -108.333 -31.5 -157s-50 -91.334 -87 -128.001
s-80.5 -66.334 -130.5 -89.001s-103.667 -34.667 -161 -36h-1024zM307 205.002l819 0.000976562c57.333 0 105.833 19.833 145.5 59.5s59.5 88.167 59.5 145.5s-19.833 105.666 -59.5 144.999s-88.167 59 -145.5 59h-819v-409zM307 819.003h819
c57.333 0 105.833 19.833 145.5 59.5s59.5 88.167 59.5 145.5s-19.833 105.833 -59.5 145.5s-88.167 59.5 -145.5 59.5h-819v-410z" />
    <glyph glyph-name="c" unicode="c" horiz-adv-x="1576" 
d="M82 410l0.000976562 613.999c0 54.667 10.5 106.5 31.5 155.5s50 92 87 129s80.5 66.833 130.5 89.5s103.667 34.667 161 36h614c54.667 0 106.5 -10.667 155.5 -32s92 -50.333 129 -87s66.667 -80 89 -130s34.5 -103.667 36.5 -161h-205
c0 57.333 -19.833 105.833 -59.5 145.5s-88.167 59.5 -145.5 59.5h-614c-57.333 0 -105.833 -19.833 -145.5 -59.5s-59.5 -88.167 -59.5 -145.5v-614c0 -57.333 19.833 -105.833 59.5 -145.5s88.167 -59.5 145.5 -59.5h614c57.333 0 105.833 19.833 145.5 59.5
s59.5 88.167 59.5 145.5h205c0 -54.667 -10.667 -106.667 -32 -156s-50.5 -92.666 -87.5 -129.999s-80.333 -67.333 -130 -90s-103.167 -34 -160.5 -34h-614c-54.667 0 -107 10.5 -157 31.5s-93.833 50 -131.5 87s-67.334 80.5 -89.001 130.5s-32.5 103.667 -32.5 161z" />
    <glyph glyph-name="d" unicode="d" horiz-adv-x="1617" 
d="M102 0l-0.000976562 1434h1024c54.667 0 106.667 -10.667 156 -32s92.333 -50.333 129 -87s66.334 -80 89.001 -130s34.667 -103.667 36 -161v-614c0 -54.667 -10.5 -106.667 -31.5 -156s-50 -92.666 -87 -129.999s-80.5 -67.333 -130.5 -90s-103.667 -34 -161 -34h-1024
zM306.999 204.999h819c57.333 0 105.833 19.833 145.5 59.5s59.5 88.167 59.5 145.5v614c0 57.333 -19.833 105.833 -59.5 145.5s-88.167 59.5 -145.5 59.5h-819v-1024z" />
    <glyph glyph-name="e" unicode="e" 
d="M102 0v1434h1434v-205h-1229v-410h1024v-205h-1024v-409h1229v-205h-1434z" />
    <glyph glyph-name="f" unicode="f" horiz-adv-x="1576" 
d="M102 0v1434h1434v-205h-1229v-410h1024v-205h-1024v-614h-205z" />
    <glyph glyph-name="g" unicode="g" 
d="M82 410l0.000976562 613.998c0 54.667 10.5 106.5 31.5 155.5s50 92.333 87 130s80.5 67.834 130.5 90.501s103.667 34 161 34h614c54.667 0 106.5 -10.667 155.5 -32s92 -50.333 129 -87s66.667 -80 89 -130s34.5 -103.667 36.5 -161h-205
c0 57.333 -19.833 105.833 -59.5 145.5s-88.167 59.5 -145.5 59.5h-614c-57.333 0 -105.833 -19.833 -145.5 -59.5s-59.5 -88.167 -59.5 -145.5v-614c0 -57.333 19.833 -105.833 59.5 -145.5s88.167 -59.5 145.5 -59.5h614c57.333 0 105.833 19.833 145.5 59.5
s59.5 88.167 59.5 145.5v204h-615v205h820v-409c0 -54.667 -10.667 -106.667 -32 -156s-50.5 -92.666 -87.5 -129.999s-80.333 -67.333 -130 -90s-103.167 -34 -160.5 -34h-614c-54.667 0 -107 10.5 -157 31.5s-93.833 50 -131.5 87s-67.334 80.5 -89.001 130.5
s-32.5 103.667 -32.5 161z" />
    <glyph glyph-name="h" unicode="h" horiz-adv-x="1638" 
d="M102 0v1434h205v-615h1024v615h205v-1434h-205v614h-1024v-614h-205z" />
    <glyph glyph-name="i" unicode="i" horiz-adv-x="409" 
d="M102 0v1434h205v-1434h-205z" />
    <glyph glyph-name="j" unicode="j" horiz-adv-x="1576" 
d="M41 410l205 -0.000976562c0 -57.333 19.833 -105.833 59.5 -145.5s88.167 -59.5 145.5 -59.5h614c57.333 0 105.833 19.833 145.5 59.5s59.5 88.167 59.5 145.5v1024h205v-1024c0 -54.667 -10.667 -106.667 -32 -156s-50.5 -92.666 -87.5 -129.999
s-80.333 -67.333 -130 -90s-103.167 -34 -160.5 -34h-614c-56 0 -108.667 10.5 -158 31.5s-92.333 50 -129 87s-66 80.5 -88 130.5s-33.667 103.667 -35 161z" />
    <glyph glyph-name="k" unicode="k" horiz-adv-x="1536" 
d="M102 0v1434h205v-615h326l614 615h289l-717 -717l717 -717h-289l-614 614h-326v-614h-205z" />
    <glyph glyph-name="l" unicode="l" horiz-adv-x="1536" 
d="M102 0v1434h205v-1229h1229v-205h-1434z" />
    <glyph glyph-name="m" unicode="m" horiz-adv-x="1843" 
d="M102 0v1434h205l615 -887l614 887h205v-1434h-205v1067l-614 -887l-615 887v-1067h-205z" />
    <glyph glyph-name="n" unicode="n" horiz-adv-x="1638" 
d="M102 0v1434h205l1024 -1086v1086h205v-1434h-205l-1024 1102v-1102h-205z" />
    <glyph glyph-name="o" unicode="o" 
d="M82 410l-0.000976562 614c0 56 10.833 108.833 32.5 158.5s51 93 88 130s80.5 66.5 130.5 88.5s103 33 159 33h614c54.667 0 106.5 -11 155.5 -33s92.333 -51.5 130 -88.5s67.834 -80.333 90.501 -130s34 -102.5 34 -158.5v-614c0 -56 -11 -109 -33 -159
s-51.5 -93.333 -88.5 -130s-80.333 -66 -130 -88s-102.5 -33 -158.5 -33h-614c-57.333 0 -111 10.5 -161 31.5s-93.5 50 -130.5 87s-66 80.5 -87 130.5s-31.5 103.667 -31.5 161zM286.999 410c0 -57.333 19.833 -105.833 59.5 -145.5s88.167 -59.5 145.5 -59.5h614
c57.333 0 105.833 19.833 145.5 59.5s59.5 88.167 59.5 145.5v614c0 57.333 -19.833 105.833 -59.5 145.5s-88.167 59.5 -145.5 59.5h-614c-57.333 0 -105.833 -19.833 -145.5 -59.5s-59.5 -88.167 -59.5 -145.5v-614z" />
    <glyph glyph-name="p" unicode="p" 
d="M102 0l-0.000976562 1434h1024c54.667 0 106.667 -10.667 156 -32s92.333 -50.333 129 -87s66.334 -80 89.001 -130s34.667 -103.667 36 -161v-205c0 -54.667 -10.5 -106.5 -31.5 -155.5s-50 -92.333 -87 -130s-80.5 -67.667 -130.5 -90s-103.667 -33.5 -161 -33.5h-819
v-410h-205zM306.999 614h819c57.333 0 105.833 19.833 145.5 59.5s59.5 88.167 59.5 145.5v205c0 57.333 -19.833 105.833 -59.5 145.5s-88.167 59.5 -145.5 59.5h-819v-615z" />
    <glyph glyph-name="q" unicode="q" 
d="M82 410v614c0 54.667 10.5 106.5 31.5 155.5s50 92.333 87 130s80.5 67.834 130.5 90.501s103.667 34 161 34h614c53.333 0 104.833 -10.667 154.5 -32s93.334 -50.333 131.001 -87s67.834 -80 90.501 -130s34 -103.667 34 -161v-614
c0 -76.667 -19.333 -146.334 -58 -209.001l58 -56v-145h-146l-55 57c-62.667 -38 -132.334 -57 -209.001 -57h-614c-54.667 0 -107 10.5 -157 31.5s-93.833 50 -131.5 87s-67.334 80.5 -89.001 130.5s-32.5 103.667 -32.5 161zM287 410
c0 -57.333 19.832 -105.833 59.499 -145.5s88.167 -59.5 145.5 -59.5h614c16.667 0 34.334 2 53.001 6l-258 258v145h146l258 -258c4 18 6 36 6 54v614c0 57.333 -19.833 105.833 -59.5 145.5s-88.167 59.5 -145.5 59.5h-614c-57.333 0 -105.833 -19.833 -145.5 -59.5
s-59.5 -88.167 -59.5 -145.5v-614z" />
    <glyph glyph-name="r" unicode="r" horiz-adv-x="1617" 
d="M102 0l0.000976562 1434h1024c53.333 0 105 -10.667 155 -32s93.667 -50.333 131 -87s67.333 -80 90 -130s34 -103.667 34 -161v-205c0 -44 -6.83301 -86 -20.5 -126s-33.167 -77.167 -58.5 -111.5s-55.333 -64.666 -90 -90.999s-73.334 -46.5 -116.001 -60.5l285 -285
v-145h-145l-410 410h-674v-410h-205zM307.001 613.999h819c57.333 0 105.833 19.833 145.5 59.5s59.5 88.167 59.5 145.5v205c0 57.333 -19.833 105.833 -59.5 145.5s-88.167 59.5 -145.5 59.5h-819v-615z" />
    <glyph glyph-name="s" unicode="s" 
d="M82 410l204.999 -0.000976562c0 -57.333 19.833 -105.833 59.5 -145.5s88.167 -59.5 145.5 -59.5h614c57.333 0 105.833 19.833 145.5 59.5s59.5 88.167 59.5 145.5s-19.833 105.666 -59.5 144.999s-88.167 59 -145.5 59h-614c-54.667 0 -107 10.667 -157 32
s-93.833 50.333 -131.5 87s-67.334 80 -89.001 130s-32.5 103.667 -32.5 161c0 54.667 10.5 106.5 31.5 155.5s50 92.333 87 130s80.5 67.834 130.5 90.501s103.667 34 161 34h614c54.667 0 106.5 -10.667 155.5 -32s92 -50.333 129 -87s66.667 -80 89 -130
s34.5 -103.667 36.5 -161h-205c0 57.333 -19.833 105.833 -59.5 145.5s-88.167 59.5 -145.5 59.5h-614c-57.333 0 -105.833 -19.833 -145.5 -59.5s-59.5 -88.167 -59.5 -145.5s19.833 -105.833 59.5 -145.5s88.167 -59.5 145.5 -59.5h614
c53.333 0 104.833 -10.5 154.5 -31.5s93.334 -50 131.001 -87s67.834 -80.333 90.501 -130s34 -103.167 34 -160.5c0 -54.667 -10.667 -106.667 -32 -156s-50.5 -92.666 -87.5 -129.999s-80.333 -67.333 -130 -90s-103.167 -34 -160.5 -34h-614
c-56 0 -108.667 10.5 -158 31.5s-92.333 50 -129 87s-66 80.5 -88 130.5s-33.667 103.667 -35 161z" />
    <glyph glyph-name="t" unicode="t" horiz-adv-x="1433" 
d="M0 1229v205h1434v-205h-615v-1229h-205v1229h-614z" />
    <glyph glyph-name="u" unicode="u" horiz-adv-x="1638" 
d="M102 410l0.00195312 1024h205v-1024c0 -57.333 19.833 -105.833 59.5 -145.5s88.167 -59.5 145.5 -59.5h614c57.333 0 105.833 19.833 145.5 59.5s59.5 88.167 59.5 145.5v1024h205v-1024c0 -54.667 -10.5 -106.667 -31.5 -156s-50 -92.666 -87 -129.999
s-80.5 -67.333 -130.5 -90s-103.667 -34 -161 -34h-614c-54.667 0 -106.834 10.5 -156.501 31.5s-93.334 50 -131.001 87s-67.5 80.5 -89.5 130.5s-33 103.667 -33 161z" />
    <glyph glyph-name="v" unicode="v" horiz-adv-x="1515" 
d="M41 1024v410h205v-361l442 -868h139l443 868v361h205v-410l-523 -1024h-389z" />
    <glyph glyph-name="w" unicode="w" horiz-adv-x="2048" 
d="M102 410l0.00195312 1024h205v-1024c0 -57.333 19.833 -105.833 59.5 -145.5s88.167 -59.5 145.5 -59.5h205c57.333 0 105.833 19.833 145.5 59.5s59.5 88.167 59.5 145.5v1024h204v-1024c0 -57.333 19.833 -105.833 59.5 -145.5s88.167 -59.5 145.5 -59.5h205
c57.333 0 105.833 19.833 145.5 59.5s59.5 88.167 59.5 145.5v1024h205v-1024c0 -54.667 -10.667 -106.667 -32 -156s-50.333 -92.666 -87 -129.999s-80 -67.333 -130 -90s-103.667 -34 -161 -34h-205c-122.667 -0 -225 46.333 -307 139
c-82 -92.667 -184.333 -139 -307 -139h-205c-54.667 0 -106.834 10.5 -156.501 31.5s-93.334 50 -131.001 87s-67.5 80.5 -89.5 130.5s-33 103.667 -33 161z" />
    <glyph glyph-name="x" unicode="x" horiz-adv-x="1556" 
d="M61 0v303l547 412l-547 411v308h205v-205l512 -385l512 385v205h205v-308l-547 -411l547 -412v-303h-205v201l-512 385l-512 -385v-201h-205z" />
    <glyph glyph-name="y" unicode="y" horiz-adv-x="1515" 
d="M41 1126v308h205v-224l512 -563l512 563v224h205v-308l-615 -675v-451h-205v451z" />
    <glyph glyph-name="z" unicode="z" horiz-adv-x="1556" 
d="M61 0v205l1137 1024h-1137v205h1434v-205l-1128 -1024h1128v-205h-1434z" />
    <glyph glyph-name="braceleft" unicode="{" horiz-adv-x="655" 
d="M41 614l-0.000976562 205.002c57.333 0 105.833 19.833 145.5 59.5s59.5 88.167 59.5 145.5v205c0 54.667 10.5 106.5 31.5 155.5s50 92 87 129s80.333 66.667 130 89s103.167 34.166 160.5 35.499v-204c-57.333 0 -105.666 -19.833 -144.999 -59.5
s-59 -88.167 -59 -145.5v-205c0 -122.667 -46.667 -225 -140 -307c92.667 -82 139.334 -184.333 140.001 -307v-205c0 -57.333 19.667 -105.833 59 -145.5s87.666 -59.5 144.999 -59.5v-205c-54.667 0 -106.5 10.667 -155.5 32s-92.333 50.333 -130 87s-67.667 80 -90 130
s-33.5 103.667 -33.5 161v205c0 57.333 -19.833 105.666 -59.5 144.999s-88.167 59 -145.5 59z" />
    <glyph glyph-name="bar" unicode="|" horiz-adv-x="409" 
d="M102 -205v1843h205v-1843h-205z" />
    <glyph glyph-name="braceright" unicode="}" horiz-adv-x="655" 
d="M0 0c57.333 0 105.831 19.833 145.498 59.5s59.5 88.167 59.5 145.5v205c0 122.667 46.333 225 139 307c-92.667 82 -139 184.333 -139 307v205c0 57.333 -19.833 105.833 -59.5 145.5s-88.167 59.5 -145.5 59.5v204c53.333 0 104.833 -10.5 154.5 -31.5
s93.334 -50 131.001 -87s67.834 -80.333 90.501 -130s34 -103.167 34 -160.5v-205c0 -57.333 19.667 -105.833 59 -145.5s87.666 -59.5 144.999 -59.5v-205c-57.333 0 -105.666 -19.667 -144.999 -59s-59 -87.666 -59 -144.999v-205c0 -54.667 -10.667 -106.667 -32 -156
s-50.333 -92.333 -87 -129s-80 -66.334 -130 -89.001s-103.667 -34.667 -161 -36v205z" />
    <glyph glyph-name="asciitilde" unicode="~" horiz-adv-x="1208" 
d="M41 1016v51l410 410l307 -308l264 265h51l94 -95v-51l-409 -409l-307 307l-265 -264h-51z" />
    <glyph glyph-name="uni00A0" unicode="&#xa0;" horiz-adv-x="819" 
 />
    <glyph glyph-name="copyright" unicode="&#xa9;" horiz-adv-x="2007" 
d="M82 205v1024c0 56 10.833 108.833 32.5 158.5s51 93 88 130s80.5 66.333 130.5 88s103 32.5 159 32.5h1024c54.667 0 106.5 -10.833 155.5 -32.5s92.333 -51 130 -88s67.667 -80.333 90 -130s33.5 -102.5 33.5 -158.5v-1024c0 -56 -10.833 -109 -32.5 -159
s-51 -93.333 -88 -130s-80.5 -66 -130.5 -88s-102.667 -33 -158 -33h-1024c-57.333 0 -111 10.667 -161 32s-93.5 50.333 -130.5 87s-66 80 -87 130s-31.5 103.667 -31.5 161zM287 205c0 -57.333 19.833 -105.833 59.5 -145.5s88.167 -59.5 145.5 -59.5h1024
c57.333 -0 105.666 19.833 144.999 59.5s59 88.167 59 145.5v1024c0 57.333 -19.667 105.833 -59 145.5s-87.666 59.5 -144.999 59.5h-1024c-57.333 0 -105.833 -19.833 -145.5 -59.5s-59.5 -88.167 -59.5 -145.5v-1024zM494 498l0.00195312 436.003
c0 38 7.5 74.5 22.5 109.5s35.667 65.5 62 91.5s57 46.833 92 62.5s72.833 24.167 113.5 25.5h439c38 0 74.333 -7.5 109 -22.5s65.334 -35.5 92.001 -61.5s47.834 -56.833 63.501 -92.5s24.167 -73.167 25.5 -112.5h-145c0 39.333 -14.333 73 -43 101s-62.667 42 -102 42
h-439c-39.333 0 -73.333 -14 -102 -42s-43 -61.667 -43 -101v-436c0 -39.333 14.333 -73.5 43 -102.5s62.667 -43.5 102 -43.5h439c39.333 0 73.333 14.333 102 43s43 63 43 103h145c0 -38 -7.5 -74.5 -22.5 -109.5s-35.333 -65.833 -61 -92.5
s-56.334 -47.834 -92.001 -63.501s-73.834 -23.5 -114.501 -23.5h-439c-39.333 0 -76.333 7.5 -111 22.5s-65.334 35.167 -92.001 60.5s-47.834 55.666 -63.501 90.999s-23.5 73.666 -23.5 114.999z" />
    <glyph glyph-name="guillemotleft" unicode="&#xab;" horiz-adv-x="1167" 
d="M41 571v86l573 572h50l94 -94v-52l-469 -469l469 -469v-51l-94 -94h-50zM530 571v86l453 449h49l94 -94v-51l-348 -347l348 -346v-51l-94 -94h-49z" />
    <glyph glyph-name="uni00AD" unicode="&#xad;" horiz-adv-x="1003" 
d="M41 614v205h922v-205h-922z" />
    <glyph glyph-name="registered" unicode="&#xae;" horiz-adv-x="2007" 
d="M82 205v1024c0 56 10.833 108.833 32.5 158.5s51 93 88 130s80.5 66.333 130.5 88s103 32.5 159 32.5h1024c54.667 0 106.5 -10.833 155.5 -32.5s92.333 -51 130 -88s67.667 -80.333 90 -130s33.5 -102.5 33.5 -158.5v-1024c0 -56 -10.833 -109 -32.5 -159
s-51 -93.333 -88 -130s-80.5 -66 -130.5 -88s-102.667 -33 -158 -33h-1024c-57.333 0 -111 10.667 -161 32s-93.5 50.333 -130.5 87s-66 80 -87 130s-31.5 103.667 -31.5 161zM287 205c0 -57.333 19.833 -105.833 59.5 -145.5s88.167 -59.5 145.5 -59.5h1024
c57.333 -0 105.666 19.833 144.999 59.5s59 88.167 59 145.5v1024c0 57.333 -19.667 105.833 -59 145.5s-87.666 59.5 -144.999 59.5h-1024c-57.333 0 -105.833 -19.833 -145.5 -59.5s-59.5 -88.167 -59.5 -145.5v-1024zM496 207l-0.000976562 1020h725
c38 0 74.333 -7.5 109 -22.5s65.334 -35.833 92.001 -62.5s48.167 -57.5 64.5 -92.5s24.5 -72.833 24.5 -113.5v-145c0 -62.667 -18.333 -119.667 -55 -171s-85.667 -86.666 -147 -105.999l202 -203v-104h-104l-289 291h-477v-291h-145zM640.999 644.999h580
c39.333 0 73.333 14.333 102 43s43 63 43 103v145c0 39.333 -14.333 73.333 -43 102s-62.667 43 -102 43h-580v-436z" />
    <glyph glyph-name="guillemotright" unicode="&#xbb;" horiz-adv-x="1167" 
d="M41 217v51l348 346l-348 347v51l94 94h49l453 -449v-86l-453 -448h-49zM410 94v51l469 469l-469 469v52l94 94h49l573 -572v-86l-573 -571h-49z" />
    <glyph glyph-name="afii10023" unicode="&#x401;" 
d="M102 0v1434h1434v-205h-1229v-410h1024v-205h-1024v-409h1229v-205h-1434zM457 1597v205h205v-205h-205zM989 1597v205h205v-205h-205z" />
    <glyph glyph-name="afii10051" unicode="&#x402;" horiz-adv-x="1740" 
d="M0 1229v205.002h860v-205h-328v-350h758c54.667 0 107 -10.667 157 -32s93.667 -50.333 131 -87s67 -80 89 -130s33 -103.667 33 -161v-141c0 -56 -10.667 -108.333 -32 -157s-50.333 -91.334 -87 -128.001s-80 -66.334 -130 -89.001s-103.667 -34.667 -161 -36v205
c57.333 0 105.833 19.833 145.5 59.5s59.5 88.167 59.5 145.5v141c0 57.333 -19.833 105.833 -59.5 145.5s-88.167 59.5 -145.5 59.5h-758v-674h-204v1229h-328z" />
    <glyph glyph-name="afii10052" unicode="&#x403;" horiz-adv-x="1331" 
d="M102 0v1434h1229v-205h-1024v-1229h-205zM573 1546l267 328h245l-266 -328h-246z" />
    <glyph glyph-name="afii10053" unicode="&#x404;" horiz-adv-x="1576" 
d="M82 410v614.002c0 57.333 11.333 111 34 161s52.667 93.333 90 130s81 65.667 131 87s101.667 32 155 32h614c57.333 0 110.833 -11.333 160.5 -34s93 -52.834 130 -90.501s66.167 -81 87.5 -130s32 -100.833 32 -155.5h-205c0 57.333 -19.833 105.833 -59.5 145.5
s-88.167 59.5 -145.5 59.5h-614c-57.333 0 -105.833 -19.833 -145.5 -59.5s-59.5 -88.167 -59.5 -145.5v-205h614v-205h-614v-204c0 -57.333 19.833 -105.833 59.5 -145.5s88.167 -59.5 145.5 -59.5h614c57.333 0 105.833 19.833 145.5 59.5s59.5 88.167 59.5 145.5h205
c-1.33301 -57.333 -13 -111 -35 -161s-51.5 -93.5 -88.5 -130.5s-80 -66 -129 -87s-101.5 -31.5 -157.5 -31.5h-614c-57.333 0 -111 11.333 -161 34s-93.5 52.667 -130.5 90s-66 80.666 -87 129.999s-31.5 101.333 -31.5 156z" />
    <glyph glyph-name="afii10054" unicode="&#x405;" 
d="M82 410l204.999 -0.000976562c0 -57.333 19.833 -105.833 59.5 -145.5s88.167 -59.5 145.5 -59.5h614c57.333 0 105.833 19.833 145.5 59.5s59.5 88.167 59.5 145.5s-19.833 105.666 -59.5 144.999s-88.167 59 -145.5 59h-614c-54.667 0 -107 10.667 -157 32
s-93.833 50.333 -131.5 87s-67.334 80 -89.001 130s-32.5 103.667 -32.5 161c0 54.667 10.5 106.5 31.5 155.5s50 92.333 87 130s80.5 67.834 130.5 90.501s103.667 34 161 34h614c54.667 0 106.5 -10.667 155.5 -32s92 -50.333 129 -87s66.667 -80 89 -130
s34.5 -103.667 36.5 -161h-205c0 57.333 -19.833 105.833 -59.5 145.5s-88.167 59.5 -145.5 59.5h-614c-57.333 0 -105.833 -19.833 -145.5 -59.5s-59.5 -88.167 -59.5 -145.5s19.833 -105.833 59.5 -145.5s88.167 -59.5 145.5 -59.5h614
c53.333 0 104.833 -10.5 154.5 -31.5s93.334 -50 131.001 -87s67.834 -80.333 90.501 -130s34 -103.167 34 -160.5c0 -54.667 -10.667 -106.667 -32 -156s-50.5 -92.666 -87.5 -129.999s-80.333 -67.333 -130 -90s-103.167 -34 -160.5 -34h-614
c-56 0 -108.667 10.5 -158 31.5s-92.333 50 -129 87s-66 80.5 -88 130.5s-33.667 103.667 -35 161z" />
    <glyph glyph-name="afii10055" unicode="&#x406;" horiz-adv-x="409" 
d="M102 0v1434h205v-1434h-205z" />
    <glyph glyph-name="afii10056" unicode="&#x407;" horiz-adv-x="409" 
d="M-102 1556v205h204v-205h-204zM102 0v1434h205v-1434h-205zM307 1556v205h205v-205h-205z" />
    <glyph glyph-name="afii10057" unicode="&#x408;" horiz-adv-x="1576" 
d="M41 410l205 -0.000976562c0 -57.333 19.833 -105.833 59.5 -145.5s88.167 -59.5 145.5 -59.5h614c57.333 0 105.833 19.833 145.5 59.5s59.5 88.167 59.5 145.5v1024h205v-1024c0 -54.667 -10.667 -106.667 -32 -156s-50.5 -92.666 -87.5 -129.999
s-80.333 -67.333 -130 -90s-103.167 -34 -160.5 -34h-614c-56 0 -108.667 10.5 -158 31.5s-92.333 50 -129 87s-66 80.5 -88 130.5s-33.667 103.667 -35 161z" />
    <glyph glyph-name="afii10058" unicode="&#x409;" horiz-adv-x="2457" 
d="M102 0v1024c0 54.667 10.667 106.834 32 156.501s50.333 93.334 87 131.001s80 67.5 130 89.5s103.667 33 161 33h840v-512h635c54.667 0 106.5 -10.667 155.5 -32s92 -50.333 129 -87s66.667 -80 89 -130s34.166 -103.667 35.5 -161v-102
c0 -54.667 -10.5 -106.667 -31.5 -156s-50 -92.666 -87 -129.999s-80.333 -67.333 -130 -90s-103.167 -34 -160.5 -34h-840v1229h-635c-57.333 0 -105.833 -19.833 -145.5 -59.5s-59.5 -88.167 -59.5 -145.5v-1024h-205zM1352 204.997h635
c57.333 0 105.666 19.833 144.999 59.5s59 88.167 59 145.5v102c0 57.333 -19.667 105.833 -59 145.5s-87.666 59.5 -144.999 59.5h-635v-512z" />
    <glyph glyph-name="afii10059" unicode="&#x40a;" horiz-adv-x="2457" 
d="M102 0v1434h205v-533h840v533h205v-533h635c54.667 0 106.5 -10.5 155.5 -31.5s92 -50 129 -87s66.667 -80.333 89 -130s34.166 -103.167 35.5 -160.5v-82c0 -54.667 -10.5 -106.667 -31.5 -156s-50 -92.666 -87 -129.999s-80.333 -67.333 -130 -90
s-103.167 -34 -160.5 -34h-840v696h-840v-696h-205zM1352 204.999l635 0.000976562c57.333 0 105.666 19.833 144.999 59.5s59 88.167 59 145.5v82c0 57.333 -19.667 105.666 -59 144.999s-87.666 59 -144.999 59h-635v-491z" />
    <glyph glyph-name="afii10060" unicode="&#x40b;" horiz-adv-x="1761" 
d="M0 1229v205h860v-205h-328v-350h758c54.667 0 107 -10.667 157 -32s93.667 -50.333 131 -87s67 -80 89 -130s33 -103.667 33 -161v-469h-205v469c0 57.333 -19.833 105.833 -59.5 145.5s-88.167 59.5 -145.5 59.5h-758v-674h-204v1229h-328z" />
    <glyph glyph-name="afii10061" unicode="&#x40c;" horiz-adv-x="1536" 
d="M102 0v1434h205v-615h326l614 615h289l-717 -717l717 -717h-289l-614 614h-326v-614h-205zM573 1546l267 328h245l-266 -328h-246z" />
    <glyph glyph-name="afii10062" unicode="&#x40e;" horiz-adv-x="1617" 
d="M82 1024l0.00195312 409.999h205v-410c0 -57.333 19.833 -105.833 59.5 -145.5s88.167 -59.5 145.5 -59.5h819v615h205v-1024c0 -54.667 -10.667 -106.667 -32 -156s-50.5 -92.666 -87.5 -129.999s-80.333 -67.333 -130 -90s-103.167 -34 -160.5 -34h-574
c-56 0 -108.5 10.5 -157.5 31.5s-92 50 -129 87s-66.333 80.5 -88 130.5s-33.167 103.667 -34.5 161h205c0 -57.333 19.667 -105.833 59 -145.5s87.666 -59.5 144.999 -59.5h574c57.333 0 105.833 19.833 145.5 59.5s59.5 88.167 59.5 145.5v204h-819
c-54.667 0 -107 10.667 -157 32s-93.833 50.333 -131.5 87s-67.334 80 -89.001 130s-32.5 103.667 -32.5 161zM410.002 1843h204c0 -57.333 19.833 -105.833 59.5 -145.5s88.167 -59.5 145.5 -59.5s105.833 19.833 145.5 59.5s59.5 88.167 59.5 145.5h205
c0 -54.667 -10.667 -106.5 -32 -155.5s-50.333 -92.333 -87 -130s-80 -67.667 -130 -90s-103.667 -33.5 -161 -33.5c-56 0 -108.5 10.5 -157.5 31.5s-92 50 -129 87s-66.333 80.333 -88 130s-33.167 103.167 -34.5 160.5z" />
    <glyph glyph-name="afii10145" unicode="&#x40f;" horiz-adv-x="1638" 
d="M102 0v1434h205v-1229h1024v1229h205v-1434h-614v-287h-205v287h-615z" />
    <glyph glyph-name="afii10017" unicode="&#x410;" horiz-adv-x="1638" 
d="M102 0l-0.000976562 1024c0 54.667 10.667 106.5 32 155.5s50.333 92.333 87 130s80 67.834 130 90.501s103.667 34 161 34h614c54.667 0 106.667 -10.667 156 -32s92.333 -50.333 129 -87s66.334 -80 89.001 -130s34.667 -103.667 36 -161v-1024h-205v410h-1024v-410
h-205zM306.999 613.999h1024v410c0 57.333 -19.833 105.833 -59.5 145.5s-88.167 59.5 -145.5 59.5h-614c-57.333 0 -105.833 -19.833 -145.5 -59.5s-59.5 -88.167 -59.5 -145.5v-410z" />
    <glyph glyph-name="afii10018" unicode="&#x411;" 
d="M102 0l-0.000976562 1434h1229v-205h-1024v-342h819c54.667 0 106.667 -10.667 156 -32s92.333 -50.333 129 -87s66.334 -80 89.001 -130s34.667 -103.667 36 -161v-67c0 -54.667 -10.5 -106.667 -31.5 -156s-50 -92.666 -87 -129.999s-80.5 -67.333 -130.5 -90
s-103.667 -34 -161 -34h-1024zM306.999 204.999h819c57.333 0 105.833 19.833 145.5 59.5s59.5 88.167 59.5 145.5v67c0 57.333 -19.833 105.833 -59.5 145.5s-88.167 59.5 -145.5 59.5h-819v-477z" />
    <glyph glyph-name="afii10019" unicode="&#x412;" horiz-adv-x="1617" 
d="M102 0v1434h1024c53.333 0 105 -10.667 155 -32s93.667 -50.333 131 -87s67.333 -80 90 -130s34 -103.667 34 -161c0 -122.667 -46.333 -225 -139 -307c92.667 -82 139 -184.333 139 -307c0 -56 -10.5 -108.333 -31.5 -157s-50 -91.334 -87 -128.001
s-80.5 -66.334 -130.5 -89.001s-103.667 -34.667 -161 -36h-1024zM307 205.002l819 0.000976562c57.333 0 105.833 19.833 145.5 59.5s59.5 88.167 59.5 145.5s-19.833 105.666 -59.5 144.999s-88.167 59 -145.5 59h-819v-409zM307 819.003h819
c57.333 0 105.833 19.833 145.5 59.5s59.5 88.167 59.5 145.5s-19.833 105.833 -59.5 145.5s-88.167 59.5 -145.5 59.5h-819v-410z" />
    <glyph glyph-name="afii10020" unicode="&#x413;" horiz-adv-x="1331" 
d="M102 0v1434h1229v-205h-1024v-1229h-205z" />
    <glyph glyph-name="afii10021" unicode="&#x414;" horiz-adv-x="1843" 
d="M0 0v204.999h205v819c0 54.667 10.5 106.5 31.5 155.5s50 92.333 87 130s80.333 67.834 130 90.501s103.167 34 160.5 34h1024v-1229h205v-205h-1843zM410 204.999h1024v1024h-820c-57.333 0 -105.666 -19.833 -144.999 -59.5s-59 -88.167 -59 -145.5v-819z" />
    <glyph glyph-name="afii10022" unicode="&#x415;" 
d="M102 0v1434h1434v-205h-1229v-410h1024v-205h-1024v-409h1229v-205h-1434z" />
    <glyph glyph-name="afii10024" unicode="&#x416;" horiz-adv-x="1925" 
d="M41 0v322l711 393l-711 393v326h205v-205l614 -340v545h205v-545l614 340v205h205v-326l-710 -393l710 -393v-322h-205v201l-614 340v-541h-205v541l-614 -340v-201h-205z" />
    <glyph glyph-name="afii10025" unicode="&#x417;" horiz-adv-x="1576" 
d="M61 410l205 -0.000976562c0 -57.333 19.833 -105.833 59.5 -145.5s88.167 -59.5 145.5 -59.5h614c57.333 0 105.833 19.833 145.5 59.5s59.5 88.167 59.5 145.5s-19.833 105.666 -59.5 144.999s-88.167 59 -145.5 59h-409v205h409c57.333 0 105.833 19.833 145.5 59.5
s59.5 88.167 59.5 145.5s-19.833 105.833 -59.5 145.5s-88.167 59.5 -145.5 59.5h-614c-57.333 0 -105.833 -19.833 -145.5 -59.5s-59.5 -88.167 -59.5 -145.5h-205c0 54.667 10.667 106.5 32 155.5s50.5 92.333 87.5 130s80.333 67.834 130 90.501s103.167 34 160.5 34h614
c53.333 0 105 -10.667 155 -32s93.667 -50.333 131 -87s67.333 -80 90 -130s34 -103.667 34 -161c0 -122.667 -46.333 -225 -139 -307c92.667 -82 139 -184.333 139 -307c0 -54.667 -10.5 -106.667 -31.5 -156s-50 -92.666 -87 -129.999s-80.5 -67.333 -130.5 -90
s-103.667 -34 -161 -34h-614c-56 0 -108.5 10.5 -157.5 31.5s-92 50 -129 87s-66.5 80.5 -88.5 130.5s-33.667 103.667 -35 161z" />
    <glyph glyph-name="afii10026" unicode="&#x418;" horiz-adv-x="1638" 
d="M102 0v1434h205v-1137l1024 1137h205v-1434h-205v1157l-1024 -1157h-205z" />
    <glyph glyph-name="afii10027" unicode="&#x419;" horiz-adv-x="1638" 
d="M102 0v1434h205v-1137l1024 1137h205v-1434h-205v1157l-1024 -1157h-205zM410 1843h204c0 -57.333 19.833 -105.833 59.5 -145.5s88.167 -59.5 145.5 -59.5s105.833 19.833 145.5 59.5s59.5 88.167 59.5 145.5h205c0 -54.667 -10.667 -106.5 -32 -155.5
s-50.333 -92.333 -87 -130s-80 -67.667 -130 -90s-103.667 -33.5 -161 -33.5c-56 0 -108.5 10.5 -157.5 31.5s-92 50 -129 87s-66.333 80.333 -88 130s-33.167 103.167 -34.5 160.5z" />
    <glyph glyph-name="afii10028" unicode="&#x41a;" horiz-adv-x="1536" 
d="M102 0v1434h205v-615h326l614 615h289l-717 -717l717 -717h-289l-614 614h-326v-614h-205z" />
    <glyph glyph-name="afii10029" unicode="&#x41b;" horiz-adv-x="1638" 
d="M102 0v1024c0 54.667 10.667 106.5 32 155.5s50.333 92 87 129s80 66.833 130 89.5s103.667 34.667 161 36h1024v-1434h-205v1229h-819c-57.333 0 -105.833 -19.833 -145.5 -59.5s-59.5 -88.167 -59.5 -145.5v-1024h-205z" />
    <glyph glyph-name="afii10030" unicode="&#x41c;" horiz-adv-x="1843" 
d="M102 0v1434h205l615 -887l614 887h205v-1434h-205v1067l-614 -887l-615 887v-1067h-205z" />
    <glyph glyph-name="afii10031" unicode="&#x41d;" horiz-adv-x="1638" 
d="M102 0v1434h205v-615h1024v615h205v-1434h-205v614h-1024v-614h-205z" />
    <glyph glyph-name="afii10032" unicode="&#x41e;" 
d="M82 410l-0.000976562 614c0 56 10.833 108.833 32.5 158.5s51 93 88 130s80.5 66.5 130.5 88.5s103 33 159 33h614c54.667 0 106.5 -11 155.5 -33s92.333 -51.5 130 -88.5s67.834 -80.333 90.501 -130s34 -102.5 34 -158.5v-614c0 -56 -11 -109 -33 -159
s-51.5 -93.333 -88.5 -130s-80.333 -66 -130 -88s-102.5 -33 -158.5 -33h-614c-57.333 0 -111 10.5 -161 31.5s-93.5 50 -130.5 87s-66 80.5 -87 130.5s-31.5 103.667 -31.5 161zM286.999 410c0 -57.333 19.833 -105.833 59.5 -145.5s88.167 -59.5 145.5 -59.5h614
c57.333 0 105.833 19.833 145.5 59.5s59.5 88.167 59.5 145.5v614c0 57.333 -19.833 105.833 -59.5 145.5s-88.167 59.5 -145.5 59.5h-614c-57.333 0 -105.833 -19.833 -145.5 -59.5s-59.5 -88.167 -59.5 -145.5v-614z" />
    <glyph glyph-name="afii10033" unicode="&#x41f;" horiz-adv-x="1638" 
d="M102 0v1434h1434v-1434h-205v1229h-1024v-1229h-205z" />
    <glyph glyph-name="afii10034" unicode="&#x420;" 
d="M102 0l-0.000976562 1434h1024c54.667 0 106.667 -10.667 156 -32s92.333 -50.333 129 -87s66.334 -80 89.001 -130s34.667 -103.667 36 -161v-205c0 -54.667 -10.5 -106.5 -31.5 -155.5s-50 -92.333 -87 -130s-80.5 -67.667 -130.5 -90s-103.667 -33.5 -161 -33.5h-819
v-410h-205zM306.999 614h819c57.333 0 105.833 19.833 145.5 59.5s59.5 88.167 59.5 145.5v205c0 57.333 -19.833 105.833 -59.5 145.5s-88.167 59.5 -145.5 59.5h-819v-615z" />
    <glyph glyph-name="afii10035" unicode="&#x421;" horiz-adv-x="1576" 
d="M82 410l0.000976562 613.999c0 54.667 10.5 106.5 31.5 155.5s50 92 87 129s80.5 66.833 130.5 89.5s103.667 34.667 161 36h614c54.667 0 106.5 -10.667 155.5 -32s92 -50.333 129 -87s66.667 -80 89 -130s34.5 -103.667 36.5 -161h-205
c0 57.333 -19.833 105.833 -59.5 145.5s-88.167 59.5 -145.5 59.5h-614c-57.333 0 -105.833 -19.833 -145.5 -59.5s-59.5 -88.167 -59.5 -145.5v-614c0 -57.333 19.833 -105.833 59.5 -145.5s88.167 -59.5 145.5 -59.5h614c57.333 0 105.833 19.833 145.5 59.5
s59.5 88.167 59.5 145.5h205c0 -54.667 -10.667 -106.667 -32 -156s-50.5 -92.666 -87.5 -129.999s-80.333 -67.333 -130 -90s-103.167 -34 -160.5 -34h-614c-54.667 0 -107 10.5 -157 31.5s-93.833 50 -131.5 87s-67.334 80.5 -89.001 130.5s-32.5 103.667 -32.5 161z" />
    <glyph glyph-name="afii10036" unicode="&#x422;" horiz-adv-x="1433" 
d="M0 1229v205h1434v-205h-615v-1229h-205v1229h-614z" />
    <glyph glyph-name="afii10037" unicode="&#x423;" horiz-adv-x="1617" 
d="M82 1024l0.00195312 409.999h205v-410c0 -57.333 19.833 -105.833 59.5 -145.5s88.167 -59.5 145.5 -59.5h819v615h205v-1024c0 -54.667 -10.667 -106.667 -32 -156s-50.5 -92.666 -87.5 -129.999s-80.333 -67.333 -130 -90s-103.167 -34 -160.5 -34h-574
c-56 0 -108.5 10.5 -157.5 31.5s-92 50 -129 87s-66.333 80.5 -88 130.5s-33.167 103.667 -34.5 161h205c0 -57.333 19.667 -105.833 59 -145.5s87.666 -59.5 144.999 -59.5h574c57.333 0 105.833 19.833 145.5 59.5s59.5 88.167 59.5 145.5v204h-819
c-54.667 0 -107 10.667 -157 32s-93.833 50.333 -131.5 87s-67.334 80 -89.001 130s-32.5 103.667 -32.5 161z" />
    <glyph glyph-name="afii10038" unicode="&#x424;" horiz-adv-x="1761" 
d="M82 553v328c0 56 10.833 108.833 32.5 158.5s51 93 88 130s80.5 66.333 130.5 88s103 32.5 159 32.5h286v205h205v-205h287c56 0 108.833 -10.833 158.5 -32.5s93 -51 130 -88s66.333 -80.333 88 -130s32.5 -102.5 32.5 -158.5v-328c0 -56 -10.833 -109 -32.5 -159
s-51 -93.333 -88 -130s-80.333 -66 -130 -88s-102.5 -33 -158.5 -33h-287v-204h-205v204h-286c-57.333 0 -111 10.667 -161 32s-93.5 50.333 -130.5 87s-66 80 -87 130s-31.5 103.667 -31.5 161zM287 553c0 -57.333 19.833 -105.834 59.5 -145.501s88.167 -59.5 145.5 -59.5
h286v737h-286c-57.333 0 -105.833 -19.667 -145.5 -59s-59.5 -87.666 -59.5 -144.999v-328zM983 347.999l287 0.000976562c57.333 0 105.833 19.833 145.5 59.5s59.5 88.167 59.5 145.5v328c0 57.333 -19.833 105.666 -59.5 144.999s-88.167 59 -145.5 59h-287v-737z" />
    <glyph glyph-name="afii10039" unicode="&#x425;" horiz-adv-x="1556" 
d="M61 0v303l547 412l-547 411v308h205v-205l512 -385l512 385v205h205v-308l-547 -411l547 -412v-303h-205v201l-512 385l-512 -385v-201h-205z" />
    <glyph glyph-name="afii10040" unicode="&#x426;" horiz-adv-x="1761" 
d="M102 0v1434h205v-1229h1024v1229h205v-1229h205v-410h-205v205h-1434z" />
    <glyph glyph-name="afii10041" unicode="&#x427;" horiz-adv-x="1617" 
d="M82 924l0.000976562 510h205v-510c0 -57.333 19.833 -105.833 59.5 -145.5s88.167 -59.5 145.5 -59.5h819v715h205v-1434h-205v514h-819c-54.667 0 -107 10.667 -157 32s-93.833 50.333 -131.5 87s-67.334 80 -89.001 130s-32.5 103.667 -32.5 161z" />
    <glyph glyph-name="afii10042" unicode="&#x428;" horiz-adv-x="2048" 
d="M102 0v1434h205v-1229h615v1229h204v-1229h615v1229h205v-1434h-1844z" />
    <glyph glyph-name="afii10043" unicode="&#x429;" horiz-adv-x="2211" 
d="M102 0v1434h205v-1229h615v1229h204v-1229h615v1229h205v-1229h204v-410h-204v205h-1844z" />
    <glyph glyph-name="afii10044" unicode="&#x42a;" horiz-adv-x="1740" 
d="M41 1229l-0.000976562 204.999h410v-512h819c53.333 0 104.833 -10.667 154.5 -32s93.334 -50.333 131.001 -87s67.667 -80 90 -130s33.5 -103.667 33.5 -161v-102c0 -54.667 -10.5 -106.667 -31.5 -156s-50 -92.666 -87 -129.999s-80.333 -67.333 -130 -90
s-103.167 -34 -160.5 -34h-1024v1229h-205zM450.999 204.999h819c57.333 0 105.833 19.833 145.5 59.5s59.5 88.167 59.5 145.5v102c0 57.333 -19.833 105.833 -59.5 145.5s-88.167 59.5 -145.5 59.5h-819v-512z" />
    <glyph glyph-name="afii10045" unicode="&#x42b;" horiz-adv-x="2048" 
d="M102 0l-0.000976562 1434h205v-512h819c54.667 0 106.667 -10.667 156 -32s92.333 -50.333 129 -87s66.334 -80 89.001 -130s34.667 -103.667 36 -161v-102c0 -54.667 -10.5 -106.667 -31.5 -156s-50 -92.666 -87 -129.999s-80.5 -67.333 -130.5 -90
s-103.667 -34 -161 -34h-1024zM306.999 204.999h819c57.333 0 105.833 19.833 145.5 59.5s59.5 88.167 59.5 145.5v102c0 57.333 -19.833 105.833 -59.5 145.5s-88.167 59.5 -145.5 59.5h-819v-512zM1741 -0.000976562v1434h205v-1434h-205z" />
    <glyph glyph-name="afii10046" unicode="&#x42c;" 
d="M102 0l-0.000976562 1434h205v-512h819c54.667 0 106.667 -10.667 156 -32s92.333 -50.333 129 -87s66.334 -80 89.001 -130s34.667 -103.667 36 -161v-102c0 -54.667 -10.5 -106.667 -31.5 -156s-50 -92.666 -87 -129.999s-80.5 -67.333 -130.5 -90
s-103.667 -34 -161 -34h-1024zM306.999 204.999h819c57.333 0 105.833 19.833 145.5 59.5s59.5 88.167 59.5 145.5v102c0 57.333 -19.833 105.833 -59.5 145.5s-88.167 59.5 -145.5 59.5h-819v-512z" />
    <glyph glyph-name="afii10047" unicode="&#x42d;" horiz-adv-x="1576" 
d="M61 410l205 -0.00195312c0 -57.333 19.833 -105.833 59.5 -145.5s88.167 -59.5 145.5 -59.5h614c57.333 0 105.833 19.833 145.5 59.5s59.5 88.167 59.5 145.5v204h-614v205h614v205c0 57.333 -19.833 105.833 -59.5 145.5s-88.167 59.5 -145.5 59.5h-614
c-57.333 0 -105.833 -19.833 -145.5 -59.5s-59.5 -88.167 -59.5 -145.5h-205c0 54.667 10.667 106.5 32 155.5s50.5 92.333 87.5 130s80.333 67.834 130 90.501s103.167 34 160.5 34h614c53.333 0 105 -10.667 155 -32s93.667 -50.333 131 -87s67.333 -80 90 -130
s34 -103.667 34 -161v-614c0 -54.667 -10.5 -106.667 -31.5 -156s-50 -92.666 -87 -129.999s-80.5 -67.333 -130.5 -90s-103.667 -34 -161 -34h-614c-56 0 -108.5 10.5 -157.5 31.5s-92 50 -129 87s-66.5 80.5 -88.5 130.5s-33.667 103.667 -35 161z" />
    <glyph glyph-name="afii10048" unicode="&#x42e;" horiz-adv-x="2027" 
d="M102 0l-0.00195312 1434h205v-615h205v205c0 54.667 10.5 106.5 31.5 155.5s50 92.333 87 130s80.5 67.834 130.5 90.501s103.667 34 161 34h614c53.333 0 104.833 -10.667 154.5 -32s93.334 -50.333 131.001 -87s67.834 -80 90.501 -130s34 -103.667 34 -161v-614
c0 -54.667 -10.667 -106.667 -32 -156s-50.333 -92.666 -87 -129.999s-80 -67.333 -130 -90s-103.667 -34 -161 -34h-614c-54.667 0 -107 10.5 -157 31.5s-93.667 50 -131 87s-67 80.5 -89 130.5s-33 103.667 -33 161v204h-205v-614h-205zM716.998 409.998
c0 -57.333 19.833 -105.833 59.5 -145.5s88.167 -59.5 145.5 -59.5h614c57.333 0 105.833 19.833 145.5 59.5s59.5 88.167 59.5 145.5v614c0 57.333 -19.833 105.833 -59.5 145.5s-88.167 59.5 -145.5 59.5h-614c-57.333 0 -105.833 -19.833 -145.5 -59.5
s-59.5 -88.167 -59.5 -145.5v-614z" />
    <glyph glyph-name="afii10049" unicode="&#x42f;" horiz-adv-x="1638" 
d="M102 0l-0.000976562 144.998l285 285c-40.667 13.333 -78.5 32.666 -113.5 57.999s-65.167 54.833 -90.5 88.5s-45.166 71.334 -59.499 113.001s-21.5 84.834 -21.5 129.501v205c0 54.667 10.667 106.5 32 155.5s50.333 92.333 87 130s80 67.834 130 90.501
s103.667 34 161 34h1024v-1434h-205v410h-674l-409 -410h-146zM306.999 818.998c0 -57.333 19.833 -105.833 59.5 -145.5s88.167 -59.5 145.5 -59.5h819v615h-819c-57.333 0 -105.833 -19.833 -145.5 -59.5s-59.5 -88.167 -59.5 -145.5v-205z" />
    <glyph glyph-name="afii10065" unicode="&#x430;" horiz-adv-x="1638" 
d="M102 0l-0.000976562 1024c0 54.667 10.667 106.5 32 155.5s50.333 92.333 87 130s80 67.834 130 90.501s103.667 34 161 34h614c54.667 0 106.667 -10.667 156 -32s92.333 -50.333 129 -87s66.334 -80 89.001 -130s34.667 -103.667 36 -161v-1024h-205v410h-1024v-410
h-205zM306.999 613.999h1024v410c0 57.333 -19.833 105.833 -59.5 145.5s-88.167 59.5 -145.5 59.5h-614c-57.333 0 -105.833 -19.833 -145.5 -59.5s-59.5 -88.167 -59.5 -145.5v-410z" />
    <glyph glyph-name="afii10066" unicode="&#x431;" 
d="M102 0l-0.000976562 1434h1229v-205h-1024v-342h819c54.667 0 106.667 -10.667 156 -32s92.333 -50.333 129 -87s66.334 -80 89.001 -130s34.667 -103.667 36 -161v-67c0 -54.667 -10.5 -106.667 -31.5 -156s-50 -92.666 -87 -129.999s-80.5 -67.333 -130.5 -90
s-103.667 -34 -161 -34h-1024zM306.999 204.999h819c57.333 0 105.833 19.833 145.5 59.5s59.5 88.167 59.5 145.5v67c0 57.333 -19.833 105.833 -59.5 145.5s-88.167 59.5 -145.5 59.5h-819v-477z" />
    <glyph glyph-name="afii10067" unicode="&#x432;" horiz-adv-x="1617" 
d="M102 0v1434h1024c53.333 0 105 -10.667 155 -32s93.667 -50.333 131 -87s67.333 -80 90 -130s34 -103.667 34 -161c0 -122.667 -46.333 -225 -139 -307c92.667 -82 139 -184.333 139 -307c0 -56 -10.5 -108.333 -31.5 -157s-50 -91.334 -87 -128.001
s-80.5 -66.334 -130.5 -89.001s-103.667 -34.667 -161 -36h-1024zM307 205.002l819 0.000976562c57.333 0 105.833 19.833 145.5 59.5s59.5 88.167 59.5 145.5s-19.833 105.666 -59.5 144.999s-88.167 59 -145.5 59h-819v-409zM307 819.003h819
c57.333 0 105.833 19.833 145.5 59.5s59.5 88.167 59.5 145.5s-19.833 105.833 -59.5 145.5s-88.167 59.5 -145.5 59.5h-819v-410z" />
    <glyph glyph-name="afii10068" unicode="&#x433;" horiz-adv-x="1331" 
d="M102 0v1434h1229v-205h-1024v-1229h-205z" />
    <glyph glyph-name="afii10069" unicode="&#x434;" horiz-adv-x="1843" 
d="M0 0v204.999h205v819c0 54.667 10.5 106.5 31.5 155.5s50 92.333 87 130s80.333 67.834 130 90.501s103.167 34 160.5 34h1024v-1229h205v-205h-1843zM410 204.999h1024v1024h-820c-57.333 0 -105.666 -19.833 -144.999 -59.5s-59 -88.167 -59 -145.5v-819z" />
    <glyph glyph-name="afii10070" unicode="&#x435;" 
d="M102 0v1434h1434v-205h-1229v-410h1024v-205h-1024v-409h1229v-205h-1434z" />
    <glyph glyph-name="afii10072" unicode="&#x436;" horiz-adv-x="1925" 
d="M41 0v322l711 393l-711 393v326h205v-205l614 -340v545h205v-545l614 340v205h205v-326l-710 -393l710 -393v-322h-205v201l-614 340v-541h-205v541l-614 -340v-201h-205z" />
    <glyph glyph-name="afii10073" unicode="&#x437;" horiz-adv-x="1576" 
d="M61 410l205 -0.000976562c0 -57.333 19.833 -105.833 59.5 -145.5s88.167 -59.5 145.5 -59.5h614c57.333 0 105.833 19.833 145.5 59.5s59.5 88.167 59.5 145.5s-19.833 105.666 -59.5 144.999s-88.167 59 -145.5 59h-409v205h409c57.333 0 105.833 19.833 145.5 59.5
s59.5 88.167 59.5 145.5s-19.833 105.833 -59.5 145.5s-88.167 59.5 -145.5 59.5h-614c-57.333 0 -105.833 -19.833 -145.5 -59.5s-59.5 -88.167 -59.5 -145.5h-205c0 54.667 10.667 106.5 32 155.5s50.5 92.333 87.5 130s80.333 67.834 130 90.501s103.167 34 160.5 34h614
c53.333 0 105 -10.667 155 -32s93.667 -50.333 131 -87s67.333 -80 90 -130s34 -103.667 34 -161c0 -122.667 -46.333 -225 -139 -307c92.667 -82 139 -184.333 139 -307c0 -54.667 -10.5 -106.667 -31.5 -156s-50 -92.666 -87 -129.999s-80.5 -67.333 -130.5 -90
s-103.667 -34 -161 -34h-614c-56 0 -108.5 10.5 -157.5 31.5s-92 50 -129 87s-66.5 80.5 -88.5 130.5s-33.667 103.667 -35 161z" />
    <glyph glyph-name="afii10074" unicode="&#x438;" horiz-adv-x="1638" 
d="M102 0v1434h205v-1137l1024 1137h205v-1434h-205v1157l-1024 -1157h-205z" />
    <glyph glyph-name="afii10075" unicode="&#x439;" horiz-adv-x="1638" 
d="M102 0v1434h205v-1137l1024 1137h205v-1434h-205v1157l-1024 -1157h-205zM410 1843h204c0 -57.333 19.833 -105.833 59.5 -145.5s88.167 -59.5 145.5 -59.5s105.833 19.833 145.5 59.5s59.5 88.167 59.5 145.5h205c0 -54.667 -10.667 -106.5 -32 -155.5
s-50.333 -92.333 -87 -130s-80 -67.667 -130 -90s-103.667 -33.5 -161 -33.5c-56 0 -108.5 10.5 -157.5 31.5s-92 50 -129 87s-66.333 80.333 -88 130s-33.167 103.167 -34.5 160.5z" />
    <glyph glyph-name="afii10076" unicode="&#x43a;" horiz-adv-x="1536" 
d="M102 0v1434h205v-615h326l614 615h289l-717 -717l717 -717h-289l-614 614h-326v-614h-205z" />
    <glyph glyph-name="afii10077" unicode="&#x43b;" horiz-adv-x="1638" 
d="M102 0v1024c0 54.667 10.667 106.5 32 155.5s50.333 92 87 129s80 66.833 130 89.5s103.667 34.667 161 36h1024v-1434h-205v1229h-819c-57.333 0 -105.833 -19.833 -145.5 -59.5s-59.5 -88.167 -59.5 -145.5v-1024h-205z" />
    <glyph glyph-name="afii10078" unicode="&#x43c;" horiz-adv-x="1843" 
d="M102 0v1434h205l615 -887l614 887h205v-1434h-205v1067l-614 -887l-615 887v-1067h-205z" />
    <glyph glyph-name="afii10079" unicode="&#x43d;" horiz-adv-x="1638" 
d="M102 0v1434h205v-615h1024v615h205v-1434h-205v614h-1024v-614h-205z" />
    <glyph glyph-name="afii10080" unicode="&#x43e;" 
d="M82 410l-0.000976562 614c0 56 10.833 108.833 32.5 158.5s51 93 88 130s80.5 66.5 130.5 88.5s103 33 159 33h614c54.667 0 106.5 -11 155.5 -33s92.333 -51.5 130 -88.5s67.834 -80.333 90.501 -130s34 -102.5 34 -158.5v-614c0 -56 -11 -109 -33 -159
s-51.5 -93.333 -88.5 -130s-80.333 -66 -130 -88s-102.5 -33 -158.5 -33h-614c-57.333 0 -111 10.5 -161 31.5s-93.5 50 -130.5 87s-66 80.5 -87 130.5s-31.5 103.667 -31.5 161zM286.999 410c0 -57.333 19.833 -105.833 59.5 -145.5s88.167 -59.5 145.5 -59.5h614
c57.333 0 105.833 19.833 145.5 59.5s59.5 88.167 59.5 145.5v614c0 57.333 -19.833 105.833 -59.5 145.5s-88.167 59.5 -145.5 59.5h-614c-57.333 0 -105.833 -19.833 -145.5 -59.5s-59.5 -88.167 -59.5 -145.5v-614z" />
    <glyph glyph-name="afii10081" unicode="&#x43f;" horiz-adv-x="1638" 
d="M102 0v1434h1434v-1434h-205v1229h-1024v-1229h-205z" />
    <glyph glyph-name="afii10082" unicode="&#x440;" 
d="M102 0l-0.000976562 1434h1024c54.667 0 106.667 -10.667 156 -32s92.333 -50.333 129 -87s66.334 -80 89.001 -130s34.667 -103.667 36 -161v-205c0 -54.667 -10.5 -106.5 -31.5 -155.5s-50 -92.333 -87 -130s-80.5 -67.667 -130.5 -90s-103.667 -33.5 -161 -33.5h-819
v-410h-205zM306.999 614h819c57.333 0 105.833 19.833 145.5 59.5s59.5 88.167 59.5 145.5v205c0 57.333 -19.833 105.833 -59.5 145.5s-88.167 59.5 -145.5 59.5h-819v-615z" />
    <glyph glyph-name="afii10083" unicode="&#x441;" horiz-adv-x="1576" 
d="M82 410l0.000976562 613.999c0 54.667 10.5 106.5 31.5 155.5s50 92 87 129s80.5 66.833 130.5 89.5s103.667 34.667 161 36h614c54.667 0 106.5 -10.667 155.5 -32s92 -50.333 129 -87s66.667 -80 89 -130s34.5 -103.667 36.5 -161h-205
c0 57.333 -19.833 105.833 -59.5 145.5s-88.167 59.5 -145.5 59.5h-614c-57.333 0 -105.833 -19.833 -145.5 -59.5s-59.5 -88.167 -59.5 -145.5v-614c0 -57.333 19.833 -105.833 59.5 -145.5s88.167 -59.5 145.5 -59.5h614c57.333 0 105.833 19.833 145.5 59.5
s59.5 88.167 59.5 145.5h205c0 -54.667 -10.667 -106.667 -32 -156s-50.5 -92.666 -87.5 -129.999s-80.333 -67.333 -130 -90s-103.167 -34 -160.5 -34h-614c-54.667 0 -107 10.5 -157 31.5s-93.833 50 -131.5 87s-67.334 80.5 -89.001 130.5s-32.5 103.667 -32.5 161z" />
    <glyph glyph-name="afii10084" unicode="&#x442;" horiz-adv-x="1433" 
d="M0 1229v205h1434v-205h-615v-1229h-205v1229h-614z" />
    <glyph glyph-name="afii10085" unicode="&#x443;" horiz-adv-x="1617" 
d="M82 1024l0.00195312 409.999h205v-410c0 -57.333 19.833 -105.833 59.5 -145.5s88.167 -59.5 145.5 -59.5h819v615h205v-1024c0 -54.667 -10.667 -106.667 -32 -156s-50.5 -92.666 -87.5 -129.999s-80.333 -67.333 -130 -90s-103.167 -34 -160.5 -34h-574
c-56 0 -108.5 10.5 -157.5 31.5s-92 50 -129 87s-66.333 80.5 -88 130.5s-33.167 103.667 -34.5 161h205c0 -57.333 19.667 -105.833 59 -145.5s87.666 -59.5 144.999 -59.5h574c57.333 0 105.833 19.833 145.5 59.5s59.5 88.167 59.5 145.5v204h-819
c-54.667 0 -107 10.667 -157 32s-93.833 50.333 -131.5 87s-67.334 80 -89.001 130s-32.5 103.667 -32.5 161z" />
    <glyph glyph-name="afii10086" unicode="&#x444;" horiz-adv-x="1761" 
d="M82 553v328c0 56 10.833 108.833 32.5 158.5s51 93 88 130s80.5 66.333 130.5 88s103 32.5 159 32.5h286v205h205v-205h287c56 0 108.833 -10.833 158.5 -32.5s93 -51 130 -88s66.333 -80.333 88 -130s32.5 -102.5 32.5 -158.5v-328c0 -56 -10.833 -109 -32.5 -159
s-51 -93.333 -88 -130s-80.333 -66 -130 -88s-102.5 -33 -158.5 -33h-287v-204h-205v204h-286c-57.333 0 -111 10.667 -161 32s-93.5 50.333 -130.5 87s-66 80 -87 130s-31.5 103.667 -31.5 161zM287 553c0 -57.333 19.833 -105.834 59.5 -145.501s88.167 -59.5 145.5 -59.5
h286v737h-286c-57.333 0 -105.833 -19.667 -145.5 -59s-59.5 -87.666 -59.5 -144.999v-328zM983 347.999l287 0.000976562c57.333 0 105.833 19.833 145.5 59.5s59.5 88.167 59.5 145.5v328c0 57.333 -19.833 105.666 -59.5 144.999s-88.167 59 -145.5 59h-287v-737z" />
    <glyph glyph-name="afii10087" unicode="&#x445;" horiz-adv-x="1556" 
d="M61 0v303l547 412l-547 411v308h205v-205l512 -385l512 385v205h205v-308l-547 -411l547 -412v-303h-205v201l-512 385l-512 -385v-201h-205z" />
    <glyph glyph-name="afii10088" unicode="&#x446;" horiz-adv-x="1761" 
d="M102 0v1434h205v-1229h1024v1229h205v-1229h205v-410h-205v205h-1434z" />
    <glyph glyph-name="afii10089" unicode="&#x447;" horiz-adv-x="1617" 
d="M82 924l0.000976562 510h205v-510c0 -57.333 19.833 -105.833 59.5 -145.5s88.167 -59.5 145.5 -59.5h819v715h205v-1434h-205v514h-819c-54.667 0 -107 10.667 -157 32s-93.833 50.333 -131.5 87s-67.334 80 -89.001 130s-32.5 103.667 -32.5 161z" />
    <glyph glyph-name="afii10090" unicode="&#x448;" horiz-adv-x="2048" 
d="M102 0v1434h205v-1229h615v1229h204v-1229h615v1229h205v-1434h-1844z" />
    <glyph glyph-name="afii10091" unicode="&#x449;" horiz-adv-x="2211" 
d="M102 0v1434h205v-1229h615v1229h204v-1229h615v1229h205v-1229h204v-410h-204v205h-1844z" />
    <glyph glyph-name="afii10092" unicode="&#x44a;" horiz-adv-x="1740" 
d="M41 1229l-0.000976562 204.999h410v-512h819c53.333 0 104.833 -10.667 154.5 -32s93.334 -50.333 131.001 -87s67.667 -80 90 -130s33.5 -103.667 33.5 -161v-102c0 -54.667 -10.5 -106.667 -31.5 -156s-50 -92.666 -87 -129.999s-80.333 -67.333 -130 -90
s-103.167 -34 -160.5 -34h-1024v1229h-205zM450.999 204.999h819c57.333 0 105.833 19.833 145.5 59.5s59.5 88.167 59.5 145.5v102c0 57.333 -19.833 105.833 -59.5 145.5s-88.167 59.5 -145.5 59.5h-819v-512z" />
    <glyph glyph-name="afii10093" unicode="&#x44b;" horiz-adv-x="2048" 
d="M102 0l-0.000976562 1434h205v-512h819c54.667 0 106.667 -10.667 156 -32s92.333 -50.333 129 -87s66.334 -80 89.001 -130s34.667 -103.667 36 -161v-102c0 -54.667 -10.5 -106.667 -31.5 -156s-50 -92.666 -87 -129.999s-80.5 -67.333 -130.5 -90
s-103.667 -34 -161 -34h-1024zM306.999 204.999h819c57.333 0 105.833 19.833 145.5 59.5s59.5 88.167 59.5 145.5v102c0 57.333 -19.833 105.833 -59.5 145.5s-88.167 59.5 -145.5 59.5h-819v-512zM1741 -0.000976562v1434h205v-1434h-205z" />
    <glyph glyph-name="afii10094" unicode="&#x44c;" 
d="M102 0l-0.000976562 1434h205v-512h819c54.667 0 106.667 -10.667 156 -32s92.333 -50.333 129 -87s66.334 -80 89.001 -130s34.667 -103.667 36 -161v-102c0 -54.667 -10.5 -106.667 -31.5 -156s-50 -92.666 -87 -129.999s-80.5 -67.333 -130.5 -90
s-103.667 -34 -161 -34h-1024zM306.999 204.999h819c57.333 0 105.833 19.833 145.5 59.5s59.5 88.167 59.5 145.5v102c0 57.333 -19.833 105.833 -59.5 145.5s-88.167 59.5 -145.5 59.5h-819v-512z" />
    <glyph glyph-name="afii10095" unicode="&#x44d;" horiz-adv-x="1576" 
d="M61 410l205 -0.00195312c0 -57.333 19.833 -105.833 59.5 -145.5s88.167 -59.5 145.5 -59.5h614c57.333 0 105.833 19.833 145.5 59.5s59.5 88.167 59.5 145.5v204h-614v205h614v205c0 57.333 -19.833 105.833 -59.5 145.5s-88.167 59.5 -145.5 59.5h-614
c-57.333 0 -105.833 -19.833 -145.5 -59.5s-59.5 -88.167 -59.5 -145.5h-205c0 54.667 10.667 106.5 32 155.5s50.5 92.333 87.5 130s80.333 67.834 130 90.501s103.167 34 160.5 34h614c53.333 0 105 -10.667 155 -32s93.667 -50.333 131 -87s67.333 -80 90 -130
s34 -103.667 34 -161v-614c0 -54.667 -10.5 -106.667 -31.5 -156s-50 -92.666 -87 -129.999s-80.5 -67.333 -130.5 -90s-103.667 -34 -161 -34h-614c-56 0 -108.5 10.5 -157.5 31.5s-92 50 -129 87s-66.5 80.5 -88.5 130.5s-33.667 103.667 -35 161z" />
    <glyph glyph-name="afii10096" unicode="&#x44e;" horiz-adv-x="2027" 
d="M102 0l-0.00195312 1434h205v-615h205v205c0 54.667 10.5 106.5 31.5 155.5s50 92.333 87 130s80.5 67.834 130.5 90.501s103.667 34 161 34h614c53.333 0 104.833 -10.667 154.5 -32s93.334 -50.333 131.001 -87s67.834 -80 90.501 -130s34 -103.667 34 -161v-614
c0 -54.667 -10.667 -106.667 -32 -156s-50.333 -92.666 -87 -129.999s-80 -67.333 -130 -90s-103.667 -34 -161 -34h-614c-54.667 0 -107 10.5 -157 31.5s-93.667 50 -131 87s-67 80.5 -89 130.5s-33 103.667 -33 161v204h-205v-614h-205zM716.998 409.998
c0 -57.333 19.833 -105.833 59.5 -145.5s88.167 -59.5 145.5 -59.5h614c57.333 0 105.833 19.833 145.5 59.5s59.5 88.167 59.5 145.5v614c0 57.333 -19.833 105.833 -59.5 145.5s-88.167 59.5 -145.5 59.5h-614c-57.333 0 -105.833 -19.833 -145.5 -59.5
s-59.5 -88.167 -59.5 -145.5v-614z" />
    <glyph glyph-name="afii10097" unicode="&#x44f;" horiz-adv-x="1638" 
d="M102 0l-0.000976562 144.998l285 285c-40.667 13.333 -78.5 32.666 -113.5 57.999s-65.167 54.833 -90.5 88.5s-45.166 71.334 -59.499 113.001s-21.5 84.834 -21.5 129.501v205c0 54.667 10.667 106.5 32 155.5s50.333 92.333 87 130s80 67.834 130 90.501
s103.667 34 161 34h1024v-1434h-205v410h-674l-409 -410h-146zM306.999 818.998c0 -57.333 19.833 -105.833 59.5 -145.5s88.167 -59.5 145.5 -59.5h819v615h-819c-57.333 0 -105.833 -19.833 -145.5 -59.5s-59.5 -88.167 -59.5 -145.5v-205z" />
    <glyph glyph-name="afii10071" unicode="&#x451;" 
d="M102 0v1434h1434v-205h-1229v-410h1024v-205h-1024v-409h1229v-205h-1434zM457 1597v205h205v-205h-205zM989 1597v205h205v-205h-205z" />
    <glyph glyph-name="afii10099" unicode="&#x452;" horiz-adv-x="1761" 
d="M0 1229v205.002h860v-205h-328v-350h758c54.667 0 107 -10.667 157 -32s93.667 -50.333 131 -87s67 -80 89 -130s33 -103.667 33 -161v-141c0 -56 -10.667 -108.333 -32 -157s-50.333 -91.334 -87 -128.001s-80 -66.334 -130 -89.001s-103.667 -34.667 -161 -36v205
c57.333 0 105.833 19.833 145.5 59.5s59.5 88.167 59.5 145.5v141c0 57.333 -19.833 105.833 -59.5 145.5s-88.167 59.5 -145.5 59.5h-758v-674h-204v1229h-328z" />
    <glyph glyph-name="afii10100" unicode="&#x453;" horiz-adv-x="1331" 
d="M102 0v1434h1229v-205h-1024v-1229h-205zM573 1546l267 328h245l-266 -328h-246z" />
    <glyph glyph-name="afii10101" unicode="&#x454;" horiz-adv-x="1576" 
d="M82 410v614.002c0 57.333 11.333 111 34 161s52.667 93.333 90 130s81 65.667 131 87s101.667 32 155 32h614c57.333 0 110.833 -11.333 160.5 -34s93 -52.834 130 -90.501s66.167 -81 87.5 -130s32 -100.833 32 -155.5h-205c0 57.333 -19.833 105.833 -59.5 145.5
s-88.167 59.5 -145.5 59.5h-614c-57.333 0 -105.833 -19.833 -145.5 -59.5s-59.5 -88.167 -59.5 -145.5v-205h614v-205h-614v-204c0 -57.333 19.833 -105.833 59.5 -145.5s88.167 -59.5 145.5 -59.5h614c57.333 0 105.833 19.833 145.5 59.5s59.5 88.167 59.5 145.5h205
c-1.33301 -57.333 -13 -111 -35 -161s-51.5 -93.5 -88.5 -130.5s-80 -66 -129 -87s-101.5 -31.5 -157.5 -31.5h-614c-57.333 0 -111 11.333 -161 34s-93.5 52.667 -130.5 90s-66 80.666 -87 129.999s-31.5 101.333 -31.5 156z" />
    <glyph glyph-name="afii10102" unicode="&#x455;" 
d="M82 410l204.999 -0.000976562c0 -57.333 19.833 -105.833 59.5 -145.5s88.167 -59.5 145.5 -59.5h614c57.333 0 105.833 19.833 145.5 59.5s59.5 88.167 59.5 145.5s-19.833 105.666 -59.5 144.999s-88.167 59 -145.5 59h-614c-54.667 0 -107 10.667 -157 32
s-93.833 50.333 -131.5 87s-67.334 80 -89.001 130s-32.5 103.667 -32.5 161c0 54.667 10.5 106.5 31.5 155.5s50 92.333 87 130s80.5 67.834 130.5 90.501s103.667 34 161 34h614c54.667 0 106.5 -10.667 155.5 -32s92 -50.333 129 -87s66.667 -80 89 -130
s34.5 -103.667 36.5 -161h-205c0 57.333 -19.833 105.833 -59.5 145.5s-88.167 59.5 -145.5 59.5h-614c-57.333 0 -105.833 -19.833 -145.5 -59.5s-59.5 -88.167 -59.5 -145.5s19.833 -105.833 59.5 -145.5s88.167 -59.5 145.5 -59.5h614
c53.333 0 104.833 -10.5 154.5 -31.5s93.334 -50 131.001 -87s67.834 -80.333 90.501 -130s34 -103.167 34 -160.5c0 -54.667 -10.667 -106.667 -32 -156s-50.5 -92.666 -87.5 -129.999s-80.333 -67.333 -130 -90s-103.167 -34 -160.5 -34h-614
c-56 0 -108.667 10.5 -158 31.5s-92.333 50 -129 87s-66 80.5 -88 130.5s-33.667 103.667 -35 161z" />
    <glyph glyph-name="afii10103" unicode="&#x456;" horiz-adv-x="409" 
d="M102 0v1434h205v-1434h-205z" />
    <glyph glyph-name="afii10104" unicode="&#x457;" horiz-adv-x="409" 
d="M-102 1556v205h204v-205h-204zM102 0v1434h205v-1434h-205zM307 1556v205h205v-205h-205z" />
    <glyph glyph-name="afii10105" unicode="&#x458;" horiz-adv-x="1576" 
d="M41 410l205 -0.000976562c0 -57.333 19.833 -105.833 59.5 -145.5s88.167 -59.5 145.5 -59.5h614c57.333 0 105.833 19.833 145.5 59.5s59.5 88.167 59.5 145.5v1024h205v-1024c0 -54.667 -10.667 -106.667 -32 -156s-50.5 -92.666 -87.5 -129.999
s-80.333 -67.333 -130 -90s-103.167 -34 -160.5 -34h-614c-56 0 -108.667 10.5 -158 31.5s-92.333 50 -129 87s-66 80.5 -88 130.5s-33.667 103.667 -35 161z" />
    <glyph glyph-name="afii10106" unicode="&#x459;" horiz-adv-x="2457" 
d="M102 0v1024c0 54.667 10.667 106.834 32 156.501s50.333 93.334 87 131.001s80 67.5 130 89.5s103.667 33 161 33h840v-512h635c54.667 0 106.5 -10.667 155.5 -32s92 -50.333 129 -87s66.667 -80 89 -130s34.166 -103.667 35.5 -161v-102
c0 -54.667 -10.5 -106.667 -31.5 -156s-50 -92.666 -87 -129.999s-80.333 -67.333 -130 -90s-103.167 -34 -160.5 -34h-840v1229h-635c-57.333 0 -105.833 -19.833 -145.5 -59.5s-59.5 -88.167 -59.5 -145.5v-1024h-205zM1352 204.997h635
c57.333 0 105.666 19.833 144.999 59.5s59 88.167 59 145.5v102c0 57.333 -19.667 105.833 -59 145.5s-87.666 59.5 -144.999 59.5h-635v-512z" />
    <glyph glyph-name="afii10107" unicode="&#x45a;" horiz-adv-x="2457" 
d="M102 0v1434h205v-533h840v533h205v-533h635c54.667 0 106.5 -10.5 155.5 -31.5s92 -50 129 -87s66.667 -80.333 89 -130s34.166 -103.167 35.5 -160.5v-82c0 -54.667 -10.5 -106.667 -31.5 -156s-50 -92.666 -87 -129.999s-80.333 -67.333 -130 -90
s-103.167 -34 -160.5 -34h-840v696h-840v-696h-205zM1352 204.999l635 0.000976562c57.333 0 105.666 19.833 144.999 59.5s59 88.167 59 145.5v82c0 57.333 -19.667 105.666 -59 144.999s-87.666 59 -144.999 59h-635v-491z" />
    <glyph glyph-name="afii10108" unicode="&#x45b;" horiz-adv-x="1761" 
d="M0 1229v205h860v-205h-328v-350h758c54.667 0 107 -10.667 157 -32s93.667 -50.333 131 -87s67 -80 89 -130s33 -103.667 33 -161v-469h-205v469c0 57.333 -19.833 105.833 -59.5 145.5s-88.167 59.5 -145.5 59.5h-758v-674h-204v1229h-328z" />
    <glyph glyph-name="afii10109" unicode="&#x45c;" horiz-adv-x="1536" 
d="M102 0v1434h205v-615h326l614 615h289l-717 -717l717 -717h-289l-614 614h-326v-614h-205zM573 1546l267 328h245l-266 -328h-246z" />
    <glyph glyph-name="afii10110" unicode="&#x45e;" horiz-adv-x="1617" 
d="M82 1024l0.00195312 409.999h205v-410c0 -57.333 19.833 -105.833 59.5 -145.5s88.167 -59.5 145.5 -59.5h819v615h205v-1024c0 -54.667 -10.667 -106.667 -32 -156s-50.5 -92.666 -87.5 -129.999s-80.333 -67.333 -130 -90s-103.167 -34 -160.5 -34h-574
c-56 0 -108.5 10.5 -157.5 31.5s-92 50 -129 87s-66.333 80.5 -88 130.5s-33.167 103.667 -34.5 161h205c0 -57.333 19.667 -105.833 59 -145.5s87.666 -59.5 144.999 -59.5h574c57.333 0 105.833 19.833 145.5 59.5s59.5 88.167 59.5 145.5v204h-819
c-54.667 0 -107 10.667 -157 32s-93.833 50.333 -131.5 87s-67.334 80 -89.001 130s-32.5 103.667 -32.5 161zM410.002 1843h204c0 -57.333 19.833 -105.833 59.5 -145.5s88.167 -59.5 145.5 -59.5s105.833 19.833 145.5 59.5s59.5 88.167 59.5 145.5h205
c0 -54.667 -10.667 -106.5 -32 -155.5s-50.333 -92.333 -87 -130s-80 -67.667 -130 -90s-103.667 -33.5 -161 -33.5c-56 0 -108.5 10.5 -157.5 31.5s-92 50 -129 87s-66.333 80.333 -88 130s-33.167 103.167 -34.5 160.5z" />
    <glyph glyph-name="afii10193" unicode="&#x45f;" horiz-adv-x="1638" 
d="M102 0v1434h205v-1229h1024v1229h205v-1434h-614v-287h-205v287h-615z" />
    <glyph glyph-name="afii10050" unicode="&#x490;" horiz-adv-x="1331" 
d="M102 0v1434h1024v204h205v-409h-1024v-1229h-205z" />
    <glyph glyph-name="afii10098" unicode="&#x491;" horiz-adv-x="1331" 
d="M102 0v1434h1024v204h205v-409h-1024v-1229h-205z" />
    <glyph glyph-name="uni2000" unicode="&#x2000;" horiz-adv-x="937" 
 />
    <glyph glyph-name="uni2001" unicode="&#x2001;" horiz-adv-x="1874" 
 />
    <glyph glyph-name="uni2002" unicode="&#x2002;" horiz-adv-x="937" 
 />
    <glyph glyph-name="uni2003" unicode="&#x2003;" horiz-adv-x="1874" 
 />
    <glyph glyph-name="uni2004" unicode="&#x2004;" horiz-adv-x="624" 
 />
    <glyph glyph-name="uni2005" unicode="&#x2005;" horiz-adv-x="468" 
 />
    <glyph glyph-name="uni2006" unicode="&#x2006;" horiz-adv-x="312" 
 />
    <glyph glyph-name="uni2007" unicode="&#x2007;" horiz-adv-x="312" 
 />
    <glyph glyph-name="uni2008" unicode="&#x2008;" horiz-adv-x="234" 
 />
    <glyph glyph-name="uni2009" unicode="&#x2009;" horiz-adv-x="374" 
 />
    <glyph glyph-name="uni200A" unicode="&#x200a;" horiz-adv-x="104" 
 />
    <glyph glyph-name="uni2010" unicode="&#x2010;" horiz-adv-x="1003" 
d="M41 614v205h922v-205h-922z" />
    <glyph glyph-name="uni2011" unicode="&#x2011;" horiz-adv-x="1003" 
d="M41 614v205h922v-205h-922z" />
    <glyph glyph-name="figuredash" unicode="&#x2012;" horiz-adv-x="1003" 
d="M41 614v205h922v-205h-922z" />
    <glyph glyph-name="endash" unicode="&#x2013;" horiz-adv-x="1208" 
d="M41 614v205h1126v-205h-1126z" />
    <glyph glyph-name="emdash" unicode="&#x2014;" horiz-adv-x="1617" 
d="M41 614v205h1536v-205h-1536z" />
    <glyph glyph-name="quoteleft" unicode="&#x2018;" horiz-adv-x="409" 
d="M102 1024v410h205v-410h-205z" />
    <glyph glyph-name="quoteright" unicode="&#x2019;" horiz-adv-x="409" 
d="M102 1024v410h205v-410h-205z" />
    <glyph glyph-name="quotesinglbase" unicode="&#x201a;" horiz-adv-x="409" 
d="M102 205h205v-410h-205v410z" />
    <glyph glyph-name="quotedblleft" unicode="&#x201c;" horiz-adv-x="819" 
d="M102 1024v410h205v-410h-205zM512 1024v410h205v-410h-205z" />
    <glyph glyph-name="quotedblright" unicode="&#x201d;" horiz-adv-x="819" 
d="M102 1024v410h205v-410h-205zM512 1024v410h205v-410h-205z" />
    <glyph glyph-name="quotedblbase" unicode="&#x201e;" horiz-adv-x="819" 
d="M102 205h205v-410h-205v410zM512 205h205v-410h-205v410z" />
    <glyph glyph-name="bullet" unicode="&#x2022;" horiz-adv-x="901" 
d="M246 717c0 57.333 19.833 105.833 59.5 145.5s88.167 59.5 145.5 59.5s105.666 -19.833 144.999 -59.5s59 -88.167 59 -145.5s-19.667 -105.833 -59 -145.5s-87.666 -59.5 -144.999 -59.5s-105.833 19.833 -145.5 59.5s-59.5 88.167 -59.5 145.5z" />
    <glyph glyph-name="ellipsis" unicode="&#x2026;" horiz-adv-x="1228" 
d="M102 0v205h205v-205h-205zM512 0v205h205v-205h-205zM922 0v205h204v-205h-204z" />
    <glyph glyph-name="uni202F" unicode="&#x202f;" horiz-adv-x="374" 
 />
    <glyph glyph-name="guilsinglleft" unicode="&#x2039;" horiz-adv-x="798" 
d="M41 571v86l573 572h50l94 -94v-52l-469 -469l469 -469v-51l-94 -94h-50z" />
    <glyph glyph-name="guilsinglright" unicode="&#x203a;" horiz-adv-x="798" 
d="M41 94v51l469 469l-469 469v52l94 94h49l574 -572v-86l-574 -571h-49z" />
    <glyph glyph-name="uni205F" unicode="&#x205f;" horiz-adv-x="468" 
 />
    <glyph glyph-name="Euro" unicode="&#x20ac;" horiz-adv-x="1638" 
d="M0 492l0.000976562 162.997h143v123h-143v164h143v82c0 54.667 10.667 106.834 32 156.501s50.333 93.334 87 131.001s80 67.5 130 89.5s103.667 33 161 33h614c54.667 0 106.667 -10.667 156 -32s92.333 -50.333 129 -87s66.334 -80 89.001 -130
s34.667 -103.667 36 -161h-205c0 57.333 -19.833 105.833 -59.5 145.5s-88.167 59.5 -145.5 59.5h-614c-57.333 0 -105.833 -19.833 -145.5 -59.5s-59.5 -88.167 -59.5 -145.5v-82h758v-164h-758v-123h758v-163h-758v-82c0 -57.333 19.833 -105.833 59.5 -145.5
s88.167 -59.5 145.5 -59.5h614c57.333 0 105.833 19.833 145.5 59.5s59.5 88.167 59.5 145.5h205c0 -54.667 -10.667 -106.667 -32 -156s-50.333 -92.666 -87 -129.999s-80 -67.333 -130 -90s-103.667 -34 -161 -34h-614c-54.667 0 -106.834 10.5 -156.501 31.5
s-93.334 50 -131.001 87s-67.5 80.5 -89.5 130.5s-33 103.667 -33 161v82h-143z" />
    <glyph glyph-name="trademark" unicode="&#x2122;" horiz-adv-x="1640" 
d="M0 1331v103h723v-103h-309v-614h-105v614h-309zM774 717v717h103l311 -445l309 445h102v-717h-102v532l-309 -442l-311 442v-532h-103z" />
    <glyph glyph-name="uniE000" unicode="&#xe000;" horiz-adv-x="1433" 
d="M0 0v1434h1434v-1434h-1434z" />
    </font>
</defs>
</svg>
